<svg width="56" height="56" viewBox="0 0 56 56" fill="none" xmlns="http://www.w3.org/2000/svg">
<g id="677c4fce6c8a0d9347f86995_ball.svg" clip-path="url(#clip0_0_32)">
<path id="Vector" d="M55.9961 28C55.9961 12.536 43.4601 0 27.9961 0C12.5321 0 -0.00390625 12.536 -0.00390625 28C-0.00390625 43.464 12.5321 56 27.9961 56C43.4601 56 55.9961 43.464 55.9961 28Z" fill="white"/>
<path id="Vector_2" d="M51.9961 28C51.9961 14.7452 41.2509 4 27.9961 4C14.7413 4 3.99609 14.7452 3.99609 28C3.99609 41.2548 14.7413 52 27.9961 52C41.2509 52 51.9961 41.2548 51.9961 28Z" fill="#EC5998"/>
<path id="Vector_3" d="M23.7537 25.3981C23.7537 23.8301 22.482 22.5586 20.9137 22.5586C19.3454 22.5586 18.0742 23.8301 18.0742 25.3981C18.0742 26.9672 19.3451 28.2381 20.9137 28.2381C22.4823 28.2381 23.7537 26.9672 23.7537 25.3981ZM35.0783 23.1133C33.5103 23.1133 32.2389 24.3848 32.2389 25.9528C32.2389 27.5219 33.5103 28.7922 35.0783 28.7922C36.6466 28.7922 37.9181 27.5219 37.9181 25.9528C37.9181 24.3848 36.6469 23.1133 35.0783 23.1133ZM32.4993 29.1137C32.3019 28.8704 32.0224 28.5887 31.7015 28.2933C30.8453 27.1836 29.5061 26.4657 27.9963 26.4657C26.6526 26.4657 25.4447 27.0347 24.5909 27.9413C24.106 28.3633 23.6748 28.7752 23.4004 29.114L23.2167 29.3382C22.3599 30.3829 21.2934 31.6827 21.3012 33.8882C21.3088 35.9364 22.9767 37.6038 25.0191 37.6038C25.5858 37.6051 26.1452 37.4753 26.6536 37.2248C27.162 36.9742 27.6056 36.6096 27.9498 36.1593C28.2942 36.6097 28.7379 36.9744 29.2464 37.2249C29.755 37.4755 30.3145 37.6052 30.8814 37.6038C32.9229 37.6038 34.5906 35.9367 34.5984 33.8882C34.6063 31.6827 33.5395 30.3829 32.6829 29.3382L32.4993 29.1137Z" fill="#131313"/>
<path id="Vector_4" d="M28.1915 24.6545C29.9196 24.6545 31.3205 23.2536 31.3205 21.5255C31.3205 19.7974 29.9196 18.3965 28.1915 18.3965C26.4634 18.3965 25.0625 19.7974 25.0625 21.5255C25.0625 23.2536 26.4634 24.6545 28.1915 24.6545Z" fill="#131313"/>
</g>
<defs>
<clipPath id="clip0_0_32">
<rect width="56" height="56" fill="white"/>
</clipPath>
</defs>
</svg>
