<svg width="56" height="56" viewBox="0 0 56 56" fill="none" xmlns="http://www.w3.org/2000/svg">
<g id="677c4fcebfb09a8b028e9cf1_ball-3.svg" clip-path="url(#clip0_0_25)">
<path id="Vector" d="M56 28.002C56 12.538 43.464 0.00195312 28 0.00195312C12.536 0.00195312 0 12.538 0 28.002C0 43.4659 12.536 56.002 28 56.002C43.464 56.002 56 43.4659 56 28.002Z" fill="white"/>
<path id="Vector_2" d="M52 28.0019C52 14.7471 41.2548 4.00195 28 4.00195C14.7452 4.00195 4 14.7471 4 28.0019C4 41.2568 14.7452 52.0019 28 52.0019C41.2548 52.0019 52 41.2568 52 28.0019Z" fill="#EC5998"/>
<path id="Vector_3" d="M23.7537 25.4C23.7537 23.832 22.482 22.5605 20.9137 22.5605C19.3454 22.5605 18.0742 23.832 18.0742 25.4C18.0742 26.9691 19.3451 28.2401 20.9137 28.2401C22.4823 28.2401 23.7537 26.9691 23.7537 25.4ZM35.0783 23.1152C33.5103 23.1152 32.2389 24.3867 32.2389 25.9547C32.2389 27.5238 33.5103 28.7942 35.0783 28.7942C36.6466 28.7942 37.9181 27.5238 37.9181 25.9547C37.9181 24.3867 36.6469 23.1152 35.0783 23.1152ZM32.4993 29.1156C32.3019 28.8723 32.0224 28.5906 31.7015 28.2952C30.8453 27.1856 29.5061 26.4677 27.9963 26.4677C26.6526 26.4677 25.4447 27.0366 24.5909 27.9433C24.106 28.3652 23.6748 28.7771 23.4004 29.1159L23.2167 29.3402C22.3599 30.3849 21.2934 31.6846 21.3012 33.8902C21.3088 35.9384 22.9767 37.6058 25.0191 37.6058C25.5858 37.607 26.1452 37.4773 26.6536 37.2267C27.162 36.9761 27.6056 36.6115 27.9498 36.1613C28.2942 36.6116 28.7379 36.9763 29.2464 37.2269C29.755 37.4775 30.3145 37.6071 30.8814 37.6058C32.9229 37.6058 34.5906 35.9387 34.5984 33.8902C34.6063 31.6846 33.5395 30.3849 32.6829 29.3402L32.4993 29.1156Z" fill="#131313"/>
<path id="Vector_4" d="M28.1993 24.6564C29.9274 24.6564 31.3283 23.2555 31.3283 21.5274C31.3283 19.7993 29.9274 18.3984 28.1993 18.3984C26.4712 18.3984 25.0703 19.7993 25.0703 21.5274C25.0703 23.2555 26.4712 24.6564 28.1993 24.6564Z" fill="#131313"/>
</g>
<defs>
<clipPath id="clip0_0_25">
<rect width="56" height="56" fill="white"/>
</clipPath>
</defs>
</svg>
