<svg width="16" height="16" viewBox="0 0 16 16" fill="none" xmlns="http://www.w3.org/2000/svg">
<path d="M7.9987 1.33203C4.3227 1.33203 1.33203 4.3227 1.33203 7.9987C1.33203 11.6747 4.3227 14.6654 7.9987 14.6654C8.97603 14.6654 9.9727 14.418 10.96 13.9294L10.37 12.734C9.56736 13.1307 8.76936 13.332 7.9987 13.332C5.05803 13.332 2.66536 10.9394 2.66536 7.9987C2.66536 5.05803 5.05803 2.66536 7.9987 2.66536C10.9394 2.66536 13.332 5.05803 13.332 7.9987V8.66536C13.332 9.1267 13.1234 9.9987 12.332 9.9987C11.4014 9.9987 11.336 8.78603 11.332 8.66536V5.33203H9.9987V5.3487C9.42497 4.90782 8.72225 4.66772 7.9987 4.66536C6.1607 4.66536 4.66536 6.1607 4.66536 7.9987C4.66536 9.8367 6.1607 11.332 7.9987 11.332C8.96536 11.332 9.8307 10.9114 10.44 10.2514C10.7894 10.8447 11.3787 11.332 12.332 11.332C13.8474 11.332 14.6654 9.95803 14.6654 8.66536V7.9987C14.6654 4.3227 11.6747 1.33203 7.9987 1.33203ZM7.9987 9.9987C6.89603 9.9987 5.9987 9.10136 5.9987 7.9987C5.9987 6.89603 6.89603 5.9987 7.9987 5.9987C9.10136 5.9987 9.9987 6.89603 9.9987 7.9987C9.9987 9.10136 9.10136 9.9987 7.9987 9.9987Z" fill="#1A181A"/>
</svg>
