<svg width="24" height="24" viewBox="0 0 24 24" fill="none" xmlns="http://www.w3.org/2000/svg">
<path d="M22 12C22 6.47715 17.5228 2 12 2C6.47715 2 2 6.47715 2 12C2 17.5228 6.47715 22 12 22C17.5228 22 22 17.5228 22 12Z" stroke="#1A181A" stroke-width="1.5"/>
<path d="M20 5.69899C19.0653 5.76636 17.8681 6.12824 17.0379 7.20277C15.5385 9.14361 14.039 9.30556 13.0394 8.65861C11.5399 7.6882 12.8 6.11636 11.0401 5.26215C9.89313 4.70542 9.73321 3.19045 10.3716 2" stroke="#1A181A" stroke-width="1.5" stroke-linejoin="round"/>
<path d="M2 11C2.7625 11.6621 3.83046 12.2682 5.08874 12.2682C7.68843 12.2682 8.20837 12.7649 8.20837 14.7518C8.20837 16.7387 8.20837 16.7387 8.72831 18.2288C9.06651 19.1981 9.18472 20.1674 8.5106 21" stroke="#1A181A" stroke-width="1.5" stroke-linejoin="round"/>
<path d="M22 13.4523C21.1129 12.9411 20 12.7308 18.8734 13.5405C16.7177 15.0898 15.2314 13.806 14.5619 15.0889C13.5765 16.9775 17.0957 17.5711 14 22" stroke="#1A181A" stroke-width="1.5" stroke-linejoin="round"/>
<path d="M10 2.5L12 2L18.5 3.5L19 6L16 8.5H13.5L10.5 5L10 2.5Z" fill="#1A181A"/>
<path d="M22.0001 13L19.5 19.1318L15.1213 21L14.7678 19.1318L15.1213 15.2427L17 14L20.5 13L22.0001 13Z" fill="#1A181A"/>
<path d="M8.48437 20.7504L5.99993 19.3014L3.20864 16.7486L2.53735 12.0355L4.43344 12.1776L8.0985 13.5257L8.81257 15.6619L8.87263 19.3014L8.48437 20.7504Z" fill="#1A181A"/>
</svg>
