<svg width="20" height="20" viewBox="0 0 20 20" fill="none" xmlns="http://www.w3.org/2000/svg">
<path fill-rule="evenodd" clip-rule="evenodd" d="M8.89272 2.36845C9.19784 2.09714 9.59193 1.94727 10.0002 1.94727C10.4085 1.94727 10.8026 2.09714 11.1077 2.36845L14.3861 5.28262L14.5944 4.02928C14.6123 3.92133 14.6514 3.81796 14.7093 3.72509C14.7672 3.63222 14.8428 3.55166 14.9318 3.48801C15.0208 3.42437 15.1215 3.37888 15.2281 3.35415C15.3347 3.32941 15.4452 3.32592 15.5531 3.34387C15.6611 3.36182 15.7645 3.40085 15.8573 3.45875C15.9502 3.51664 16.0308 3.59226 16.0944 3.68129C16.1581 3.77032 16.2035 3.87101 16.2283 3.97762C16.253 4.08423 16.2565 4.19466 16.2386 4.30262L15.8586 6.59095L18.0544 8.54345C18.2112 8.69238 18.3039 8.89642 18.313 9.11247C18.3222 9.32852 18.247 9.53965 18.1033 9.70127C17.9596 9.86289 17.7588 9.96233 17.5431 9.9786C17.3275 9.99487 17.114 9.92669 16.9477 9.78845L16.5611 9.44512L15.9052 15.9985C15.8641 16.4099 15.6715 16.7913 15.3649 17.0686C15.0583 17.346 14.6595 17.4995 14.2461 17.4993H5.75439C5.34108 17.4993 4.94253 17.3457 4.63609 17.0683C4.32964 16.791 4.13718 16.4097 4.09606 15.9985L3.44106 9.44512L3.05356 9.78845C2.88727 9.92669 2.67377 9.99487 2.45814 9.9786C2.24251 9.96233 2.04165 9.86289 1.89799 9.70127C1.75433 9.53965 1.67912 9.32852 1.68824 9.11247C1.69737 8.89642 1.79011 8.69238 1.94689 8.54345L8.89272 2.36845Z" fill="#1A181A"/>
</svg>
