<svg width="16" height="16" viewBox="0 0 16 16" fill="none" xmlns="http://www.w3.org/2000/svg">
<path fill-rule="evenodd" clip-rule="evenodd" d="M7.5093 14.7547C7.5093 14.7547 2.66797 10.6774 2.66797 6.66536C2.66797 5.25088 3.22987 3.89432 4.23007 2.89413C5.23026 1.89393 6.58681 1.33203 8.0013 1.33203C9.41579 1.33203 10.7723 1.89393 11.7725 2.89413C12.7727 3.89432 13.3346 5.25088 13.3346 6.66536C13.3346 10.6774 8.4933 14.7547 8.4933 14.7547C8.22397 15.0027 7.78064 15 7.5093 14.7547ZM8.0013 8.9987C8.30772 8.9987 8.61114 8.93834 8.89423 8.82108C9.17732 8.70382 9.43455 8.53195 9.65122 8.31528C9.86789 8.09861 10.0398 7.84139 10.157 7.55829C10.2743 7.2752 10.3346 6.97178 10.3346 6.66536C10.3346 6.35895 10.2743 6.05553 10.157 5.77244C10.0398 5.48934 9.86789 5.23212 9.65122 5.01545C9.43455 4.79878 9.17732 4.62691 8.89423 4.50965C8.61114 4.39239 8.30772 4.33203 8.0013 4.33203C7.38246 4.33203 6.78897 4.57786 6.35139 5.01545C5.9138 5.45303 5.66797 6.04653 5.66797 6.66536C5.66797 7.2842 5.9138 7.8777 6.35139 8.31528C6.78897 8.75287 7.38246 8.9987 8.0013 8.9987Z" fill="#1A181A"/>
</svg>
