<svg width="20" height="20" viewBox="0 0 20 20" fill="none" xmlns="http://www.w3.org/2000/svg">
<path d="M7.4987 4.16602C7.94073 4.16602 8.36465 4.34161 8.67721 4.65417C8.98977 4.96673 9.16536 5.39065 9.16536 5.83268V10.8327C9.16536 13.441 7.79036 15.1602 5.2012 15.8077C5.09475 15.8352 4.98392 15.8413 4.87509 15.8258C4.76626 15.8102 4.66158 15.7733 4.56708 15.7171C4.47258 15.6609 4.39013 15.5866 4.32449 15.4984C4.25884 15.4102 4.21129 15.3099 4.18457 15.2033C4.15786 15.0967 4.15251 14.9858 4.16883 14.8771C4.18515 14.7684 4.22282 14.6639 4.27967 14.5698C4.33653 14.4758 4.41143 14.3938 4.50008 14.3288C4.58873 14.2638 4.68937 14.217 4.7962 14.191C6.65203 13.7268 7.4987 12.6685 7.4987 10.8327V9.99935H4.9987C4.57822 9.99948 4.17323 9.84068 3.86491 9.55477C3.55659 9.26886 3.36773 8.87698 3.3362 8.45768L3.33203 8.33268V5.83268C3.33203 5.39065 3.50763 4.96673 3.82019 4.65417C4.13275 4.34161 4.55667 4.16602 4.9987 4.16602H7.4987ZM14.9987 4.16602C15.4407 4.16602 15.8646 4.34161 16.1772 4.65417C16.4898 4.96673 16.6654 5.39065 16.6654 5.83268V10.8327C16.6654 13.441 15.2904 15.1602 12.7012 15.8077C12.5948 15.8352 12.4839 15.8413 12.3751 15.8258C12.2663 15.8102 12.1616 15.7733 12.0671 15.7171C11.9726 15.6609 11.8901 15.5866 11.8245 15.4984C11.7588 15.4102 11.7113 15.3099 11.6846 15.2033C11.6579 15.0967 11.6525 14.9858 11.6688 14.8771C11.6852 14.7684 11.7228 14.6639 11.7797 14.5698C11.8365 14.4758 11.9114 14.3938 12.0001 14.3288C12.0887 14.2638 12.1894 14.217 12.2962 14.191C14.152 13.7268 14.9987 12.6685 14.9987 10.8327V9.99935H12.4987C12.0782 9.99948 11.6732 9.84068 11.3649 9.55477C11.0566 9.26886 10.8677 8.87698 10.8362 8.45768L10.832 8.33268V5.83268C10.832 5.39065 11.0076 4.96673 11.3202 4.65417C11.6327 4.34161 12.0567 4.16602 12.4987 4.16602H14.9987Z" fill="white"/>
</svg>
