<svg width="24" height="24" viewBox="0 0 24 24" fill="none" xmlns="http://www.w3.org/2000/svg">
<path d="M15.3133 7.54709L20.2497 8.54318C20.3927 8.5723 20.5246 8.64077 20.6309 8.74076C20.7372 8.84076 20.8135 8.96841 20.8512 9.10937C20.889 9.25033 20.8868 9.39897 20.8447 9.53877C20.8027 9.67848 20.7226 9.80365 20.6134 9.90042L16.8364 13.2313L17.4295 18.256C17.4475 18.4007 17.4244 18.5475 17.363 18.6797C17.3016 18.8119 17.2042 18.9242 17.0821 19.0038C16.9599 19.0834 16.8178 19.1269 16.672 19.1296C16.5262 19.1323 16.3826 19.0939 16.2577 19.0189L11.9309 16.428L7.36414 18.537C6.77791 18.8073 6.13594 18.2833 6.27682 17.6502L7.37957 12.7191L3.95882 8.99914C3.51955 8.52241 3.81435 7.74731 4.45808 7.6882L9.46752 7.23122L11.9191 2.82404C11.99 2.69705 12.0952 2.59244 12.2227 2.52222C12.3501 2.45199 12.4946 2.41893 12.6398 2.42676C12.7852 2.43458 12.9254 2.48301 13.0444 2.56655C13.1635 2.65009 13.2569 2.76537 13.3137 2.89931L15.3133 7.54709Z" fill="#1A181A" stroke="#1A181A" stroke-width="1.29313" stroke-linecap="round" stroke-linejoin="round"/>
</svg>
