<svg preserveAspectRatio="none" width="100%" height="100%" overflow="visible" style="display: block;" viewBox="0 0 27.2 25.144" fill="none" xmlns="http://www.w3.org/2000/svg">
<g id="Group">
<path id="Vector" fill-rule="evenodd" clip-rule="evenodd" d="M1.944 25.144H1.712H1.48H1.256H1.024H0.8L0.68 25.032L0.568 24.92L0.456 24.8L0.344 24.688L0.224 24.576L0.112 24.456L0 24.344V24.12V23.888V23.656V23.432V23.2V22.976V22.744V22.52V22.288V22.056V21.832V21.6V21.376V21.144V20.92V20.688V20.456V20.232V20L0.112 19.888L0.224 19.776L0.344 19.656L0.456 19.544L0.568 19.432L0.68 19.32L0.8 19.2L0.912 19.088V18.856L1.024 18.744L1.144 18.632V18.4V18.176L1.256 18.056L1.368 17.944V17.72V17.488V17.256V17.032L1.48 16.92L1.6 16.8V16.576V16.344V16.12V15.888V15.656L1.712 15.544L1.824 15.432V15.2V14.976V14.744V14.52V14.288V14.056V13.832V13.6V13.376L1.944 13.256L2.056 13.144V12.92V12.688L2.168 12.576L2.28 12.456V12.232L2.4 12.12L2.512 12V11.776L2.624 11.656L2.744 11.544L2.856 11.432H3.08L3.2 11.32L3.312 11.2L3.424 11.088L3.544 10.976L3.656 10.856V10.632L3.768 10.52L3.88 10.4V10.176L4 10.056L4.112 9.944V9.72V9.488V9.256L4.224 9.144L4.344 9.032V8.8V8.576V8.344V8.12V7.888V7.656V7.432V7.2V6.976V6.744V6.52V6.288V6.056V5.832V5.6V5.376V5.144V4.92V4.688V4.456V4.232L4.456 4.12L4.568 4V3.776V3.544L4.68 3.432L4.8 3.32V3.088V2.856L4.912 2.744L5.024 2.632V2.4L5.144 2.288L5.256 2.176V1.944V1.72L5.368 1.6L5.48 1.488L5.6 1.376L5.712 1.256V1.032L5.824 0.92L5.944 0.8V0.576L6.056 0.456L6.168 0.344V0.12L6.28 0H6.512H6.744L6.856 0.12V0.344V0.576V0.8L6.968 0.92L7.08 1.032V1.256L6.968 1.376L6.856 1.488V1.72V1.944V2.176V2.4V2.632L6.744 2.744L6.624 2.856V3.088V3.32V3.544V3.776V4V4.232V4.456L6.512 4.576L6.4 4.688V4.92V5.144V5.376V5.6V5.832L6.28 5.944L6.168 6.056V6.288V6.52V6.744V6.976V7.2V7.432V7.656V7.888V8.12V8.344V8.576V8.8L6.056 8.92L5.944 9.032V9.256L6.056 9.376H6.28L6.4 9.488L6.512 9.6H6.744H6.968H7.2H7.424H7.656H7.88H8.112H8.344H8.568H8.8H9.024H9.256H9.48H9.712H9.944H10.168H10.4H10.624H10.856H11.08H11.312H11.544H11.768H12H12.224H12.456H12.68L12.8 9.488L12.912 9.376H13.144H13.368L13.48 9.256L13.6 9.144H13.824L13.944 9.032L14.056 8.92H14.28L14.4 8.8L14.512 8.688H14.744L14.856 8.576L14.968 8.456H15.2H15.424H15.656L15.768 8.344L15.88 8.232H16.112L16.224 8.12L16.344 8H16.568L16.68 7.888L16.8 7.776L16.912 7.656V7.432L17.024 7.32L17.144 7.2L17.256 7.088L17.368 6.976V6.744L17.48 6.632L17.6 6.52V6.288L17.712 6.176L17.824 6.056L17.944 5.944L18.056 5.832V5.6L18.168 5.488L18.28 5.376L18.4 5.256L18.512 5.144L18.624 5.032L18.744 4.92V4.688L18.856 4.576L18.968 4.456L19.08 4.344L19.2 4.232V4L19.312 3.888L19.424 3.776L19.544 3.656L19.656 3.544L19.768 3.432L19.88 3.32L20 3.2H20.224L20.344 3.088L20.456 2.976H20.68H20.912H21.144L21.256 2.856L21.368 2.744H21.6H21.824H22.056H22.28H22.512H22.744H22.968H23.2H23.424L23.544 2.856L23.656 2.976L23.768 3.088L23.88 3.2L24 3.32V3.544L24.112 3.656L24.224 3.776L24.344 3.888H24.568H24.8L24.912 4L25.024 4.12H25.256H25.48H25.712H25.944H26.168L26.28 4.232L26.4 4.344H26.624H26.856L26.968 4.456L27.08 4.576L27.2 4.688V4.92V5.144V5.376V5.6V5.832V6.056L27.08 6.176L26.968 6.288V6.52L26.856 6.632L26.744 6.744L26.624 6.856L26.512 6.976L26.4 7.088L26.28 7.2L26.168 7.32L26.056 7.432L25.944 7.544H25.712L25.6 7.656L25.48 7.776H25.256H25.024H24.8H24.568H24.344H24.112H23.88H23.656H23.424L23.312 7.888L23.2 8L23.08 8.12V8.344L22.968 8.456L22.856 8.576V8.8V9.032L22.744 9.144L22.624 9.256V9.488V9.72V9.944V10.176L22.512 10.288L22.4 10.4V10.632L22.28 10.744H22.056L21.944 10.856L21.824 10.976L21.712 11.088V11.32V11.544L21.6 11.656L21.48 11.776V12V12.232V12.456V12.688V12.92V13.144V13.376V13.6V13.832L21.368 13.944L21.256 14.056V14.288L21.144 14.4L21.024 14.52L20.912 14.632L20.8 14.744L20.68 14.856L20.568 14.976L20.456 15.088L20.344 15.2L20.224 15.32L20.112 15.432L20 15.544L19.88 15.656L19.768 15.776L19.656 15.888V16.12L19.544 16.232L19.424 16.344V16.576L19.312 16.688L19.2 16.8V17.032V17.256V17.488L19.08 17.6L18.968 17.72V17.944V18.176V18.4V18.632V18.856V19.088V19.32V19.544L18.856 19.656L18.744 19.776V20V20.232V20.456V20.688V20.92V21.144V21.376L18.856 21.488L18.968 21.6L19.08 21.72L19.2 21.832L19.312 21.944L19.424 22.056L19.544 22.176L19.656 22.288L19.768 22.4L19.88 22.52V22.744V22.976L19.768 23.088H19.544H19.312L19.2 23.2V23.432L19.312 23.544L19.424 23.656V23.888L19.544 24L19.656 24.12V24.344L19.544 24.456L19.424 24.576L19.312 24.688H19.08H18.856H18.624L18.512 24.8L18.4 24.92H18.168L18.056 24.8L17.944 24.688H17.712H17.48H17.256L17.144 24.576L17.024 24.456L16.912 24.344L16.8 24.232L16.68 24.12V23.888V23.656V23.432L16.568 23.32L16.456 23.2V22.976L16.344 22.856H16.112L16 22.744V22.52V22.288V22.056V21.832V21.6V21.376V21.144V20.92V20.688V20.456V20.232L15.88 20.12L15.768 20V19.776V19.544V19.32V19.088V18.856V18.632V18.4V18.176L15.656 18.056L15.544 17.944L15.424 17.832H15.2H14.968H14.744H14.512L14.4 17.72L14.28 17.6H14.056H13.824H13.6H13.368L13.256 17.488L13.144 17.376H12.912H12.68L12.568 17.256L12.456 17.144H12.224H12L11.88 17.032L11.768 16.92H11.544H11.312H11.08H10.856L10.744 16.8L10.624 16.688H10.4H10.168H9.944L9.824 16.8V17.032V17.256V17.488V17.72L9.712 17.832H9.48H9.256L9.144 17.944L9.024 18.056L8.912 17.944L8.8 17.832H8.568L8.456 17.72L8.344 17.6H8.112L8 17.488L7.88 17.376L7.768 17.256L7.656 17.144H7.424L7.312 17.032L7.2 16.92L7.08 17.032L6.968 17.144L6.856 17.256L6.744 17.376L6.624 17.488V17.72L6.512 17.832L6.4 17.944L6.28 18.056L6.168 18.176L6.056 18.288L5.944 18.4L5.824 18.52L5.712 18.632L5.6 18.744L5.48 18.856L5.368 18.976L5.256 19.088V19.32L5.144 19.432L5.024 19.544V19.776L4.912 19.888L4.8 20V20.232V20.456V20.688L4.912 20.8L5.024 20.92V21.144V21.376L5.144 21.488H5.368L5.48 21.6L5.6 21.72L5.712 21.832L5.824 21.944L5.944 22.056V22.288V22.52L5.824 22.632L5.712 22.744L5.6 22.856H5.368H5.144H4.912H4.68H4.456H4.224H4L3.88 22.744L3.768 22.632L3.656 22.52V22.288L3.544 22.176L3.424 22.056V21.832V21.6V21.376V21.144V20.92L3.312 20.8L3.2 20.688V20.456V20.232V20L3.08 19.888H2.856L2.744 20L2.624 20.12L2.512 20.232V20.456L2.4 20.576L2.28 20.688L2.168 20.8L2.056 20.92V21.144L1.944 21.256L1.824 21.376V21.6V21.832V22.056V22.288V22.52V22.744V22.976V23.2L1.944 23.32L2.056 23.432L2.168 23.544L2.28 23.656L2.4 23.776L2.512 23.888L2.624 24L2.744 24.12L2.856 24.232L2.968 24.344V24.576L2.856 24.688L2.744 24.8L2.624 24.92H2.4H2.168L2.056 25.032L1.944 25.144Z" fill="var(--fill-0, #EC5998)"/>
</g>
</svg>
