<svg preserveAspectRatio="none" width="100%" height="100%" overflow="visible" style="display: block;" viewBox="0 0 27.2 22.904" fill="none" xmlns="http://www.w3.org/2000/svg">
<g id="Group">
<path id="Vector" d="M4.776 22.904L4.704 22.88H4.648L4.576 22.904L4.52 22.856H4.424L4.344 22.832H4.296L4.224 22.856L4.168 22.904H4.072H3.968H3.864H3.768H3.664H3.56L3.512 22.856L3.44 22.832L3.36 22.808L3.312 22.856L3.256 22.808H3.16L3.08 22.832L3.008 22.856L2.928 22.832L2.856 22.808H2.752H2.656L2.6 22.752H2.504L2.424 22.728L2.352 22.704H2.248L2.2 22.656L2.144 22.6H2.048H1.944H1.848H1.744L1.664 22.576L1.616 22.528L1.568 22.48L1.512 22.424H1.464H1.416L1.36 22.376L1.312 22.328L1.264 22.272L1.216 22.224L1.16 22.176L1.136 22.096L1.112 22.024L1.064 21.968V21.872V21.768V21.664V21.568V21.464V21.368L1.112 21.312L1.064 21.264V21.16L1.008 21.112V21.008V20.912L0.96 20.856L1.008 20.808L0.96 20.76V20.656L0.984 20.584L1.008 20.504V20.4L0.936 20.376L0.856 20.352L0.784 20.328L0.704 20.304L0.656 20.248L0.632 20.176L0.552 20.152L0.584 20.072L0.608 20V19.896V19.8V19.696V19.592V19.496L0.552 19.44V19.344L0.528 19.264L0.48 19.32L0.456 19.24L0.432 19.168L0.4 19.088L0.328 19.064L0.248 19.04L0.2 18.984L0.176 18.912L0.128 18.864L0.048 18.84L0.0719999 18.76L0.152 18.736L0.0959999 18.688L0.0719999 18.608V18.56L0.128 18.504L0.176 18.456L0.2 18.384L0.248 18.328L0.224 18.256L0.152 18.232L0.176 18.152V18.104L0.128 18.056V18L0.152 17.928L0.0959999 17.872L0.048 17.824L0.128 17.8V17.752L0.0959999 17.672L0.048 17.624L0 17.576L0.0719999 17.544V17.496L0.048 17.424L0 17.368V17.272H0.048H0.0959999L0.048 17.216L0.024 17.144L0 17.064L0.048 17.016L0.024 16.944V16.888H0.128V16.84L0.0719999 16.792L0.048 16.712V16.608L0.0959999 16.56L0.152 16.512L0.224 16.488V16.432L0.2 16.36L0.152 16.312L0.0959999 16.256L0.048 16.208L0.128 16.184L0.176 16.128L0.2 16.056L0.152 16.008L0.176 15.928L0.2 15.856L0.248 15.8L0.28 15.728L0.352 15.704L0.328 15.624L0.28 15.576L0.224 15.528L0.176 15.472L0.152 15.4L0.2 15.344V15.248L0.248 15.192V15.096L0.304 15.048L0.328 14.968L0.352 14.896L0.376 14.816L0.4 14.744L0.432 14.664L0.456 14.592L0.48 14.512L0.504 14.44L0.456 14.384L0.376 14.36L0.328 14.312L0.28 14.264L0.224 14.208V14.16L0.304 14.136V14.032L0.248 13.984V13.88L0.224 13.808L0.2 13.728V13.632V13.528V13.424V13.328L0.224 13.248L0.248 13.176L0.304 13.12V13.024L0.28 12.944L0.248 12.872V12.768V12.672L0.224 12.592L0.2 12.52V12.416V12.312V12.216L0.224 12.136L0.248 12.064V11.96V11.856V11.76V11.656V11.552V11.456H0.304H0.352L0.4 11.408V11.304L0.456 11.256V11.152L0.504 11.104L0.528 11.024L0.552 10.952L0.632 10.92H0.728L0.76 10.848L0.728 10.776L0.68 10.72L0.656 10.648L0.704 10.592L0.76 10.544L0.784 10.472L0.808 10.392L0.856 10.344L0.912 10.288L0.96 10.24L1.032 10.216L1.088 10.168L1.136 10.112L1.16 10.04L1.216 9.992V9.888L1.288 9.864L1.336 9.912L1.392 9.864L1.416 9.784L1.44 9.712L1.464 9.632L1.512 9.584L1.544 9.512L1.568 9.432L1.592 9.36L1.616 9.28L1.64 9.208L1.664 9.128L1.72 9.08V8.976L1.768 8.928L1.792 8.848L1.816 8.776L1.872 8.728L1.896 8.648L1.92 8.576L1.968 8.52L1.992 8.448L2.024 8.368L2.072 8.32L2.12 8.272V8.168L2.072 8.12L2.024 8.064L1.968 8.016L1.944 7.944L1.92 7.864V7.768L1.896 7.688L1.872 7.616V7.512V7.408L1.816 7.36L1.792 7.28L1.744 7.232L1.72 7.16L1.696 7.08L1.664 7.008L1.616 6.952L1.696 6.928V6.88L1.664 6.8L1.616 6.752V6.648L1.696 6.624L1.72 6.552V6.448L1.792 6.424L1.872 6.4L1.816 6.352L1.896 6.32L1.968 6.296V6.2L1.92 6.144V6.048L1.872 5.992V5.896L1.816 5.84L1.792 5.768L1.768 5.688V5.592L1.744 5.512L1.72 5.44L1.696 5.36L1.664 5.288L1.696 5.208L1.744 5.264L1.792 5.312L1.816 5.24V5.136L1.848 5.056L1.872 4.984V4.88L1.944 4.856L1.968 4.784L1.992 4.704L2.024 4.632L2.072 4.576V4.48L2.12 4.424L2.144 4.352L2.176 4.272L2.2 4.2L2.224 4.12V4.024L2.248 3.944L2.296 3.896L2.328 3.824L2.376 3.768V3.672L2.424 3.616L2.448 3.544L2.504 3.488L2.552 3.44L2.576 3.368L2.624 3.312V3.216L2.68 3.16L2.728 3.112L2.776 3.064L2.808 2.984L2.832 2.912L2.88 2.856L2.904 2.784L2.984 2.76L3.032 2.712L3.056 2.632L3.112 2.584L3.184 2.56L3.232 2.504L3.288 2.456L3.312 2.376L3.36 2.328L3.384 2.408H3.44L3.488 2.352L3.536 2.304L3.592 2.256L3.64 2.2H3.688V2.304L3.768 2.328L3.816 2.28L3.864 2.224H3.968L4.016 2.28L4.072 2.328L4.096 2.256L4.144 2.2L4.192 2.152L4.224 2.08L4.248 2L4.272 1.928L4.296 1.848H4.344L4.4 1.896H4.448L4.472 1.824L4.496 1.744H4.552L4.6 1.8H4.648L4.704 1.744L4.776 1.72L4.824 1.776L4.88 1.824L4.928 1.776L4.976 1.72L5.056 1.744L5.104 1.8H5.152L5.184 1.72L5.208 1.648L5.256 1.592H5.304L5.384 1.624L5.408 1.544L5.456 1.496L5.536 1.472L5.56 1.544L5.608 1.592H5.664L5.688 1.52L5.736 1.472L5.784 1.416L5.864 1.448L5.912 1.496L5.992 1.52L6.064 1.496L6.144 1.472H6.24L6.296 1.52L6.344 1.568L6.392 1.624L6.448 1.672L6.52 1.648L6.568 1.592H6.624L6.696 1.624L6.752 1.672H6.848L6.928 1.696L7 1.72H7.104H7.2H7.304H7.408H7.504H7.608H7.712L7.784 1.744L7.864 1.776L7.912 1.824H8.016H8.112H8.216L8.264 1.872L8.312 1.928L8.392 1.952L8.464 1.976L8.544 2L8.592 2.048L8.648 2.104L8.696 2.152L8.744 2.2L8.792 2.256L8.848 2.304L8.92 2.328L8.976 2.376L9.024 2.432L9.096 2.456L9.152 2.504L9.2 2.56L9.28 2.584L9.304 2.656L9.328 2.736L9.376 2.784L9.424 2.832L9.48 2.888L9.504 2.96L9.552 3.008L9.608 3.064L9.656 3.112L9.704 3.16L9.728 3.24L9.76 3.312V3.416L9.784 3.488L9.808 3.568L9.856 3.616L9.912 3.672L9.936 3.744L9.984 3.792L10.032 3.848L10.056 3.92L10.112 3.976V4.072L10.16 4.12L10.208 4.176L10.264 4.224L10.184 4.248L10.136 4.2L10.112 4.272L10.16 4.328L10.184 4.4L10.24 4.456L10.312 4.48L10.264 4.528V4.632L10.312 4.68L10.24 4.704L10.208 4.784L10.264 4.832V4.936V5.032L10.312 5.088V5.184L10.288 5.264L10.264 5.336L10.24 5.416L10.184 5.464L10.16 5.536L10.136 5.616L10.112 5.688L10.056 5.744L10.008 5.792V5.896H9.96L9.88 5.872L9.856 5.944L9.808 5.992H9.76H9.704L9.68 6.072L9.608 6.048L9.576 5.968L9.528 5.92L9.48 5.968L9.424 6.016L9.376 5.968L9.352 5.896L9.304 5.84H9.248L9.224 5.92L9.152 5.896L9.128 5.816L9.072 5.768L9.048 5.688L9 5.64L8.976 5.568L8.896 5.592H8.848L8.824 5.512L8.768 5.464L8.744 5.384L8.696 5.336L8.648 5.288L8.568 5.264L8.52 5.208L8.496 5.136L8.44 5.088L8.368 5.056L8.288 5.032L8.24 4.984L8.192 4.936L8.16 4.856L8.088 4.88L8.016 4.904L7.96 4.856L7.936 4.784L7.888 4.728L7.864 4.656L7.808 4.608L7.76 4.552L7.712 4.504L7.656 4.456L7.584 4.424L7.504 4.4L7.456 4.352L7.384 4.376V4.48L7.304 4.504L7.256 4.456L7.2 4.504L7.152 4.552L7.128 4.48L7.048 4.456L7.024 4.528L6.976 4.576L6.928 4.632V4.728L6.896 4.808L6.848 4.752L6.8 4.704L6.776 4.784V4.88L6.752 4.96H6.648L6.6 4.904L6.544 4.96L6.52 5.032V5.136V5.24V5.336V5.44V5.536V5.64V5.744L6.544 5.816L6.568 5.896L6.6 5.968L6.624 6.048L6.672 6.096L6.72 6.144L6.776 6.2L6.824 6.248L6.872 6.296L6.952 6.32L7 6.376H7.104L7.152 6.424L7.2 6.472L7.256 6.424L7.304 6.376L7.384 6.4L7.432 6.448L7.504 6.472H7.608L7.656 6.528L7.712 6.576L7.76 6.528L7.832 6.552L7.912 6.576L7.96 6.624H8.064L8.136 6.6L8.216 6.576H8.312L8.368 6.624L8.44 6.6L8.52 6.576L8.568 6.528H8.672H8.768L8.824 6.576H8.92H9.024H9.128L9.176 6.624H9.28H9.376H9.48L9.528 6.576H9.632H9.728L9.808 6.6L9.88 6.624L9.96 6.6L10.032 6.576L10.112 6.6L10.184 6.624L10.264 6.648L10.336 6.68H10.44L10.488 6.728L10.568 6.704L10.64 6.68L10.72 6.704L10.792 6.728H10.896L10.968 6.752L11.048 6.776H11.144L11.224 6.8L11.296 6.832H11.4L11.472 6.856L11.552 6.88H11.656L11.728 6.904L11.8 6.928H11.904H12.008L12.056 6.984H12.16H12.256H12.36H12.464H12.56H12.664H12.768H12.864H12.968L13.04 6.952L13.12 6.928H13.216H13.32L13.4 6.952L13.472 6.984H13.576L13.648 6.952L13.728 6.928H13.824H13.928H14.032H14.128H14.232H14.328L14.384 6.984L14.456 6.952L14.536 6.928L14.584 6.984H14.688H14.784H14.888L14.936 6.928L14.992 6.88L15.04 6.832L15.112 6.8L15.168 6.752L15.192 6.68L15.24 6.624L15.296 6.576L15.32 6.504V6.4L15.296 6.32L15.264 6.248L15.32 6.2L15.296 6.12L15.264 6.048L15.32 5.992L15.264 5.944L15.216 5.896V5.792L15.264 5.744L15.32 5.688L15.24 5.664L15.192 5.616H15.088L15.064 5.536V5.44L15.088 5.36L15.144 5.312L15.168 5.24L15.192 5.16L15.216 5.088L15.264 5.032L15.216 4.984L15.264 4.936L15.24 4.856H15.144L15.088 4.808L15.016 4.784V4.68L14.936 4.656L14.912 4.576L14.96 4.528L15.016 4.48L14.936 4.456L14.912 4.376L14.96 4.328L15.04 4.304L15.088 4.248L15.168 4.224L15.112 4.176L15.192 4.152H15.296V4.096V4.048V4L15.264 3.92V3.824V3.72V3.616V3.52L15.216 3.464V3.368V3.264V3.16L15.24 3.088L15.264 3.008L15.296 2.936L15.32 2.856L15.368 2.808L15.416 2.76L15.448 2.68L15.496 2.632L15.568 2.608L15.624 2.56L15.672 2.504L15.72 2.456L15.776 2.408L15.824 2.352V2.256L15.896 2.224L15.976 2.2V2.104L15.928 2.048L15.976 2L16.048 1.976H16.152H16.256L16.328 1.952V1.848L16.408 1.824L16.456 1.776H16.56L16.608 1.72H16.712L16.76 1.672L16.784 1.592L16.856 1.568L16.888 1.496L16.912 1.416L16.936 1.344L17.008 1.32H17.112L17.16 1.264L17.216 1.216L17.264 1.168L17.336 1.144V1.04L17.416 1.016L17.488 1.04L17.568 1.064L17.64 1.04L17.696 0.992L17.72 0.912L17.744 0.84L17.768 0.76L17.848 0.784L17.92 0.816L17.944 0.736L17.896 0.688L17.968 0.664L18.024 0.712L18.096 0.736L18.176 0.76L18.248 0.784L18.328 0.816H18.424H18.528L18.576 0.864L18.632 0.912L18.68 0.968L18.704 0.888H18.752H18.808L18.752 0.84L18.784 0.76H18.88H18.984H19.088L19.112 0.688L19.088 0.608V0.56L19.136 0.512H19.232L19.312 0.48L19.384 0.456H19.488H19.592L19.616 0.384L19.688 0.36V0.304V0.256H19.792H19.896L19.968 0.232L19.896 0.208V0.152H19.992H20.096L20.144 0.104H20.248H20.352L20.424 0.0799999L20.376 0.032L20.448 0H20.552H20.648H20.752L20.8 0.0559998H20.904H21.008L21.08 0.032L21.16 0L21.232 0.032L21.312 0.0559998L21.384 0.032L21.464 0L21.512 0.0559998L21.584 0.032L21.664 0L21.712 0.0559998H21.816L21.864 0.104L21.944 0.128H21.992L22.064 0.104L22.12 0.152L22.192 0.128H22.248L22.32 0.152L22.392 0.184L22.448 0.232H22.496L22.576 0.208L22.624 0.256L22.672 0.304H22.776L22.824 0.36H22.928L22.976 0.408L23.056 0.432L23.104 0.48L23.152 0.536L23.208 0.584L23.232 0.664L23.256 0.736L23.304 0.784H23.36L23.432 0.76L23.48 0.816L23.56 0.84L23.632 0.864L23.688 0.912L23.76 0.936H23.808L23.76 0.888L23.84 0.864L23.888 0.912L23.936 0.968L24.016 0.992L24.064 1.04L24.112 1.088L24.168 1.144L24.216 1.192L24.264 1.24L24.32 1.296L24.368 1.344L24.416 1.392L24.496 1.416L24.544 1.472L24.592 1.52L24.648 1.568L24.696 1.624L24.744 1.568L24.8 1.624L24.824 1.696L24.872 1.744L24.92 1.8V1.896L25 1.928L25.048 1.976L25.104 1.928L25.152 1.976L25.2 2.024L25.224 2.104L25.304 2.128L25.352 2.176L25.4 2.128L25.456 2.08L25.504 2.128L25.584 2.152L25.608 2.224H25.704L25.736 2.304L25.76 2.376L25.832 2.408L25.784 2.456L25.856 2.48L25.936 2.504L25.96 2.584L25.984 2.656L25.936 2.712L25.984 2.76L25.96 2.832L25.912 2.888V2.936L25.96 2.888H26.064L26.112 2.936L26.184 2.96L26.16 3.04L26.136 3.112L26.216 3.136L26.264 3.088L26.288 3.16L26.264 3.24L26.216 3.288L26.16 3.344V3.392H26.264V3.44L26.24 3.52L26.184 3.568H26.24H26.288L26.336 3.616L26.288 3.672L26.368 3.696V3.744L26.312 3.792L26.24 3.824L26.16 3.848L26.112 3.896L26.032 3.92L25.96 3.944L25.912 4L25.856 4.048L25.808 4.096L25.76 4.152L25.736 4.224V4.328L25.76 4.4L25.784 4.48L25.832 4.528L25.888 4.576L25.912 4.656L25.936 4.728L25.888 4.784L25.936 4.832L25.888 4.88V4.984V5.088V5.184L25.832 5.24V5.336V5.44V5.536L25.856 5.616L25.888 5.688L25.96 5.72L26.008 5.768L26.088 5.792H26.136L26.216 5.768L26.288 5.792L26.368 5.816L26.416 5.872L26.488 5.896L26.568 5.92L26.616 5.968L26.696 5.992L26.72 6.072L26.792 6.096L26.848 6.144L26.792 6.2L26.872 6.224L26.944 6.248L27 6.296L26.944 6.352L27.024 6.376L27.048 6.448L27 6.504V6.6V6.704L27.072 6.728L27.096 6.8V6.904L27.176 6.928L27.2 7.008V7.104V7.208L27.152 7.256L27.12 7.336L27.096 7.408V7.512V7.616L27.152 7.664L27.176 7.736V7.792H27.072L27.048 7.864V7.968L27 8.016L26.968 8.096L26.896 8.12V8.216L26.848 8.272L26.816 8.344L26.768 8.296L26.696 8.32V8.424H26.64H26.592L26.64 8.472L26.616 8.544L26.568 8.6L26.488 8.576L26.416 8.544V8.6L26.44 8.672H26.392L26.312 8.648L26.288 8.728V8.824L26.24 8.88L26.216 8.952L26.184 9.024L26.136 9.08V9.176L26.064 9.208L26.032 9.28L26.008 9.36H25.912L25.888 9.432L25.856 9.512L25.784 9.536L25.736 9.584L25.704 9.656H25.608L25.584 9.736H25.528H25.48L25.456 9.808H25.352L25.304 9.864H25.2L25.176 9.936L25.128 9.992H25.072H25.024L24.952 10.016L24.896 10.064L24.848 10.112L24.768 10.144L24.72 10.192H24.672H24.624L24.568 10.24L24.496 10.264L24.416 10.288L24.344 10.32L24.264 10.344L24.192 10.368L24.136 10.416L24.088 10.472L24.04 10.416L23.96 10.44L23.912 10.496L23.84 10.52H23.736L23.688 10.568H23.584V10.624L23.656 10.648L23.608 10.696L23.632 10.776L23.656 10.848V10.952V11.048V11.152L23.688 11.224L23.712 11.304L23.76 11.352L23.784 11.432L23.808 11.504L23.84 11.584L23.864 11.656L23.888 11.736L23.912 11.808V11.912L23.936 11.984V12.04L23.864 12.064L23.84 12.136L23.784 12.184L23.712 12.16L23.632 12.136L23.608 12.216V12.312L23.584 12.392L23.56 12.464L23.608 12.52V12.616L23.656 12.672L23.632 12.744H23.536L23.512 12.816L23.536 12.896L23.56 12.968V13.072L23.536 13.152H23.432L23.408 13.224V13.328V13.424L23.36 13.48V13.576V13.68V13.784V13.88L23.304 13.936V14.032L23.256 14.08V14.184L23.176 14.208L23.152 14.288L23.104 14.336V14.44L23.08 14.512L23.056 14.592V14.688L23.024 14.768L23 14.84L22.976 14.92L22.928 14.968L22.848 14.992L22.824 15.072H22.728L22.696 15.144L22.624 15.168L22.6 15.248V15.344L22.576 15.424L22.544 15.496L22.496 15.552L22.424 15.576L22.368 15.624L22.296 15.648V15.752L22.272 15.824L22.248 15.904L22.192 15.952L22.216 16.032L22.248 16.104V16.208L22.296 16.256L22.272 16.336L22.192 16.36L22.248 16.408V16.512L22.296 16.56V16.664L22.216 16.688L22.192 16.76L22.168 16.84L22.144 16.912V17.016L22.192 17.064V17.168L22.216 17.24L22.248 17.32L22.272 17.392L22.296 17.472L22.344 17.52L22.368 17.6L22.392 17.672L22.424 17.752L22.448 17.824V17.928L22.392 17.976V18.08L22.424 18.152L22.448 18.232L22.392 18.28V18.384V18.48V18.584L22.424 18.656L22.448 18.736L22.472 18.808L22.496 18.888L22.544 18.936L22.52 19.016L22.448 19.04L22.496 19.088L22.52 19.168L22.544 19.24V19.344V19.44V19.544V19.648V19.744V19.848V19.952V20.048L22.6 20.104L22.624 20.176L22.672 20.224L22.752 20.248L22.8 20.304L22.88 20.328L22.928 20.376L23 20.4L23.056 20.456L23.104 20.504L23.152 20.552L23.208 20.608L23.256 20.656L23.328 20.68L23.384 20.736L23.456 20.76L23.512 20.808L23.56 20.856L23.584 20.936L23.608 21.008L23.656 21.064L23.688 21.136L23.712 21.216L23.76 21.264L23.784 21.336L23.808 21.416L23.864 21.464L23.912 21.512V21.616V21.72V21.816L23.888 21.896L23.84 21.944L23.784 21.992H23.688H23.584H23.48L23.432 22.048L23.384 22.096L23.328 22.144H23.232H23.128H23.024L22.952 22.12L22.88 22.096L22.8 22.072L22.728 22.048L22.648 22.072L22.6 22.12L22.52 22.144L22.472 22.2H22.368H22.272L22.192 22.176L22.12 22.144H22.016H21.912H21.816H21.712L21.664 22.2H21.56L21.488 22.224L21.408 22.248L21.336 22.224L21.256 22.2H21.16L21.08 22.176L21.008 22.144L20.952 22.096L20.88 22.12L20.8 22.144H20.704H20.6L20.552 22.096L20.496 22.144H20.4L20.32 22.12L20.248 22.096H20.144H20.048H19.944H19.84L19.792 22.144H19.688H19.592L19.512 22.12L19.44 22.096L19.384 22.048L19.336 21.992L19.288 21.944H19.184L19.136 21.896L19.088 21.848L19.032 21.792L18.984 21.744L18.96 21.664L18.904 21.616L18.88 21.544L18.856 21.464L18.808 21.416V21.312V21.216L18.856 21.16V21.064V20.96V20.856V20.76L18.832 20.68L18.808 20.608L18.752 20.552V20.456V20.352V20.248V20.152V20.048L18.808 20L18.784 19.92L18.704 19.896L18.632 19.872L18.552 19.848L18.48 19.824L18.456 19.744L18.376 19.72L18.352 19.648V19.544L18.328 19.472L18.272 19.416L18.224 19.368L18.176 19.32L18.12 19.264H18.024L18 19.192L17.944 19.136L17.872 19.112L17.824 19.168L17.768 19.112L17.72 19.064L17.672 19.016L17.616 18.96H17.52L17.464 18.912L17.416 18.864H17.312L17.264 18.912L17.192 18.888L17.136 18.84L17.064 18.808L16.984 18.84L16.936 18.888L16.856 18.912L16.784 18.888L16.712 18.864L16.656 18.912H16.56L16.504 18.96L16.432 18.984L16.376 19.04V19.136L16.408 19.216L16.432 19.288L16.48 19.344L16.504 19.416L16.528 19.496L16.456 19.52L16.408 19.472V19.52L16.456 19.568L16.504 19.616L16.528 19.696L16.504 19.768V19.824L16.528 19.896V20L16.48 20.048V20.152V20.248V20.352L16.528 20.4V20.504L16.56 20.584L16.608 20.632L16.656 20.68L16.712 20.736L16.76 20.784L16.832 20.808L16.912 20.832L16.96 20.88L17.008 20.936L17.064 20.984L17.112 21.032L17.16 21.088L17.216 21.136L17.288 21.16L17.368 21.184L17.416 21.24L17.464 21.288L17.52 21.336L17.544 21.416L17.592 21.464L17.616 21.544L17.64 21.616L17.696 21.664L17.72 21.744L17.744 21.816L17.792 21.872L17.824 21.944L17.848 22.024L17.896 22.072V22.176V22.272L17.872 22.352L17.824 22.4L17.768 22.448H17.672H17.568L17.488 22.48L17.416 22.504L17.368 22.552L17.312 22.6L17.264 22.656H17.16H17.064L17.008 22.6H16.912L16.832 22.576L16.76 22.552L16.68 22.528H16.632L16.584 22.576L16.528 22.624L16.456 22.656H16.352H16.256H16.152L16.08 22.624L16 22.6L15.952 22.656L15.896 22.6L15.848 22.656H15.744H15.648L15.568 22.68L15.496 22.704H15.392H15.296H15.192L15.144 22.656H15.04L14.992 22.6L14.912 22.576H14.864L14.784 22.6L14.736 22.656L14.664 22.624L14.584 22.6H14.48H14.384H14.28L14.232 22.552H14.128H14.032L13.976 22.6H13.88H13.776H13.672H13.576H13.472L13.424 22.552L13.368 22.504L13.296 22.48L13.248 22.424L13.168 22.4L13.12 22.352L13.04 22.328L12.992 22.272L12.944 22.224L12.92 22.144L12.864 22.096L12.84 22.024L12.816 21.944L12.792 21.872V21.768V21.664L12.84 21.616V21.512V21.416V21.312L12.816 21.24L12.792 21.16L12.768 21.088L12.736 21.008V20.912V20.808V20.704V20.608V20.504L12.792 20.456L12.736 20.4L12.664 20.376L12.584 20.352L12.512 20.328L12.432 20.304L12.384 20.248L12.36 20.176L12.336 20.104V20L12.384 19.952L12.336 19.896L12.36 19.824L12.384 19.744V19.648V19.544L12.36 19.472L12.288 19.44L12.312 19.368L12.336 19.288L12.256 19.264L12.208 19.32L12.184 19.24V19.136L12.136 19.088L12.056 19.064L12.008 19.016L11.952 18.96L11.928 18.888L11.856 18.864L11.776 18.84L11.8 18.76L11.88 18.736L11.832 18.688L11.8 18.608V18.56L11.856 18.504L11.904 18.456L11.952 18.408L11.984 18.328L11.952 18.256L11.88 18.232L11.904 18.152V18.104L11.832 18.08L11.752 18.056H11.656H11.552L11.472 18.08L11.4 18.104L11.376 18.176L11.296 18.208L11.248 18.152L11.2 18.104L11.144 18.056L11.096 18L11.024 18.024L10.968 18.08L10.92 18.128L10.872 18.176L10.792 18.208L10.768 18.128L10.72 18.08L10.688 18L10.664 17.928L10.616 17.872H10.568L10.512 17.928L10.44 17.952L10.392 17.904L10.336 17.848H10.24L10.184 17.904L10.16 17.976V18.08L10.208 18.128V18.232V18.328V18.432L10.288 18.456L10.336 18.504L10.392 18.56L10.416 18.632L10.36 18.688L10.336 18.76L10.312 18.84V18.936V19.04V19.136V19.24V19.344L10.36 19.392V19.496L10.416 19.544V19.648L10.464 19.696V19.8L10.512 19.848V19.952L10.536 20.024L10.568 20.104V20.2V20.304V20.4V20.504L10.616 20.552L10.664 20.608L10.72 20.656L10.792 20.68L10.84 20.736L10.92 20.76L10.968 20.808L11.024 20.856L11.048 20.936L11.072 21.008L11.12 21.064L11.144 21.136L11.168 21.216L11.224 21.264L11.248 21.336L11.272 21.416L11.32 21.464L11.376 21.512V21.616V21.72V21.816L11.352 21.896L11.296 21.944L11.248 21.992H11.144H11.048H10.944L10.896 22.048L10.84 22.096L10.792 22.144H10.688H10.592H10.488L10.44 22.2H10.336L10.288 22.248L10.24 22.2L10.208 22.272L10.16 22.328L10.112 22.376L10.032 22.4H9.936H9.832H9.728L9.656 22.376L9.576 22.352L9.504 22.376L9.424 22.4H9.328H9.224L9.176 22.448H9.072H8.976L8.92 22.4L8.872 22.448L8.792 22.424L8.72 22.4L8.672 22.352H8.568H8.464H8.368H8.264H8.16L8.088 22.328H8.04L7.96 22.352L7.912 22.296H7.808H7.712L7.656 22.248H7.56L7.48 22.224L7.432 22.176L7.352 22.144L7.304 22.096L7.256 22.144H7.152H7.048L6.976 22.12L6.896 22.096L6.848 22.048L6.8 21.992L6.752 21.944H6.648L6.6 21.896L6.544 21.848L6.496 21.792L6.448 21.744L6.416 21.664L6.368 21.616L6.32 21.568V21.464L6.264 21.416V21.312V21.216L6.32 21.16V21.064V20.96V20.856V20.76L6.264 20.704V20.608L6.216 20.552V20.456V20.352L6.192 20.28L6.144 20.224L6.12 20.152L6.088 20.072L6.064 20V19.896L6.016 19.848L5.936 19.824L5.912 19.744L5.84 19.72L5.816 19.648V19.544L5.864 19.496L5.84 19.416V19.368L5.864 19.288V19.192V19.088L5.84 19.016L5.816 18.936V18.84L5.736 18.808L5.688 18.864L5.664 18.784V18.688L5.632 18.608L5.56 18.584L5.488 18.56L5.456 18.48L5.408 18.432L5.36 18.384L5.28 18.352V18.304L5.36 18.28L5.304 18.232V18.128L5.232 18.104L5.184 18.152H5.08L5 18.176L5.056 18.232L5.032 18.304L4.976 18.352L4.952 18.432V18.536V18.632L5 18.688V18.784L4.976 18.864V18.912L5.032 18.96L5.104 18.984L5.184 19.016L5.208 19.088L5.152 19.136L5.104 19.192V19.288L5.056 19.344V19.44V19.544V19.648L5.08 19.72L5.104 19.8V19.896L5.152 19.952V20.048L5.184 20.128L5.208 20.2L5.232 20.28L5.256 20.352L5.28 20.432L5.304 20.504V20.608L5.336 20.68L5.36 20.76V20.856V20.96L5.384 21.032L5.432 21.088L5.488 21.136L5.56 21.16L5.632 21.184L5.688 21.24L5.736 21.288L5.76 21.368L5.816 21.416L5.864 21.464L5.888 21.544L5.912 21.616L5.936 21.696L5.968 21.768L6.016 21.816L6.064 21.872L6.088 21.944L6.12 22.024L6.144 22.096L6.168 22.176V22.272L6.12 22.328L6.088 22.4L6.04 22.448H5.936H5.84L5.76 22.48L5.688 22.504L5.632 22.552L5.584 22.6L5.536 22.656H5.432H5.336L5.28 22.6L5.208 22.624L5.184 22.704H5.08H4.976L4.952 22.776L4.904 22.832L4.824 22.856L4.776 22.904Z" fill="var(--fill-0, #EC5998)"/>
</g>
</svg>
