<svg preserveAspectRatio="none" width="100%" height="100%" overflow="visible" style="display: block;" viewBox="0 0 27.184 18.464" fill="none" xmlns="http://www.w3.org/2000/svg">
<g id="Group">
<path id="Vector" d="M22.344 18.464H22.28H22.216L22.168 18.448L22.12 18.432L22.096 18.4H22.032H21.968H21.904H21.84H21.776L21.728 18.384L21.688 18.368H21.624L21.592 18.336L21.544 18.32L21.496 18.304L21.464 18.272L21.416 18.256L21.384 18.224L21.352 18.192L21.328 18.16L21.296 18.128L21.28 18.088L21.248 18.056L21.232 18.008L21.2 17.976L21.184 17.928L21.168 17.88L21.136 17.848L21.104 17.816V17.752L21.072 17.728V17.664L21.056 17.616L21.04 17.568L21.008 17.536V17.472L20.992 17.424L20.976 17.376V17.32L20.952 17.288V17.224V17.16L20.936 17.112L20.904 17.08L20.888 17.032L20.872 16.992L20.856 16.944L20.824 16.912V16.848L20.792 16.816V16.752V16.688L20.776 16.64L20.76 16.6V16.536V16.472L20.728 16.44V16.376L20.696 16.344V16.28V16.224L20.664 16.192V16.128L20.632 16.096V16.032L20.6 16L20.592 15.952V15.92L20.6 15.872L20.576 15.848L20.56 15.8L20.544 15.752L20.528 15.704V15.672V15.64L20.496 15.608L20.48 15.56L20.448 15.528L20.416 15.496L20.4 15.456L20.384 15.408L20.352 15.376L20.32 15.344L20.288 15.312L20.272 15.264L20.256 15.216L20.224 15.184L20.208 15.136L20.2 15.096L20.184 15.048L20.168 15V14.936L20.152 14.888L20.12 14.856L20.088 14.824L20.072 14.776L20.056 14.728L20.024 14.704L20.008 14.744L19.992 14.792L19.976 14.84L19.96 14.888L19.944 14.936V15L19.912 15.032V15.096V15.152L19.88 15.184V15.248V15.312L19.912 15.344V15.408L19.88 15.44V15.496L19.848 15.528V15.592V15.656L19.824 15.688V15.752L19.792 15.784V15.848L19.76 15.872L19.744 15.92L19.728 15.968V16.032L19.696 16.064V16.128V16.192V16.248V16.312L19.68 16.36L19.664 16.408V16.472V16.536V16.6L19.68 16.64L19.696 16.688V16.752V16.816V16.88V16.944V17L19.728 17.032V17.096V17.16L19.744 17.208L19.776 17.24L19.808 17.272H19.864H19.928H19.992L20.04 17.288L20.088 17.304L20.12 17.336L20.168 17.352L20.2 17.376L20.24 17.392L20.272 17.424L20.304 17.456L20.336 17.488L20.368 17.52L20.4 17.552L20.432 17.584L20.464 17.616L20.496 17.648L20.512 17.696L20.544 17.728V17.784L20.576 17.816V17.88V17.944V18.008L20.56 18.056L20.544 18.104L20.528 18.144L20.512 18.192V18.256L20.48 18.288L20.464 18.336L20.416 18.352L20.384 18.384L20.336 18.4L20.288 18.416L20.24 18.432H20.184H20.12H20.056L20.008 18.416L19.96 18.4L19.928 18.432L19.88 18.448L19.832 18.464H19.776H19.712H19.648H19.584H19.52H19.456H19.4L19.352 18.448L19.304 18.432H19.24H19.176L19.128 18.416L19.08 18.4H19.024L18.992 18.368H18.928L18.896 18.336L18.864 18.304L18.816 18.288L18.8 18.24L18.784 18.192L18.752 18.16L18.72 18.128L18.696 18.104L18.664 18.072L18.632 18.04L18.6 18.008L18.568 17.976L18.536 17.944L18.504 17.912L18.472 17.88L18.44 17.848L18.424 17.8L18.408 17.752L18.376 17.728V17.664L18.36 17.616L18.344 17.568V17.504L18.328 17.456L18.32 17.408V17.352V17.288L18.288 17.256V17.192L18.272 17.144L18.256 17.096V17.032L18.224 17V16.944V16.88V16.816L18.208 16.768L18.192 16.72L18.176 16.672L18.16 16.624L18.144 16.584L18.128 16.536V16.472V16.408V16.344V16.28L18.112 16.24L18.096 16.192V16.128V16.064L18.08 16.016L18.064 15.968V15.904V15.848V15.784V15.72V15.656V15.592V15.528L18.08 15.48L18.096 15.44V15.376V15.312V15.248V15.184V15.12V15.064V15V14.936V14.872V14.808V14.744V14.688V14.624L18.08 14.576L18.064 14.528V14.464V14.4V14.344V14.28V14.216L18.032 14.184H18L17.968 14.216L17.944 14.248L17.912 14.28L17.88 14.312L17.848 14.344L17.816 14.368L17.8 14.416L17.784 14.464L17.752 14.496L17.736 14.544L17.72 14.592H17.688V14.528V14.464V14.4L17.64 14.384L17.608 14.352L17.576 14.328L17.552 14.296L17.504 14.312L17.456 14.328L17.424 14.352L17.408 14.4L17.376 14.432V14.496L17.36 14.544L17.344 14.592V14.656L17.328 14.704L17.312 14.656L17.296 14.608L17.28 14.56L17.248 14.528L17.216 14.496L17.176 14.48L17.144 14.512L17.096 14.528L17.064 14.56L17.032 14.592L17.016 14.64L17 14.688L16.968 14.72L16.952 14.76L16.904 14.744L16.888 14.704L16.872 14.656L16.84 14.624L16.8 14.608H16.736L16.704 14.64L16.672 14.672L16.656 14.72L16.624 14.744L16.608 14.792L16.56 14.776L16.544 14.728L16.528 14.688L16.512 14.64L16.48 14.672L16.464 14.72L16.448 14.76L16.432 14.808V14.872V14.936L16.424 14.984L16.408 15.032V15.096L16.432 15.12L16.392 15.136L16.376 15.096L16.344 15.064L16.328 15.016L16.312 14.968L16.28 14.936L16.248 14.904L16.232 14.856L16.2 14.824L16.168 14.792L16.136 14.76L16.104 14.728L16.072 14.704H16.016H15.952L15.92 14.728L15.904 14.776H15.872L15.84 14.744L15.808 14.72L15.776 14.688L15.744 14.656L15.696 14.64L15.68 14.688L15.656 14.72V14.776L15.624 14.808V14.872L15.592 14.904L15.576 14.952L15.544 14.92L15.512 14.888L15.496 14.84H15.464V14.904L15.432 14.936V15V15.064L15.4 15.096L15.384 15.136L15.368 15.096V15.032V14.968L15.336 14.936V14.872L15.32 14.824L15.304 14.776L15.28 14.744L15.248 14.72L15.2 14.704L15.168 14.672L15.12 14.688L15.088 14.72L15.056 14.744V14.808L15.04 14.856L14.992 14.84L14.96 14.808L14.92 14.792L14.904 14.84L14.888 14.888L14.84 14.872V14.808L14.808 14.776L14.792 14.728L14.776 14.688L14.744 14.656L14.712 14.624H14.68L14.648 14.656V14.72L14.616 14.744V14.808L14.584 14.84L14.568 14.888L14.544 14.92L14.528 14.872L14.512 14.824L14.496 14.776L14.464 14.744L14.448 14.704L14.432 14.656H14.4L14.384 14.704L14.368 14.744L14.352 14.792L14.336 14.84L14.304 14.872H14.272L14.256 14.824L14.224 14.792L14.208 14.744L14.176 14.72H14.152L14.136 14.76L14.104 14.792L14.056 14.776L14.008 14.76L13.976 14.792H13.912L13.88 14.824L13.832 14.84L13.8 14.872L13.76 14.888L13.728 14.92L13.68 14.936L13.648 14.968L13.616 15L13.584 15.032L13.568 15.08L13.552 15.12L13.52 15.152L13.472 15.168L13.44 15.2L13.408 15.232L13.368 15.248V15.312L13.32 15.328L13.304 15.376L13.256 15.392L13.224 15.424L13.208 15.472L13.192 15.512L13.16 15.544V15.576L13.192 15.608L13.208 15.656L13.176 15.688L13.208 15.72L13.192 15.768L13.176 15.816V15.872L13.208 15.904L13.24 15.936L13.256 15.984L13.288 16.016L13.304 16.064L13.336 16.096L13.368 16.128L13.384 16.176L13.408 16.208L13.424 16.248L13.456 16.28L13.488 16.312L13.52 16.344L13.536 16.392L13.568 16.424L13.584 16.472L13.616 16.504L13.648 16.536L13.664 16.584L13.696 16.616L13.728 16.64L13.744 16.688L13.776 16.72L13.8 16.752L13.816 16.8L13.848 16.832L13.864 16.88L13.896 16.912L13.928 16.944L13.944 16.992L13.976 17.016L14.008 17.048L14.04 17.08L14.056 17.128L14.088 17.16L14.12 17.192L14.152 17.224L14.192 17.24L14.224 17.272H14.288H14.352L14.4 17.256L14.448 17.24H14.512L14.544 17.208H14.6H14.664H14.728H14.792L14.824 17.24L14.872 17.256L14.92 17.272L14.944 17.304L14.992 17.32L15.024 17.352L15.056 17.376L15.088 17.408L15.136 17.424L15.168 17.456L15.2 17.488L15.232 17.52L15.264 17.552L15.296 17.584L15.32 17.616L15.336 17.664L15.368 17.696V17.752L15.4 17.784V17.848L15.432 17.88V17.944V18.008V18.072L15.4 18.104L15.368 18.128L15.336 18.16L15.304 18.192L15.264 18.208L15.232 18.24L15.2 18.272L15.152 18.288L15.104 18.304H15.04L15.008 18.336H14.944L14.92 18.304H14.856L14.808 18.32L14.76 18.336H14.696L14.648 18.352L14.6 18.368H14.544H14.48H14.416H14.352H14.288L14.24 18.352L14.192 18.336H14.136H14.072H14.008H13.944L13.896 18.32L13.848 18.304H13.792H13.728H13.664L13.616 18.288L13.568 18.272H13.504H13.44L13.408 18.24H13.352L13.32 18.208L13.272 18.192L13.24 18.16L13.208 18.128L13.16 18.12L13.128 18.088L13.096 18.056L13.048 18.04L13.024 18.008L12.976 17.992L12.944 17.96L12.912 17.928L12.864 17.912L12.832 17.88L12.8 17.848L12.832 17.816L12.8 17.784L12.752 17.768L12.704 17.752L12.656 17.744L12.616 17.728L12.584 17.696L12.568 17.648L12.52 17.632L12.488 17.6L12.456 17.568L12.44 17.52L12.408 17.488L12.36 17.472L12.328 17.44L12.36 17.408L12.328 17.376L12.312 17.336L12.28 17.304L12.256 17.272L12.24 17.224L12.208 17.192L12.176 17.16L12.16 17.112L12.128 17.08L12.096 17.048L12.064 17.016L12.032 16.992L12 16.96L11.968 16.928L11.952 16.88L11.92 16.848L11.896 16.816L11.864 16.784L11.832 16.752L11.816 16.704L11.768 16.688L11.752 16.64L11.72 16.616L11.704 16.568L11.672 16.536L11.64 16.504L11.624 16.456L11.592 16.424L11.576 16.376L11.544 16.344L11.52 16.312L11.504 16.264L11.488 16.224L11.456 16.192L11.424 16.16L11.408 16.112L11.376 16.08L11.344 16.048L11.328 16L11.296 15.968L11.28 15.92L11.264 15.872L11.248 15.832L11.232 15.784L11.2 15.752L11.184 15.704L11.168 15.656L11.144 15.624V15.56L11.112 15.528L11.08 15.496L11.048 15.472V15.408L11.016 15.376V15.312L10.984 15.28V15.216L10.952 15.184V15.12V15.064V15L10.904 14.984L10.872 14.952L10.824 14.968L10.792 15V15.064L10.768 15.096L10.72 15.104L10.704 15.152V15.216L10.688 15.264L10.672 15.216L10.656 15.168L10.624 15.136L10.608 15.184L10.592 15.232L10.576 15.184L10.544 15.152V15.096L10.512 15.064L10.496 15.016L10.464 14.984L10.432 15.016L10.416 15.064L10.392 15.096V15.152H10.36L10.328 15.12L10.312 15.08L10.28 15.104L10.264 15.152L10.232 15.184V15.248V15.312V15.376L10.184 15.392L10.168 15.344L10.136 15.312L10.104 15.28H10.072L10.04 15.312L10.024 15.36L10.008 15.408V15.472L9.984 15.496L9.968 15.544L9.936 15.512L9.904 15.48L9.872 15.456L9.84 15.424H9.776L9.76 15.472L9.744 15.512L9.728 15.56H9.696L9.648 15.544L9.624 15.512H9.56L9.528 15.48H9.464H9.4H9.336H9.272L9.248 15.512L9.2 15.528L9.152 15.544L9.12 15.576L9.104 15.624L9.12 15.672L9.136 15.72H9.104H9.072V15.784H9.04H9.008L8.992 15.832L8.976 15.872V15.936V16V16.064L8.992 16.112L9.008 16.16V16.224L9.024 16.264L9.04 16.312V16.376L9.072 16.408V16.472L9.104 16.504V16.568L9.12 16.616L9.136 16.656L9.152 16.704L9.168 16.752L9.184 16.8L9.2 16.848L9.232 16.88V16.944L9.256 16.976L9.272 17.016L9.288 17.064L9.32 17.096V17.16L9.368 17.176L9.4 17.208H9.464H9.528H9.592H9.648H9.712H9.776L9.808 17.24L9.856 17.256L9.888 17.288L9.936 17.304L9.968 17.336L10 17.368L10.024 17.392L10.056 17.424L10.088 17.456L10.12 17.488L10.152 17.52L10.168 17.568L10.2 17.6L10.232 17.632L10.248 17.68L10.264 17.728L10.28 17.768L10.296 17.816V17.88V17.944V18.008L10.264 18.04V18.104L10.232 18.128L10.2 18.16L10.184 18.208L10.152 18.24L10.12 18.272L10.072 18.288L10.024 18.304L10 18.336H9.936H9.872H9.808H9.744H9.68L9.648 18.304H9.592L9.56 18.336L9.528 18.368H9.464L9.432 18.4H9.368H9.304H9.248H9.184H9.12H9.056L9.024 18.368H8.96L8.928 18.336H8.872L8.824 18.32L8.776 18.304H8.712H8.648L8.6 18.288L8.552 18.272H8.496L8.464 18.24L8.416 18.224L8.368 18.208L8.336 18.176L8.288 18.16L8.256 18.128V18.072L8.224 18.04L8.192 18.008L8.176 17.96L8.144 17.928L8.128 17.88L8.104 17.848L8.088 17.8L8.072 17.752L8.056 17.712L8.024 17.68L7.992 17.648L7.976 17.6L7.96 17.552L7.944 17.504L7.912 17.472L7.88 17.44L7.864 17.392L7.848 17.352L7.832 17.304L7.816 17.256V17.192L7.8 17.144L7.784 17.096L7.768 17.048L7.752 17V16.944L7.744 16.896L7.728 16.848V16.784V16.72L7.696 16.688L7.68 16.64L7.664 16.6L7.632 16.568L7.6 16.536V16.472L7.568 16.44L7.552 16.392L7.536 16.344L7.52 16.296V16.264L7.536 16.224V16.16L7.504 16.128V16.064V16V15.936V15.872V15.816L7.472 15.784V15.72V15.656L7.456 15.608L7.44 15.56V15.496V15.44V15.376L7.408 15.344V15.28V15.216V15.152V15.096L7.392 15.048L7.376 15V14.936V14.872V14.808V14.744V14.688L7.352 14.656V14.592V14.528V14.464V14.4V14.344V14.28V14.216V14.152L7.376 14.12V14.056V13.992L7.408 13.968V13.904L7.44 13.872L7.424 13.824L7.392 13.792L7.368 13.76L7.336 13.728V13.696L7.376 13.68L7.408 13.648V13.592L7.424 13.544L7.456 13.512L7.504 13.496L7.52 13.448L7.536 13.4L7.504 13.368L7.52 13.32H7.584V13.288L7.552 13.256L7.52 13.224L7.504 13.184L7.552 13.168H7.616L7.648 13.136H7.712V13.104L7.696 13.056L7.744 13.04L7.752 12.992L7.728 12.96L7.696 12.928L7.712 12.88L7.752 12.864L7.744 12.824L7.728 12.776L7.752 12.744L7.8 12.728L7.848 12.712V12.648L7.8 12.632L7.752 12.648L7.712 12.664L7.68 12.696L7.632 12.712L7.584 12.728L7.552 12.76L7.504 12.744L7.52 12.696L7.536 12.648L7.568 12.616L7.6 12.584L7.616 12.536L7.648 12.504V12.472H7.584L7.552 12.504H7.488V12.472L7.52 12.448L7.536 12.4L7.568 12.368L7.6 12.336L7.632 12.304L7.648 12.256L7.664 12.208L7.696 12.176H7.664L7.616 12.192L7.584 12.224L7.536 12.24L7.488 12.256L7.44 12.24L7.472 12.208L7.488 12.16L7.504 12.112L7.52 12.072L7.536 12.024L7.568 11.992V11.928L7.6 11.896L7.552 11.88L7.536 11.832V11.768L7.568 11.736V11.68L7.552 11.632L7.504 11.648L7.456 11.664L7.44 11.616L7.472 11.584L7.488 11.536L7.504 11.488L7.536 11.456L7.568 11.424L7.6 11.392L7.616 11.344L7.648 11.32L7.68 11.288V11.256L7.648 11.288L7.6 11.272V11.208L7.616 11.16V11.128L7.568 11.144L7.52 11.16V11.128L7.536 11.08V11.016L7.568 10.984V10.928L7.584 10.88L7.6 10.832V10.768H7.568L7.52 10.784L7.488 10.816L7.44 10.832L7.392 10.848L7.368 10.88L7.336 10.912L7.288 10.896V10.832L7.304 10.784L7.32 10.736V10.672V10.608L7.336 10.568L7.352 10.52V10.456L7.376 10.424V10.36V10.296V10.232V10.176L7.368 10.128L7.336 10.16L7.304 10.192L7.272 10.216L7.24 10.248L7.208 10.28L7.16 10.264L7.192 10.232V10.176V10.112V10.048V9.984V9.92L7.16 9.888V9.824V9.768V9.704L7.176 9.656L7.192 9.608V9.544L7.224 9.512V9.448L7.256 9.424V9.36L7.288 9.328L7.304 9.28L7.32 9.232L7.336 9.184L7.352 9.136L7.376 9.104L7.392 9.056L7.408 9.016L7.424 8.968L7.44 8.92V8.856L7.472 8.824L7.456 8.776H7.392L7.368 8.808H7.304L7.288 8.76L7.32 8.728V8.672L7.352 8.64V8.576L7.376 8.544L7.336 8.528H7.272L7.256 8.48L7.272 8.432L7.288 8.384L7.32 8.352H7.288L7.24 8.368L7.224 8.32V8.264V8.2L7.176 8.184L7.128 8.168V8.104L7.16 8.072L7.192 8.04L7.208 7.992V7.96L7.176 7.928L7.16 7.888H7.128L7.08 7.904L7.048 7.928H6.992L6.944 7.92L6.912 7.888L6.944 7.856L6.96 7.808L6.976 7.76L7 7.728L7.016 7.68L7.032 7.632L7.064 7.6L7.016 7.584L6.992 7.616H6.928L6.88 7.6L6.896 7.552L6.928 7.528L6.96 7.496L6.992 7.464L7 7.416L7.032 7.384L7.016 7.336L6.992 7.368L6.96 7.4L6.912 7.416H6.88V7.352L6.912 7.32V7.256L6.944 7.224H6.912L6.864 7.24H6.8L6.768 7.272H6.704V7.24L6.736 7.208L6.784 7.192L6.816 7.168L6.848 7.136L6.88 7.104H6.848L6.8 7.12L6.784 7.072V7.008L6.768 6.96L6.752 6.912L6.736 6.864L6.704 6.832H6.64L6.608 6.8H6.552L6.52 6.776H6.456L6.408 6.76L6.36 6.744H6.296H6.232H6.176H6.112H6.048L6 6.728L6.016 6.68L6.048 6.648L6.08 6.616L6.112 6.584L6.144 6.552L6.176 6.52L6.224 6.504L6.248 6.472L6.296 6.456V6.424L6.248 6.416L6.208 6.4H6.144L6.112 6.368H6.048L6 6.352L5.952 6.336H5.888H5.832L5.784 6.32L5.736 6.304H5.672V6.272L5.72 6.256L5.752 6.224L5.8 6.208L5.816 6.16L5.848 6.128L5.832 6.08H5.768L5.736 6.048H5.672L5.656 6.008V5.944V5.88L5.608 5.864H5.544L5.496 5.848L5.456 5.832L5.44 5.784V5.72L5.472 5.688V5.632L5.456 5.584H5.392H5.328L5.296 5.552H5.232H5.168H5.104H5.048H4.984H4.92H4.856L4.808 5.536L4.84 5.504L4.856 5.456L4.888 5.424L4.904 5.376L4.936 5.344L4.968 5.312L5 5.28L5.032 5.256L5.064 5.224L5.096 5.192L5.136 5.176L5.168 5.144V5.112H5.104L5.08 5.08H5.016H4.952L4.904 5.064L4.856 5.048H4.792H4.728L4.704 5.08H4.64H4.576L4.528 5.096L4.48 5.112L4.432 5.128L4.384 5.144L4.352 5.176L4.312 5.16L4.344 5.128L4.352 5.08L4.384 5.048L4.4 5L4.432 4.968L4.448 4.92L4.48 4.896L4.496 4.848L4.528 4.816L4.512 4.768H4.448H4.384H4.328H4.264H4.2H4.136L4.088 4.752L4.12 4.72L4.136 4.672L4.152 4.624L4.184 4.592L4.2 4.544L4.216 4.504L4.248 4.472L4.28 4.44V4.376L4.232 4.36H4.168L4.12 4.376L4.072 4.392H4.008H3.952L3.92 4.424L3.872 4.408L3.904 4.376L3.92 4.328L3.952 4.296L3.976 4.264L4.008 4.232L4.04 4.2L4.072 4.168L4.12 4.152L4.152 4.128L4.2 4.112L4.232 4.08L4.264 4.048L4.312 4.032L4.264 4.016H4.2L4.168 3.984H4.104L4.056 3.968L4.008 3.952H3.952H3.888L3.856 3.92H3.792H3.728H3.664L3.616 3.904L3.576 3.888H3.512H3.448H3.384H3.32L3.272 3.872L3.32 3.856L3.336 3.808L3.288 3.792L3.256 3.768H3.2V3.736L3.224 3.704H3.288L3.32 3.672L3.368 3.656L3.32 3.64L3.288 3.608H3.224L3.2 3.576H3.136L3.104 3.544H3.04H2.976L2.944 3.512H2.88H2.824L2.776 3.528L2.728 3.544L2.68 3.56L2.632 3.576L2.616 3.528L2.648 3.496L2.664 3.448L2.696 3.416L2.712 3.376L2.744 3.344L2.776 3.312L2.808 3.28L2.832 3.248L2.88 3.232L2.912 3.2L2.944 3.168V3.136H2.88H2.824L2.792 3.104H2.728H2.664H2.6H2.536L2.504 3.136H2.448H2.384H2.32L2.288 3.168H2.224L2.208 3.12V3.056V3L2.24 2.968V2.904L2.272 2.872V2.808V2.744L2.256 2.696L2.224 2.664L2.192 2.64L2.144 2.624L2.096 2.608H2.04H1.976L1.928 2.624L1.88 2.64H1.816L1.784 2.664L1.736 2.68L1.696 2.696L1.648 2.68V2.624V2.56L1.68 2.528V2.464L1.632 2.448L1.6 2.416H1.536H1.472L1.424 2.432L1.376 2.448L1.328 2.464L1.288 2.48L1.272 2.432L1.304 2.4V2.336V2.272V2.216L1.32 2.168L1.328 2.12L1.288 2.104L1.24 2.12L1.192 2.136L1.16 2.168L1.128 2.2L1.08 2.216L1.048 2.248L1.032 2.288L1 2.32L0.984 2.272L0.968 2.232L0.952 2.184V2.12V2.056V1.992V1.928L0.928 1.896L0.88 1.88H0.816L0.784 1.912L0.752 1.944L0.704 1.96L0.672 1.992L0.64 2.024L0.624 2.072L0.592 2.104L0.568 2.136L0.552 2.184L0.52 2.216H0.488V2.152V2.088L0.504 2.04L0.52 1.992V1.928L0.536 1.88L0.552 1.84L0.568 1.792L0.576 1.744H0.552L0.504 1.76L0.472 1.792L0.44 1.824L0.392 1.84H0.36L0.328 1.808L0.344 1.76L0.36 1.712V1.648V1.584V1.52V1.464V1.4L0.392 1.368L0.376 1.32L0.328 1.336L0.28 1.352H0.216L0.2 1.304L0.176 1.272V1.208L0.128 1.192H0.0639999L0.048 1.144L0.0639999 1.104L0.0799999 1.056L0.0959999 1.008L0.112 0.960001L0.144 0.928001L0.16 0.88L0.192 0.848L0.2 0.8H0.176L0.128 0.816H0.0639999H0V0.784L0.032 0.752L0.0799999 0.744L0.112 0.712L0.144 0.68L0.192 0.664001L0.216 0.632L0.248 0.6L0.296 0.584L0.328 0.552L0.376 0.536L0.408 0.504L0.44 0.472L0.488 0.456L0.536 0.44L0.568 0.408L0.608 0.392001L0.656 0.376L0.688 0.352H0.752L0.784 0.32L0.832 0.304L0.88 0.288L0.928 0.272L0.912 0.224001H0.848H0.784V0.192001L0.832 0.176L0.88 0.160001H0.944H1L1.032 0.128001H1.096H1.16H1.224L1.256 0.0960007H1.32H1.376H1.44H1.504H1.568H1.632H1.696H1.752H1.816V0.0640007H1.752L1.72 0.032L1.68 0.0160004L1.72 0H1.784H1.848L1.896 0.0160004L1.944 0.032H2.008H2.072H2.128L2.176 0.0480003L2.224 0.0640007H2.288H2.352L2.384 0.0960007H2.448H2.504L2.552 0.112L2.6 0.128001H2.664L2.712 0.144L2.76 0.160001H2.824L2.848 0.192001H2.912L2.96 0.208H2.992L2.96 0.176L3.008 0.160001H3.072L3.104 0.192001H3.168L3.208 0.208L3.256 0.224001L3.304 0.24L3.352 0.256001L3.384 0.288H3.448L3.48 0.32L3.528 0.336L3.576 0.352L3.6 0.376H3.664L3.696 0.408L3.728 0.44L3.776 0.456L3.824 0.472L3.856 0.504L3.904 0.52L3.936 0.552L3.976 0.568L4.008 0.6L4.04 0.632L4.088 0.648L4.12 0.68L4.152 0.712L4.184 0.744L4.232 0.752L4.264 0.784L4.28 0.744L4.248 0.712L4.216 0.68L4.2 0.632L4.168 0.6V0.568L4.216 0.584L4.264 0.6L4.296 0.632L4.328 0.664001L4.368 0.68L4.4 0.712L4.432 0.744L4.48 0.752L4.512 0.784L4.544 0.816L4.576 0.848L4.608 0.88L4.64 0.912L4.672 0.944L4.704 0.976L4.728 1.008L4.76 1.04L4.776 1.088L4.808 1.12L4.84 1.144L4.872 1.176L4.888 1.224L4.92 1.256L4.936 1.304L4.968 1.336L4.984 1.384L5 1.432L5.032 1.464L5.048 1.504L5.064 1.552L5.096 1.584L5.104 1.632L5.136 1.664H5.2L5.232 1.696L5.248 1.744L5.28 1.776L5.312 1.808L5.344 1.84L5.36 1.88L5.392 1.912H5.456L5.48 1.944L5.528 1.96L5.56 1.992H5.592L5.608 1.944L5.64 1.912L5.656 1.96L5.672 2.008L5.688 2.056L5.72 2.088L5.736 2.136L5.752 2.184L5.8 2.2L5.832 2.232L5.856 2.2L5.872 2.152L5.904 2.12L5.92 2.072L5.952 2.04L6 2.056V2.12V2.184V2.248L6.032 2.272V2.336L6.048 2.384L6.064 2.432V2.496L6.096 2.528V2.592L6.128 2.624V2.68L6.16 2.712L6.176 2.76L6.192 2.808L6.224 2.84H6.248L6.296 2.824L6.328 2.856L6.344 2.904L6.376 2.936L6.392 2.984L6.408 3.024L6.44 3.056L6.472 3.088L6.488 3.136L6.52 3.168L6.536 3.216H6.568L6.6 3.184L6.608 3.136L6.624 3.088L6.64 3.04L6.656 3L6.704 2.984L6.72 3.024L6.752 3.056L6.768 3.104L6.784 3.152L6.816 3.184L6.832 3.232L6.848 3.28L6.88 3.312L6.896 3.36L6.912 3.4L6.944 3.432L6.96 3.48L6.976 3.528L7 3.56L7.032 3.592L7.048 3.64L7.064 3.688L7.096 3.72L7.128 3.752L7.16 3.776L7.192 3.808L7.24 3.824H7.304L7.352 3.84L7.368 3.888L7.376 3.936H7.408L7.424 3.888L7.456 3.856L7.488 3.888L7.504 3.936L7.536 3.968L7.552 4.016L7.584 4.048L7.6 4.096L7.632 4.128L7.664 4.152L7.696 4.184L7.712 4.232L7.744 4.264L7.768 4.296L7.8 4.328L7.816 4.376L7.864 4.392L7.896 4.424H7.96L7.992 4.456L8.024 4.488L8.072 4.504L8.104 4.528L8.128 4.56L8.16 4.592L8.208 4.608L8.224 4.656L8.256 4.688L8.288 4.72L8.32 4.752L8.352 4.784L8.384 4.816L8.4 4.864L8.448 4.848L8.496 4.832L8.52 4.864L8.552 4.896L8.6 4.904L8.632 4.936L8.664 4.968L8.712 4.984L8.744 5.016L8.776 5.048L8.808 5.08L8.824 5.032H8.856L8.88 5.064L8.912 5.096L8.944 5.128L8.976 5.16L9.008 5.192L9.024 5.24L9.056 5.272L9.088 5.296L9.12 5.328L9.152 5.296L9.184 5.328L9.216 5.36L9.248 5.392L9.256 5.44L9.288 5.472L9.32 5.504L9.336 5.552L9.368 5.584L9.4 5.616L9.416 5.656H9.448L9.464 5.616L9.48 5.568H9.512L9.544 5.6L9.576 5.632L9.608 5.656L9.632 5.688L9.68 5.704L9.712 5.736L9.76 5.752L9.808 5.768L9.84 5.8H9.904L9.936 5.832L9.984 5.848L10.024 5.864L10.056 5.896L10.088 5.928L10.136 5.912L10.168 5.88L10.2 5.848L10.248 5.832L10.296 5.816L10.344 5.8H10.4H10.464H10.528L10.56 5.832H10.624H10.688H10.752H10.808L10.856 5.816L10.888 5.784L10.936 5.768H11L11.032 5.8H11.096L11.128 5.832L11.168 5.848L11.216 5.864H11.28H11.344L11.376 5.832L11.408 5.8L11.456 5.784L11.472 5.736H11.528L11.56 5.768H11.624H11.688H11.752H11.816H11.88H11.936H12L12.048 5.752L12.096 5.736H12.16L12.192 5.704H12.256L12.28 5.672H12.344L12.376 5.648L12.424 5.632L12.472 5.616L12.504 5.584L12.552 5.568L12.6 5.552L12.632 5.52L12.672 5.504L12.72 5.488L12.752 5.456L12.8 5.44L12.848 5.424L12.88 5.392L12.928 5.376L12.976 5.36L13.008 5.328L13.048 5.312L13.096 5.296L13.144 5.28L13.192 5.272H13.256L13.304 5.256L13.352 5.24L13.384 5.272H13.44H13.504L13.552 5.256L13.6 5.24L13.648 5.224L13.696 5.208L13.744 5.192L13.792 5.176H13.848H13.912L13.96 5.192L14.008 5.208H14.072L14.104 5.24H14.168L14.192 5.272H14.256L14.288 5.296L14.336 5.312H14.368V5.256V5.192L14.416 5.176H14.48H14.544H14.6L14.648 5.192L14.696 5.208L14.744 5.192V5.128L14.792 5.112L14.84 5.128L14.888 5.144H14.944L14.976 5.176H15.04H15.104H15.168L15.2 5.208H15.264H15.32H15.384L15.4 5.16L15.432 5.128H15.464L15.512 5.144H15.576H15.64L15.672 5.176H15.728H15.792L15.84 5.192L15.888 5.208H15.952L15.984 5.176L16.032 5.16L16.072 5.144L16.104 5.112L16.152 5.128L16.2 5.144H16.264L16.312 5.16L16.36 5.176L16.408 5.192L16.448 5.208L16.48 5.24H16.544L16.576 5.272L16.624 5.28L16.672 5.296L16.704 5.328L16.752 5.344L16.8 5.36H16.856H16.92L16.952 5.328L16.984 5.296L17.032 5.28H17.064L17.112 5.296L17.16 5.312L17.2 5.328L17.248 5.344L17.296 5.36L17.328 5.392L17.376 5.408L17.424 5.424L17.456 5.456H17.52L17.552 5.488H17.608H17.672L17.72 5.472L17.768 5.456H17.832H17.896H17.952H18.016H18.08H18.144H18.208L18.24 5.488H18.304L18.344 5.504L18.392 5.52H18.456L18.488 5.552H18.552L18.584 5.584H18.648L18.68 5.616H18.736L18.768 5.648L18.784 5.6L18.832 5.584H18.896H18.96H19.024L19.056 5.616H19.112H19.176H19.24H19.304H19.368L19.384 5.568V5.504L19.352 5.472V5.408L19.4 5.392H19.456L19.504 5.408L19.552 5.424L19.6 5.44L19.648 5.456L19.664 5.408V5.344V5.28V5.224V5.16L19.712 5.144L19.744 5.176H19.808H19.864H19.928H19.992L20.008 5.128L19.992 5.08L19.976 5.032L19.96 4.984L19.944 4.936L19.96 4.896H20.024L20.056 4.864L20.104 4.88L20.152 4.896H20.208H20.272L20.32 4.88L20.368 4.864L20.416 4.848L20.448 4.816L20.464 4.768L20.48 4.72L20.448 4.688L20.432 4.64L20.4 4.608V4.576L20.448 4.56L20.496 4.544L20.544 4.528L20.592 4.52L20.616 4.488L20.664 4.472L20.712 4.456L20.744 4.424L20.792 4.408L20.84 4.392L20.888 4.376L20.936 4.36L20.968 4.328V4.296H20.904L20.872 4.264L20.824 4.248L20.84 4.2H20.904L20.936 4.168L20.976 4.152L21.024 4.144L21.056 4.112L21.104 4.096L21.152 4.08L21.184 4.048V4.016H21.12H21.056L21.04 3.968L21.088 3.952L21.12 3.92L21.168 3.904L21.216 3.888L21.248 3.856L21.28 3.824L21.328 3.808L21.368 3.792L21.416 3.776L21.464 3.768L21.496 3.736L21.544 3.72L21.576 3.688L21.528 3.672H21.464L21.416 3.656L21.464 3.64L21.496 3.608H21.56L21.592 3.576H21.656L21.688 3.544H21.744L21.776 3.512H21.84L21.872 3.48L21.92 3.464L21.968 3.448L22 3.416L22.016 3.376L22.032 3.328L22.08 3.312L22.12 3.296L22.152 3.264L22.2 3.248L22.248 3.232H22.312L22.344 3.2H22.408L22.456 3.184L22.496 3.168L22.512 3.12V3.056V3V2.936L22.544 2.904V2.84V2.776L22.576 2.744L22.544 2.712L22.576 2.68V2.624L22.608 2.592V2.528L22.624 2.48L22.64 2.432L22.672 2.4L22.64 2.368L22.656 2.32L22.688 2.288L22.72 2.32L22.768 2.304L22.752 2.256V2.232H22.816H22.872L22.888 2.184L22.856 2.152L22.832 2.12L22.856 2.088L22.888 2.056L22.856 2.024L22.904 2.008L22.952 2.024L23 2.04L23.048 2.024L23.08 1.992L23.112 1.96L23.144 1.928L23.176 1.896L23.224 1.88L23.248 1.856H23.312L23.36 1.84L23.408 1.824L23.44 1.856H23.504L23.552 1.872L23.6 1.88L23.64 1.896L23.672 1.928L23.72 1.944L23.752 1.976L23.784 2.008L23.816 2.04L23.832 2.088L23.864 2.12L23.896 2.152L23.928 2.184L23.944 2.232L23.976 2.256L23.992 2.304L24.016 2.336L24.032 2.384L24.064 2.416L24.08 2.464L24.112 2.496V2.56L24.144 2.592V2.648L24.176 2.68L24.192 2.728L24.24 2.712L24.272 2.68L24.304 2.648L24.336 2.624L24.368 2.592L24.392 2.56L24.424 2.528L24.456 2.496L24.488 2.464L24.504 2.416L24.552 2.432H24.584L24.616 2.4H24.648L24.696 2.416L24.728 2.384L24.768 2.368H24.8L24.848 2.384L24.88 2.352H24.944H25.008H25.072L25.12 2.368L25.144 2.4L25.176 2.432L25.208 2.464V2.528L25.224 2.576V2.608L25.208 2.648V2.712V2.776L25.192 2.824L25.176 2.872V2.936V3V3.056L25.192 3.104L25.208 3.152L25.256 3.168L25.304 3.184L25.352 3.2L25.4 3.216L25.448 3.232H25.504L25.552 3.216L25.6 3.2L25.616 3.248L25.584 3.28L25.552 3.312L25.6 3.328L25.648 3.344L25.616 3.376L25.584 3.4L25.552 3.432L25.6 3.448L25.632 3.48L25.68 3.496L25.712 3.528L25.76 3.544L25.792 3.576L25.84 3.592L25.872 3.624L25.912 3.64L25.944 3.672L25.992 3.688L26.04 3.704L26.072 3.736L26.104 3.768L26.136 3.792L26.168 3.824L26.2 3.856L26.216 3.904L26.248 3.936L26.272 3.968L26.304 4L26.336 4.032L26.368 4.064L26.384 4.112L26.416 4.144L26.448 4.168L26.464 4.216L26.496 4.248L26.528 4.28L26.56 4.312L26.592 4.344L26.608 4.392L26.624 4.44L26.648 4.472V4.528L26.68 4.56V4.624V4.688V4.752V4.816V4.88V4.936L26.648 4.968V5.032V5.096V5.16L26.664 5.208L26.68 5.256L26.696 5.296L26.712 5.344L26.744 5.376L26.76 5.424L26.776 5.472L26.808 5.504L26.84 5.536L26.856 5.584L26.888 5.616L26.92 5.648L26.952 5.672L26.984 5.704L27 5.752L27.024 5.784L27.04 5.832L27.056 5.88L27.088 5.912L27.104 5.96L27.12 6.008L27.152 6.04L27.184 6.064V6.128V6.192V6.256L27.168 6.304L27.152 6.352L27.12 6.384L27.104 6.424L27.088 6.472L27.056 6.504L27.024 6.536V6.6L27 6.632V6.696L26.968 6.728L26.952 6.776L26.92 6.8L26.888 6.832L26.856 6.864L26.84 6.912L26.808 6.944L26.776 6.976L26.744 7.008L26.728 7.056L26.696 7.088L26.664 7.12L26.624 7.136L26.576 7.152L26.544 7.176L26.496 7.192L26.464 7.224L26.432 7.256L26.4 7.288L26.384 7.336L26.352 7.368L26.32 7.4L26.272 7.416L26.232 7.432L26.2 7.464H26.136L26.12 7.512L26.152 7.544L26.168 7.584L26.184 7.632L26.216 7.664V7.728L26.232 7.776L26.248 7.824L26.272 7.856L26.288 7.904L26.304 7.944L26.336 7.976L26.368 8.008L26.384 8.056L26.4 8.104L26.432 8.136L26.448 8.184L26.48 8.216L26.496 8.264L26.464 8.296L26.496 8.32V8.384L26.512 8.432L26.528 8.48L26.56 8.512L26.576 8.56L26.592 8.608L26.608 8.656L26.624 8.696L26.576 8.712L26.528 8.696L26.48 8.68L26.448 8.656L26.4 8.64H26.368L26.4 8.672V8.728L26.432 8.76L26.448 8.808L26.48 8.84L26.496 8.888L26.528 8.92V8.984L26.48 9L26.432 9.016L26.464 9.048V9.104V9.168L26.496 9.2V9.264V9.328L26.464 9.36L26.416 9.376L26.368 9.392V9.448L26.4 9.48V9.544L26.432 9.576V9.64V9.704L26.464 9.736L26.48 9.784L26.496 9.824L26.448 9.84H26.384L26.336 9.824L26.288 9.816H26.232H26.168L26.136 9.84L26.088 9.824H26.056L26.04 9.872L26.024 9.92L26.008 9.968L25.992 10.016L25.96 10.048L25.992 10.08V10.144V10.2V10.264V10.328V10.392V10.456V10.52V10.576V10.64V10.704L25.96 10.736L25.912 10.752H25.856H25.792L25.744 10.768L25.696 10.784L25.664 10.816L25.632 10.848L25.616 10.896V10.952V11.016L25.648 11.048L25.664 11.096L25.68 11.144L25.696 11.192L25.712 11.24L25.728 11.288L25.744 11.328L25.728 11.376H25.664H25.6L25.568 11.344H25.504L25.464 11.36V11.424L25.448 11.472H25.384L25.336 11.488V11.552L25.352 11.6V11.632L25.32 11.664L25.288 11.632H25.224L25.176 11.648L25.208 11.68V11.736L25.24 11.768L25.208 11.8L25.176 11.832L25.192 11.88L25.208 11.928L25.16 11.944H25.104H25.04L24.992 11.96L25.024 11.992L25.04 12.04L25.056 12.08V12.144H25.024L24.976 12.128H24.912H24.848H24.784L24.768 12.176L24.8 12.208L24.816 12.256L24.832 12.304L24.784 12.32H24.728L24.696 12.288H24.632H24.568L24.552 12.336V12.4L24.536 12.448H24.472L24.424 12.432L24.376 12.416H24.32L24.288 12.384H24.224L24.208 12.432V12.488V12.552L24.16 12.568H24.096H24.032L24 12.536H23.944L23.928 12.584L23.944 12.632L23.976 12.664L24 12.696L24.016 12.744L23.976 12.76H23.912H23.848H23.784V12.792V12.824H23.72L23.672 12.84L23.688 12.88L23.704 12.928L23.688 12.976L23.656 13.008L23.64 13.056L23.624 13.104L23.608 13.152L23.6 13.2L23.552 13.184H23.52L23.504 13.224L23.488 13.272L23.472 13.32L23.44 13.288L23.408 13.256L23.376 13.224L23.36 13.272V13.336L23.344 13.384L23.328 13.432V13.496L23.312 13.544L23.264 13.56V13.616V13.68L23.224 13.696L23.176 13.712L23.16 13.76L23.128 13.792H23.064L23.048 13.84L23.016 13.872L23 13.92L22.984 13.968V14.024L22.968 14.072L22.952 14.12V14.184L22.92 14.216H22.888L22.848 14.2L22.832 14.248L22.816 14.296L22.784 14.264L22.752 14.296L22.736 14.344L22.72 14.384L22.672 14.368L22.624 14.352L22.592 14.384L22.576 14.432L22.544 14.464L22.496 14.48L22.456 14.496V14.56L22.424 14.592L22.392 14.624V14.688L22.376 14.728L22.344 14.76L22.328 14.808L22.312 14.856L22.296 14.904V14.968V15.032V15.096V15.152V15.216V15.28L22.264 15.312V15.376L22.296 15.408V15.472V15.528V15.592V15.656V15.72V15.784L22.328 15.816L22.312 15.856L22.296 15.904V15.968V16.032V16.096V16.16V16.224L22.264 16.248V16.312L22.296 16.344V16.408V16.472L22.312 16.52L22.328 16.568L22.344 16.616L22.36 16.656V16.72L22.392 16.752V16.816L22.424 16.848V16.912V16.976V17.032L22.44 17.08L22.456 17.128V17.192L22.472 17.24L22.48 17.288L22.528 17.304H22.592H22.656L22.688 17.336H22.752L22.784 17.368L22.832 17.376L22.856 17.408L22.888 17.44L22.92 17.472L22.952 17.504L22.984 17.536L23.016 17.568L23.064 17.584L23.112 17.6L23.144 17.632L23.176 17.664L23.208 17.696L23.224 17.744L23.232 17.784V17.848V17.912V17.976V18.04V18.104L23.224 18.144L23.208 18.192L23.192 18.24L23.176 18.288L23.144 18.32L23.096 18.336L23.048 18.352L23 18.368H22.936L22.888 18.384L22.848 18.4H22.784L22.736 18.416L22.688 18.432H22.624L22.576 18.416L22.528 18.4H22.472L22.44 18.432H22.376L22.344 18.464Z" fill="var(--fill-0, #F9D02E)"/>
</g>
</svg>
