<svg preserveAspectRatio="none" width="100%" height="100%" overflow="visible" style="display: block;" viewBox="0 0 27.2 16.808" fill="none" xmlns="http://www.w3.org/2000/svg">
<g id="Group">
<path id="Vector" d="M18.896 16.808H18.76H18.632H18.496H18.36H18.232H18.096H17.968H17.832H17.704H17.568H17.44H17.304H17.176H17.04L16.944 16.776L16.84 16.744H16.712L16.64 16.68H16.512H16.376L16.312 16.616H16.176L16.112 16.544L16.016 16.512L15.952 16.448L15.88 16.384V16.248V16.12L15.816 16.048L15.72 16.016L15.648 15.952H15.52L15.448 15.888L15.352 15.856L15.288 15.784L15.224 15.72L15.152 15.656L15.184 15.552V15.488L15.152 15.392V15.256H15.088L15.024 15.32L14.92 15.352L14.856 15.424L14.824 15.32L14.888 15.256L14.92 15.16L14.952 15.056L15.024 14.992L15.088 14.928L15.056 14.824L14.992 14.896L14.92 14.96L14.856 15.024L14.76 14.992V14.856V14.728L14.792 14.624L14.856 14.56L14.92 14.496L14.992 14.432L15.024 14.328L15.088 14.264L14.992 14.232L14.92 14.296L14.888 14.2H14.824L14.76 14.264H14.688L14.624 14.2V14.064L14.688 14L14.76 13.936L14.824 13.864L14.888 13.8L14.952 13.736L14.92 13.632L14.856 13.704L14.76 13.736H14.688L14.624 13.672L14.56 13.6L14.496 13.536L14.528 13.44L14.592 13.368V13.304L14.56 13.208V13.072L14.624 13.008L14.688 12.944L14.792 12.904L14.856 12.84L14.92 12.776L14.992 12.712L15.088 12.672L14.992 12.64L14.888 12.672L14.792 12.712H14.656L14.592 12.776L14.496 12.808H14.424L14.36 12.744L14.328 12.64L14.296 12.544V12.408V12.28L14.36 12.216L14.456 12.176L14.56 12.144L14.656 12.112L14.72 12.048L14.792 11.984V11.912L14.72 11.984H14.592L14.528 11.912L14.456 11.984H14.328L14.224 12.016H14.16L14.096 11.944V11.816L13.992 11.784H13.864H13.728H13.6L13.536 11.712L13.432 11.68L13.336 11.648L13.272 11.712L13.2 11.784H13.072H12.936H12.808H12.672H12.544L12.472 11.712L12.376 11.752L12.272 11.784H12.144L12.04 11.752L12.008 11.648L11.976 11.552L11.912 11.488L11.848 11.416H11.776V11.552L11.744 11.648L11.712 11.752L11.616 11.784H11.48H11.352H11.216L11.12 11.752L11.048 11.68L10.984 11.616L10.92 11.552L10.856 11.488L10.816 11.384L10.752 11.32L10.656 11.352V11.488L10.624 11.584L10.552 11.52L10.52 11.416L10.456 11.352L10.424 11.256L10.36 11.32L10.288 11.256L10.192 11.288L10.256 11.352V11.488L10.32 11.552L10.224 11.584L10.128 11.552L10.056 11.488L9.992 11.416L9.96 11.32L9.896 11.256L9.824 11.184L9.728 11.216L9.792 11.288V11.416H9.728L9.664 11.352L9.592 11.288L9.528 11.216L9.464 11.152L9.432 11.056L9.36 10.984L9.296 10.92L9.2 10.952V11.088L9.264 11.152L9.232 11.256H9.096L9.032 11.184L8.968 11.12L8.904 11.056L8.864 10.952L8.8 10.888L8.736 10.824L8.672 10.76H8.6L8.568 10.856L8.504 10.92H8.368L8.336 11.024L8.24 11.056H8.104H7.976H7.84L7.808 11.152V11.288L7.744 11.352V11.488V11.616V11.752L7.712 11.848L7.672 11.944L7.608 12.016L7.512 12.048L7.48 11.944L7.448 11.848L7.408 11.752L7.312 11.712L7.28 11.816V11.944V12.08V12.216L7.248 12.312L7.216 12.408L7.144 12.48L7.048 12.512L6.944 12.544L6.88 12.608L6.848 12.712L6.752 12.744L6.68 12.808L6.584 12.84L6.52 12.904L6.448 12.976L6.352 13.008L6.256 13.04L6.184 13.104L6.152 13.208V13.336V13.472V13.6V13.736V13.864V14V14.128V14.264L6.184 14.36L6.216 14.464V14.592L6.288 14.664V14.792L6.352 14.856V14.992L6.416 15.056L6.488 15.128L6.584 15.16L6.648 15.224L6.752 15.256L6.848 15.288L6.912 15.352H7.048L7.112 15.424L7.176 15.488L7.28 15.52L7.312 15.624L7.408 15.656L7.48 15.72L7.576 15.752V15.816L7.512 15.888L7.408 15.92L7.376 16.016L7.312 15.952H7.176L7.112 15.888V15.952L7.144 16.048L7.048 16.08L7.016 16.184L6.912 16.216H6.784L6.68 16.248L6.584 16.28H6.448L6.352 16.312L6.256 16.352L6.184 16.28H6.056L5.952 16.248L5.856 16.216H5.72L5.656 16.152H5.528L5.456 16.08H5.328L5.224 16.048L5.128 16.016H4.992L4.928 15.952H4.8L4.728 15.888H4.6L4.568 15.784L4.496 15.72V15.584L4.536 15.488L4.568 15.392L4.536 15.288L4.496 15.192V15.056L4.464 14.96L4.432 14.856V14.728L4.4 14.624L4.368 14.528V14.4L4.304 14.328V14.2L4.264 14.096L4.232 14L4.2 13.896L4.168 13.8V13.672L4.2 13.568L4.232 13.472L4.304 13.4V13.272L4.264 13.168L4.2 13.24L4.136 13.304L4.072 13.368L4 13.44L3.936 13.504L3.872 13.568L3.808 13.632L3.736 13.704L3.672 13.768L3.576 13.8L3.472 13.832L3.408 13.896H3.272L3.208 13.968L3.112 14L3.08 14.096L3.04 14.2V14.328L2.976 14.4V14.528V14.664L3.008 14.76L3.04 14.856V14.992L3.112 15.056L3.144 15.16L3.176 15.256L3.24 15.32L3.272 15.424L3.376 15.456L3.44 15.52L3.536 15.552L3.608 15.624L3.672 15.688L3.736 15.752L3.808 15.816L3.872 15.888L3.936 15.952L3.968 16.048V16.184L3.872 16.216L3.768 16.248L3.736 16.352H3.608H3.472L3.376 16.312L3.272 16.28L3.176 16.248L3.08 16.216L2.976 16.248L3.08 16.28L3.112 16.384L3.04 16.448L2.944 16.48H2.808H2.68L2.576 16.512L2.48 16.544H2.352H2.216L2.152 16.48H2.016L1.92 16.448L1.816 16.416L1.72 16.384L1.624 16.352H1.488L1.424 16.28H1.288L1.224 16.216H1.088L1.024 16.152L0.928 16.12L0.824 16.08L0.728 16.048V15.92L0.76 15.816L0.792 15.72L0.856 15.656L0.76 15.624L0.696 15.688L0.592 15.72H0.528L0.56 15.624L0.624 15.552L0.696 15.488L0.76 15.424L0.824 15.352L0.896 15.288L0.928 15.192V15.056L0.96 14.96V14.896L0.928 14.792L0.992 14.728V14.592V14.464V14.328V14.2V14.064V13.936V13.8L1.056 13.736V13.6V13.472V13.336L1.088 13.24L1.12 13.136V13.008V12.872L1.192 12.808L1.224 12.712L1.288 12.64L1.352 12.576L1.456 12.544L1.52 12.48L1.584 12.408L1.688 12.376L1.752 12.312L1.816 12.248L1.888 12.176L1.952 12.112L2.048 12.08L2.12 12.016L2.184 11.944L2.248 11.88L2.28 11.784L2.312 11.68L2.384 11.616L2.448 11.552L2.48 11.448L2.512 11.352L2.576 11.288L2.616 11.184L2.648 11.088V10.952L2.576 10.888L2.544 10.792L2.48 10.72L2.448 10.624L2.352 10.592L2.28 10.528L2.216 10.456L2.184 10.36L2.248 10.296L2.28 10.192L2.352 10.128L2.416 10.064L2.448 9.96L2.416 9.864V9.8L2.448 9.696V9.568L2.512 9.496V9.368L2.448 9.304V9.168V9.032V8.904V8.768V8.64V8.504L2.48 8.408L2.544 8.344L2.576 8.24L2.616 8.144L2.648 8.04L2.616 7.944L2.576 7.848V7.712V7.576V7.448L2.648 7.384L2.576 7.312V7.184V7.048V6.92L2.648 6.848L2.68 6.752L2.744 6.688L2.776 6.584L2.848 6.52L2.744 6.488L2.648 6.456V6.32V6.192L2.712 6.12V5.992L2.744 5.896L2.776 5.792L2.848 5.728L2.912 5.664L2.976 5.592L3.008 5.496V5.432H2.88H2.744H2.616H2.48L2.384 5.464L2.28 5.496H2.152H2.016L1.92 5.464L1.816 5.432L1.752 5.36H1.624L1.552 5.296L1.456 5.264L1.392 5.2L1.288 5.168L1.224 5.096L1.16 5.032L1.088 4.968L0.992 4.936L0.928 4.864L0.992 4.8L1.056 4.736L0.96 4.704H0.824H0.696L0.624 4.632H0.496L0.392 4.6L0.296 4.568V4.504L0.36 4.44L0.464 4.4L0.36 4.368L0.296 4.304H0.168V4.24L0.232 4.168L0.328 4.136L0.232 4.104H0.0959999L0.032 4.04L0 3.936V3.808L0.032 3.712L0.128 3.744L0.232 3.776H0.36L0.464 3.744L0.392 3.672L0.296 3.64L0.2 3.608L0.0959999 3.576L0 3.544L0.032 3.44H0.168H0.296L0.392 3.408L0.296 3.376L0.232 3.312L0.128 3.28L0.0639999 3.208L0.168 3.176V3.112L0.0639999 3.08L0 3.016V2.88L0.0959999 2.848H0.232H0.36H0.496H0.624V2.784L0.56 2.712L0.464 2.68L0.36 2.648L0.328 2.552L0.432 2.52H0.56H0.696H0.824H0.96H1.088H1.224L1.288 2.584H1.424L1.488 2.648L1.552 2.712L1.624 2.784L1.688 2.848L1.752 2.912L1.848 2.944L1.92 3.016L1.984 3.08L2.048 3.144L2.152 3.176L2.216 3.248L2.28 3.312H2.416L2.48 3.376H2.616L2.712 3.408L2.808 3.44L2.88 3.512H3.008L3.112 3.544L3.208 3.576L3.304 3.608L3.408 3.64H3.536H3.672H3.808H3.936H4.072L4.168 3.608L4.264 3.576H4.4L4.496 3.544L4.6 3.512H4.728H4.864L4.96 3.544L5.064 3.576H5.192L5.264 3.64H5.392H5.528H5.656H5.792L5.856 3.576H5.992H6.12H6.256H6.384H6.52H6.648H6.784H6.912H7.048H7.176L7.248 3.512L7.344 3.544L7.448 3.576L7.544 3.544L7.608 3.48L7.712 3.44H7.84H7.976L8.072 3.48L8.176 3.512H8.304H8.44H8.568L8.672 3.544L8.768 3.576H8.904H9.032H9.168L9.232 3.64L9.328 3.672L9.432 3.712L9.464 3.608L9.56 3.576H9.696L9.792 3.608L9.896 3.64L9.96 3.712H10.088H10.224L10.288 3.776H10.424H10.552L10.624 3.84H10.752H10.888L10.984 3.872L11.088 3.904H11.216H11.352H11.48H11.616H11.744H11.88H12.008H12.144H12.272H12.408H12.544H12.672H12.808L12.904 3.936L13 3.976L13.072 3.904L13.136 3.84H13.272H13.4H13.536H13.664L13.728 3.904L13.832 3.936L13.928 3.976L14.032 3.936V3.808L14.096 3.744L14.128 3.64H14.264L14.36 3.608L14.424 3.544L14.528 3.512L14.592 3.44L14.624 3.544L14.688 3.608L14.72 3.712L14.792 3.776L14.888 3.744L14.92 3.64L14.952 3.544L15.024 3.48L15.056 3.376H15.184L15.224 3.48L15.288 3.544L15.384 3.576L15.416 3.48L15.488 3.408L15.52 3.312L15.584 3.248L15.68 3.208L15.784 3.176L15.88 3.144L15.984 3.112H16.112L16.176 3.048L16.28 3.016L16.376 2.984H16.512L16.576 2.912L16.68 2.88L16.776 2.848L16.872 2.816L16.976 2.784L17.072 2.752L17.176 2.712L17.272 2.68L17.336 2.616L17.44 2.584L17.504 2.52L17.568 2.448L17.632 2.384L17.704 2.32L17.768 2.256L17.832 2.184L17.904 2.12L17.968 2.056L18.064 2.024L18.136 1.952L18.2 1.888L18.264 1.824L18.36 1.792L18.432 1.72L18.496 1.656L18.56 1.592L18.664 1.56L18.728 1.488L18.824 1.456L18.896 1.392L18.992 1.36L19.056 1.296L19.16 1.256L19.224 1.192L19.32 1.16L19.424 1.128L19.488 1.064L19.592 1.024L19.688 0.992L19.752 0.928L19.856 0.896L19.952 0.864L20.016 0.8L20.088 0.728L20.152 0.664L20.216 0.6L20.32 0.568L20.416 0.528L20.48 0.464L20.544 0.4L20.616 0.336L20.712 0.296L20.816 0.264L20.88 0.2H21.008L21.08 0.136L21.176 0.104L21.272 0.0720001H21.408L21.504 0.032L21.608 0H21.736H21.872H22L22.072 0.0720001H22.2L22.304 0.104L22.4 0.136L22.504 0.168L22.6 0.2L22.664 0.264L22.768 0.296L22.864 0.336L22.928 0.4H23.064L23.128 0.464L23.232 0.496L23.328 0.528L23.392 0.6L23.496 0.632L23.592 0.664L23.656 0.728L23.76 0.76L23.856 0.8L23.92 0.864L24.024 0.896L24.12 0.928L24.184 0.992L24.288 1.024L24.384 1.064L24.456 1.128L24.52 1.192L24.552 1.296L24.584 1.392L24.616 1.488V1.624V1.752L24.648 1.856L24.688 1.952L24.72 2.056L24.784 2.12L24.848 2.184L24.88 2.288L24.952 2.352L25.048 2.384L25.112 2.448H25.248L25.312 2.52L25.416 2.552L25.512 2.584L25.576 2.648L25.68 2.68L25.776 2.712L25.84 2.784L25.944 2.816L26.04 2.848L26.104 2.912L26.176 2.984L26.272 3.016L26.368 3.048L26.44 3.112L26.536 3.144L26.64 3.176L26.704 3.248H26.832L26.904 3.312L27 3.344L27.064 3.408L27.136 3.48V3.608L27.2 3.672L27.168 3.776L27.136 3.872L27.064 3.936L27.032 4.04L27 4.136L26.936 4.208V4.336L26.872 4.4V4.536V4.664L26.8 4.736L26.768 4.832L26.736 4.936L26.704 5.032L26.672 5.128L26.6 5.2L26.536 5.264L26.472 5.328L26.408 5.392L26.336 5.464L26.272 5.528L26.208 5.592L26.104 5.624L26.04 5.696H25.912L25.808 5.728L25.712 5.76L25.64 5.824H25.512L25.448 5.896L25.344 5.928L25.248 5.96L25.144 5.992L25.048 6.024L24.984 6.088H24.848H24.72L24.648 6.024L24.552 5.992L24.488 5.928L24.384 5.896L24.32 5.824L24.224 5.792L24.12 5.76H23.992H23.856L23.76 5.728L23.656 5.696H23.528L23.456 5.76L23.36 5.792L23.264 5.824L23.192 5.896L23.128 5.96L23.032 5.992V6.12V6.256V6.392V6.52V6.656L23 6.752L22.928 6.688L22.832 6.72V6.848V6.984V7.12L22.8 7.216L22.728 7.28L22.696 7.384V7.512L22.664 7.616L22.632 7.712V7.848L22.568 7.912V8.04L22.536 8.144L22.464 8.208L22.368 8.24L22.304 8.304L22.2 8.344L22.136 8.408L22.104 8.504V8.64L22.04 8.704V8.84L21.968 8.904V9.032L21.904 9.104H21.84L21.776 9.032V8.904L21.704 8.84H21.64L21.608 8.936L21.576 9.032L21.504 9.104L21.408 9.136H21.272L21.208 9.072H21.08L20.976 9.104L20.88 9.136L20.848 9.232L20.816 9.336L20.776 9.432L20.712 9.496L20.68 9.6L20.616 9.664L20.584 9.76L20.544 9.864H20.416V9.928L20.448 10.032L20.416 10.128L20.352 10.192L20.28 10.256L20.248 10.36L20.184 10.424L20.088 10.456L20.016 10.392H19.888H19.752V10.456L19.816 10.528L19.92 10.56V10.688L19.856 10.76L19.784 10.824L19.72 10.888H19.656L19.552 10.856H19.424L19.36 10.792L19.256 10.824L19.32 10.888L19.392 10.952L19.456 11.024L19.52 11.088L19.488 11.184L19.392 11.216V11.352L19.32 11.416L19.256 11.488L19.224 11.584L19.16 11.648L19.056 11.68L19.128 11.752L19.088 11.848L19.056 11.944L18.992 12.016V12.144L18.928 12.216L18.896 12.312L18.864 12.408L18.792 12.48V12.608L18.728 12.672V12.808L18.696 12.904L18.664 13.008V13.136L18.632 13.24L18.592 13.336V13.472V13.6V13.736L18.632 13.832L18.664 13.936V14.064L18.728 14.128V14.264V14.4L18.792 14.464L18.864 14.528L18.928 14.592L18.992 14.664L19.056 14.728L19.128 14.792L19.192 14.856L19.288 14.896L19.36 14.96L19.424 15.024L19.52 15.056L19.592 15.128L19.688 15.16L19.752 15.224L19.856 15.256L19.92 15.32L19.984 15.392V15.52L20.048 15.584L20.088 15.688L20.152 15.752L20.184 15.856L20.248 15.92L20.28 16.016L20.32 16.12L20.384 16.184L20.352 16.28H20.216L20.12 16.312L20.216 16.352L20.32 16.384L20.384 16.448L20.352 16.544H20.216H20.088H19.952H19.816L19.72 16.584L19.624 16.616L19.52 16.584L19.424 16.544H19.288L19.224 16.48H19.088L18.992 16.448H18.928L18.992 16.512V16.648L18.96 16.744L18.896 16.808Z" fill="var(--fill-0, #EC5998)"/>
</g>
</svg>
