<svg preserveAspectRatio="none" width="100%" height="100%" overflow="visible" style="display: block;" viewBox="0 0 27.2 26.472" fill="none" xmlns="http://www.w3.org/2000/svg">
<g id="Group">
<path id="Vector" d="M20.288 26.472H20.112H19.928H19.744H19.568H19.384H19.208H19.024H18.848H18.664H18.48H18.304H18.12H17.944L17.848 26.384H17.672L17.536 26.336L17.4 26.296L17.304 26.2L17.216 26.112L17.176 25.976L17.04 25.928L16.944 26.024L16.856 26.112L16.72 26.064L16.632 25.976L16.536 25.888L16.496 25.752L16.448 25.616V25.432V25.256L16.408 25.12H16.224L16.136 25.208L16.04 25.296L16 25.432L15.864 25.48L15.816 25.344L15.768 25.208L15.728 25.072V24.888V24.712V24.528L15.768 24.392L15.816 24.256L15.864 24.12L15.904 23.992L16 23.896L16.088 23.808L16.176 23.72L16.272 23.624L16.36 23.536L16.224 23.488L16.088 23.536L15.952 23.584L15.864 23.672L15.768 23.76L15.728 23.896L15.64 23.992H15.544V23.808V23.624V23.448V23.264V23.088L15.64 22.992L15.68 22.856L15.728 22.72L15.816 22.632L15.864 22.496L15.904 22.36L15.768 22.32L15.68 22.224L15.592 22.136L15.504 22.048L15.456 21.912V21.728L15.544 21.64V21.456L15.64 21.368V21.184L15.592 21.048H15.408H15.232L15.184 21.184V21.368V21.552L15.096 21.64V21.816L15 21.912V22.088L14.912 22.184L14.776 22.224L14.688 22.136L14.64 22H14.552V22.184L14.504 22.32L14.464 22.456L14.368 22.544L14.28 22.632L14.232 22.768L14.144 22.856L14.056 22.952L14.008 22.816V22.632H13.92L13.872 22.768L13.832 22.904L13.784 23.04L13.696 23.128L13.648 23.264L13.56 23.352L13.464 23.448L13.376 23.536L13.328 23.672L13.24 23.76L13.152 23.856L13.104 23.992L13.24 24.032L13.376 24.08L13.512 24.12L13.6 24.216L13.736 24.256L13.872 24.304L13.968 24.392L14.056 24.488L14.144 24.576L14.232 24.664L14.28 24.8L14.328 24.936L14.368 25.072V25.256L14.28 25.344L14.232 25.48L14.144 25.568L14.056 25.664L13.968 25.752L13.872 25.84L13.736 25.888L13.6 25.928H13.424H13.24H13.064H12.88H12.696L12.56 25.888H12.472L12.432 26.024L12.336 26.112L12.248 26.2L12.112 26.248L11.976 26.296H11.792H11.616H11.432H11.256H11.072H10.888H10.712H10.528H10.352H10.168H9.992H9.808H9.624H9.448H9.264H9.088H8.904H8.72H8.544H8.36H8.184H8H7.816H7.64H7.456H7.28H7.096H6.912L6.784 26.248L6.648 26.2L6.512 26.16L6.376 26.112L6.28 26.024L6.144 25.976L6.056 25.888L5.968 25.792L5.832 25.752H5.648H5.472H5.288H5.112H4.928L4.84 25.664H4.656H4.472H4.296H4.112H3.936L3.8 25.616L3.664 25.568H3.48H3.304H3.12H2.936L2.808 25.616L2.672 25.664H2.488H2.304H2.128H1.944H1.768H1.584L1.448 25.704L1.312 25.752H1.136H0.952H0.768H0.592L0.496 25.84H0.32H0.136L0 25.792L0.0959999 25.704L0.232 25.664L0.32 25.568L0.408 25.48L0.544 25.432L0.632 25.344L0.768 25.296L0.864 25.208L1 25.16L1.088 25.072L1.224 25.024L1.312 24.936L1.4 24.848L1.536 24.8L1.672 24.76L1.768 24.664L1.856 24.576L1.992 24.528L2.128 24.488L2.216 24.392L2.352 24.352L2.488 24.304L2.576 24.216H2.76L2.848 24.12L2.984 24.08L3.12 24.032L3.256 23.992L3.392 23.944L3.528 23.896L3.664 23.856L3.8 23.808L3.936 23.76L4.024 23.672H4.208L4.296 23.584L4.384 23.488L4.472 23.4L4.568 23.312L4.608 23.176L4.52 23.088V22.904L4.432 22.816V22.632L4.384 22.496L4.344 22.36V22.184L4.248 22.088V21.912V21.728L4.208 21.592L4.16 21.456V21.28V21.096V20.912V20.736V20.552L4.208 20.416L4.248 20.28V20.104L4.296 19.968L4.344 19.832V19.648L4.432 19.56L4.472 19.424L4.52 19.288L4.568 19.152L4.608 19.016L4.704 18.928L4.744 18.792L4.792 18.656L4.88 18.568L4.976 18.48L5.064 18.384L5.112 18.248L5.2 18.16L5.288 18.072L5.376 17.976L5.424 17.84L5.512 17.752L5.608 17.664L5.696 17.576L5.784 17.48L5.88 17.392L5.968 17.304L6.056 17.208L6.144 17.12L6.24 17.032L6.328 16.936L6.416 16.848L6.464 16.712L6.552 16.624L6.648 16.536L6.736 16.44L6.824 16.352L6.912 16.264L7.008 16.168L7.048 16.04L7.144 15.944L7.232 15.856L7.32 15.768L7.416 15.672L7.504 15.584L7.592 15.496L7.64 15.36L7.728 15.272L7.816 15.176L7.912 15.088L8 15L8.048 14.864L8.136 14.768L8.224 14.68L8.32 14.592L8.408 14.496L8.496 14.408L8.584 14.32L8.68 14.232L8.768 14.136L8.904 14.096L8.992 14L9.088 13.912L9.176 13.824L9.312 13.776L9.448 13.728L9.536 13.64L9.624 13.552L9.76 13.504L9.896 13.464L9.992 13.368L10.12 13.328L10.256 13.28L10.352 13.192L10.488 13.144L10.576 13.056L10.712 13.008L10.8 12.92L10.936 12.872L11.072 12.832L11.16 12.736L11.296 12.696L11.432 12.648L11.528 12.56L11.656 12.512L11.792 12.464L11.888 12.376L12.024 12.328L12.16 12.288L12.248 12.192L12.336 12.104L12.432 12.016L12.52 11.928L12.608 11.832L12.656 11.696L12.744 11.608L12.832 11.52L12.928 11.424L13.016 11.336L13.104 11.248L13.2 11.16L13.288 11.064L13.424 11.024L13.512 10.928L13.648 10.888L13.736 10.792L13.832 10.704L13.696 10.656L13.648 10.52L13.696 10.392L13.784 10.296L13.872 10.208L14.008 10.16L14.144 10.12L14.232 10.024L14.328 9.936H14.504L14.6 9.848L14.736 9.8L14.864 9.752L14.96 9.664L15.096 9.624L15.184 9.528L15.272 9.44L15.368 9.352L15.408 9.216L15.456 9.08L15.504 8.944L15.544 8.808L15.64 8.72L15.728 8.624L15.768 8.488L15.816 8.352L15.728 8.264L15.64 8.176L15.544 8.08L15.456 7.992L15.408 7.856L15.368 7.72L15.32 7.584L15.272 7.448V7.272V7.088V6.912L15.32 6.776L15.368 6.64L15.408 6.504L15.456 6.368L15.544 6.28L15.504 6.144L15.408 6.232L15.32 6.32L15.272 6.456L15.184 6.544L15.136 6.68L15.096 6.816V7H15L14.912 6.912V6.728V6.544V6.368V6.184L14.96 6.048L15 5.912V5.736L15.096 5.648L15.136 5.512L15.184 5.376L15.272 5.28L15.368 5.192L15.408 5.056L15.504 4.968L15.544 4.832L15.64 4.744L15.728 4.648L15.768 4.512L15.816 4.376L15.864 4.24L15.904 4.104L16 4.016L16.04 3.88L16.136 3.792L16.224 3.704L16.272 3.568L16.408 3.52L16.448 3.384L16.536 3.296L16.632 3.208V3.024L16.72 2.936V2.752L16.768 2.616L16.808 2.48L16.904 2.392V2.208L16.992 2.12L17.08 2.032L17.128 1.896L17.216 1.8L17.304 1.712L17.4 1.624L17.536 1.576L17.672 1.536L17.76 1.44H17.944H18.12V1.352L17.984 1.304L18.032 1.168L18.12 1.08L18.256 1.032L18.392 0.992L18.48 0.896H18.664L18.752 0.808H18.936H19.112H19.296H19.48H19.656H19.84H20.016V0.72L19.976 0.584L19.88 0.496L19.84 0.36L19.792 0.224V0.04L19.928 0L20.016 0.0879999L20.112 0.176L20.248 0.224L20.384 0.264L20.472 0.36H20.648L20.696 0.224L20.608 0.128L20.648 0L20.784 0.04L20.88 0.128L21.016 0.176L21.104 0.264H21.28L21.416 0.312L21.552 0.36L21.688 0.4L21.824 0.448L21.92 0.536L22.048 0.584L22.184 0.632L22.28 0.72V0.632L22.232 0.496L22.144 0.4L22.048 0.312L21.96 0.224L21.872 0.128L21.92 0L22.048 0.04L22.184 0.0879999L22.28 0.176L22.416 0.224L22.552 0.264L22.64 0.36L22.728 0.448L22.824 0.536L22.912 0.632L22.952 0.768L23.048 0.856L23.088 0.992L23.136 1.128L23.272 1.168L23.36 1.264H23.544H23.72H23.904L23.992 1.352L24.128 1.4L24.264 1.44L24.36 1.536L24.488 1.576L24.584 1.672L24.672 1.76L24.76 1.848L24.856 1.936L24.72 1.984H24.536H24.36L24.224 2.032L24.128 2.12L24.264 2.168L24.36 2.256L24.488 2.304L24.584 2.392L24.72 2.44L24.808 2.528L24.856 2.664L24.944 2.752L24.992 2.888L25.032 3.024L24.896 3.072L24.808 2.976H24.624L24.488 3.024L24.624 3.072L24.72 3.16L24.856 3.208L24.808 3.336L24.672 3.384V3.568L24.72 3.704L24.808 3.792L24.944 3.84L25.08 3.88L25.216 3.928L25.352 3.976L25.488 4.016L25.624 4.064L25.76 4.104L25.896 4.152H26.072L26.208 4.2L26.344 4.24H26.528L26.664 4.288L26.8 4.336L26.888 4.424L26.976 4.512L27.024 4.648L26.976 4.784L26.928 4.92V5.104V5.28L26.976 5.416L27.024 5.552L27.112 5.648V5.824L27.16 5.96L27.2 6.096L27.112 6.184V6.368L27.064 6.504L26.928 6.456V6.28H26.84V6.456V6.64L26.752 6.728V6.912L26.664 7V7.184L26.568 7.272V7.448L26.48 7.544L26.432 7.68L26.296 7.632L26.16 7.584L26.12 7.72L26.032 7.816L25.984 7.952L25.936 8.08L25.8 8.128L25.712 8.04L25.624 7.952L25.576 8.08V8.264L25.528 8.4L25.44 8.488L25.352 8.584L25.256 8.672L25.128 8.72L24.992 8.76L24.856 8.808L24.72 8.856H24.536L24.4 8.808L24.264 8.76L24.176 8.672L24.128 8.808L24.176 8.944L24.224 9.08L24.088 9.12H23.904H23.72L23.592 9.08L23.456 9.032L23.36 8.944H23.184L23.088 8.856L23 8.76H22.824L22.688 8.808L22.552 8.856L22.456 8.944L22.416 9.08L22.32 9.168V9.352V9.528L22.416 9.624L22.504 9.712L22.552 9.848L22.64 9.936L22.728 10.024L22.824 10.12L22.864 10.256L22.952 10.344V10.52V10.704L23 10.84L23.048 10.976V11.16V11.336L23.136 11.424V11.608V11.792L23.048 11.88L22.912 11.928L22.776 11.88H22.688V12.064V12.24V12.424L22.728 12.56L22.776 12.696L22.824 12.832L22.864 12.96L22.952 13.056L23.048 13.144L23.136 13.232L23.224 13.328L23.36 13.368L23.456 13.464L23.544 13.552L23.632 13.64L23.68 13.776L23.768 13.864V14.048V14.232L23.68 14.32L23.632 14.456L23.544 14.544L23.456 14.632L23.408 14.768L23.32 14.864L23.272 15L23.224 15.136V15.312V15.496V15.672L23.32 15.768V15.944L23.224 16.04L23.184 16.168L23.136 16.304V16.488V16.672L23.088 16.808L22.952 16.76L22.864 16.672L22.728 16.624L22.64 16.536L22.504 16.488L22.368 16.44L22.32 16.576L22.416 16.672L22.456 16.808L22.504 16.936L22.592 17.032V17.208L22.688 17.304V17.48L22.728 17.616L22.776 17.752V17.936L22.688 18.024L22.64 18.16L22.552 18.248L22.416 18.208L22.28 18.16L22.184 18.072L22.048 18.024H21.96L21.872 18.112V18.296L21.96 18.384L22.008 18.52L22.096 18.608L22.184 18.704L22.28 18.792L22.368 18.88H22.552L22.64 18.976L22.728 19.064L22.776 19.2V19.376L22.688 19.472L22.592 19.56L22.552 19.696L22.504 19.832V20.016L22.592 20.104L22.688 20.192L22.776 20.28L22.728 20.416H22.552H22.368L22.232 20.464V20.648L22.32 20.736L22.416 20.824L22.504 20.912L22.64 20.96L22.728 21.048L22.824 21.144V21.232L22.728 21.32L22.592 21.368L22.456 21.416H22.28V21.504L22.368 21.592L22.504 21.64L22.592 21.728L22.688 21.816L22.776 21.912L22.864 22V22.184V22.36L22.824 22.496L22.688 22.544L22.552 22.584L22.456 22.68H22.28L22.232 22.816L22.28 22.952L22.32 23.088L22.416 23.176L22.456 23.312L22.504 23.448L22.592 23.536L22.688 23.624L22.728 23.76L22.824 23.856L22.864 23.992L22.952 24.08L23.048 24.168L23.136 24.256L23.224 24.352L23.36 24.392L23.456 24.488L23.592 24.528L23.72 24.576H23.904L23.992 24.664H24.176L24.264 24.76L24.36 24.848L24.4 24.984L24.488 25.072V25.256L24.584 25.344V25.528L24.488 25.616V25.792L24.4 25.888L24.36 26.024L24.264 26.112L24.128 26.16L23.992 26.2L23.856 26.248L23.72 26.296H23.544H23.36H23.184H23H22.824H22.64L22.504 26.248L22.368 26.2H22.184H22.008L21.872 26.16L21.736 26.112H21.552H21.376L21.28 26.024H21.104H20.92L20.832 25.928L20.744 26.024L20.648 26.112L20.56 26.2L20.472 26.296L20.384 26.384L20.288 26.472Z" fill="var(--fill-0, #EC5998)"/>
</g>
</svg>
