<svg preserveAspectRatio="none" width="100%" height="100%" overflow="visible" style="display: block;" viewBox="0 0 27.2 25.568" fill="none" xmlns="http://www.w3.org/2000/svg">
<g id="Group">
<path id="Vector" d="M18.536 25.568H18.504H18.464H18.432H18.392H18.36H18.32H18.288H18.248H18.216H18.176H18.144H18.104H18.072H18.032H18L17.968 25.56L17.952 25.544L17.928 25.536H17.888L17.864 25.52L17.832 25.512H17.8L17.768 25.504L17.752 25.488L17.728 25.48H17.688L17.664 25.472L17.632 25.456H17.6L17.584 25.44H17.544L17.528 25.424H17.488L17.472 25.408H17.432L17.416 25.384L17.392 25.376L17.36 25.368L17.336 25.36L17.312 25.352L17.288 25.336L17.264 25.328L17.24 25.312L17.216 25.296L17.192 25.288L17.168 25.28L17.144 25.264L17.12 25.248L17.104 25.232L17.08 25.216L17.056 25.208L17.04 25.192L17.016 25.168L16.992 25.16L16.968 25.152L16.936 25.144L16.912 25.136L16.896 25.12L16.872 25.096L16.856 25.08L16.832 25.072L16.808 25.056L16.792 25.032L16.776 25.016L16.76 25L16.728 24.992L16.712 24.968L16.696 24.952L16.672 24.936L16.656 24.92L16.632 24.912L16.616 24.888L16.592 24.872L16.584 24.848L16.568 24.824L16.552 24.808L16.52 24.8L16.504 24.784L16.48 24.776L16.456 24.752L16.44 24.736L16.424 24.72L16.408 24.696L16.384 24.68L16.368 24.664L16.352 24.648L16.328 24.624L16.32 24.6L16.304 24.584L16.288 24.568L16.272 24.544L16.256 24.52L16.24 24.504L16.232 24.472L16.216 24.456L16.208 24.432L16.184 24.408L16.176 24.384L16.16 24.368L16.152 24.336L16.144 24.312L16.12 24.296V24.256L16.104 24.24L16.096 24.208L16.088 24.184L16.08 24.16L16.072 24.128L16.064 24.104L16.048 24.072L16.04 24.048L16.032 24.024V23.984V23.952L16.024 23.92L16.016 23.896V23.856V23.824V23.784V23.752V23.712V23.68L16.032 23.656V23.624V23.584V23.552L16.048 23.536V23.496V23.464L16.072 23.44V23.408V23.368L16.088 23.352V23.312L16.104 23.296V23.264L16.112 23.232L16.12 23.208L16.136 23.176L16.144 23.152L16.152 23.128L16.16 23.096L16.168 23.072L16.176 23.048V23.008L16.192 22.992V22.952V22.92L16.208 22.888L16.216 22.864V22.824V22.792V22.752V22.72L16.232 22.704V22.664V22.624V22.592V22.552V22.52V22.48V22.448L16.224 22.416L16.216 22.392V22.36V22.32V22.28V22.248V22.208V22.176V22.136L16.208 22.112L16.192 22.088V22.048V22.016V21.976V21.944V21.904V21.864V21.832V21.792V21.76V21.72V21.688V21.648V21.616V21.576V21.544V21.504V21.472V21.432V21.4V21.36V21.328V21.288V21.256V21.216V21.184V21.144V21.104V21.072V21.032V21V20.96L16.216 20.944V20.912V20.872V20.84V20.8V20.76V20.728V20.688V20.656L16.232 20.64V20.6V20.568V20.528V20.496V20.456V20.416L16.24 20.392L16.248 20.368V20.328V20.296V20.256V20.224L16.256 20.192L16.272 20.168V20.128V20.096V20.056V20.024L16.288 20V19.968V19.928V19.896V19.856L16.304 19.84V19.808V19.768V19.736L16.312 19.704L16.32 19.68V19.64V19.608V19.568L16.344 19.552V19.512V19.48V19.44V19.408V19.368V19.336L16.36 19.32V19.28V19.24L16.344 19.224V19.192V19.152V19.12L16.328 19.088L16.32 19.064V19.024L16.312 19L16.304 18.976V18.936L16.296 18.912L16.288 18.88V18.848L16.28 18.816L16.272 18.792V18.752V18.72L16.248 18.704V18.664V18.632V18.592L16.232 18.576V18.536L16.224 18.512L16.216 18.48V18.448L16.208 18.424L16.192 18.392V18.36V18.32L16.176 18.304V18.264V18.232V18.192L16.16 18.176V18.136V18.104V18.064L16.144 18.048V18.016L16.136 17.984L16.12 17.96V17.92L16.104 17.904L16.096 17.88L16.088 17.848L16.072 17.832L16.048 17.816L16.032 17.792L16.016 17.776L15.984 17.768L15.96 17.76L15.936 17.752H15.896H15.864L15.84 17.736H15.808H15.768H15.736H15.696H15.664H15.624L15.6 17.744L15.568 17.752H15.536H15.496H15.464H15.424H15.392L15.36 17.744L15.336 17.736H15.304H15.264H15.224L15.208 17.712H15.176L15.144 17.704L15.12 17.696L15.088 17.688L15.064 17.68L15.04 17.672L15.008 17.664L14.992 17.64H14.96L14.936 17.624L14.912 17.616L14.88 17.608L14.864 17.584L14.84 17.576L14.824 17.56L14.792 17.552L14.776 17.536L14.752 17.528L14.728 17.504L14.704 17.496L14.688 17.48L14.656 17.472L14.64 17.456L14.616 17.44L14.592 17.424L14.568 17.416L14.544 17.408L14.52 17.392L14.496 17.376L14.464 17.368L14.448 17.352H14.416L14.392 17.336H14.36L14.344 17.32H14.304L14.28 17.304L14.248 17.296H14.216L14.184 17.288L14.16 17.28H14.12H14.088H14.048H14.016H13.976H13.944H13.904H13.872H13.832H13.8H13.76H13.728H13.688H13.656H13.616H13.584H13.544H13.512H13.472H13.44H13.4H13.36L13.344 17.264H13.312H13.272L13.256 17.24H13.216L13.192 17.232L13.168 17.224H13.128L13.112 17.208H13.072L13.056 17.192H13.016L13 17.168H12.968L12.944 17.152L12.92 17.144L12.896 17.136H12.856L12.84 17.12L12.808 17.112L12.784 17.096L12.76 17.088L12.728 17.08L12.704 17.072L12.672 17.064L12.648 17.056L12.624 17.048L12.592 17.032L12.568 17.024L12.544 17.016L12.512 17.008L12.496 16.992H12.456L12.44 16.976H12.408L12.384 16.952H12.352L12.336 16.936L12.304 16.928L12.28 16.92L12.248 16.912L12.224 16.904L12.208 16.88H12.168L12.152 16.864L12.128 16.856L12.096 16.848L12.072 16.84L12.04 16.824L12.016 16.816L11.992 16.808L11.96 16.8L11.936 16.792L11.904 16.784L11.88 16.776L11.864 16.752H11.824L11.808 16.736H11.768L11.752 16.72H11.72L11.696 16.704H11.664L11.632 16.688L11.608 16.68L11.584 16.672L11.552 16.664H11.52L11.496 16.648H11.464H11.424L11.408 16.632H11.376H11.336H11.304H11.264L11.24 16.616L11.208 16.608H11.176H11.136L11.112 16.6L11.08 16.592H11.048H11.008L10.992 16.576H10.96H10.92L10.904 16.56H10.864H10.832H10.792L10.776 16.536H10.736H10.704H10.664H10.632H10.592H10.56H10.52H10.488H10.448H10.416H10.376H10.344H10.304L10.28 16.528L10.248 16.52H10.216L10.2 16.504H10.16L10.144 16.48H10.104L10.088 16.464L10.064 16.456L10.032 16.448L10.016 16.432L9.992 16.424L9.96 16.408L9.944 16.392L9.928 16.376L9.896 16.368L9.872 16.36L9.856 16.336L9.832 16.32L9.808 16.312L9.784 16.304L9.76 16.288L9.744 16.264L9.72 16.256L9.688 16.248L9.672 16.232L9.656 16.216L9.632 16.192L9.608 16.184L9.592 16.168L9.56 16.16L9.544 16.136L9.52 16.128L9.496 16.112L9.472 16.104L9.456 16.088L9.44 16.064L9.408 16.056L9.392 16.04L9.368 16.032L9.344 16.016L9.32 16.008L9.304 15.984L9.272 15.976L9.256 15.96L9.232 15.952L9.2 15.944L9.184 15.92L9.168 15.904L9.136 15.896L9.112 15.888L9.096 15.872L9.064 15.856L9.04 15.848L9.024 15.832L8.992 15.824L8.968 15.816L8.944 15.8L8.92 15.784L8.896 15.776L8.872 15.76L8.848 15.752L8.824 15.744L8.8 15.72L8.776 15.712L8.752 15.704L8.728 15.688L8.704 15.68L8.68 15.672L8.656 15.648L8.632 15.64L8.616 15.624L8.584 15.616L8.56 15.608L8.528 15.6L8.512 15.576L8.488 15.568L8.456 15.56L8.44 15.544H8.408L8.384 15.528L8.36 15.512L8.336 15.504L8.304 15.496L8.28 15.488L8.248 15.48L8.224 15.472H8.184L8.168 15.456H8.136L8.104 15.44L8.08 15.432H8.04H8.008H7.968H7.936H7.896H7.864L7.832 15.44L7.808 15.456L7.784 15.464L7.752 15.472L7.736 15.488L7.72 15.504L7.696 15.528L7.68 15.544L7.664 15.56L7.656 15.592L7.632 15.608L7.616 15.624L7.608 15.648L7.6 15.68L7.584 15.696L7.576 15.72L7.56 15.752L7.544 15.768V15.808L7.528 15.824L7.52 15.848L7.512 15.88L7.504 15.904L7.488 15.928L7.48 15.96L7.472 15.984L7.464 16.016L7.456 16.04L7.44 16.056V16.096L7.416 16.112V16.152L7.4 16.168V16.2L7.392 16.232L7.384 16.256L7.376 16.288L7.368 16.312L7.352 16.336L7.344 16.368L7.336 16.392L7.328 16.424L7.32 16.448L7.312 16.472L7.304 16.504L7.296 16.528L7.28 16.56L7.272 16.584L7.264 16.608L7.256 16.64L7.248 16.664L7.24 16.688L7.232 16.72L7.216 16.744L7.208 16.776L7.2 16.8L7.192 16.824L7.184 16.856L7.176 16.88L7.168 16.912L7.16 16.936L7.144 16.96L7.136 16.992L7.128 17.016L7.12 17.048L7.112 17.072L7.104 17.096L7.096 17.128L7.08 17.152L7.072 17.184L7.056 17.2V17.232L7.04 17.256L7.032 17.28L7.024 17.304L7.008 17.336L7 17.36L6.984 17.376L6.976 17.408L6.968 17.432L6.96 17.464L6.952 17.488L6.928 17.504L6.92 17.536L6.912 17.56L6.896 17.576L6.888 17.608L6.872 17.632L6.864 17.664L6.856 17.688L6.84 17.704L6.824 17.72L6.816 17.752L6.8 17.776L6.784 17.792L6.768 17.816L6.76 17.84L6.752 17.872L6.728 17.888L6.712 17.904L6.696 17.92L6.688 17.952L6.664 17.968L6.656 17.992L6.64 18.016L6.624 18.032L6.616 18.056L6.592 18.08L6.584 18.104L6.568 18.12L6.552 18.136L6.544 18.168L6.52 18.184L6.504 18.2L6.488 18.224L6.48 18.248L6.456 18.264L6.44 18.288L6.424 18.304L6.416 18.328L6.4 18.344L6.376 18.368L6.36 18.384L6.352 18.408L6.336 18.432L6.312 18.448L6.296 18.464L6.28 18.48L6.264 18.504L6.248 18.528L6.232 18.544L6.216 18.568L6.2 18.584L6.192 18.608L6.168 18.632L6.152 18.648L6.136 18.664L6.112 18.68L6.104 18.712L6.088 18.728L6.072 18.744L6.056 18.768L6.04 18.792L6.024 18.808L6.008 18.824L5.992 18.848L5.968 18.864L5.952 18.88L5.936 18.896L5.92 18.92L5.896 18.936L5.888 18.96L5.872 18.984L5.856 19L5.832 19.016L5.824 19.048L5.808 19.064L5.792 19.08L5.768 19.096L5.752 19.12L5.736 19.136L5.72 19.152L5.712 19.184L5.68 19.192L5.672 19.216L5.656 19.232L5.64 19.256L5.616 19.272L5.6 19.288L5.592 19.32L5.576 19.336L5.552 19.352L5.536 19.368L5.52 19.392L5.504 19.408L5.488 19.432L5.472 19.448L5.456 19.472L5.44 19.488L5.416 19.504L5.408 19.536L5.392 19.552L5.376 19.568L5.352 19.584L5.336 19.608L5.328 19.632L5.312 19.648L5.296 19.672L5.28 19.696L5.264 19.712L5.248 19.736L5.232 19.752L5.208 19.768L5.192 19.784L5.176 19.808L5.168 19.832L5.144 19.848L5.128 19.864L5.12 19.896L5.104 19.912L5.088 19.928L5.064 19.952L5.048 19.968L5.04 19.992L5.024 20.016L5 20.032L4.992 20.056L4.976 20.08L4.96 20.096L4.936 20.112L4.928 20.136L4.912 20.16L4.896 20.176L4.88 20.192L4.864 20.224L4.848 20.24L4.832 20.256L4.824 20.288L4.8 20.304L4.792 20.328L4.776 20.344L4.76 20.368L4.752 20.392L4.728 20.408L4.72 20.44L4.704 20.456L4.696 20.48L4.688 20.512L4.672 20.528L4.656 20.552L4.648 20.584L4.632 20.6L4.624 20.632L4.616 20.656L4.592 20.672V20.712L4.576 20.728V20.76L4.56 20.784V20.816L4.544 20.84V20.872L4.536 20.896L4.52 20.928V20.96V21L4.504 21.016V21.056V21.088L4.496 21.12L4.488 21.144V21.184V21.216V21.256V21.288L4.472 21.304V21.344V21.376V21.416V21.448V21.488L4.456 21.512L4.448 21.544V21.576V21.616V21.648V21.688V21.72V21.76L4.432 21.776V21.816V21.848V21.888V21.92V21.96V21.992V22.032L4.424 22.056L4.416 22.088V22.12V22.16V22.192V22.232V22.264L4.408 22.296L4.4 22.32V22.36V22.392V22.432L4.384 22.456L4.376 22.48V22.52V22.552L4.368 22.584L4.36 22.608V22.648V22.68L4.344 22.704V22.736L4.336 22.76L4.328 22.792V22.824L4.304 22.848V22.88V22.92V22.952L4.288 22.968L4.296 23L4.304 23.024V23.064V23.096V23.136V23.168L4.312 23.2L4.328 23.224V23.264V23.296L4.344 23.312V23.352V23.384L4.352 23.416L4.36 23.44V23.48V23.512L4.376 23.536V23.568V23.608L4.4 23.624L4.408 23.648L4.416 23.68L4.424 23.704L4.432 23.728L4.448 23.752L4.456 23.776L4.472 23.808L4.488 23.824L4.504 23.84L4.512 23.864L4.52 23.896L4.544 23.912L4.56 23.928L4.568 23.96L4.576 23.984L4.592 24L4.608 24.032L4.616 24.056L4.624 24.088L4.632 24.112V24.144V24.184L4.64 24.208L4.648 24.24V24.272V24.312V24.344V24.384V24.416V24.456V24.488L4.632 24.512V24.544V24.584L4.616 24.6V24.64L4.592 24.656V24.688L4.576 24.712L4.568 24.736L4.552 24.752L4.544 24.784L4.52 24.8L4.504 24.816L4.488 24.832L4.48 24.864L4.456 24.88L4.44 24.896L4.424 24.92L4.4 24.928L4.376 24.944L4.352 24.952L4.336 24.968L4.312 24.992L4.288 25L4.264 25.008L4.24 25.024L4.216 25.032L4.192 25.04L4.168 25.064H4.136L4.12 25.08H4.08L4.064 25.096H4.024L4 25.104L3.968 25.12H3.936L3.92 25.136H3.88H3.848L3.824 25.152H3.792H3.752L3.728 25.16L3.696 25.168H3.664H3.624H3.592L3.576 25.192H3.536H3.504H3.464H3.432L3.408 25.208H3.376H3.336H3.304H3.264H3.232H3.192H3.16H3.12H3.088H3.048L3.024 25.2L2.992 25.192H2.96H2.92H2.888H2.848H2.816H2.776H2.744H2.704H2.672L2.64 25.176L2.616 25.168H2.576H2.544H2.504H2.472H2.432H2.4H2.36H2.328H2.288H2.256H2.216H2.176H2.144H2.104H2.072H2.032H2L1.968 25.16L1.944 25.152H1.912L1.88 25.144L1.856 25.136L1.824 25.128L1.8 25.12L1.784 25.096L1.752 25.088L1.736 25.072L1.712 25.064L1.704 25.032L1.68 25.016L1.656 25.008L1.64 24.992L1.616 24.968L1.6 24.952L1.584 24.936L1.568 24.92L1.536 24.912L1.528 24.88L1.52 24.856L1.504 24.832L1.48 24.816L1.464 24.8L1.456 24.776L1.448 24.744L1.432 24.728L1.416 24.696L1.408 24.672L1.392 24.656L1.384 24.624L1.376 24.6L1.36 24.584L1.344 24.552L1.336 24.528L1.32 24.512V24.472L1.304 24.456L1.296 24.432L1.28 24.4L1.272 24.376L1.264 24.344L1.256 24.32L1.248 24.296L1.24 24.264L1.232 24.24L1.224 24.208L1.208 24.184V24.144L1.192 24.128V24.096L1.184 24.064L1.176 24.04V24L1.16 23.984V23.952L1.152 23.92L1.136 23.896V23.856L1.128 23.832L1.12 23.808V23.768V23.728L1.112 23.704L1.104 23.68V23.64V23.608V23.568V23.536V23.496V23.464L1.12 23.44V23.408V23.368L1.136 23.352V23.312L1.152 23.288L1.16 23.264L1.168 23.232L1.176 23.208L1.184 23.176L1.192 23.152L1.2 23.128L1.208 23.096L1.232 23.08V23.048L1.248 23.024L1.256 23L1.264 22.968L1.272 22.944L1.28 22.92V22.88L1.304 22.864V22.824V22.792L1.32 22.776V22.736V22.704L1.328 22.672L1.336 22.648V22.608V22.576V22.536V22.504V22.464V22.432V22.392L1.36 22.376V22.336V22.304L1.344 22.272L1.336 22.248V22.208V22.176V22.136V22.104V22.064V22.032V21.992V21.96V21.92V21.888V21.848V21.816L1.328 21.784L1.32 21.76V21.72V21.688V21.648V21.616V21.576V21.544V21.504L1.336 21.488V21.448V21.416V21.376V21.344V21.304L1.344 21.28L1.36 21.256V21.216L1.368 21.192L1.376 21.16V21.128L1.392 21.104V21.072L1.408 21.056L1.416 21.024L1.432 21L1.44 20.968L1.448 20.944L1.456 20.92L1.464 20.888L1.48 20.872V20.84L1.504 20.816L1.512 20.792L1.52 20.76L1.528 20.736L1.536 20.712L1.552 20.688V20.656L1.576 20.64L1.584 20.608L1.592 20.584L1.6 20.552L1.608 20.528L1.616 20.504L1.624 20.472L1.648 20.456V20.416L1.664 20.4L1.672 20.376L1.68 20.344L1.688 20.32L1.704 20.296L1.712 20.264L1.72 20.24L1.736 20.224V20.184L1.752 20.168V20.128L1.776 20.112V20.08L1.792 20.056V20.024L1.808 20V19.968L1.824 19.952V19.912L1.848 19.896V19.856L1.864 19.84V19.808L1.88 19.784L1.888 19.76L1.896 19.736V19.696L1.92 19.68V19.64L1.936 19.624V19.584L1.944 19.56L1.952 19.536L1.96 19.504L1.968 19.48L1.984 19.448L1.992 19.424L2 19.4L2.008 19.368V19.336L2.024 19.32V19.28L2.032 19.256L2.04 19.224V19.192L2.064 19.168V19.136L2.072 19.104L2.08 19.08V19.048L2.096 19.024V18.992L2.104 18.96L2.12 18.936V18.896L2.128 18.872L2.136 18.848V18.808L2.144 18.784L2.152 18.752V18.72V18.68L2.168 18.664V18.632V18.592L2.176 18.568L2.192 18.536V18.504V18.464V18.432L2.208 18.408V18.376V18.336V18.304V18.264L2.224 18.248V18.216V18.176V18.136V18.104V18.064V18.032V17.992L2.24 17.976V17.944V17.904V17.872V17.832V17.792V17.76V17.72V17.688V17.648V17.616V17.576V17.544V17.504L2.224 17.488V17.456V17.416V17.376V17.344V17.304V17.272V17.232V17.2L2.208 17.184V17.144V17.112V17.072V17.032V17L2.192 16.984V16.944V16.912V16.872V16.84L2.168 16.816V16.784V16.744V16.712L2.16 16.68L2.152 16.656V16.616V16.584L2.144 16.56L2.136 16.528V16.496V16.456L2.128 16.432L2.12 16.4V16.368V16.328L2.096 16.312V16.272V16.24V16.2L2.08 16.184V16.152V16.112L2.072 16.088L2.064 16.056V16.024L2.056 15.992L2.04 15.968V15.928V15.896L2.024 15.88V15.84V15.808L2.008 15.784V15.752V15.712L1.992 15.696V15.664V15.624L1.968 15.608V15.568V15.536L1.952 15.512V15.48L1.944 15.456L1.936 15.424V15.392L1.928 15.36L1.92 15.336V15.296L1.912 15.272L1.896 15.248V15.208L1.88 15.192V15.152L1.872 15.128L1.864 15.096V15.064L1.848 15.048V15.008L1.832 14.984L1.824 14.952L1.816 14.928L1.808 14.904V14.864L1.792 14.848V14.808L1.776 14.792V14.752L1.752 14.736L1.744 14.712L1.736 14.68L1.72 14.664L1.712 14.64L1.704 14.608L1.68 14.592L1.664 14.576L1.656 14.544L1.64 14.528L1.616 14.512L1.608 14.488L1.592 14.464L1.576 14.448L1.568 14.424L1.544 14.4L1.536 14.376L1.52 14.36L1.504 14.336L1.488 14.312L1.48 14.288L1.472 14.256L1.464 14.232L1.456 14.2L1.448 14.176V14.144L1.432 14.12V14.088L1.416 14.056L1.408 14.032V13.992V13.96L1.392 13.944V13.904V13.872V13.832L1.376 13.816V13.776V13.744V13.704V13.672L1.36 13.648V13.616V13.576V13.544V13.504V13.472V13.432V13.4V13.36L1.336 13.344V13.304V13.272V13.232V13.2V13.16V13.128V13.088V13.056L1.344 13.024L1.36 13V12.96V12.928V12.888V12.856V12.816V12.784L1.376 12.768V12.728V12.696V12.656L1.392 12.64V12.6V12.568L1.408 12.544V12.512L1.432 12.496V12.456L1.448 12.44V12.4L1.464 12.384V12.352L1.48 12.328V12.296L1.504 12.28V12.24L1.52 12.224V12.184L1.528 12.16L1.536 12.128L1.544 12.104L1.552 12.08L1.568 12.048L1.576 12.024L1.584 11.992L1.592 11.968L1.6 11.944L1.608 11.912L1.616 11.888L1.624 11.856L1.64 11.832L1.648 11.808L1.656 11.776L1.664 11.752L1.672 11.728L1.68 11.696L1.688 11.672L1.704 11.64L1.712 11.616L1.72 11.592L1.736 11.568V11.536L1.752 11.52V11.48L1.776 11.464V11.424L1.792 11.408L1.8 11.384L1.808 11.352L1.824 11.336V11.296L1.848 11.28L1.856 11.256L1.864 11.224L1.872 11.2L1.88 11.176L1.896 11.152L1.912 11.128L1.92 11.096L1.936 11.08L1.952 11.064L1.96 11.04L1.968 11.008L1.992 10.992V10.952L2.008 10.936L2.016 10.912L2.024 10.88L2.032 10.856L2.04 10.832L2.064 10.808V10.776L2.08 10.76L2.088 10.728L2.096 10.704L2.104 10.672L2.12 10.648L2.136 10.632V10.592L2.152 10.576V10.536L2.16 10.512L2.168 10.488V10.448L2.192 10.432V10.392V10.36V10.32V10.288L2.208 10.264V10.232V10.192V10.16V10.12V10.088V10.048V10.016L2.216 9.984L2.224 9.96V9.92L2.232 9.896L2.24 9.872V9.832L2.256 9.808L2.264 9.776V9.744L2.272 9.712L2.28 9.688V9.656L2.288 9.624L2.296 9.6V9.56V9.528V9.488L2.304 9.464L2.312 9.432V9.4L2.304 9.368L2.288 9.352H2.256L2.232 9.368H2.2L2.176 9.392L2.152 9.4L2.128 9.408L2.104 9.424L2.08 9.432L2.064 9.456L2.032 9.464L2.016 9.48H1.984L1.96 9.496L1.936 9.504L1.912 9.52H1.872H1.832H1.8L1.784 9.496L1.752 9.488L1.728 9.48L1.712 9.464L1.688 9.448L1.672 9.424L1.664 9.4L1.648 9.384L1.624 9.36L1.608 9.344L1.592 9.328V9.288L1.576 9.272V9.232V9.2V9.16V9.128V9.088V9.056V9.016V8.984V8.944V8.912V8.872L1.552 8.856V8.816L1.528 8.808H1.488H1.456L1.44 8.792H1.4H1.368L1.336 8.784L1.312 8.776H1.272L1.248 8.768L1.224 8.76H1.184L1.168 8.736H1.128L1.112 8.72H1.072L1.056 8.704L1.032 8.696L1 8.68L0.984 8.664L0.96 8.656L0.944 8.64L0.92 8.624L0.896 8.608L0.88 8.592L0.856 8.576L0.84 8.56L0.824 8.536L0.808 8.52L0.784 8.504L0.768 8.488L0.752 8.464L0.728 8.448L0.712 8.432L0.696 8.416L0.68 8.392L0.656 8.376L0.64 8.36L0.632 8.328L0.616 8.312L0.608 8.288L0.6 8.256L0.576 8.24V8.208L0.568 8.176L0.56 8.152V8.112V8.08V8.04V8.008L0.568 7.976L0.576 7.952V7.912V7.88L0.584 7.848L0.6 7.824V7.792V7.752V7.712V7.68V7.64V7.608V7.568L0.584 7.544L0.576 7.52V7.48L0.56 7.464V7.424L0.544 7.408V7.368L0.52 7.352V7.32L0.504 7.296V7.264L0.488 7.248V7.208L0.48 7.184L0.472 7.152V7.12V7.08V7.048L0.488 7.032L0.496 7L0.504 6.976L0.52 6.952L0.544 6.936L0.552 6.912L0.576 6.904L0.584 6.872L0.608 6.856L0.616 6.832V6.792L0.6 6.776L0.584 6.744L0.568 6.728L0.56 6.704L0.544 6.688L0.52 6.664L0.504 6.648L0.488 6.632L0.48 6.6L0.464 6.584L0.44 6.568L0.424 6.552L0.4 6.536L0.376 6.52L0.36 6.504L0.344 6.488L0.328 6.464L0.304 6.448L0.288 6.432L0.272 6.416L0.256 6.392L0.232 6.376L0.216 6.36L0.208 6.328L0.192 6.312L0.168 6.296L0.152 6.28L0.144 6.248L0.128 6.232L0.104 6.216L0.0959999 6.184L0.0879999 6.16L0.0719999 6.144V6.104L0.0559999 6.088L0.048 6.056L0.032 6.032L0.024 6.008L0.00799999 5.984L0 5.96V5.928V5.888V5.848V5.816V5.776V5.744V5.704V5.672V5.632V5.6V5.56V5.528V5.488V5.456L0.00799999 5.424L0.016 5.4L0.024 5.376L0.032 5.344L0.048 5.32L0.0559999 5.288V5.256L0.0719999 5.24V5.2V5.168L0.0879999 5.144V5.112L0.0959999 5.08L0.104 5.056V5.016L0.128 5V4.968L0.144 4.944V4.912L0.152 4.88L0.16 4.856L0.176 4.84V4.8L0.2 4.784V4.744L0.216 4.728V4.696L0.232 4.672V4.64L0.256 4.624V4.584L0.264 4.56L0.272 4.528V4.496L0.288 4.48V4.44L0.296 4.416L0.304 4.384V4.352V4.312L0.328 4.296V4.256V4.224L0.344 4.208V4.168V4.136V4.096L0.36 4.08V4.04V4.008L0.368 3.976L0.376 3.952V3.912V3.88L0.4 3.864V3.824L0.408 3.8L0.416 3.768V3.736L0.432 3.72V3.68L0.448 3.664V3.624L0.472 3.608V3.568L0.488 3.552L0.496 3.528L0.504 3.496L0.52 3.48L0.536 3.456L0.544 3.424L0.56 3.408L0.576 3.392L0.584 3.36L0.608 3.344L0.616 3.32L0.632 3.304L0.648 3.28L0.672 3.264L0.688 3.248L0.704 3.224L0.728 3.216L0.752 3.2L0.776 3.192L0.792 3.176L0.816 3.152L0.832 3.136L0.856 3.128L0.88 3.112L0.904 3.104L0.928 3.088L0.952 3.072H0.984L1.016 3.064L1.04 3.056H1.072L1.096 3.04H1.128L1.16 3.032L1.184 3.016H1.224L1.248 3.008L1.272 3H1.312L1.328 2.984H1.368L1.392 2.976L1.416 2.968H1.456L1.472 2.944H1.512L1.536 2.936L1.568 2.928H1.6L1.624 2.92L1.656 2.912L1.672 2.896H1.712L1.736 2.88L1.76 2.872H1.8L1.816 2.856H1.856L1.872 2.84H1.912L1.928 2.824L1.944 2.8L1.968 2.792L2 2.784L2.016 2.768L2.032 2.752L2.064 2.736L2.08 2.72L2.096 2.704L2.12 2.688L2.136 2.664L2.152 2.648L2.168 2.632L2.192 2.616L2.208 2.592L2.216 2.568L2.232 2.552L2.256 2.528L2.272 2.512L2.288 2.496L2.304 2.48L2.328 2.456L2.344 2.44L2.36 2.424L2.376 2.408L2.4 2.384L2.424 2.376L2.44 2.36L2.464 2.344L2.48 2.32L2.504 2.312L2.52 2.296L2.552 2.288L2.576 2.28L2.592 2.256L2.616 2.24H2.648L2.672 2.224L2.696 2.216L2.72 2.208L2.752 2.2L2.776 2.184L2.808 2.176L2.832 2.168H2.864L2.888 2.152H2.92H2.96L2.984 2.144L3.016 2.136H3.048H3.088H3.12L3.144 2.12L3.176 2.112H3.208H3.248H3.28H3.32H3.352H3.392L3.416 2.12L3.448 2.136H3.48H3.52H3.552L3.584 2.144L3.608 2.152H3.648L3.672 2.16L3.696 2.168H3.736L3.752 2.184H3.792L3.816 2.2L3.848 2.208L3.872 2.216L3.896 2.224L3.92 2.24H3.952L3.968 2.256L4 2.272L4.024 2.28L4.04 2.296H4.08L4.096 2.312L4.128 2.32L4.152 2.328L4.168 2.352L4.192 2.368L4.216 2.376L4.24 2.384L4.264 2.408L4.288 2.416L4.312 2.424L4.336 2.44L4.36 2.448L4.384 2.456L4.408 2.48L4.424 2.496L4.448 2.504L4.48 2.512L4.496 2.528L4.52 2.536L4.544 2.56L4.568 2.568L4.584 2.584L4.616 2.592L4.632 2.616L4.656 2.624L4.688 2.632L4.704 2.648L4.728 2.656L4.752 2.672L4.776 2.688L4.8 2.696L4.824 2.712L4.84 2.728L4.856 2.752L4.888 2.76L4.904 2.776L4.92 2.792L4.928 2.824L4.936 2.848L4.96 2.864L4.968 2.896L4.976 2.92L4.992 2.936V2.976L5 3L5.008 3.032L5.024 3.056L5.032 3.08L5.04 3.112L5.048 3.136L5.056 3.168L5.064 3.192L5.088 3.208L5.096 3.24L5.104 3.264L5.12 3.28L5.136 3.304L5.144 3.328L5.168 3.344L5.176 3.376L5.192 3.392L5.208 3.408L5.232 3.424L5.248 3.448L5.264 3.464L5.28 3.48L5.296 3.512L5.312 3.528L5.328 3.544L5.344 3.56L5.376 3.568L5.392 3.592L5.408 3.608L5.432 3.624L5.448 3.64L5.464 3.664L5.48 3.68L5.504 3.696L5.52 3.72L5.536 3.736L5.552 3.752L5.576 3.768L5.584 3.8L5.6 3.816L5.616 3.832L5.64 3.856L5.656 3.872L5.664 3.896L5.68 3.912L5.696 3.936L5.712 3.96L5.728 3.976L5.736 4.008L5.752 4.024L5.76 4.048L5.768 4.08L5.784 4.104L5.792 4.136L5.808 4.152V4.184L5.824 4.208V4.24L5.848 4.256V4.296V4.328L5.864 4.352V4.384V4.424V4.456L5.88 4.48V4.512V4.552V4.584V4.624V4.656V4.696V4.728L5.872 4.76L5.864 4.784V4.824V4.856V4.896L5.856 4.92L5.848 4.944V4.984L5.832 5.008L5.824 5.04V5.072L5.808 5.088V5.128L5.792 5.144L5.784 5.176L5.768 5.2L5.76 5.224L5.752 5.256L5.736 5.272L5.728 5.296L5.712 5.32L5.696 5.344L5.68 5.36L5.672 5.392L5.656 5.408L5.648 5.432L5.624 5.456L5.608 5.472L5.592 5.488L5.576 5.504L5.552 5.528L5.536 5.544L5.52 5.56L5.504 5.584L5.48 5.6L5.464 5.616L5.448 5.632L5.432 5.656L5.408 5.672L5.384 5.68L5.368 5.696L5.344 5.72L5.328 5.736L5.304 5.744L5.28 5.76L5.264 5.776L5.24 5.792L5.216 5.808L5.2 5.824L5.176 5.832L5.16 5.848L5.128 5.864L5.112 5.88L5.096 5.896L5.064 5.904L5.04 5.912L5.024 5.936L5 5.952L4.984 5.968L4.96 5.976L4.928 5.984L4.912 6.008L4.888 6.016L4.856 6.024L4.832 6.032L4.8 6.04H4.768H4.728L4.704 6.032L4.68 6.024L4.648 6.016L4.632 6L4.616 5.976L4.592 5.96V5.928V5.888V5.848V5.816L4.616 5.8V5.76V5.728L4.632 5.704V5.672V5.632V5.6L4.616 5.584L4.608 5.552L4.592 5.528L4.576 5.504L4.568 5.48L4.552 5.464L4.536 5.448L4.512 5.424L4.496 5.408L4.48 5.392L4.448 5.384L4.432 5.36L4.416 5.344L4.4 5.328L4.376 5.312L4.36 5.288V5.256L4.352 5.224L4.344 5.2V5.168V5.128V5.088L4.36 5.072V5.04V5V4.968V4.928L4.368 4.904L4.376 4.872V4.84V4.8V4.768V4.728V4.696V4.656V4.624V4.584V4.552L4.36 4.528L4.352 4.504L4.344 4.48L4.312 4.464L4.296 4.448L4.28 4.432L4.264 4.416L4.232 4.4L4.216 4.384L4.192 4.376L4.168 4.36L4.152 4.344L4.128 4.328L4.104 4.312L4.088 4.296L4.072 4.28L4.04 4.272L4.024 4.248L4.016 4.224L3.992 4.216L3.968 4.192L3.952 4.176L3.928 4.168L3.904 4.152L3.88 4.144L3.856 4.136L3.824 4.12H3.792L3.776 4.104H3.736H3.696H3.664H3.624H3.592L3.576 4.12H3.536H3.504L3.48 4.144H3.448L3.416 4.152L3.392 4.16L3.368 4.168L3.336 4.176L3.312 4.184L3.28 4.192L3.264 4.216L3.24 4.224L3.208 4.232L3.192 4.248L3.168 4.256L3.136 4.272L3.12 4.288L3.104 4.304L3.072 4.312L3.056 4.328L3.032 4.344L3.016 4.36L2.992 4.376L2.976 4.392L2.952 4.4L2.928 4.424V4.456V4.496L2.936 4.52L2.952 4.552L2.96 4.576L2.968 4.6L2.976 4.632L2.984 4.656L2.968 4.672V4.712L2.96 4.736L2.936 4.76L2.928 4.784L2.912 4.8L2.904 4.832L2.888 4.848L2.88 4.872L2.856 4.896L2.84 4.912L2.824 4.928L2.816 4.952L2.792 4.976L2.776 4.992L2.768 5.016L2.752 5.04L2.728 5.056L2.712 5.072L2.704 5.104L2.688 5.12L2.672 5.136L2.656 5.168L2.64 5.184L2.624 5.2V5.24L2.608 5.256V5.288L2.584 5.312V5.344V5.384V5.416V5.456V5.488V5.528V5.56V5.6V5.632L2.568 5.656V5.688V5.728V5.76L2.584 5.776V5.816V5.848V5.888V5.928V5.96V6V6.032V6.072V6.104V6.144V6.176V6.216V6.248L2.608 6.264V6.304V6.344V6.376L2.624 6.392V6.432L2.632 6.456L2.64 6.488V6.52L2.656 6.536V6.576L2.68 6.592L2.688 6.624L2.696 6.648L2.712 6.664L2.72 6.696L2.728 6.72L2.752 6.736L2.76 6.768L2.776 6.784L2.792 6.8L2.808 6.832L2.824 6.848L2.84 6.864L2.848 6.896L2.864 6.912L2.888 6.928L2.904 6.944L2.92 6.968L2.936 6.984L2.952 7.008L2.968 7.032L2.984 7.048L3 7.064L3.024 7.08L3.04 7.104L3.056 7.12L3.088 7.128L3.096 7.152L3.12 7.16L3.136 7.184L3.16 7.2L3.176 7.216L3.192 7.24L3.208 7.256L3.232 7.272L3.248 7.288L3.272 7.296L3.296 7.32L3.312 7.336L3.328 7.352L3.352 7.36L3.376 7.384L3.392 7.4L3.408 7.416L3.44 7.424L3.456 7.448L3.48 7.456L3.504 7.472L3.528 7.48L3.552 7.488L3.576 7.504L3.6 7.52L3.624 7.528L3.648 7.544L3.672 7.552L3.696 7.56L3.728 7.568L3.752 7.584L3.776 7.6H3.808L3.824 7.616L3.856 7.624L3.88 7.632L3.904 7.64L3.936 7.656L3.952 7.672L3.984 7.68L4.008 7.688L4.024 7.704H4.064L4.08 7.728L4.104 7.736L4.136 7.744L4.152 7.76H4.192L4.208 7.776L4.232 7.792L4.248 7.808L4.28 7.816L4.296 7.832L4.328 7.84L4.352 7.848L4.368 7.872H4.408H4.44H4.48H4.512H4.552L4.576 7.864L4.608 7.848H4.64L4.672 7.84L4.696 7.832H4.728L4.752 7.816H4.784L4.8 7.8H4.84L4.856 7.776H4.896L4.912 7.76H4.952L4.968 7.744H5L5.024 7.728L5.048 7.712L5.072 7.704L5.104 7.696L5.128 7.688L5.16 7.68L5.184 7.672L5.2 7.656H5.24L5.256 7.632H5.296L5.32 7.624L5.344 7.616H5.384H5.416L5.44 7.6H5.472H5.512H5.544H5.584H5.616H5.656H5.688H5.728H5.76H5.8L5.824 7.608L5.856 7.616H5.888H5.928H5.96H6H6.032H6.072H6.104H6.144H6.176L6.208 7.608L6.232 7.6H6.272H6.304H6.344L6.36 7.584H6.4H6.432L6.448 7.56H6.488L6.512 7.552L6.544 7.544L6.568 7.536L6.592 7.528L6.624 7.52L6.648 7.504L6.664 7.488H6.704L6.72 7.472L6.752 7.464L6.776 7.456L6.8 7.448L6.832 7.432L6.856 7.424L6.888 7.416L6.912 7.408L6.936 7.4L6.968 7.392L6.992 7.384L7.024 7.368L7.048 7.36L7.072 7.352L7.104 7.344H7.136L7.16 7.328H7.192L7.216 7.32L7.248 7.312H7.28L7.312 7.296L7.336 7.288H7.376H7.408H7.448L7.464 7.272H7.504H7.536H7.576H7.608H7.648H7.68L7.712 7.28L7.736 7.288H7.768H7.808L7.832 7.296L7.864 7.312H7.896L7.928 7.32L7.952 7.328L7.976 7.336L8.008 7.344H8.04L8.064 7.36H8.096L8.112 7.384H8.152L8.168 7.4H8.208L8.224 7.416H8.264L8.28 7.432H8.312L8.336 7.456H8.368L8.384 7.472H8.424L8.448 7.48L8.48 7.488L8.504 7.496L8.528 7.504H8.568L8.584 7.528H8.624H8.656L8.68 7.544H8.712H8.752L8.768 7.56H8.8H8.84H8.872L8.904 7.568L8.928 7.584H8.968H9H9.04H9.072H9.112H9.144H9.184H9.216H9.256H9.288H9.328H9.368H9.4H9.44H9.472H9.512H9.544H9.584H9.616L9.632 7.56H9.672H9.712H9.744H9.784H9.816H9.856H9.888H9.928H9.96H10H10.032H10.072H10.104H10.144H10.176H10.216L10.24 7.568L10.272 7.584H10.304H10.344L10.36 7.6H10.392L10.424 7.608L10.448 7.616H10.488L10.504 7.632H10.544L10.56 7.656H10.592L10.616 7.672H10.648L10.664 7.688H10.704L10.72 7.704L10.752 7.712L10.776 7.728L10.8 7.736L10.832 7.744L10.856 7.752L10.888 7.76L10.904 7.776H10.936L10.96 7.8H10.992L11.008 7.816L11.04 7.824L11.064 7.832L11.096 7.84L11.12 7.848L11.136 7.872H11.176L11.192 7.888H11.232L11.248 7.904L11.272 7.912L11.304 7.92L11.328 7.936L11.352 7.944L11.376 7.96H11.408L11.424 7.976L11.456 7.984L11.48 8L11.512 8.008L11.536 8.016L11.552 8.032H11.592L11.608 8.048H11.648L11.664 8.072H11.696L11.72 8.088H11.752L11.768 8.104H11.808L11.824 8.12H11.864L11.888 8.128L11.912 8.144H11.952L11.968 8.16H12.008H12.04H12.08L12.104 8.168L12.136 8.176H12.168H12.208H12.24H12.28L12.296 8.16H12.336H12.368H12.408L12.424 8.144H12.456H12.496L12.512 8.12H12.552L12.576 8.112L12.6 8.104L12.632 8.096L12.656 8.088L12.688 8.08L12.712 8.072L12.736 8.056L12.768 8.048L12.792 8.04L12.824 8.032L12.848 8.024L12.872 8.016L12.896 8L12.92 7.984L12.944 7.976L12.976 7.968L13 7.96L13.032 7.952L13.056 7.944L13.072 7.92H13.112L13.128 7.904H13.168L13.184 7.888H13.216L13.24 7.872H13.272L13.304 7.864L13.328 7.848L13.352 7.84L13.384 7.832L13.408 7.824L13.44 7.816H13.472L13.488 7.8H13.528L13.544 7.776H13.584L13.6 7.76H13.632L13.656 7.744L13.68 7.736L13.704 7.728L13.728 7.704L13.752 7.696L13.776 7.688L13.8 7.672L13.824 7.664L13.856 7.656L13.872 7.632L13.896 7.624L13.928 7.616L13.944 7.6L13.96 7.584L13.992 7.568L14.008 7.552L14.032 7.544L14.048 7.528L14.072 7.504L14.096 7.496L14.12 7.488L14.144 7.472L14.16 7.456L14.184 7.448L14.208 7.424L14.232 7.416L14.248 7.4L14.272 7.384L14.296 7.368L14.32 7.36L14.344 7.344L14.36 7.328L14.384 7.32L14.408 7.296L14.432 7.288L14.448 7.272L14.48 7.264L14.504 7.256L14.52 7.24L14.552 7.224L14.576 7.216L14.592 7.2L14.624 7.192L14.648 7.184L14.672 7.176L14.704 7.16H14.736L14.76 7.144H14.792H14.832H14.864H14.904L14.92 7.128H14.96H14.992H15.032H15.064H15.104L15.128 7.12L15.152 7.112H15.192H15.224H15.264L15.288 7.104L15.32 7.088H15.352H15.392L15.416 7.08L15.448 7.072H15.48L15.512 7.064L15.536 7.056H15.568L15.592 7.04L15.616 7.032L15.64 7.016L15.664 7L15.68 6.984L15.696 6.968L15.72 6.944L15.736 6.928L15.752 6.912L15.768 6.896L15.792 6.872L15.808 6.856L15.824 6.84L15.84 6.816L15.872 6.808L15.888 6.792L15.904 6.776L15.928 6.76L15.944 6.736L15.96 6.72L15.984 6.712L16.008 6.696L16.024 6.672L16.04 6.656L16.064 6.64L16.08 6.624L16.096 6.6L16.12 6.592L16.144 6.576L16.16 6.56L16.176 6.536L16.208 6.528L16.224 6.512L16.24 6.496L16.256 6.48L16.288 6.464L16.304 6.448L16.32 6.432L16.352 6.424L16.368 6.4L16.384 6.384L16.408 6.368L16.432 6.36L16.448 6.344L16.464 6.32L16.496 6.312L16.512 6.296L16.528 6.28L16.56 6.264L16.584 6.256L16.6 6.24L16.624 6.224L16.648 6.216L16.664 6.192L16.696 6.184L16.712 6.168L16.736 6.16L16.76 6.144L16.784 6.136L16.8 6.112L16.832 6.104L16.848 6.088L16.872 6.08L16.896 6.056L16.92 6.048L16.944 6.04L16.968 6.024L16.984 6.008L17.008 6L17.04 5.984L17.056 5.968L17.064 5.944L17.08 5.928L17.104 5.904V5.872V5.832V5.8V5.76V5.728V5.688V5.656V5.616V5.584V5.544L17.12 5.528V5.488L17.128 5.464L17.136 5.432L17.144 5.408L17.152 5.384L17.176 5.36L17.192 5.344L17.208 5.328L17.216 5.296L17.24 5.28L17.256 5.264L17.272 5.248L17.296 5.24L17.32 5.216L17.336 5.2L17.352 5.184L17.384 5.176L17.4 5.152L17.416 5.136L17.432 5.12L17.456 5.104L17.472 5.08L17.488 5.064L17.504 5.048L17.528 5.032L17.536 5L17.552 4.984L17.568 4.968L17.592 4.944L17.6 4.92L17.608 4.896L17.624 4.872L17.632 4.848L17.64 4.824L17.664 4.8L17.672 4.776L17.68 4.744L17.688 4.72L17.696 4.696L17.704 4.664L17.72 4.64L17.728 4.616L17.736 4.584L17.744 4.56L17.752 4.528L17.76 4.504L17.768 4.48L17.776 4.448L17.792 4.424L17.808 4.4V4.368L17.824 4.352L17.832 4.32L17.84 4.296L17.864 4.28L17.88 4.256L17.896 4.24L17.904 4.216L17.928 4.192L17.944 4.176L17.96 4.16L17.976 4.144L18 4.12L18.016 4.104L18.032 4.088L18.048 4.072L18.072 4.048L18.08 4.024L18.096 4.008L18.112 3.984V3.952V3.912L18.096 3.896V3.864L18.08 3.84V3.808L18.072 3.776L18.056 3.752V3.72V3.68L18.04 3.664V3.624V3.592L18.056 3.568V3.536V3.496L18.072 3.472L18.08 3.448L18.088 3.416L18.096 3.392L18.112 3.376V3.336L18.136 3.32L18.144 3.288L18.152 3.264L18.16 3.24L18.168 3.208L18.176 3.184L18.184 3.152L18.192 3.128L18.208 3.104L18.216 3.072L18.224 3.048L18.232 3.016L18.24 2.992V2.96L18.256 2.936V2.904L18.272 2.872L18.28 2.848V2.808V2.776V2.736L18.256 2.72L18.288 2.712L18.304 2.696L18.32 2.672L18.344 2.656L18.36 2.64L18.376 2.624L18.392 2.6L18.416 2.584L18.432 2.568L18.448 2.552L18.464 2.528L18.488 2.512L18.504 2.496L18.512 2.464L18.528 2.448L18.552 2.432L18.56 2.408L18.576 2.384L18.584 2.36L18.6 2.344L18.608 2.312L18.624 2.288L18.632 2.256L18.64 2.232L18.648 2.208L18.656 2.176L18.672 2.16L18.688 2.136L18.696 2.104L18.712 2.088L18.728 2.072L18.744 2.048L18.768 2.032L18.784 2.016L18.8 2L18.816 1.976L18.84 1.96L18.856 1.944L18.872 1.928L18.904 1.912L18.92 1.896L18.936 1.88L18.952 1.864L18.984 1.856L19 1.832L19.016 1.816L19.04 1.8L19.064 1.792L19.08 1.768L19.104 1.752L19.12 1.736L19.136 1.72L19.152 1.696L19.176 1.68L19.192 1.664L19.208 1.648L19.224 1.624L19.248 1.608L19.256 1.584L19.272 1.56L19.288 1.544L19.296 1.52L19.312 1.488L19.32 1.464L19.328 1.44L19.336 1.408L19.344 1.384L19.36 1.36L19.368 1.336L19.384 1.312L19.4 1.288L19.416 1.272L19.424 1.248L19.448 1.224L19.464 1.208L19.48 1.192L19.496 1.176L19.52 1.152L19.536 1.136L19.552 1.12L19.568 1.104L19.592 1.08L19.608 1.064L19.624 1.048L19.64 1.032L19.664 1.008L19.68 0.992L19.696 0.976L19.728 0.968L19.744 0.944L19.76 0.928L19.792 0.92L19.808 0.904L19.824 0.888L19.84 0.864L19.872 0.856L19.888 0.84L19.904 0.824L19.936 0.808L19.952 0.792L19.968 0.776L19.984 0.76L20.008 0.736L20.032 0.728L20.048 0.712L20.08 0.704L20.096 0.688L20.12 0.672L20.144 0.656L20.168 0.648L20.184 0.632L20.216 0.624L20.232 0.6L20.256 0.592L20.28 0.576L20.304 0.568L20.328 0.56L20.352 0.544H20.384L20.4 0.52H20.44L20.456 0.504H20.496H20.528L20.552 0.488H20.584L20.608 0.48L20.64 0.464L20.648 0.44L20.664 0.424L20.68 0.408L20.696 0.376L20.712 0.36L20.72 0.336L20.736 0.312L20.76 0.296L20.776 0.28L20.792 0.256L20.808 0.24L20.832 0.224L20.848 0.208L20.872 0.2L20.896 0.176H20.928L20.944 0.16H20.984H21.016H21.056H21.088H21.128H21.16L21.184 0.144H21.216H21.256L21.272 0.128H21.312L21.328 0.104L21.352 0.0959999L21.384 0.0879997L21.4 0.0719997L21.424 0.0639999L21.456 0.048L21.472 0.032H21.504H21.544H21.576H21.616H21.656L21.672 0.048L21.696 0.0639999L21.728 0.0719997L21.752 0.0799999L21.776 0.0879997L21.8 0.104L21.816 0.128H21.848L21.872 0.144H21.904H21.944H21.976H22.016H22.048H22.088L22.104 0.128L22.128 0.112L22.16 0.104L22.176 0.0879997L22.192 0.0719997L22.224 0.0639999L22.24 0.0399998L22.256 0.0239998L22.288 0.016L22.312 0.0079998L22.336 0H22.376H22.416H22.448H22.488H22.52H22.56H22.592H22.632L22.648 0.016H22.68L22.704 0.032H22.736L22.76 0.048H22.792H22.832L22.848 0.0719997H22.88L22.904 0.0879997H22.936L22.968 0.0959999L22.992 0.104L23.008 0.128H23.048L23.064 0.144L23.088 0.152L23.12 0.16L23.136 0.176H23.176L23.192 0.2L23.208 0.216L23.232 0.224L23.264 0.232L23.28 0.248L23.296 0.272L23.32 0.288L23.344 0.296L23.36 0.312L23.384 0.336L23.4 0.352L23.408 0.376L23.424 0.392L23.44 0.416L23.456 0.44L23.472 0.456L23.488 0.48L23.52 0.488L23.536 0.504H23.568H23.608H23.64H23.68H23.712L23.736 0.488H23.768H23.808H23.84L23.864 0.464H23.896H23.936H23.968H24.008L24.024 0.488H24.056L24.088 0.496L24.112 0.504L24.144 0.512L24.168 0.52L24.184 0.544L24.216 0.552L24.24 0.56L24.256 0.576L24.28 0.592L24.304 0.6L24.32 0.624L24.336 0.64L24.36 0.656L24.376 0.672L24.392 0.696L24.408 0.712L24.432 0.728L24.456 0.736L24.472 0.76L24.496 0.776L24.512 0.792L24.528 0.808L24.544 0.832L24.568 0.848L24.584 0.864L24.6 0.888L24.624 0.904L24.64 0.92L24.656 0.936L24.672 0.96L24.696 0.976L24.712 0.992L24.728 1.008L24.744 1.032L24.768 1.048L24.784 1.064L24.8 1.08L24.816 1.104L24.84 1.12L24.864 1.128L24.88 1.144L24.904 1.168L24.92 1.184L24.936 1.2L24.96 1.208L24.984 1.224L25 1.248L25.024 1.256L25.048 1.272L25.072 1.28L25.088 1.304L25.112 1.32L25.136 1.328L25.152 1.344L25.176 1.36L25.2 1.376L25.216 1.392L25.232 1.408L25.264 1.416L25.28 1.44L25.296 1.456L25.328 1.464L25.344 1.48L25.36 1.496L25.392 1.512L25.408 1.528L25.424 1.544L25.44 1.56L25.472 1.568L25.488 1.592L25.504 1.608L25.528 1.624L25.544 1.648L25.56 1.664L25.576 1.68L25.592 1.704L25.608 1.728V1.76L25.624 1.776L25.632 1.808L25.64 1.832L25.664 1.856L25.672 1.88L25.688 1.896L25.696 1.928L25.712 1.944L25.736 1.96L25.744 1.992L25.76 2.008L25.776 2.024L25.8 2.04L25.816 2.064L25.824 2.088L25.84 2.104L25.848 2.136L25.856 2.16L25.872 2.184L25.88 2.216L25.872 2.24L25.856 2.272V2.304L25.848 2.328L25.84 2.36V2.392L25.824 2.416V2.448L25.816 2.48L25.808 2.504L25.8 2.528L25.784 2.56L25.776 2.584L25.768 2.616V2.648L25.752 2.664V2.704V2.736L25.736 2.76V2.792V2.832V2.864V2.904V2.936L25.752 2.96L25.76 2.984L25.768 3.008L25.784 3.032L25.808 3.048L25.816 3.072L25.832 3.088L25.848 3.112L25.872 3.128L25.888 3.144L25.904 3.168L25.92 3.184L25.944 3.2L25.968 3.208L25.984 3.224L26.016 3.24L26.032 3.256L26.048 3.272L26.064 3.288L26.096 3.304L26.112 3.32L26.144 3.328L26.16 3.344L26.176 3.36L26.2 3.376L26.224 3.392L26.248 3.4L26.264 3.416L26.296 3.424L26.312 3.448L26.328 3.464L26.36 3.472L26.376 3.488L26.392 3.512L26.424 3.52L26.44 3.536L26.456 3.552L26.488 3.56L26.504 3.584L26.52 3.6L26.536 3.616L26.56 3.632L26.584 3.64L26.6 3.664L26.616 3.68L26.64 3.696L26.656 3.72L26.672 3.736L26.696 3.752L26.712 3.768L26.728 3.792L26.744 3.808L26.768 3.824L26.776 3.856L26.792 3.872L26.808 3.888L26.824 3.904L26.848 3.928L26.864 3.944L26.88 3.96L26.888 3.984L26.912 4.008L26.928 4.024L26.944 4.04L26.96 4.064L26.976 4.088L26.992 4.104L27 4.136L27.016 4.152L27.04 4.168L27.048 4.192L27.064 4.216L27.072 4.24L27.08 4.272L27.096 4.288L27.112 4.312L27.128 4.328V4.368L27.144 4.384L27.152 4.416L27.16 4.44L27.184 4.456V4.496L27.2 4.512V4.552L27.192 4.576V4.592L27.2 4.624V4.656V4.696V4.728L27.192 4.76L27.184 4.784V4.824V4.856V4.896V4.928V4.968V5V5.04V5.072L27.16 5.088V5.128V5.168V5.2L27.144 5.216V5.256V5.288L27.128 5.312V5.344L27.12 5.376L27.112 5.4L27.096 5.424L27.088 5.456L27.08 5.48L27.072 5.504L27.064 5.536L27.056 5.56L27.04 5.584L27.024 5.608L27.016 5.632L27 5.656L26.992 5.68L26.984 5.704L26.96 5.728L26.952 5.752L26.936 5.768L26.92 5.792L26.912 5.816L26.888 5.832L26.872 5.848L26.864 5.88L26.848 5.896L26.84 5.928L26.816 5.944L26.8 5.96L26.784 5.976L26.776 6.008L26.752 6.024L26.736 6.04L26.728 6.072L26.712 6.088L26.696 6.104L26.672 6.12L26.664 6.152L26.648 6.168L26.632 6.184L26.616 6.216V6.248L26.64 6.264V6.304L26.648 6.328L26.656 6.36V6.392L26.672 6.416V6.448L26.696 6.464V6.504L26.712 6.52V6.56L26.72 6.584L26.728 6.608L26.736 6.64L26.744 6.664V6.704V6.736V6.776V6.808V6.848L26.728 6.864V6.904L26.72 6.928L26.712 6.952L26.696 6.976L26.68 7L26.664 7.016L26.648 7.04L26.632 7.056L26.608 7.072L26.592 7.088L26.576 7.112L26.56 7.128L26.528 7.136L26.504 7.144L26.472 7.152L26.448 7.16H26.408L26.392 7.184H26.36L26.328 7.176L26.304 7.16H26.264L26.248 7.144L26.232 7.128L26.2 7.12L26.184 7.104L26.16 7.088L26.152 7.064L26.128 7.048L26.112 7.032L26.096 7.008L26.08 6.992L26.064 6.968L26.056 6.992L26.04 7.008V7.048L26.024 7.064V7.104L26.008 7.12V7.152L25.984 7.176V7.208L25.968 7.224L25.96 7.256L25.952 7.28L25.936 7.296L25.912 7.32L25.896 7.336L25.88 7.352L25.856 7.368L25.84 7.392L25.824 7.408L25.816 7.432L25.8 7.456L25.768 7.464L25.752 7.48L25.736 7.496L25.712 7.52L25.688 7.528L25.672 7.544L25.648 7.56L25.624 7.568L25.608 7.592L25.576 7.6L25.56 7.616H25.528L25.504 7.632L25.48 7.64L25.456 7.656L25.432 7.672H25.4L25.368 7.68L25.344 7.688L25.32 7.696L25.288 7.704H25.256H25.216L25.2 7.728H25.16H25.128H25.088H25.056H25.016H24.984L24.96 7.704H24.928H24.888H24.856L24.84 7.688H24.8L24.776 7.68L24.744 7.672L24.72 7.664L24.696 7.656H24.656L24.64 7.632H24.6H24.568H24.528H24.496H24.456H24.424L24.392 7.64L24.368 7.656H24.328L24.304 7.64L24.28 7.632H24.24L24.224 7.616H24.184L24.168 7.6L24.144 7.592L24.112 7.584L24.088 7.568L24.056 7.56H24.024H23.984H23.952L23.936 7.544H23.896H23.864H23.824H23.784L23.768 7.528H23.736L23.712 7.504H23.68L23.664 7.488L23.632 7.48L23.608 7.472L23.576 7.464L23.56 7.448L23.536 7.432L23.52 7.416L23.496 7.4L23.472 7.392L23.456 7.368L23.424 7.36L23.408 7.344L23.384 7.336L23.352 7.328L23.336 7.312H23.296H23.264H23.224L23.208 7.328L23.192 7.344L23.176 7.36L23.152 7.384L23.136 7.4L23.128 7.424L23.112 7.448V7.48L23.088 7.496V7.536L23.08 7.56L23.072 7.592V7.624V7.664L23.064 7.688L23.056 7.712V7.752L23.048 7.776L23.04 7.808L23.024 7.832L23.016 7.864L23.008 7.888L23 7.912L22.984 7.936L22.976 7.96L22.968 7.984L22.944 8.008L22.936 8.032L22.92 8.048L22.912 8.08L22.888 8.096L22.872 8.112L22.864 8.144L22.856 8.168L22.84 8.184L22.832 8.216L22.808 8.232L22.8 8.256L22.784 8.28L22.776 8.304L22.768 8.328L22.744 8.352L22.736 8.376L22.72 8.392L22.704 8.416L22.68 8.432L22.664 8.448L22.648 8.464L22.64 8.496L22.624 8.512L22.6 8.528L22.584 8.552L22.568 8.568L22.56 8.592L22.536 8.608L22.528 8.64L22.512 8.656L22.504 8.68L22.496 8.712L22.472 8.728L22.464 8.76L22.456 8.784L22.448 8.808L22.44 8.84L22.424 8.856V8.896L22.4 8.912V8.944L22.384 8.968V9L22.368 9.016V9.056L22.36 9.08L22.352 9.112V9.144L22.328 9.16V9.2V9.232L22.312 9.256V9.288L22.304 9.32L22.296 9.344V9.384L22.28 9.4V9.432L22.256 9.456L22.248 9.48L22.24 9.504L22.232 9.536L22.224 9.56L22.216 9.592L22.208 9.616L22.192 9.64L22.184 9.672L22.176 9.696L22.168 9.728V9.76L22.152 9.776V9.816V9.848V9.888L22.144 9.912L22.128 9.944V9.976V10.016V10.048V10.088V10.12L22.152 10.144V10.176V10.216V10.248V10.288L22.168 10.304V10.336V10.376L22.184 10.392V10.432V10.464L22.208 10.488V10.52L22.216 10.544L22.224 10.576V10.608L22.24 10.632V10.664L22.248 10.696L22.256 10.72L22.264 10.744L22.28 10.776L22.288 10.8L22.296 10.832V10.864L22.312 10.88V10.92L22.328 10.936V10.976L22.352 10.992V11.024L22.36 11.056L22.368 11.08V11.12L22.384 11.136V11.176L22.392 11.2L22.4 11.224V11.264L22.416 11.288L22.424 11.32V11.352L22.432 11.384L22.44 11.408V11.44V11.48L22.448 11.504L22.456 11.536V11.568V11.608V11.64L22.472 11.664V11.696V11.736V11.768L22.488 11.8L22.496 11.824V11.856V11.896V11.936V11.968V12.008L22.504 12.032L22.512 12.056V12.096V12.128V12.168V12.2V12.24V12.28V12.312V12.352V12.384V12.424V12.456V12.496V12.528V12.568V12.6V12.64V12.672V12.712V12.744L22.496 12.768V12.8V12.84V12.872V12.912L22.488 12.936L22.472 12.96V13V13.04V13.072L22.456 13.088V13.128V13.16V13.2L22.44 13.216V13.256V13.288L22.432 13.32L22.424 13.344V13.384V13.416L22.4 13.432V13.472V13.504L22.392 13.536L22.384 13.56V13.6V13.632L22.368 13.648V13.688V13.728L22.36 13.752L22.352 13.776V13.816V13.848L22.328 13.872V13.904V13.944V13.976L22.312 13.992V14.032V14.064L22.304 14.096L22.296 14.12V14.16V14.192V14.232L22.28 14.248V14.288V14.32V14.36L22.256 14.376V14.408V14.448V14.488V14.52L22.24 14.536V14.576V14.608V14.648L22.232 14.672L22.224 14.704V14.736V14.776V14.808L22.208 14.824V14.864V14.904L22.192 14.928L22.184 14.952V14.992L22.168 15.008V15.048L22.16 15.072L22.152 15.096V15.136L22.128 15.152V15.192L22.112 15.208V15.248L22.096 15.264V15.296L22.08 15.32V15.352L22.056 15.368L22.048 15.4L22.04 15.424L22.032 15.456L22.024 15.48L22.008 15.496L22 15.528L21.984 15.552L21.976 15.576L21.968 15.608L21.952 15.624L21.944 15.648L21.936 15.68L21.912 15.696L21.904 15.72L21.896 15.752L21.88 15.768L21.872 15.8L21.864 15.824L21.84 15.84L21.832 15.872L21.824 15.896L21.808 15.912V15.952L21.784 15.968L21.768 15.984V16.024L21.752 16.04L21.744 16.064L21.736 16.096L21.712 16.112L21.704 16.136L21.696 16.168L21.688 16.192L21.68 16.224L21.664 16.24V16.272L21.64 16.296L21.632 16.32L21.624 16.352L21.616 16.376L21.608 16.4L21.6 16.432L21.592 16.456L21.576 16.48L21.568 16.512V16.544L21.552 16.568V16.6L21.544 16.632L21.536 16.656V16.688L21.528 16.72L21.52 16.744V16.784L21.504 16.808L21.496 16.84V16.872L21.48 16.888V16.928V16.96L21.472 16.992L21.464 17.016V17.056L21.456 17.08L21.448 17.112V17.144L21.432 17.168L21.424 17.2V17.232V17.272L21.408 17.288V17.328V17.36L21.4 17.392L21.392 17.416V17.456V17.488L21.368 17.504V17.544V17.576L21.36 17.608L21.352 17.632V17.672V17.704L21.336 17.72V17.76V17.792L21.328 17.824L21.32 17.848V17.888V17.92L21.312 17.952L21.296 17.976V18.016V18.048L21.288 18.08L21.28 18.104V18.136V18.176L21.272 18.2L21.264 18.232V18.264V18.304L21.256 18.328L21.248 18.36V18.392V18.432L21.232 18.456L21.224 18.48V18.52V18.552V18.592L21.208 18.608V18.648V18.68V18.72L21.2 18.744L21.192 18.776V18.808V18.848V18.88V18.92L21.176 18.936V18.976V19.008V19.048V19.08L21.152 19.096V19.136V19.168V19.208V19.24V19.28L21.136 19.296V19.336V19.368V19.408V19.44L21.12 19.464V19.496V19.536V19.568V19.608V19.64L21.104 19.656V19.696V19.736V19.768V19.808V19.84L21.088 19.864L21.08 19.896V19.928V19.968V20V20.04V20.08L21.064 20.096V20.128V20.168V20.2V20.24V20.272V20.312V20.344L21.056 20.376L21.048 20.4V20.44V20.472V20.512V20.544V20.584V20.616V20.656V20.688L21.024 20.712V20.744V20.784V20.816V20.856L21.016 20.88L21.008 20.912V20.944L21 20.968L20.992 21V21.032L20.976 21.056V21.088L20.968 21.12L20.952 21.144V21.184L20.944 21.208L20.936 21.232V21.272V21.304L20.92 21.328V21.36V21.4V21.432V21.472V21.504V21.544L20.936 21.56V21.6V21.632L20.952 21.648V21.688L20.976 21.704V21.744L20.992 21.76L21 21.784L21.008 21.816L21.024 21.832L21.04 21.856L21.056 21.88L21.064 21.904L21.08 21.92L21.104 21.944L21.112 21.968L21.128 21.984L21.136 22.016L21.152 22.032L21.176 22.048L21.184 22.072L21.2 22.096L21.208 22.12L21.224 22.136L21.248 22.16L21.256 22.184L21.272 22.2L21.28 22.232L21.296 22.248L21.312 22.272L21.328 22.296L21.336 22.32L21.352 22.336L21.36 22.368L21.368 22.392L21.392 22.408L21.408 22.432L21.416 22.456L21.424 22.48L21.448 22.504L21.456 22.528L21.464 22.552L21.48 22.576L21.488 22.6L21.496 22.624L21.504 22.656L21.52 22.68L21.536 22.704L21.544 22.728L21.552 22.752L21.56 22.784L21.568 22.808L21.576 22.832L21.592 22.864L21.608 22.88V22.92L21.624 22.936V22.968L21.632 23L21.64 23.024V23.064L21.664 23.08V23.12V23.152L21.68 23.168V23.208V23.24V23.28L21.688 23.304L21.696 23.336V23.368V23.408V23.44L21.68 23.464V23.496V23.536V23.568L21.664 23.584V23.624L21.64 23.64L21.632 23.672L21.624 23.696L21.608 23.712L21.6 23.744L21.576 23.76L21.56 23.776L21.544 23.792L21.528 23.816L21.504 23.832L21.488 23.848L21.464 23.856L21.448 23.88L21.424 23.896L21.4 23.904L21.384 23.92L21.352 23.928L21.328 23.936L21.312 23.96L21.28 23.968L21.256 23.976L21.224 23.984L21.2 23.992L21.176 24L21.144 24.016L21.12 24.024L21.088 24.032H21.056L21.04 24.048H21H20.968L20.944 24.064H20.912H20.872L20.848 24.072L20.816 24.088H20.784H20.744H20.712L20.68 24.096L20.656 24.104H20.624H20.584H20.552H20.512H20.472H20.44H20.4L20.384 24.12H20.352H20.312H20.28H20.24H20.208H20.168H20.136H20.096H20.056H20.024H19.984H19.952H19.912H19.88L19.864 24.104H19.824H19.792H19.752H19.712H19.68H19.64H19.608H19.568H19.536H19.496H19.464H19.424L19.4 24.112V24.144V24.184V24.224L19.416 24.24V24.272L19.424 24.304L19.432 24.328V24.368L19.456 24.384V24.416L19.472 24.44V24.472L19.48 24.504L19.488 24.528L19.496 24.552L19.504 24.584L19.52 24.608L19.528 24.64V24.672L19.544 24.688V24.728L19.56 24.744V24.784V24.816L19.568 24.848L19.584 24.872V24.912V24.944V24.984V25.016V25.056L19.56 25.072V25.104L19.544 25.128L19.536 25.152L19.52 25.168L19.504 25.2L19.488 25.216L19.472 25.232L19.456 25.248L19.432 25.272L19.416 25.288L19.392 25.296L19.368 25.312L19.352 25.336L19.328 25.344L19.296 25.352L19.28 25.368L19.256 25.376L19.224 25.384L19.2 25.4L19.176 25.408L19.144 25.416L19.12 25.424L19.088 25.432L19.064 25.44H19.032L19.008 25.456H18.976H18.936L18.92 25.48H18.88L18.856 25.488L18.832 25.496H18.792L18.768 25.504L18.736 25.512H18.704L18.672 25.52L18.648 25.536L18.624 25.544L18.592 25.552H18.56L18.536 25.568Z" fill="var(--fill-0, #EC5998)"/>
</g>
</svg>
