<svg preserveAspectRatio="none" width="100%" height="100%" overflow="visible" style="display: block;" viewBox="0 0 27.2 22.256" fill="none" xmlns="http://www.w3.org/2000/svg">
<g id="Group">
<path id="Vector" d="M1.976 22.256H1.88H1.784H1.688H1.592H1.496L1.448 22.208H1.352L1.304 22.16L1.24 22.136L1.168 22.112L1.12 22.064L1.048 22.04L1 21.992L0.928 21.968L0.88 21.92H0.784L0.712 21.896L0.664 21.848L0.616 21.8L0.568 21.752L0.544 21.68L0.496 21.632L0.472 21.568L0.432 21.52L0.384 21.472L0.36 21.4L0.336 21.328L0.288 21.28V21.184L0.264 21.112L0.24 21.04L0.216 20.968L0.192 20.896V20.8V20.712V20.616V20.52L0.24 20.472V20.376L0.168 20.352H0.0719999L0 20.328L0.024 20.256L0.0719999 20.208L0.0959999 20.136L0.144 20.088L0.12 20.016L0.0719999 19.968L0 19.944V19.856L0.048 19.808L0.0719999 19.736L0.0959999 19.664L0.144 19.616V19.52L0.192 19.472V19.376V19.28L0.24 19.232V19.136L0.216 19.064L0.192 19V18.904L0.144 18.856L0.12 18.784V18.736L0.168 18.688L0.216 18.64V18.592L0.144 18.568L0.0959999 18.52V18.424L0.048 18.376L0.0719999 18.304L0.12 18.256L0.168 18.208L0.216 18.168L0.264 18.12L0.288 18.048L0.336 18L0.288 17.952L0.312 17.88L0.36 17.832V17.784L0.336 17.712V17.616L0.384 17.568L0.432 17.52L0.384 17.472V17.376L0.432 17.336V17.24L0.472 17.192V17.096V17L0.496 16.928L0.52 16.856L0.544 16.784L0.568 16.712L0.616 16.664L0.64 16.592L0.664 16.52L0.712 16.48L0.736 16.408L0.76 16.336L0.808 16.288L0.856 16.24L0.88 16.168L0.928 16.12L0.976 16.072V16.024L0.928 15.976L0.904 15.904L0.952 15.856L1 15.808L0.976 15.736V15.688L1.024 15.64L1.072 15.6L1.096 15.528V15.432L1.12 15.36L1.144 15.288L1.192 15.24L1.216 15.168V15.12L1.168 15.072L1.144 15V14.904L1.168 14.832L1.192 14.768L1.168 14.696L1.144 14.624V14.528L1.192 14.48L1.168 14.408L1.144 14.336V14.24V14.144L1.192 14.096V14V13.912V13.816V13.72L1.168 13.648L1.144 13.576V13.48V13.384V13.288V13.192L1.168 13.12L1.192 13.056V12.96V12.864V12.768L1.216 12.696L1.24 12.624V12.528L1.264 12.456L1.288 12.384V12.288L1.304 12.224L1.328 12.152L1.352 12.08L1.376 12.008V11.912L1.352 11.84L1.328 11.768V11.672V11.576L1.376 11.528L1.424 11.48L1.472 11.432V11.344V11.248L1.448 11.176L1.424 11.104V11.008L1.448 10.936L1.472 10.864L1.52 10.816L1.568 10.768L1.616 10.72L1.64 10.648L1.664 10.576L1.688 10.512L1.712 10.44V10.344L1.76 10.296V10.2L1.808 10.152V10.056L1.856 10.008V9.912L1.904 9.864V9.768L1.928 9.696L1.952 9.632V9.536L2 9.488L2.024 9.416L2.048 9.344L2 9.296L1.928 9.272H1.832L1.784 9.224H1.688H1.592L1.52 9.2L1.544 9.128L1.568 9.056L1.616 9.008L1.64 8.936L1.664 8.864L1.712 8.824L1.736 8.752L1.76 8.68L1.784 8.608L1.808 8.536V8.44L1.76 8.392L1.688 8.368L1.64 8.32H1.544L1.496 8.368H1.4L1.328 8.344L1.376 8.296L1.424 8.248L1.472 8.2L1.52 8.152L1.568 8.104L1.616 8.056L1.664 8.008L1.712 7.968L1.76 7.92V7.824L1.736 7.752L1.712 7.68L1.688 7.608L1.664 7.536V7.44V7.344V7.248V7.152V7.064L1.688 6.992L1.712 6.92L1.76 6.872V6.776L1.832 6.752L1.856 6.824L1.88 6.896L1.952 6.872L2 6.824L2.048 6.776L2.096 6.728L2.12 6.656L2.144 6.584V6.488V6.392V6.296L2.12 6.232L2.072 6.184L2.048 6.112L1.976 6.088L1.952 6.016L2 5.968L2.048 5.92L2.096 5.872L2.16 5.848L2.208 5.8H2.304H2.4L2.424 5.728V5.632V5.536V5.44L2.448 5.376L2.496 5.424L2.568 5.44H2.616V5.352V5.256V5.16V5.064L2.64 4.992L2.664 4.92V4.824L2.712 4.776V4.68L2.736 4.608L2.76 4.544L2.808 4.496L2.832 4.424L2.856 4.352H2.904V4.448V4.544V4.632V4.728L2.976 4.752L3.016 4.704L3.064 4.656L3.088 4.592L3.136 4.544L3.16 4.472L3.184 4.4L3.232 4.352L3.256 4.28L3.304 4.232L3.352 4.184L3.4 4.136L3.448 4.088L3.496 4.04L3.544 3.992L3.592 3.944L3.664 3.92L3.712 3.872L3.784 3.848L3.832 3.8H3.92L3.968 3.752H4.064L4.136 3.736L4.208 3.712H4.304H4.4H4.496L4.52 3.776L4.568 3.824L4.64 3.848L4.688 3.8L4.752 3.776L4.8 3.736L4.872 3.712L4.92 3.664L4.968 3.616L5.016 3.568L5.088 3.544H5.136L5.184 3.592V3.688L5.208 3.752H5.304L5.352 3.712L5.424 3.688L5.496 3.664L5.544 3.616L5.608 3.592L5.68 3.568L5.704 3.64L5.776 3.664L5.824 3.616L5.872 3.568L5.944 3.544L6.016 3.52H6.112L6.136 3.592V3.688V3.776L6.208 3.8L6.256 3.752L6.304 3.712L6.376 3.688L6.44 3.664L6.512 3.64L6.584 3.616L6.656 3.592L6.728 3.568L6.8 3.544L6.872 3.52H6.968H7.064L7.112 3.472H7.208L7.248 3.52L7.32 3.544L7.368 3.592V3.688L7.44 3.712L7.488 3.752L7.56 3.776L7.632 3.8L7.68 3.848L7.752 3.872L7.824 3.896L7.872 3.944L7.92 3.992L7.992 4.016L8.04 4.064L8.088 4.112L8.128 4.16L8.176 4.208L8.224 4.256L8.272 4.304L8.296 4.376L8.32 4.448L8.368 4.496L8.392 4.568L8.416 4.632L8.44 4.704L8.464 4.776L8.512 4.824V4.92L8.56 4.968V5.064V5.16L8.536 5.232L8.464 5.256L8.416 5.304L8.368 5.352L8.344 5.424H8.248L8.224 5.488V5.584L8.176 5.632H8.128L8.088 5.584H8.04L7.992 5.632L7.944 5.68L7.872 5.704L7.8 5.68L7.728 5.656L7.68 5.608L7.632 5.56L7.584 5.512H7.488L7.464 5.584L7.44 5.656H7.344L7.296 5.608L7.232 5.584L7.16 5.56L7.112 5.512L7.064 5.464L7.016 5.424L6.968 5.464L6.944 5.536L6.896 5.584L6.824 5.608L6.776 5.656L6.704 5.632L6.632 5.608L6.608 5.536L6.536 5.512L6.512 5.584L6.44 5.608L6.4 5.656L6.352 5.608L6.28 5.584L6.256 5.512L6.184 5.536L6.112 5.56H6.016L5.968 5.512L5.92 5.464L5.872 5.512L5.824 5.56L5.776 5.608L5.704 5.632L5.632 5.656L5.56 5.632L5.544 5.56L5.472 5.584L5.424 5.632L5.376 5.68L5.328 5.728L5.256 5.752L5.184 5.776L5.112 5.8H5.016L4.968 5.848L4.944 5.92V6.016V6.112L4.968 6.184L4.992 6.256V6.344L5.064 6.368L5.112 6.416L5.16 6.464L5.184 6.536L5.232 6.584V6.68L5.304 6.704H5.4L5.448 6.752L5.496 6.8L5.544 6.848H5.632H5.728L5.8 6.872L5.824 6.944L5.872 6.992H5.968H6.064L6.112 7.04L6.184 7.064L6.256 7.088L6.328 7.064L6.4 7.04H6.488L6.56 7.064V7.152L6.584 7.224H6.68L6.752 7.2L6.824 7.176H6.92L6.968 7.136H7.064H7.16L7.208 7.088H7.296L7.368 7.112L7.44 7.136H7.536L7.584 7.088H7.68H7.776L7.824 7.136L7.896 7.112L7.968 7.088H8.064L8.128 7.112L8.2 7.136L8.248 7.176L8.296 7.136L8.368 7.112L8.44 7.088H8.536L8.608 7.112L8.656 7.152L8.704 7.2L8.752 7.248L8.8 7.296H8.848L8.896 7.248L8.96 7.224H9.056H9.152H9.248H9.344H9.44L9.512 7.2L9.584 7.176H9.68H9.776H9.864L9.912 7.224L9.96 7.272L10.032 7.248L10.104 7.224H10.2L10.272 7.248L10.344 7.272H10.44L10.488 7.224L10.56 7.248L10.632 7.272L10.672 7.32H10.768H10.864L10.912 7.272H11.008L11.056 7.32L11.128 7.296L11.176 7.248L11.248 7.224L11.296 7.176L11.368 7.152L11.44 7.136H11.528L11.576 7.176L11.624 7.224L11.696 7.248L11.744 7.296L11.816 7.32L11.888 7.344L11.96 7.368H12.056L12.104 7.32L12.176 7.296L12.248 7.272L12.296 7.32L12.344 7.368L12.408 7.392L12.456 7.44L12.528 7.464L12.576 7.512L12.648 7.536L12.72 7.56L12.768 7.608L12.84 7.632L12.912 7.656L12.96 7.704H13.056L13.128 7.68V7.584L13.176 7.536L13.24 7.512H13.336L13.408 7.536L13.48 7.56H13.576L13.624 7.512L13.672 7.464L13.696 7.392L13.744 7.344L13.792 7.296L13.864 7.272L13.912 7.32L13.96 7.368L14.008 7.416H14.096L14.144 7.464H14.24H14.336L14.384 7.416H14.48H14.576L14.624 7.464L14.696 7.488L14.768 7.512L14.816 7.56L14.888 7.584L14.952 7.608H15.048L15.12 7.584L15.168 7.536L15.24 7.512L15.288 7.56L15.36 7.584L15.432 7.608H15.528L15.576 7.56L15.648 7.536V7.44H15.696L15.76 7.464L15.808 7.416L15.88 7.392L15.928 7.344L15.952 7.272L15.976 7.2L16.048 7.176L16.12 7.152L16.168 7.112L16.24 7.088H16.336L16.384 7.04L16.408 6.968L16.48 6.944L16.528 6.992L16.6 7.016L16.664 7.04L16.688 6.968V6.872V6.776L16.76 6.752L16.784 6.68L16.832 6.632L16.88 6.584L16.904 6.512L16.928 6.44L16.952 6.368V6.32L16.928 6.256L16.88 6.208V6.112L16.928 6.064L16.88 6.016L16.808 5.992L16.76 5.944L16.736 5.872L16.712 5.8L16.664 5.752L16.64 5.68L16.688 5.632L16.64 5.584L16.6 5.536L16.64 5.488L16.688 5.44V5.352L16.664 5.28L16.616 5.232V5.184L16.688 5.16L16.76 5.136L16.808 5.088L16.856 5.04L16.88 4.968L16.928 4.92V4.824L16.88 4.776L16.904 4.704L16.928 4.632L16.952 4.568L16.976 4.496V4.4V4.304V4.208L17.024 4.16V4.064V3.968L17.072 3.92L17.096 3.848L17.12 3.776L17.168 3.736L17.24 3.712L17.288 3.664L17.336 3.616L17.384 3.568L17.408 3.496V3.4L17.432 3.328L17.448 3.256V3.16L17.496 3.112L17.52 3.04L17.544 2.968L17.568 2.896L17.616 2.856L17.64 2.784L17.688 2.736L17.736 2.688L17.784 2.64L17.808 2.568L17.856 2.52L17.904 2.472L17.952 2.424L18.024 2.4L18.072 2.352H18.12L18.144 2.424L18.192 2.472L18.216 2.4L18.264 2.352L18.304 2.304L18.352 2.256L18.376 2.184L18.424 2.136L18.472 2.088L18.496 2.024L18.544 1.976L18.592 1.928L18.64 1.88L18.664 1.808L18.736 1.832H18.784L18.832 1.784L18.808 1.712L18.76 1.664L18.736 1.592L18.76 1.52L18.784 1.448L18.808 1.376L18.832 1.304L18.88 1.256L18.928 1.208L18.952 1.144L19 1.096L19.024 1.024L19.072 0.976L19.12 0.928L19.16 0.88L19.208 0.832L19.256 0.784L19.304 0.736L19.376 0.712L19.424 0.664L19.472 0.616L19.52 0.568L19.592 0.544L19.664 0.52L19.712 0.472L19.784 0.448L19.856 0.424L19.928 0.4L20 0.376L20.064 0.352L20.136 0.336L20.208 0.312L20.28 0.288L20.352 0.264L20.4 0.216L20.472 0.192L20.52 0.144L20.568 0.0959999L20.616 0.048H20.712L20.76 0.0959999H20.848L20.896 0.048H20.992L21.04 0H21.136L21.208 0.0240002L21.256 0.0720001L21.328 0.0959999L21.4 0.0720001L21.472 0.048L21.544 0.0240002L21.616 0H21.704H21.8L21.848 0.048L21.92 0.0720001H21.968L22.04 0.048L22.064 0.12L22.112 0.168L22.184 0.192L22.232 0.24L22.304 0.264V0.352L22.28 0.424L22.256 0.496V0.592V0.688V0.784L22.28 0.856L22.328 0.904H22.424L22.472 0.856L22.52 0.808L22.584 0.832L22.656 0.856H22.752V0.808V0.76L22.824 0.784L22.896 0.808L22.944 0.856L22.992 0.904L23.064 0.88L23.088 0.808H23.184L23.232 0.856L23.304 0.88L23.376 0.904L23.416 0.952L23.488 0.976L23.56 1L23.608 1.048H23.704H23.8L23.872 1.072L23.944 1.096L23.992 1.144L24.04 1.192L24.088 1.144H24.184L24.232 1.192L24.296 1.208L24.344 1.256L24.392 1.304L24.44 1.352L24.488 1.4L24.536 1.448L24.608 1.472L24.632 1.4H24.68L24.728 1.448L24.752 1.52L24.8 1.568L24.824 1.64L24.872 1.688L24.896 1.76L24.92 1.832L24.968 1.88L24.992 1.952L25.064 1.976L25.104 2.024L25.128 2.088L25.176 2.136L25.2 2.208L25.248 2.256L25.32 2.28L25.368 2.328L25.392 2.4L25.44 2.448L25.464 2.52L25.512 2.472L25.584 2.496V2.592L25.608 2.664L25.632 2.736L25.704 2.76L25.728 2.832V2.92V3.016L25.752 3.088L25.776 3.16V3.256V3.352L25.824 3.4V3.496L25.8 3.568L25.728 3.592L25.68 3.64L25.728 3.688L25.776 3.736L25.704 3.752V3.8L25.728 3.872L25.68 3.92L25.632 3.968L25.68 4.016L25.632 4.064L25.584 4.112V4.208L25.608 4.28L25.632 4.352L25.68 4.4L25.728 4.448L25.776 4.496L25.824 4.544L25.872 4.592L25.896 4.656H25.984L26.032 4.704L26.08 4.752H26.176L26.224 4.704L26.272 4.752L26.32 4.8L26.392 4.824L26.416 4.896L26.464 4.848L26.512 4.896L26.56 4.944L26.584 5.016L26.656 5.04L26.728 5.064L26.8 5.088H26.888L26.936 5.136L27.008 5.16L27.056 5.208L27.104 5.256L27.152 5.304L27.2 5.352V5.44V5.536V5.632V5.728V5.824L27.152 5.872L27.128 5.944L27.104 6.016L27.08 6.088L27.056 6.16V6.256V6.344V6.44L27.008 6.488V6.584V6.68L26.96 6.728V6.824L26.936 6.896L26.912 6.968L26.888 7.04L26.864 7.112L26.816 7.152L26.8 7.224L26.752 7.272L26.704 7.32L26.656 7.368L26.608 7.416L26.56 7.464L26.536 7.536V7.632V7.728V7.824L26.512 7.896L26.488 7.968L26.44 8.008L26.416 8.08L26.392 8.152L26.344 8.2L26.296 8.248L26.248 8.296L26.176 8.32L26.128 8.368L26.08 8.416L26.032 8.464L25.984 8.512L25.944 8.56L25.896 8.512L25.824 8.536L25.776 8.584L25.704 8.608L25.632 8.632L25.584 8.68H25.536H25.488L25.44 8.728L25.368 8.752H25.272H25.176L25.128 8.704L25.088 8.752L25.04 8.8L24.992 8.752L24.92 8.776H24.872H24.824L24.776 8.824L24.704 8.84L24.656 8.888L24.584 8.912L24.512 8.936L24.464 8.888L24.392 8.912L24.32 8.936L24.272 8.984L24.232 9.032L24.184 8.984L24.112 8.96L24.064 8.912H24.016L23.944 8.936L23.896 8.888L23.824 8.912L23.752 8.936L23.728 9.008V9.104V9.2L23.68 9.248V9.344L23.632 9.392V9.488L23.584 9.536V9.632L23.536 9.68V9.768L23.512 9.84L23.488 9.912L23.464 9.984L23.44 10.056V10.152L23.4 10.2V10.296L23.376 10.368L23.352 10.44V10.536L23.328 10.6L23.256 10.624V10.72V10.816V10.912V11.008L23.232 11.08L23.184 11.128L23.16 11.2V11.296V11.392V11.48V11.576V11.672L23.112 11.72V11.816V11.912V12.008V12.104V12.2V12.288L23.088 12.36L23.064 12.432V12.528V12.624L23.04 12.696L23.016 12.768V12.864V12.96L22.992 13.032L22.968 13.096V13.192L22.944 13.264L22.92 13.336L22.896 13.408L22.872 13.48L22.848 13.552L22.824 13.624L22.776 13.672V13.768L22.728 13.816L22.68 13.864L22.656 13.936L22.632 14V14.096L22.584 14.144V14.24L22.544 14.288L22.52 14.36L22.472 14.312L22.448 14.384L22.4 14.432V14.528V14.624L22.376 14.696L22.352 14.768V14.856L22.328 14.928L22.304 15L22.232 15.024L22.208 15.096V15.192V15.288V15.384V15.48L22.184 15.552L22.16 15.624L22.136 15.688L22.088 15.64L22.064 15.712V15.808V15.904V16L22.088 16.072V16.12L22.064 16.192L22.016 16.24L21.968 16.288V16.384V16.48V16.568V16.664L21.92 16.712L21.896 16.784L21.824 16.808L21.752 16.832V16.88L21.776 16.952V17.048L21.8 17.12L21.824 17.192L21.8 17.264L21.776 17.336L21.728 17.376L21.704 17.448L21.64 17.472V17.568V17.664V17.76L21.592 17.808L21.544 17.856V17.952V18.048V18.144V18.232L21.496 18.28V18.376V18.472V18.568V18.664V18.76V18.856V18.952V19.04V19.136L21.544 19.184L21.568 19.256L21.592 19.328L21.64 19.376L21.688 19.424L21.752 19.448L21.8 19.496L21.848 19.544L21.872 19.616V19.712L21.92 19.76L21.968 19.808V19.896L22.016 19.944L21.968 19.992V20.088V20.184V20.28V20.376V20.472L21.92 20.52V20.616L21.872 20.664L21.824 20.712L21.752 20.736L21.688 20.752L21.616 20.776H21.52H21.424H21.328H21.232V20.824L21.256 20.896V20.992L21.304 21.04V21.136V21.232L21.28 21.304L21.256 21.376L21.184 21.4L21.136 21.448H21.04L20.992 21.496L20.944 21.544L20.896 21.496L20.848 21.544H20.76L20.712 21.592H20.616L20.544 21.568H20.496L20.424 21.592H20.328L20.256 21.608L20.184 21.632L20.136 21.68L20.064 21.704L20 21.728H19.904L19.832 21.752H19.784L19.712 21.728H19.616L19.544 21.704L19.472 21.68L19.424 21.632L19.352 21.608L19.28 21.592L19.256 21.656L19.184 21.68L19.144 21.728H19.048H18.952H18.856H18.76H18.664H18.568H18.472L18.424 21.68H18.328L18.288 21.632L18.24 21.592L18.192 21.544L18.144 21.496L18.072 21.472L18.024 21.424L18 21.352L17.952 21.304L17.904 21.256L17.856 21.208L17.832 21.136V21.04L17.784 20.992L17.76 20.92L17.688 20.896L17.64 20.848V20.752L17.592 20.712L17.568 20.64L17.496 20.616L17.432 20.592L17.384 20.544L17.36 20.472V20.376V20.28V20.184V20.088L17.336 20.016L17.312 19.944V19.856V19.76V19.664V19.568V19.472V19.376V19.28V19.184V19.088L17.24 19.064L17.168 19.04L17.096 19.024L17.072 18.952V18.856L17.024 18.808L16.976 18.76L17 18.688L17.024 18.616L17.072 18.568L17.12 18.52L17.072 18.472L17 18.448L16.976 18.376L17.024 18.328V18.232V18.144L17.072 18.096V18L17.024 17.952L16.976 17.904L16.952 17.832L16.928 17.76L16.904 17.688L16.88 17.616V17.52V17.424L16.928 17.376V17.288V17.192L16.904 17.12L16.856 17.072L16.832 17L16.784 16.952L16.76 16.88L16.736 16.952H16.688L16.664 16.88L16.6 16.856L16.552 16.808L16.528 16.736L16.48 16.784L16.408 16.808L16.36 16.856L16.288 16.88L16.264 16.808V16.712L16.216 16.664V16.568L16.192 16.496L16.168 16.432L16.12 16.384H16.072H16.024L15.976 16.336L15.928 16.288L15.88 16.24L15.808 16.216L15.76 16.168H15.672L15.624 16.216L15.576 16.168H15.48L15.432 16.12H15.336H15.24H15.144H15.048H14.952H14.864H14.768H14.672H14.576H14.48L14.408 16.096L14.36 16.048L14.288 16.024L14.24 15.976L14.168 16L14.096 16.024L14.032 16.048L13.96 16.072H13.864L13.792 16.048V15.952L13.768 15.88H13.672L13.6 15.904L13.552 15.952L13.504 16L13.432 16.024H13.336L13.264 16H13.216L13.152 16.024L13.104 16.072L13.032 16.096L12.96 16.12H12.864L12.816 16.072H12.72L12.672 16.024L12.624 15.976L12.552 15.952H12.504L12.432 15.976H12.344L12.296 15.928L12.248 15.88L12.2 15.832L12.176 15.76L12.152 15.688L12.104 15.736H12.008H11.912H11.816H11.72L11.672 15.784L11.624 15.736L11.6 15.664L11.552 15.624L11.528 15.552L11.488 15.504L11.44 15.552H11.344L11.296 15.6L11.248 15.552H11.152L11.104 15.504L11.032 15.48L10.96 15.456L10.888 15.48L10.816 15.504L10.744 15.48L10.672 15.456L10.632 15.408L10.584 15.36L10.536 15.312L10.512 15.24L10.464 15.192L10.392 15.168L10.344 15.12H10.248H10.152L10.104 15.072L10.08 15L10.008 14.976L9.96 15.024L9.888 15.048L9.84 15.096L9.776 15.12L9.728 15.168L9.68 15.12H9.584H9.488L9.416 15.096L9.344 15.072L9.296 15.12L9.248 15.168L9.176 15.144L9.152 15.072L9.104 15.024L9.056 14.976L9.008 14.928L8.96 14.88L8.896 14.856L8.848 14.808L8.8 14.768H8.752L8.704 14.808V14.904L8.656 14.952V15.048L8.608 15.096L8.536 15.12L8.464 15.144V15.24L8.416 15.288L8.392 15.36L8.368 15.432L8.32 15.48L8.272 15.528L8.224 15.576H8.176L8.128 15.528H8.088L8.064 15.6L8.04 15.664L7.992 15.712V15.808L7.944 15.856L7.92 15.928L7.848 15.904L7.8 15.856H7.752V15.952L7.704 16V16.096V16.192L7.68 16.264L7.608 16.24L7.56 16.192L7.488 16.168L7.464 16.24L7.416 16.288L7.392 16.36L7.344 16.408L7.272 16.432V16.52L7.248 16.592L7.208 16.64L7.16 16.592L7.136 16.664L7.112 16.736L7.088 16.808L7.064 16.88L7.04 16.952H6.992L6.92 16.928L6.896 17L6.848 17.048L6.8 17.096L6.776 17.168L6.752 17.24L6.704 17.288L6.632 17.312L6.584 17.352L6.536 17.4L6.488 17.448L6.44 17.496H6.352L6.304 17.544L6.232 17.568L6.208 17.64L6.16 17.688H6.064L6.016 17.736L5.992 17.808L5.968 17.88L5.896 17.904L5.848 17.952L5.824 18.024L5.8 18.096L5.776 18.168L5.728 18.208L5.656 18.232V18.328L5.632 18.4L5.56 18.376H5.52L5.496 18.448L5.472 18.52V18.616V18.712L5.424 18.76V18.856V18.952V19.04L5.4 19.112L5.328 19.136L5.352 19.208L5.376 19.28V19.376L5.328 19.424L5.352 19.496L5.424 19.52L5.448 19.592L5.52 19.616L5.56 19.664L5.584 19.736L5.656 19.76V19.856L5.704 19.896L5.752 19.944L5.8 19.992V20.088L5.752 20.136L5.8 20.184L5.824 20.256L5.848 20.328L5.8 20.376V20.472L5.824 20.544L5.848 20.616L5.824 20.688L5.8 20.752V20.848L5.776 20.92L5.752 20.992L5.728 21.064L5.68 21.016L5.632 21.064L5.608 21.136L5.56 21.184L5.544 21.256L5.496 21.304H5.4L5.328 21.328L5.256 21.352H5.16L5.088 21.376L5.016 21.4H4.92H4.824L4.776 21.448L4.704 21.472L4.64 21.496H4.544H4.448H4.352L4.28 21.472L4.208 21.448L4.16 21.4L4.088 21.424L4.04 21.472L3.968 21.496H3.872H3.784H3.688H3.592H3.496L3.448 21.448L3.4 21.496L3.376 21.568V21.656L3.328 21.704V21.8L3.28 21.848L3.232 21.896L3.184 21.944L3.112 21.968H3.016L2.952 21.992L2.88 22.016L2.832 22.064H2.736L2.664 22.088L2.592 22.112H2.496H2.4L2.352 22.064L2.304 22.016L2.256 22.064L2.208 22.112L2.16 22.16L2.096 22.184L2.024 22.208L1.976 22.256Z" fill="var(--fill-0, #EC5998)"/>
</g>
</svg>
