<svg preserveAspectRatio="none" width="100%" height="100%" overflow="visible" style="display: block;" viewBox="0 0 27.2 26.48" fill="none" xmlns="http://www.w3.org/2000/svg">
<g id="Group">
<path id="Vector" d="M21.832 26.48L21.688 26.336L21.472 26.408L21.256 26.48L21.12 26.336H20.832H20.544L20.328 26.264L20.184 26.128L20.04 25.984L19.968 25.768L19.896 25.552L19.76 25.408L19.688 25.192L19.544 25.048L19.4 25.192L19.184 25.12L18.968 25.048L18.896 24.84L18.824 24.624L18.752 24.408V24.12L18.608 23.976L18.536 23.76L18.464 23.976L18.328 24.12V24.408V24.696V24.976L18.536 25.048L18.752 25.12L18.896 25.264L19.04 25.408L19.184 25.552V25.84V26.128L19.04 26.264L18.896 26.408L18.68 26.48H18.4H18.112H17.824H17.536L17.392 26.336H17.104L17.04 26.128L16.896 25.984L16.752 25.84L16.608 25.696L16.536 25.48L16.32 25.408L16.176 25.264L16.104 25.048L16.032 24.84V24.552V24.264H15.888L15.744 24.408H15.608L15.68 24.192L15.744 23.976L15.68 23.76L15.608 23.544V23.264L15.536 23.048V22.904L15.608 22.688L15.464 22.544H15.32H15.176H15.032L14.888 22.688L14.672 22.76L14.456 22.832L14.248 22.904L14.176 22.688L13.96 22.616L13.816 22.76H13.528H13.24L13.096 22.616L12.96 22.76H12.672L12.528 22.904L12.312 22.976L12.24 23.192L12.096 23.048H11.808L11.664 23.192L11.456 23.12L11.24 23.048L11.168 23.264L11.024 23.408V23.688L11.096 23.904L11.168 24.12L11.24 24.336L11.384 24.48L11.456 24.696L11.528 24.904L11.736 24.976H11.88L12.096 24.904L12.24 25.048L12.456 25.12L12.6 25.264L12.744 25.408L12.888 25.552V25.84L12.816 26.056L12.672 26.2L12.528 26.336H12.24H11.952H11.664H11.384H11.096H10.808L10.592 26.264L10.376 26.2L10.168 26.128L10.024 25.984L9.808 25.912L9.664 25.768L9.52 25.624L9.376 25.48L9.232 25.336L9.088 25.192L9.016 24.976L8.88 24.84L8.664 24.768L8.52 24.624L8.304 24.552L8.16 24.408L8.088 24.192L8.016 23.976L7.872 23.832L7.8 23.616L7.656 23.48L7.52 23.336L7.376 23.48H7.088L6.944 23.616L6.8 23.48L6.584 23.544L6.368 23.616L6.224 23.76L6.088 23.904L6.016 24.12V24.408L5.872 24.552L5.944 24.768L6.016 24.976L6.16 25.12L6.296 25.264L6.44 25.408L6.584 25.552L6.656 25.768L6.728 25.984L6.584 26.128L6.44 26.264L6.224 26.336H5.944L5.728 26.408L5.512 26.48H5.224L5.008 26.408L4.8 26.336H4.512L4.368 26.2L4.224 26.056L4.08 25.912L4.008 25.696L3.864 25.552L3.792 25.336L3.72 25.12L3.648 24.904L3.576 24.696L3.504 24.48L3.368 24.336L3.152 24.264L3.08 24.048L2.936 24.192L2.864 23.976L3.008 23.832V23.544L2.864 23.408L2.792 23.192L2.72 22.976V22.688L2.864 22.544L2.936 22.328L3.008 22.12L2.936 21.904L2.792 22.048L2.648 22.184L2.576 21.976V21.688V21.4V21.112V20.824L2.648 20.616L2.72 20.4L2.576 20.256V19.968L2.504 19.752L2.36 19.896L2.288 19.68V19.4L2.432 19.256L2.36 19.04L2.216 19.184L2.144 18.968V18.68V18.392V18.104L2.216 17.896L2.288 17.68L2.08 17.608L2.008 17.392V17.104V16.816L2.144 16.68L2.288 16.536L2.432 16.392L2.648 16.32L2.792 16.176L2.864 15.96L2.648 15.888V15.744L2.792 15.6L3.008 15.528L2.792 15.456H2.504H2.216L2.008 15.384L1.864 15.248L1.72 15.104L1.576 14.96L1.432 14.816L1.576 14.672L1.72 14.528L1.792 14.312L1.864 14.096L1.936 13.888L2.008 13.672L1.792 13.6L1.648 13.744L1.432 13.672L1.216 13.6H0.928L0.72 13.528L0.784 13.312L1 13.24L0.784 13.168L0.576 13.096L0.36 13.024V12.88L0.576 12.808L0.432 12.664L0.288 12.528L0.432 12.384V12.096L0.576 11.952L0.504 11.736L0.36 11.592H0.0719999L0 11.376L0.216 11.304L0.288 11.096L0.0719999 11.024V10.88L0.288 10.808L0.216 10.592V10.448L0.36 10.304L0.576 10.232L0.432 10.088L0.288 9.944L0.144 9.808L0.36 9.736L0.432 9.52L0.36 9.304L0.288 9.088L0.432 8.944L0.288 8.8L0.504 8.728L0.576 8.52V8.232L0.432 8.088L0.288 7.944L0.144 7.8V7.512V7.224L0.288 7.088V6.8L0.36 6.584L0.432 6.368L0.288 6.224V5.936V5.656V5.368V5.08L0.432 4.936V4.648V4.368L0.504 4.152L0.648 4.296L0.72 4.08V3.792L0.784 3.576L0.928 3.432L1 3.216V2.936L1.144 2.792L1.288 2.648L1.36 2.432L1.432 2.216L1.576 2.072H1.72H1.864L1.936 1.856L2.08 1.72L2.216 1.856L2.288 1.648L2.432 1.504L2.504 1.288L2.648 1.144L2.792 1L3.008 0.928L3.152 0.784L3.296 0.64H3.44H3.576L3.648 0.424L3.792 0.288L4.008 0.216H4.152L4.368 0.288L4.512 0.144L4.728 0.0720001H4.864L5.08 0.144L5.224 0H5.512L5.656 0.144H5.944H6.224L6.368 0.288L6.512 0.424L6.656 0.288H6.944H7.232L7.376 0.424L7.52 0.288L7.728 0.36L7.8 0.568L7.944 0.712L8.016 0.928L8.16 1.072L8.016 1.216L8.16 1.36L8.016 1.504L8.16 1.648L7.944 1.72L7.8 1.856L7.584 1.928L7.376 2V2.144V2.288L7.16 2.36L6.944 2.432L6.872 2.648L6.656 2.72L6.44 2.792L6.224 2.864L6.088 3.008L6.016 3.216L5.872 3.36L5.728 3.504V3.792L5.584 3.936L5.44 4.08L5.368 4.296L5.296 4.504V4.792L5.224 5.008L5.152 5.224V5.512L5.296 5.656L5.224 5.864L5.152 6.08V6.368V6.656V6.944V7.224L5.296 7.368V7.656V7.944V8.232V8.52L5.368 8.728L5.44 8.944V9.232V9.52L5.584 9.664V9.944L5.8 10.016L5.872 10.232L5.944 10.448L6.016 10.664V10.952L6.16 11.096L6.296 11.24L6.44 11.376L6.584 11.52H6.728L6.944 11.448H7.232L7.448 11.376L7.656 11.304H7.944L8.16 11.24L8.376 11.168H8.664H8.944H9.232H9.52H9.808H10.096H10.376H10.664L10.808 11.304H11.096L11.24 11.448H11.528H11.808H12.096H12.384H12.672H12.96L13.168 11.376L13.384 11.304L13.6 11.24L13.816 11.168H14.104L14.248 11.024L14.384 11.168H14.672L14.816 11.024H15.104H15.392H15.68H15.96L16.176 10.952H16.32H16.464L16.68 10.88H16.968H17.248L17.392 10.736H17.68L17.896 10.664L18.112 10.592L18.184 10.376L18.4 10.304H18.68H18.968L19.112 10.16L19.256 10.016H19.544L19.688 9.88H19.968L20.112 9.736L20.256 9.592L20.4 9.448L20.472 9.232L20.544 9.016L20.688 8.872L20.832 8.728L21.048 8.656V8.376L21.256 8.304L21.4 8.16L21.544 8.016L21.616 7.8V7.512L21.76 7.368L21.904 7.224L22.12 7.16H22.408L22.616 7.224L22.832 7.296L22.976 7.44L23.12 7.584L23.336 7.656L23.552 7.728L23.768 7.656L23.976 7.584H24.264H24.552L24.696 7.728L24.768 7.944L24.696 8.16V8.304L24.84 8.448H25.128L25.264 8.584L25.48 8.656L25.696 8.728L25.84 8.872L25.984 9.016L26.056 9.232L26.2 9.376L26.344 9.52L26.488 9.664V9.944V10.232V10.52V10.808L26.624 10.952L26.768 11.096L26.912 11.24L26.984 11.448L27.056 11.664L27.2 11.808L27.128 12.024L27.056 12.24L26.912 12.384L26.84 12.6L26.696 12.736L26.56 12.88L26.416 13.024L26.272 13.168L26.128 13.312L25.984 13.456L25.912 13.672L25.984 13.888L26.128 14.024L26.2 14.24L26.344 14.384V14.672L26.488 14.816L26.272 14.888V15.032L26.344 15.248L26.2 15.384L26.344 15.528L26.272 15.744L26.2 15.96L26.272 16.176V16.32H25.984L25.768 16.392V16.68V16.96V17.248L25.696 17.464L25.48 17.536L25.336 17.68V17.968L25.48 18.104L25.408 18.32L25.264 18.176L25.128 18.32L24.984 18.464L24.84 18.608L24.768 18.824L24.624 18.968L24.552 19.184L24.336 19.256L24.264 19.464L24.12 19.328L23.976 19.464L23.84 19.608L23.696 19.752L23.48 19.824L23.408 20.04L23.192 20.112V20.4V20.688L23.12 20.896L22.904 20.968V21.256L22.76 21.4L22.616 21.544V21.832L22.48 21.976L22.408 22.184L22.192 22.12H22.048L21.904 22.256L21.76 22.4V22.688V22.976L21.688 23.192L21.616 23.408V23.688L21.472 23.832V24.12V24.408L21.544 24.624V24.768L21.472 24.976L21.688 25.048L21.904 25.12L22.048 25.264L22.192 25.408L22.408 25.48L22.48 25.696V25.984L22.408 26.2L22.264 26.336H21.976L21.832 26.48Z" fill="var(--fill-0, #F9D02E)"/>
</g>
</svg>
