<svg preserveAspectRatio="none" width="100%" height="100%" overflow="visible" style="display: block;" viewBox="0 0 27.2 20.576" fill="none" xmlns="http://www.w3.org/2000/svg">
<g id="Group">
<path id="Vector" d="M22.024 20.576H21.792H21.56H21.328H21.096H20.864L20.688 20.52L20.512 20.464L20.4 20.344L20.28 20.232L20.224 20.056L20.104 19.936V19.704L20.048 19.536L19.992 19.36V19.128L19.936 18.952L19.872 18.776V18.544V18.312V18.08L19.76 17.96V17.728V17.496L19.64 17.384V17.152L19.528 17.032V16.8V16.568L19.408 16.448V16.216L19.296 16.104V15.872L19.176 15.752L19.12 15.576L19.064 15.408L18.944 15.288L18.768 15.232L18.656 15.112L18.6 15.288H18.48L18.36 15.176H18.248L18.072 15.232L18.016 15.056H17.896L17.784 15.176L17.728 15.344L17.608 15.232L17.488 15.112L17.376 15.232L17.256 15.344L17.088 15.408L16.912 15.464L16.736 15.52L16.56 15.576L16.448 15.464L16.328 15.576H16.096L15.984 15.696L15.808 15.64L15.92 15.52L15.752 15.464L15.632 15.576L15.512 15.464H15.28L15.168 15.576L15.112 15.408L14.992 15.288L14.936 15.112L14.816 15L14.76 15.176H14.648L14.584 15L14.408 15.056L14.24 15.112H14.008L13.888 15L13.776 14.88L13.712 15.056V15.288V15.52V15.752L13.6 15.872L13.536 16.048L13.424 16.16H13.192L13.072 16.28L13.016 16.448V16.688L12.904 16.8V17.032L12.784 17.152L12.728 17.32L12.664 17.496V17.728V17.96L12.728 18.136L12.784 18.312L12.904 18.424L13.016 18.544L13.136 18.664L13.248 18.776L13.304 18.952L13.48 19.008L13.656 19.064H13.888L14.064 19.128L14.176 19.24L14.352 19.296L14.472 19.416L14.584 19.536L14.648 19.704V19.936L14.528 20.056L14.408 20.168L14.24 20.232H14.008H13.776H13.536H13.304H13.072H12.84H12.608H12.376L12.264 20.112L12.088 20.056L11.912 20H11.68H11.448L11.272 19.936L11.096 19.88L10.984 19.768L10.928 19.592L10.808 19.472L10.688 19.36L10.576 19.24L10.456 19.128L10.344 19.008L10.224 18.896V18.664L10.112 18.544L10.056 18.368L9.992 18.192L9.88 18.08V17.848L9.76 17.728L9.704 17.552L9.648 17.384L9.528 17.264L9.472 17.088L9.416 16.92L9.352 16.744L9.296 16.568V16.336V16.104V15.872V15.64V15.408L9.184 15.288V15.056L9.12 14.88L9.064 14.712L8.952 14.592V14.36L8.832 14.24L8.776 14.072L8.712 13.896L8.6 13.776V13.544L8.544 13.368L8.424 13.256L8.248 13.2V12.968V12.736L8.192 12.56L8.136 12.384V12.152V11.92V11.688L8.016 11.568V11.336L8.136 11.224V10.992V10.752L8.08 10.584L8.016 10.408L8.136 10.288V10.056V9.824V9.592L8.192 9.416L8.312 9.304V9.184H8.08H7.848L7.728 9.072L7.672 8.896L7.552 8.776L7.376 8.72L7.264 8.608L7.144 8.488L7.032 8.376L6.912 8.256L6.856 8.08L6.736 7.968L6.568 7.912L6.392 7.848L6.448 7.672V7.56L6.392 7.384L6.336 7.208L6.216 7.096L6.16 6.92L6.104 6.744L5.984 6.632L5.928 6.456L5.864 6.28L5.696 6.224L5.632 6.048L5.52 5.936L5.344 5.872L5.464 5.76L5.4 5.584H5.168V5.464L5.288 5.352L5.464 5.296L5.288 5.232L5.232 5.064L5.112 4.944L5 4.824L4.88 4.712V4.48L4.704 4.424L4.592 4.304H4.36L4.24 4.192L4.064 4.128L3.888 4.072L3.776 3.952L3.6 3.896L3.488 3.784L3.424 3.608L3.312 3.488L3.136 3.432L2.96 3.376L2.784 3.32L2.616 3.256L2.496 3.144L2.32 3.088L2.152 3.024L2.032 2.912L1.912 2.792L1.8 2.68L1.624 2.616L1.448 2.56L1.392 2.384L1.216 2.328L1.104 2.216L0.984 2.096H0.752L0.64 1.976L0.52 1.864L0.464 1.688L0.288 1.632L0.232 1.456L0.112 1.344L0 1.224V0.992L0.0559999 0.816L0.112 0.64L0.232 0.528L0.288 0.352L0.464 0.296L0.576 0.176L0.752 0.12H0.984L1.104 0H1.336H1.568H1.8H2.032H2.264L2.384 0.12H2.616L2.784 0.176L2.96 0.24H3.192L3.312 0.352H3.544L3.656 0.472L3.832 0.528L4.008 0.584H4.24L4.36 0.704L4.528 0.76L4.648 0.872L4.76 0.992L4.936 1.048H5.168L5.232 1.224L5.4 1.28L5.52 1.4L5.696 1.456L5.752 1.632L5.928 1.688L6.04 1.808L6.16 1.92L6.272 2.04L6.336 2.216L6.504 2.272L6.624 2.384L6.736 2.504L6.856 2.616L6.976 2.736L7.088 2.848L7.144 3.024L7.208 3.2L7.264 3.376L7.32 3.552H7.44H7.552L7.672 3.664L7.728 3.84L7.784 4.016L7.904 4.128L8.016 4.248L8.08 4.424L8.192 4.536L8.248 4.712L8.368 4.824L8.48 4.944L8.6 5.064L8.712 5.176L8.832 5.296L8.952 5.408L9.064 5.528L9.12 5.696L9.24 5.816L9.352 5.936L9.528 5.992L9.648 6.104L9.76 6.224L9.936 6.28L10.056 6.4L10.224 6.456L10.344 6.568L10.456 6.688L10.576 6.8L10.752 6.864L10.864 6.976L10.984 7.096L11.096 7.208L11.216 7.328H11.448L11.56 7.208H11.8H12.032L12.2 7.152L12.376 7.096H12.608H12.84L13.016 7.152L13.192 7.208H13.424H13.656H13.888H14.12L14.296 7.272L14.472 7.328H14.704H14.936H15.168H15.4H15.632H15.864H16.096L16.272 7.384L16.448 7.44H16.68H16.912H17.144H17.376L17.488 7.56H17.728H17.96H18.192H18.424L18.536 7.672H18.768H19H19.232H19.464H19.704H19.936H20.168L20.28 7.792H20.512H20.744L20.864 7.912H21.096L21.208 7.792L21.328 7.672L21.384 7.504L21.56 7.44L21.68 7.328L21.736 7.152L21.848 7.04L21.968 6.92L22.024 6.744L22.08 6.568L22.256 6.512L22.312 6.336L22.376 6.168L22.552 6.104L22.664 5.992L22.784 5.872L22.952 5.816L23.072 5.696L23.184 5.584L23.304 5.464L23.36 5.296L23.48 5.176L23.536 5L23.592 4.824L23.656 4.656L23.712 4.48L23.824 4.36L23.888 4.192L24 4.072L24.056 3.896L24.176 3.784L24.352 3.72L24.464 3.608L24.584 3.488L24.64 3.32L24.816 3.256L24.992 3.2L25.16 3.144L25.224 3.32L25.104 3.432L24.992 3.552L24.872 3.664L24.76 3.784V4.016V4.248V4.48V4.712V4.944L24.872 5.064V5.296L24.992 5.408H25.104L25.224 5.296L25.336 5.176L25.512 5.12L25.632 5L25.744 4.888L25.864 4.768L25.976 4.656L26.152 4.592L26.264 4.48L26.384 4.36L26.56 4.304H26.792L26.968 4.36L26.848 4.48L26.736 4.592L26.616 4.712L26.504 4.824L26.44 5L26.384 5.176L26.264 5.296L26.208 5.464L26.152 5.64L26.208 5.816L26.328 5.936L26.384 6.104L26.504 6.224V6.456V6.688V6.92L26.616 7.04L26.736 7.152L26.904 7.208L27.024 7.328L27.08 7.504V7.736L27.2 7.848V8.08L27.08 8.2L27.024 8.376L26.968 8.544L26.848 8.664L26.736 8.776L26.56 8.84L26.44 8.952H26.208L26.032 9.016L25.92 9.128L25.864 9.304L25.8 9.48V9.712L25.744 9.888L25.688 10.056V10.288V10.52L25.568 10.64V10.872V11.104L25.456 11.224V11.456L25.4 11.624L25.336 11.8L25.224 11.92L25.16 12.096L25.104 12.264L24.992 12.384L24.928 12.56L24.872 12.736L24.76 12.848L24.64 12.968L24.584 13.136L24.464 13.256L24.408 13.432L24.352 13.6L24.288 13.776L24.176 13.896L24.056 14.008L24 14.184L23.888 14.304L23.768 14.416L23.712 14.592L23.592 14.712L23.536 14.88L23.424 15L23.36 15.176L23.248 15.288L23.128 15.408L23.072 15.576L23.016 15.752L22.952 15.928L22.896 16.104V16.336L22.784 16.448V16.688V16.92L22.72 17.088L22.664 17.264V17.496L22.552 17.616V17.848V18.08V18.312V18.544V18.776L22.608 18.952L22.784 19.008L22.952 19.064L23.072 19.184L23.184 19.296L23.248 19.472L23.36 19.592V19.824L23.304 20H23.072L22.952 20.112H22.72H22.488L22.312 20.168L22.256 20.344L22.144 20.464L22.024 20.576Z" fill="var(--fill-0, #F9D02E)"/>
</g>
</svg>
