<svg preserveAspectRatio="none" width="100%" height="100%" overflow="visible" style="display: block;" viewBox="0 0 26.768 27.2" fill="none" xmlns="http://www.w3.org/2000/svg">
<g id="Group">
<path id="Vector" d="M6.32 27.2H6.104H5.888H5.672H5.456H5.24H5.024H4.808H4.592H4.376H4.16L3.992 27.152L3.832 27.096L3.728 26.984L3.616 26.88L3.512 26.984L3.344 26.936L3.456 26.824L3.344 26.72V26.504L3.296 26.336L3.136 26.288L3.08 26.12L3.024 26.288L2.968 26.448L2.92 26.288L2.808 26.176L2.752 26.016L2.704 26.176L2.648 26.336L2.592 26.176L2.488 26.072L2.432 25.904L2.376 25.744V25.528H2.272L2.216 25.688L2.16 25.528L2.104 25.368L2.056 25.528L2 25.688L1.944 25.528L1.888 25.368L1.84 25.208V24.992V24.776L1.728 24.664V24.448V24.232V24.016L1.624 23.912V23.696V23.48L1.568 23.32L1.512 23.152V22.936V22.72V22.504V22.288V22.072V21.856V21.64L1.624 21.536V21.32L1.568 21.16L1.512 20.992V20.776L1.624 20.672V20.456L1.728 20.352V20.136V19.92H1.624L1.512 20.024L1.456 20.184L1.296 20.136V19.92V19.704L1.192 19.592L1.296 19.488V19.272V19.056L1.352 18.888V18.784L1.24 18.888L1.136 19L1.024 19.104L0.92 19.216L0.864 19.056V18.84V18.624L0.976 18.512L0.92 18.352L0.864 18.512L0.704 18.568L0.648 18.408V18.192L0.76 18.08V17.864L0.808 17.704L0.864 17.544H0.76H0.648L0.704 17.376L0.76 17.216L0.808 17.056L0.864 16.896L0.92 16.736V16.624L0.808 16.736L0.76 16.568V16.352L0.808 16.192L0.864 16.032L0.92 15.872L0.976 15.704L1.08 15.6L1.136 15.44L1.192 15.272L1.296 15.168L1.408 15.056L1.456 14.896L1.568 14.792L1.624 14.624L1.728 14.52L1.84 14.408L1.944 14.304L2.056 14.192L2 14.032L1.888 14.144L1.728 14.192L1.624 14.304L1.456 14.36L1.352 14.464L1.24 14.576L1.136 14.68L1.08 14.52L1.192 14.408L1.296 14.304L1.408 14.192L1.456 14.032L1.568 13.928L1.672 13.816L1.784 13.712L1.888 13.6L2.056 13.552L2.16 13.44L2.272 13.336L2.432 13.28L2.536 13.168L2.648 13.064L2.808 13.008L2.92 12.904L3.024 12.792L3.136 12.688L3.24 12.576L3.344 12.472L3.456 12.36L3.512 12.2L3.616 12.088L3.728 11.984L3.888 11.928L3.992 11.824L4.104 11.712L4.048 11.552L3.888 11.496L3.728 11.44L3.616 11.336H3.4L3.296 11.224H3.08H2.864H2.648L2.488 11.176L2.536 11.008L2.704 10.96L2.592 10.848L2.432 10.792H2.216H2L1.84 10.744L2 10.688V10.576H1.784L1.672 10.472L1.512 10.416L1.568 10.256H1.784V10.152L1.672 10.04H1.456L1.352 9.936H1.136L1.024 9.824L0.864 9.768L1.024 9.72H1.24L1.408 9.664L1.24 9.608L1.136 9.504L0.976 9.448L0.808 9.392L0.648 9.336L0.808 9.288L0.976 9.232L0.864 9.12L0.76 9.016L0.648 8.904L0.808 8.856L0.92 8.96L1.08 8.904L0.92 8.856L0.808 8.744L0.648 8.688L0.488 8.64V8.528L0.648 8.472L0.544 8.368L0.376 8.312L0.272 8.208V8.096L0.432 8.152L0.592 8.208L0.76 8.256L0.92 8.312V8.208L0.808 8.096L0.704 7.992L0.592 7.88L0.488 7.776L0.432 7.608L0.328 7.504L0.216 7.392V7.176L0.112 7.072V6.856L0 6.752V6.536L0.0559999 6.368L0.216 6.424L0.272 6.584L0.328 6.752L0.432 6.856L0.544 6.96L0.648 7.072L0.76 7.176L0.864 7.288L1.024 7.344L1.136 7.448L1.296 7.392L1.192 7.288L1.136 7.128L1.08 6.96L0.976 6.856L0.92 6.696L0.864 6.536L0.808 6.368L0.76 6.208V5.992V5.776V5.56V5.344V5.128V4.912L0.808 4.752L0.864 4.592L0.92 4.424L1.08 4.376L1.192 4.264V4.048L1.296 3.944L1.352 3.776L1.408 3.616L1.512 3.512H1.624V3.728L1.728 3.832H1.84V3.616L1.944 3.512L2 3.352L2.104 3.24L2.216 3.136L2.32 3.024L2.432 2.92L2.536 2.808L2.592 2.968H2.704L2.808 2.864H2.92V3.08H3.024L3.184 3.024L3.296 2.92L3.4 2.808L3.512 2.704L3.672 2.648L3.776 2.536L3.944 2.488L4.048 2.376L4.104 2.536L3.992 2.648L3.888 2.752L4.048 2.808L4.16 2.704L4.264 2.592L4.32 2.752L4.208 2.864H4.32L4.48 2.808L4.592 2.704L4.696 2.592L4.856 2.536H4.968L4.912 2.704L4.856 2.864L4.752 2.968L4.696 3.136L4.592 3.24L4.48 3.352L4.424 3.512L4.592 3.56H4.808H5.024V3.672L4.856 3.728L4.696 3.776L4.536 3.832L4.376 3.888L4.264 3.992L4.104 4.048L3.944 4.104L3.832 4.208L3.728 4.32L3.616 4.424L3.512 4.536L3.4 4.64L3.296 4.752L3.24 4.912L3.136 5.024L3.08 5.184V5.288L3.184 5.184L3.296 5.072L3.344 5.24L3.24 5.344V5.56L3.184 5.72L3.136 5.888V6.104V6.32V6.536V6.752V6.96L3.184 7.128L3.24 7.288L3.296 7.448L3.344 7.608L3.4 7.776L3.456 7.936L3.56 8.04L3.672 8.152L3.728 8.312L3.776 8.152H3.888L3.992 8.256L4.048 8.424L4.104 8.584L4.208 8.688L4.264 8.856L4.376 8.96L4.424 9.12L4.536 9.232L4.64 9.336L4.696 9.504L4.808 9.608L4.912 9.72L5.024 9.824L5.128 9.936L5.24 10.04L5.344 10.152L5.456 10.256L5.56 10.36L5.672 10.472L5.832 10.528L5.936 10.632L6.104 10.688L6.208 10.576H6.424H6.64L6.744 10.472H6.96H7.176L7.288 10.36H7.504H7.72H7.936L8.04 10.256H8.256H8.472H8.688H8.904H9.12H9.336H9.552H9.768H9.984H10.2H10.416H10.632H10.848L11.008 10.312L11.176 10.36H11.392H11.608H11.824H12.04H12.256H12.472H12.688L12.848 10.312L13.008 10.256H13.224L13.336 10.152H13.544L13.656 10.04L13.816 9.984L13.976 9.936L14.088 9.824L14.248 9.768L14.36 9.664L14.52 9.608L14.624 9.504L14.736 9.392L14.84 9.288L14.952 9.176L15.056 9.072L15.168 8.96L15.224 8.8L15.328 8.688L15.44 8.584L15.488 8.424L15.544 8.256L15.656 8.152L15.704 7.992V7.88L15.6 7.992L15.488 8.096L15.384 8.208L15.272 8.312L15.168 8.424L15.112 8.584L15.008 8.688L14.896 8.8L14.792 8.904L14.68 9.016L14.576 9.12H14.464L14.52 8.96L14.624 8.856L14.68 8.688L14.736 8.528L14.792 8.368V8.152L14.896 8.04V7.824L14.952 7.664L15.008 7.504H14.896H14.792V7.288L14.84 7.128L14.896 6.96V6.752L15.008 6.64L15.056 6.48L15.168 6.368L15.224 6.208L15.328 6.104L15.44 5.992L15.544 5.888L15.656 5.776L15.76 5.672L15.872 5.56H15.76L15.6 5.616L15.488 5.72L15.384 5.832L15.224 5.888L15.168 6.048L15.008 5.992L15.112 5.888V5.672L15.224 5.56L15.272 5.4L15.384 5.288L15.488 5.184L15.6 5.072L15.704 4.968L15.816 4.856L15.92 4.752L16.088 4.696L15.92 4.64L15.816 4.752L15.704 4.856L15.6 4.968L15.488 5.072L15.384 5.184L15.224 5.128L15.328 5.024V4.808L15.44 4.696L15.544 4.592L15.6 4.424L15.704 4.32L15.816 4.208L15.976 4.16L15.816 4.104L15.656 4.16L15.544 4.264L15.384 4.32V4.208L15.44 4.048L15.544 3.944L15.656 3.832L15.76 3.728L15.872 3.616H15.76L15.6 3.672L15.544 3.832L15.384 3.888V3.776L15.44 3.616L15.544 3.512L15.6 3.352L15.704 3.24V3.136L15.6 3.24L15.488 3.352L15.384 3.456L15.224 3.4L15.328 3.296L15.384 3.136L15.488 3.024L15.6 2.92L15.704 2.808L15.872 2.752L15.704 2.704L15.6 2.808L15.44 2.752L15.544 2.648L15.656 2.536L15.816 2.488L15.976 2.432L15.92 2.272L15.76 2.32L15.6 2.376V2.272L15.704 2.16H15.92V2.056H15.704H15.488L15.328 2L15.44 1.888L15.6 1.84L15.76 1.784V1.568L15.704 1.408L15.656 1.24L15.544 1.136L15.6 0.976L15.704 0.864H15.92L16.032 0.76L16.192 0.704L16.352 0.648H16.568L16.68 0.544H16.896H17.112L17.272 0.592L17.432 0.648L17.592 0.704L17.76 0.76L17.864 0.864L17.976 0.976L18.08 1.08L18.136 0.92L18.024 0.808L17.92 0.704L17.864 0.544L17.704 0.488L17.592 0.376L17.488 0.272L17.648 0.216L17.76 0.328L17.92 0.376L18.08 0.432L18.192 0.544L18.352 0.592H18.456L18.352 0.488L18.24 0.376L18.08 0.328L17.976 0.216V0.112L18.136 0.16L18.296 0.216L18.408 0.328L18.568 0.272L18.456 0.16L18.624 0.112L18.728 0.216L18.784 0.376L18.888 0.488H19L18.888 0.376L18.84 0.216L18.728 0.112V0L18.888 0.0559999L19 0.16H19.104H19.216L19.32 0.272L19.488 0.328L19.592 0.432L19.704 0.544L19.864 0.592L19.968 0.704H20.08L20.24 0.648H20.456H20.672H20.888H21.104H21.32L21.48 0.704L21.64 0.76H21.856L21.968 0.864H22.184L22.288 0.976H22.504L22.616 1.08L22.776 1.136L22.888 1.24L23.048 1.296L23.152 1.408L23.264 1.512L23.368 1.624V1.512L23.264 1.408L23.152 1.296L23.048 1.192L22.936 1.08L22.776 1.024L22.672 0.92L22.832 0.864L22.936 0.976L23.104 1.024L23.208 1.136L23.32 1.24L23.424 1.352H23.536L23.64 1.24L23.536 1.136L23.424 1.024L23.32 0.92L23.48 0.864L23.584 0.976L23.696 1.08L23.8 1.192L23.912 1.296L24.016 1.408L24.128 1.512L24.232 1.624L24.288 1.784L24.392 1.888V2.104L24.504 2.216V2.432L24.56 2.592L24.608 2.432L24.72 2.32L24.824 2.216L24.88 2.056L24.936 2.216L24.88 2.376V2.488L24.936 2.648L24.824 2.752L24.776 2.92L24.664 3.024V3.136L24.776 3.024L24.88 2.92L24.936 2.752L25.04 2.648H25.152L25.096 2.808L25.04 2.968L24.936 3.08L24.88 3.24L24.776 3.352L24.72 3.512L24.608 3.616L24.504 3.728L24.392 3.832L24.232 3.888L24.128 3.992V4.104H24.344L24.448 4.208H24.664H24.88L25.04 4.264L25.208 4.32L25.368 4.376L25.528 4.424L25.64 4.536L25.744 4.64H25.96H26.176L26.288 4.752H26.504L26.608 4.856L26.72 4.968L26.768 5.128L26.664 5.24V5.456L26.552 5.56V5.776L26.608 5.936L26.664 6.104V6.32V6.536L26.608 6.696L26.552 6.856L26.504 7.016L26.336 7.072V7.288L26.288 7.448L26.176 7.344L26.12 7.504V7.72L25.96 7.776L25.904 7.936L25.744 7.992L25.64 8.096L25.472 8.152L25.368 8.256L25.208 8.312L25.152 8.472L25.04 8.584L24.936 8.688L24.824 8.8L24.72 8.904L24.608 9.016H24.504H24.392L24.288 9.12L24.128 9.176L23.96 9.232L23.8 9.288L23.696 9.392L23.584 9.504L23.424 9.552L23.264 9.608V9.504L23.368 9.392V9.288L23.208 9.336L23.104 9.448L22.992 9.552L22.888 9.664V9.88L22.992 9.984L23.104 10.096L23.152 10.256L23.264 10.36L23.32 10.528L23.424 10.632L23.536 10.744V10.96H23.424L23.368 10.792L23.264 10.688L23.152 10.576L23.048 10.472V10.576L23.152 10.688L23.208 10.848L23.32 10.96L23.424 11.064L23.536 11.176L23.584 11.336L23.64 11.496L23.744 11.608V11.824L23.856 11.928L23.696 11.984L23.64 11.824L23.536 11.712L23.48 11.552L23.368 11.44V11.552L23.424 11.712L23.536 11.824V12.04L23.64 12.144V12.36L23.744 12.472V12.688V12.904V13.12V13.336L23.8 13.496L23.856 13.656L23.8 13.816L23.64 13.76V13.552L23.584 13.384L23.536 13.224L23.48 13.064L23.424 12.904L23.32 12.792L23.264 12.632L23.152 12.52L23.048 12.416L22.888 12.36L22.72 12.304V12.416L22.832 12.52L22.888 12.688L22.992 12.792L23.048 12.952L23.104 13.12L23.208 13.224L23.264 13.384L23.32 13.552L23.368 13.712L23.424 13.872V14.088V14.304V14.52V14.736L23.32 14.84V15.056L23.208 15.168L23.152 15.328L23.104 15.168V14.952L22.992 14.84L22.936 14.68L22.888 14.52H22.776V14.736V14.952V15.168V15.384L22.888 15.488L22.936 15.656L23.048 15.76L23.104 15.92L23.208 16.032L23.32 16.136L23.368 16.304L23.424 16.464L23.536 16.568L23.584 16.736L23.64 16.896L23.696 17.056L23.744 17.216L23.696 17.376L23.64 17.216H23.536L23.584 17.376L23.64 17.544V17.76L23.744 17.864V18.08V18.296H23.64L23.536 18.192L23.368 18.136L23.264 18.024L23.152 17.92H22.936L22.832 17.808H22.616L22.456 17.76L22.288 17.704V17.808L22.4 17.92L22.456 18.08L22.56 18.192L22.672 18.296L22.776 18.408V18.624L22.888 18.728V18.944H22.776L22.672 18.84L22.504 18.784L22.4 18.672L22.288 18.568L22.24 18.728L22.344 18.84V19.056V19.272V19.488V19.704L22.288 19.864L22.128 19.92V20.136V20.352V20.56L22.024 20.672V20.888L21.912 20.992L21.856 21.16L21.696 21.104L21.808 20.992V20.776V20.56L21.752 20.4L21.696 20.24L21.64 20.08L21.592 19.92L21.48 19.808L21.376 19.704L21.32 19.536L21.208 19.432L21.048 19.488V19.704V19.92V20.136V20.352L20.992 20.512L20.944 20.672L20.888 20.832L20.832 20.992H20.728V20.776H20.616V20.992L20.56 21.16L20.512 20.992V20.776H20.4L20.296 20.888L20.184 20.992V21.208V21.424L20.08 21.536L20.184 21.64L20.136 21.808L19.968 21.856V22.072L20.08 22.184V22.4L20.184 22.504L20.136 22.672V22.776L20.184 22.936H20.08L19.968 22.832H19.864L19.92 22.992L19.968 23.152L20.08 23.264L20.184 23.368L20.24 23.536V23.64L20.08 23.696L20.136 23.856L20.184 24.016H20.08H19.968L20.08 24.128L20.024 24.288L19.968 24.448V24.664L19.92 24.824L19.808 24.72L19.704 24.608L19.648 24.776L19.752 24.88L19.864 24.992V25.208L19.968 25.312L19.864 25.424V25.64L19.92 25.8H20.136H20.344L20.456 25.904H20.672L20.776 26.016L20.888 26.12L20.944 26.288V26.504L20.832 26.608L20.728 26.72L20.616 26.824L20.512 26.936L20.344 26.984H20.136L20.024 27.096H19.808H19.592H19.376H19.16H18.944H18.728H18.512L18.352 27.04L18.192 26.984H17.976H17.76H17.544H17.328L17.216 26.88L17.16 26.72L17.056 26.608V26.392H16.944V26.608H16.84L16.784 26.448L16.736 26.608H16.624L16.568 26.448L16.52 26.608H16.408V26.392L16.304 26.288V26.072L16.352 25.904L16.408 25.744L16.304 25.64H16.192H16.088V25.424V25.208L16.032 25.04L15.976 25.208V25.424H15.872H15.76L15.656 25.528H15.544L15.6 25.368L15.656 25.208V24.992L15.76 24.88H15.656L15.488 24.936L15.384 25.04L15.272 25.152L15.224 24.992L15.272 24.824L15.328 24.664L15.272 24.504L15.168 24.608L15.112 24.448L15.008 24.344L15.112 24.232L15.224 24.128L15.056 24.072V23.96L15.224 23.912L15.328 23.8L15.384 23.64V23.536L15.272 23.64L15.168 23.752L15.008 23.8L14.84 23.856L14.68 23.8L14.792 23.696L14.952 23.64L15.008 23.48H14.896L14.736 23.536L14.624 23.64L14.464 23.584L14.36 23.48L14.52 23.424L14.68 23.368L14.52 23.32H14.304H14.088L13.976 23.208V23.104H14.192L14.304 22.992L14.464 22.936L14.576 22.832L14.68 22.72L14.792 22.616L14.896 22.504V22.288V22.072V21.856L14.84 21.696L14.792 21.856V22.072L14.736 22.24L14.68 22.072L14.576 21.968V21.752L14.52 21.592L14.464 21.752V21.968V22.184H14.36L14.248 22.072V21.856L14.144 21.752L14.088 21.592L14.032 21.752V21.968L13.976 22.128L13.928 21.968L13.816 21.856V21.64L13.712 21.536L13.656 21.376L13.6 21.208L13.496 21.104L13.44 20.944L13.336 20.832L13.28 20.992V21.208V21.424V21.64V21.856L13.224 22.024L13.064 21.968L13.008 21.808L12.952 21.64L12.848 21.536L12.792 21.376L12.736 21.208L12.632 21.104V20.888L12.52 20.776H12.416V20.992L12.472 21.16L12.52 21.32V21.536V21.752H12.416L12.304 21.64L12.256 21.48L12.144 21.376L12.088 21.208L11.984 21.104L11.872 20.992L11.824 20.832L11.768 20.992V21.208L11.712 21.376L11.608 21.264L11.552 21.104L11.496 20.944L11.392 20.832L11.336 20.672L11.224 20.56L11.12 20.456L11.008 20.352H10.904V20.56H10.792L10.688 20.456L10.632 20.296L10.576 20.136L10.472 20.024L10.36 19.92L10.256 19.808L10.2 19.648L10.144 19.808V20.024V20.24H10.04L9.936 20.136V19.92L9.824 19.808L9.768 19.648L9.664 19.536L9.552 19.432L9.448 19.32L9.288 19.376L9.336 19.536L9.392 19.704V19.92V20.136V20.352V20.56H9.288V20.352L9.176 20.24L9.12 20.08L9.072 20.24V20.456V20.672V20.888V21.104L8.904 21.16L8.856 20.992L8.8 20.832L8.744 20.992V21.208L8.688 21.376L8.64 21.536V21.752L8.528 21.856L8.472 22.024L8.424 22.184L8.368 22.344L8.256 22.456L8.208 22.288L8.312 22.184V21.968V21.752L8.256 21.592L8.152 21.48L8.04 21.592L7.992 21.752L7.88 21.856V22.072L7.824 22.24L7.776 22.4L7.72 22.56L7.608 22.672L7.56 22.832L7.392 22.888L7.288 22.992L7.232 23.152L7.072 23.208L7.016 23.368V23.584L6.912 23.696H6.8H6.696V23.912L6.584 24.016V24.232L6.536 24.392L6.368 24.344H6.264V24.56H6.152H6.048V24.776V24.992V25.208L6.152 25.312L6.208 25.472L6.264 25.64L6.424 25.688L6.536 25.8H6.744H6.96L7.072 25.904L7.232 25.96L7.344 26.072L7.392 26.232V26.336L7.344 26.504L7.288 26.664L7.128 26.72L6.96 26.768L6.856 26.88L6.744 26.984L6.64 27.096H6.424L6.32 27.2Z" fill="var(--fill-0, #EC5998)"/>
</g>
</svg>
