<svg preserveAspectRatio="none" width="100%" height="100%" overflow="visible" style="display: block;" viewBox="0 0 27.2 20.6" fill="none" xmlns="http://www.w3.org/2000/svg">
<g id="Group">
<path id="Vector" d="M19.24 20.6H19.168H19.096H19.016H18.944H18.872H18.8H18.728H18.656H18.584H18.512H18.44H18.368H18.296H18.224H18.152L18.096 20.584L18.04 20.568L18.008 20.528H17.928L17.896 20.496H17.824L17.784 20.456L17.736 20.44L17.68 20.424L17.64 20.384L17.608 20.344L17.568 20.312L17.536 20.272L17.496 20.24L17.464 20.2L17.44 20.152L17.424 20.096L17.408 20.04L17.384 19.984L17.368 19.928L17.352 19.88L17.312 19.84L17.28 19.88L17.24 19.912L17.208 19.88L17.192 19.824L17.152 19.784L17.136 19.728L17.112 19.68L17.08 19.64H17.04L16.992 19.656L16.952 19.696L16.936 19.64L16.92 19.584L16.896 19.528V19.456L16.84 19.44L16.808 19.408H16.736L16.696 19.368L16.648 19.352V19.28L16.608 19.24V19.168L16.568 19.136V19.064L16.536 19.024V18.952L16.496 18.912V18.84L16.464 18.808V18.736L16.424 18.696H16.392L16.336 18.712L16.28 18.696V18.624V18.552V18.48V18.408V18.336V18.264V18.192V18.12V18.048V17.976V17.896V17.824V17.752V17.68V17.608L16.248 17.576V17.504L16.224 17.448L16.208 17.392L16.192 17.336L16.176 17.28V17.208L16.152 17.16L16.136 17.104V17.032V16.96V16.888L16.104 16.848V16.776V16.704V16.632V16.56V16.488V16.416V16.344L16.12 16.288L16.136 16.232V16.16V16.088V16.016V15.944V15.872V15.8V15.72V15.648L16.152 15.6L16.176 15.544V15.472V15.4V15.328L16.208 15.288V15.216V15.144L16.248 15.104V15.032L16.264 14.984L16.28 14.928L16.296 14.872V14.832L16.248 14.856H16.208V14.784L16.248 14.744V14.672V14.6L16.28 14.56V14.488V14.416V14.344V14.272V14.2V14.128V14.056L16.248 14.016V13.944L16.224 13.896H16.152L16.104 13.872L16.048 13.856H15.976L15.936 13.816H15.864H15.792L15.736 13.84L15.68 13.856L15.648 13.896L15.608 13.856L15.56 13.84L15.52 13.8L15.48 13.768L15.432 13.744L15.392 13.712L15.36 13.672L15.336 13.624L15.304 13.584L15.264 13.544L15.248 13.496L15.208 13.456L15.16 13.472L15.136 13.528L15.12 13.584L15.104 13.64L15.064 13.6L15.048 13.544L15.016 13.512V13.44L14.976 13.4L14.96 13.352L14.936 13.296H14.904L14.888 13.352L14.864 13.4L14.848 13.456H14.776L14.72 13.44L14.664 13.424L14.616 13.4L14.56 13.384L14.52 13.352L14.488 13.312L14.432 13.296L14.392 13.256L14.376 13.2L14.344 13.168L14.304 13.128L14.272 13.096H14.2L14.16 13.056H14.088L14.032 13.04L13.976 13.024L13.928 13L13.872 12.984H13.8L13.76 12.952H13.688L13.632 12.928L13.6 12.896L13.56 12.856L13.544 12.808L13.528 12.752L13.488 12.712L13.472 12.656L13.432 12.696L13.4 12.728L13.36 12.768L13.328 12.728L13.288 12.696L13.232 12.68L13.2 12.64L13.16 12.608L13.112 12.584L13.072 12.624L13.016 12.64L12.984 12.68H12.944L12.912 12.64L12.872 12.608L12.84 12.568L12.8 12.536L12.76 12.496L12.728 12.456L12.688 12.424L12.656 12.384L12.616 12.352L12.584 12.312L12.544 12.28L12.512 12.24L12.472 12.208L12.416 12.184L12.384 12.152L12.344 12.112L12.312 12.08L12.272 12.112L12.24 12.152L12.2 12.184L12.144 12.168L12.112 12.136L12.056 12.112L12.024 12.08L11.984 12.04L11.944 12.008L11.912 11.968L11.872 12.008L11.84 12.04L11.824 12.096H11.784L11.752 12.064L11.696 12.04L11.656 12.008L11.624 11.968L11.584 11.936L11.552 11.896L11.528 11.952L11.496 11.992L11.456 12.024L11.44 12.08L11.4 12.112L11.368 12.08L11.328 12.04L11.312 11.992L11.28 11.952L11.24 11.912L11.224 11.864L11.208 11.808L11.168 11.768L11.112 11.752L11.08 11.792L11.024 11.808L10.984 11.84L10.952 11.88L10.912 11.912L10.88 11.952L10.84 11.992L10.808 12.024L10.768 12.064L10.736 12.096L10.696 12.136L10.664 12.168L10.624 12.208L10.584 12.24L10.552 12.28L10.512 12.312L10.496 12.368L10.464 12.408L10.44 12.456L10.408 12.496L10.392 12.552L10.368 12.608L10.336 12.64L10.312 12.696L10.296 12.752L10.28 12.808L10.264 12.856L10.224 12.896L10.208 12.952L10.192 13L10.152 13.04V13.112L10.096 13.128L10.064 13.168L10.024 13.2L9.992 13.24L9.936 13.256L9.88 13.272L9.848 13.312L9.808 13.352H9.736L9.696 13.384H9.624L9.592 13.424L9.536 13.44L9.496 13.472L9.448 13.496L9.408 13.528L9.376 13.568L9.32 13.584L9.28 13.624L9.224 13.64L9.192 13.672L9.152 13.712L9.104 13.728L9.064 13.768L9.008 13.784L8.976 13.816L8.92 13.84L8.864 13.856L8.832 13.896L8.776 13.912L8.72 13.928L8.68 13.968L8.632 13.984L8.576 14L8.52 14.016L8.464 14.04L8.448 14.088L8.432 14.144L8.408 14.2L8.376 14.24L8.36 14.288L8.336 14.344L8.32 14.4L8.288 14.44L8.248 14.472L8.216 14.512L8.16 14.528L8.12 14.56L8.064 14.584L8.032 14.616L7.992 14.656L7.944 14.672L7.904 14.712L7.848 14.728L7.816 14.76L7.776 14.8L7.72 14.816L7.672 14.832L7.632 14.872L7.592 14.904L7.576 14.96L7.544 15V15.072L7.504 15.104V15.176L7.472 15.216L7.448 15.272H7.376L7.344 15.232H7.272L7.248 15.288L7.216 15.328L7.176 15.36L7.144 15.4L7.128 15.448L7.088 15.488L7.048 15.528L7.032 15.576L7 15.616L6.96 15.648L6.928 15.688L6.904 15.744L6.872 15.776L6.832 15.816L6.816 15.872H6.776L6.76 15.816L6.744 15.76H6.704L6.672 15.8L6.656 15.848L6.632 15.904L6.6 15.944L6.584 15.992L6.544 16.032L6.504 16.072L6.472 16.104L6.416 16.12L6.384 16.16L6.344 16.192L6.312 16.232L6.256 16.248L6.216 16.288L6.184 16.32L6.144 16.36L6.112 16.392L6.072 16.432L6.04 16.464L6 16.504L5.96 16.536L5.928 16.576L5.888 16.616L5.856 16.648L5.816 16.688L5.784 16.72L5.744 16.76L5.712 16.792L5.672 16.832L5.656 16.888L5.616 16.92L5.584 16.96L5.544 16.992L5.512 17.032L5.472 17.064L5.416 17.08L5.384 17.12L5.328 17.136L5.272 17.16L5.256 17.208L5.224 17.248L5.2 17.304L5.184 17.352L5.144 17.392L5.128 17.448L5.112 17.504L5.072 17.536L5.024 17.552L4.984 17.592L4.952 17.624L4.896 17.648L4.856 17.68L4.824 17.72L4.768 17.736L4.728 17.776L4.696 17.808L4.656 17.848L4.624 17.88L4.584 17.92L4.528 17.936L4.496 17.976L4.456 18.008L4.424 18.048L4.384 18.08L4.352 18.12L4.312 18.152L4.28 18.192L4.24 18.224L4.208 18.264L4.168 18.296L4.136 18.336L4.096 18.368L4.056 18.408L4.04 18.464L4.008 18.496L3.968 18.536L3.936 18.568L3.896 18.608L3.88 18.664L3.824 18.68L3.784 18.64L3.736 18.624L3.68 18.608H3.608L3.552 18.624L3.496 18.64L3.464 18.68H3.392L3.352 18.712L3.32 18.752L3.28 18.792L3.24 18.824L3.208 18.792L3.152 18.768L3.096 18.752L3.048 18.768V18.84V18.912V18.984V19.064V19.136L3.08 19.168V19.24L3.096 19.296L3.12 19.352L3.136 19.408L3.152 19.456V19.528L3.168 19.584L3.192 19.64V19.712V19.784V19.856L3.168 19.912L3.152 19.968L3.12 20L3.096 20.056L3.064 20.096L3.048 20.152L2.992 20.168L2.952 20.2H2.88L2.848 20.24H2.776L2.736 20.272H2.664H2.592H2.52H2.448H2.376H2.304L2.264 20.312H2.192H2.12H2.048H1.976L1.936 20.344H1.864H1.792H1.72H1.648H1.576H1.504H1.432H1.36L1.304 20.328L1.288 20.272L1.248 20.24L1.216 20.2L1.176 20.168L1.144 20.128L1.12 20.072L1.088 20.04L1.048 20L1.016 19.968L0.976 19.928L0.944 19.896L0.904 19.856L0.888 19.8L0.848 19.768L0.816 19.728L0.776 19.696L0.744 19.656L0.72 19.608L0.688 19.568L0.648 19.528L0.616 19.496L0.576 19.456L0.544 19.424V19.352V19.28V19.208V19.136L0.504 19.096L0.472 19.064L0.448 19.008L0.416 18.968L0.376 18.936L0.36 18.88V18.808V18.736V18.664V18.592L0.344 18.536L0.304 18.496L0.248 18.48L0.216 18.44L0.176 18.408V18.336L0.216 18.296V18.224V18.152L0.2 18.096L0.16 18.064L0.144 18.008L0.104 17.976L0.0879999 17.92L0.0719999 17.864L0.032 17.824L0 17.792V17.72V17.648V17.576V17.504L0.032 17.464V17.392L0.0559999 17.336L0.0719999 17.28L0.0879999 17.232L0.104 17.176L0.144 17.136L0.176 17.104L0.2 17.048L0.216 16.992L0.248 16.96L0.288 16.92L0.304 16.864L0.328 16.808L0.36 16.776L0.376 16.72L0.4 16.664L0.432 16.632L0.448 16.576L0.472 16.52L0.504 16.488L0.544 16.448L0.56 16.392L0.576 16.344L0.616 16.304L0.632 16.248L0.648 16.192L0.688 16.16L0.704 16.104L0.72 16.048L0.76 16.016L0.776 15.96L0.816 15.92L0.848 15.888L0.888 15.848L0.92 15.816L0.96 15.776L0.992 15.744L1.032 15.704L1.064 15.672L1.088 15.616L1.12 15.576L1.16 15.544L1.192 15.504L1.232 15.472L1.264 15.432L1.304 15.4L1.336 15.36L1.376 15.328L1.392 15.272L1.432 15.232L1.464 15.2L1.504 15.16L1.536 15.128L1.592 15.104L1.648 15.088L1.704 15.072L1.76 15.056L1.808 15.032L1.864 15.016H1.936L1.976 14.984H2.048L2.08 14.944L2.136 14.928L2.176 14.888L2.208 14.856L2.264 14.832L2.304 14.8L2.336 14.76L2.376 14.728L2.408 14.688L2.448 14.656L2.48 14.616L2.52 14.584L2.552 14.544L2.592 14.512L2.624 14.472L2.664 14.44L2.696 14.4L2.736 14.36L2.752 14.312L2.792 14.272L2.824 14.24L2.864 14.2L2.896 14.168L2.92 14.112L2.952 14.072L2.992 14.04L3.008 13.984L3.048 13.944L3.08 13.912L3.096 13.856L3.136 13.816L3.152 13.768L3.192 13.728L3.224 13.696L3.24 13.64L3.264 13.584L3.296 13.544L3.32 13.496L3.352 13.456L3.392 13.424L3.424 13.384L3.464 13.352L3.496 13.312L3.512 13.256L3.552 13.224L3.592 13.184L3.624 13.152L3.568 13.128H3.496V13.096L3.536 13.056L3.568 13.024L3.608 12.984L3.64 12.952L3.68 12.912L3.696 12.856L3.736 12.824L3.768 12.784L3.808 12.752L3.824 12.696L3.864 12.656L3.88 12.608L3.912 12.568L3.952 12.536L3.968 12.48L3.984 12.424L3.952 12.384L3.896 12.368V12.336L3.936 12.296L3.952 12.24L3.984 12.208L4.008 12.152L4.024 12.096L4.056 12.064L4.08 12.008L4.112 11.968L4.136 11.912L4.168 11.88L4.208 11.84L4.224 11.792L4.256 11.752L4.296 11.72L4.312 11.664L4.352 11.624L4.384 11.592L4.424 11.552L4.456 11.52L4.48 11.464L4.512 11.424L4.552 11.392L4.584 11.352L4.624 11.32L4.64 11.264L4.68 11.224V11.152L4.712 11.12L4.728 11.064L4.752 11.008L4.768 10.952L4.784 10.904L4.8 10.848L4.824 10.792V10.72L4.856 10.68V10.608L4.896 10.576V10.504L4.912 10.448L4.928 10.392V10.32L4.968 10.28V10.208V10.136L4.984 10.088L5 10.032V9.96V9.888L5.04 9.848V9.776L5.024 9.72L4.984 9.76L4.952 9.792L4.928 9.736L4.952 9.688L4.968 9.632V9.56L5 9.52V9.448L5.024 9.392L5.04 9.344L5.056 9.288L5.072 9.232V9.16L5.112 9.12V9.048L5.128 9L5.144 8.944L5.168 8.888L5.184 8.832L5.224 8.8L5.24 8.744L5.272 8.704L5.296 8.648L5.328 8.616L5.344 8.56L5.368 8.504L5.4 8.472L5.416 8.416L5.44 8.36L5.472 8.328L5.496 8.272L5.512 8.216L5.544 8.184L5.584 8.144L5.6 8.088L5.64 8.056L5.672 8.016L5.712 7.984L5.728 7.928L5.768 7.888L5.8 7.856L5.84 7.816L5.872 7.784L5.912 7.744L5.944 7.712L5.984 7.672L6.016 7.64L6.056 7.6L6.072 7.544L6.112 7.512L6.144 7.472L6.16 7.416L6.184 7.368L6.2 7.312V7.24L6.232 7.2V7.128L6.256 7.072V7.04L6.216 7L6.184 6.968L6.144 6.928L6.112 6.896L6.072 6.856L6.016 6.84L5.984 6.8L5.944 6.768L5.912 6.728L5.872 6.696L5.84 6.656L5.784 6.64L5.744 6.6L5.712 6.568L5.672 6.528L5.64 6.496L5.6 6.456L5.544 6.44L5.512 6.4L5.472 6.368L5.44 6.328L5.4 6.296L5.368 6.256L5.344 6.2L5.312 6.168L5.296 6.112L5.256 6.08L5.224 6.04L5.2 5.984L5.184 5.928L5.144 5.896L5.128 5.84L5.112 5.784L5.096 5.736L5.072 5.68L5.04 5.64V5.568L5 5.536V5.464L4.984 5.408L4.968 5.352V5.28L4.928 5.24V5.168L4.912 5.112L4.896 5.064V4.992L4.872 4.936L4.856 4.88V4.808V4.736L4.824 4.696V4.624V4.552V4.48V4.408V4.336V4.264L4.784 4.224V4.152L4.824 4.12V4.048V3.976V3.904V3.832V3.752V3.68L4.856 3.648V3.576V3.504L4.872 3.448L4.896 3.392V3.32L4.912 3.264L4.928 3.208V3.136L4.968 3.104V3.032L5 2.992V2.92L5.04 2.888V2.816L5.072 2.776L5.096 2.72L5.112 2.664L5.144 2.632L5.168 2.576L5.2 2.544L5.224 2.488L5.256 2.448L5.296 2.416L5.312 2.36L5.344 2.32L5.368 2.272L5.4 2.232L5.44 2.2L5.472 2.16L5.512 2.12L5.528 2.072L5.568 2.032L5.6 2L5.64 1.96L5.672 1.928L5.712 1.888L5.744 1.848L5.784 1.816L5.816 1.776L5.856 1.744L5.888 1.704L5.928 1.672L5.96 1.632L6 1.6L6.04 1.56L6.072 1.528L6.112 1.488L6.16 1.472L6.2 1.432L6.256 1.416L6.288 1.384L6.344 1.36L6.4 1.344H6.472L6.504 1.304L6.56 1.328L6.616 1.344L6.632 1.4L6.672 1.432L6.656 1.488L6.632 1.544L6.6 1.576L6.584 1.632L6.544 1.672L6.504 1.704L6.488 1.76L6.456 1.8L6.4 1.816L6.36 1.848L6.328 1.888L6.288 1.928L6.256 1.96L6.216 2L6.2 2.048L6.16 2.088L6.128 2.12L6.112 2.176L6.088 2.232L6.072 2.288L6.056 2.344L6.016 2.376L6 2.432L5.984 2.488L5.944 2.52L5.928 2.576L5.888 2.616L5.872 2.664L5.84 2.704L5.816 2.76L5.8 2.816L5.768 2.848L5.744 2.904L5.728 2.96L5.712 3.016L5.688 3.064L5.656 3.104V3.176L5.616 3.208V3.288L5.584 3.32V3.392L5.544 3.432V3.504L5.512 3.536V3.608V3.68V3.752V3.832V3.904L5.544 3.936V4.008V4.08V4.152V4.224L5.584 4.264V4.336V4.408L5.616 4.448V4.52L5.64 4.568L5.656 4.624L5.688 4.664L5.712 4.72L5.728 4.768L5.744 4.824L5.768 4.88L5.8 4.92L5.816 4.968L5.84 5.024L5.872 5.064L5.888 5.112L5.912 5.168L5.928 5.224L5.944 5.28L5.984 5.312L6.016 5.352L6.04 5.408L6.072 5.44L6.088 5.496L6.128 5.536L6.16 5.568L6.2 5.608L6.232 5.64L6.288 5.656L6.328 5.696L6.384 5.712L6.432 5.736L6.472 5.768L6.528 5.784L6.584 5.808L6.616 5.84H6.688H6.76H6.832H6.904H6.976L7.016 5.808V5.768H6.944V5.736H7.016L7.048 5.696H7.128L7.176 5.68L7.232 5.656H7.304L7.36 5.64L7.416 5.624H7.488L7.52 5.584H7.592L7.632 5.552H7.704L7.76 5.536L7.816 5.512L7.864 5.496L7.92 5.48H7.992L8.032 5.44H8.104L8.136 5.408H8.216L8.248 5.368H8.32L8.36 5.336L8.408 5.312L8.464 5.296L8.52 5.28L8.576 5.264L8.632 5.24L8.68 5.224L8.72 5.192L8.776 5.168L8.832 5.152L8.88 5.136L8.936 5.112H9.008L9.048 5.08H9.12H9.192L9.224 5.04H9.304H9.376L9.408 5.008H9.48H9.552H9.624L9.664 4.968H9.736H9.808H9.88H9.952L10.008 4.952L10.064 4.936H10.136H10.208H10.28H10.352H10.424H10.496H10.568H10.64H10.712H10.784H10.856L10.896 4.968H10.968H11.04L11.096 4.952L11.152 4.936H11.224L11.256 4.896H11.328H11.4L11.44 4.864H11.512H11.584H11.656H11.728H11.8H11.872H11.944H12.024L12.056 4.896H12.128H12.2L12.24 4.864H12.312H12.384L12.416 4.824H12.488H12.568H12.64H12.712H12.784L12.84 4.808L12.888 4.792L12.944 4.808L13 4.824H13.072H13.144H13.216H13.288L13.344 4.84L13.4 4.864H13.472H13.544H13.616H13.688H13.76H13.832H13.904H13.976L14.016 4.824H14.088H14.16L14.2 4.792H14.272L14.32 4.768L14.376 4.752H14.448L14.488 4.72H14.56L14.592 4.68L14.648 4.664L14.704 4.648H14.776H14.848H14.92L14.96 4.68H15.032H15.104H15.176L15.232 4.664L15.288 4.648H15.36H15.432L15.48 4.624L15.536 4.608H15.608L15.648 4.568H15.72L15.752 4.536L15.808 4.52L15.864 4.496L15.904 4.464H15.976L16.024 4.448L16.08 4.424H16.152H16.224L16.28 4.408L16.336 4.392L16.376 4.352H16.448L16.48 4.32H16.552L16.592 4.28L16.648 4.264L16.696 4.248L16.752 4.224L16.808 4.208L16.84 4.176H16.92L16.952 4.136H17.024L17.064 4.104L17.112 4.08L17.168 4.064L17.224 4.048L17.28 4.024L17.336 4.008L17.384 3.992L17.424 3.952H17.496L17.536 3.92L17.584 3.904L17.64 3.88L17.696 3.864L17.752 3.848L17.808 3.832L17.856 3.808H17.928H18.008H18.08L18.112 3.776L18.152 3.736L18.184 3.704L18.224 3.664L18.256 3.632L18.312 3.608L18.352 3.576L18.384 3.536L18.424 3.504L18.472 3.48L18.512 3.448L18.552 3.408L18.6 3.392L18.64 3.36L18.6 3.32L18.552 3.304L18.528 3.248L18.568 3.208L18.6 3.176L18.624 3.12L18.656 3.088L18.672 3.032L18.712 2.992L18.728 2.936L18.768 2.904L18.784 2.848L18.824 2.816L18.856 2.776L18.872 2.72L18.912 2.688L18.928 2.632L18.968 2.592L19 2.56L19.016 2.504L19.056 2.472V2.432L19 2.448L18.944 2.472L18.896 2.448L18.928 2.416L18.968 2.376L19 2.344L19.04 2.304L19.072 2.272L19.112 2.232L19.128 2.176L19.168 2.144L19.2 2.104L19.24 2.072L19.272 2.032L19.312 2L19.344 1.96L19.368 1.904L19.312 1.888L19.272 1.848L19.24 1.816L19.2 1.776L19.184 1.728L19.144 1.688L19.128 1.632L19.112 1.576L19.144 1.544V1.472L19.184 1.432V1.36L19.216 1.328V1.256L19.256 1.216L19.272 1.16L19.312 1.128L19.368 1.112L19.416 1.088L19.472 1.072L19.512 1.032L19.56 1.016L19.6 0.984L19.64 0.944L19.688 0.928L19.728 0.888L19.76 0.856L19.8 0.816L19.832 0.784L19.872 0.744L19.912 0.712L19.944 0.672L19.984 0.64L20 0.584L20.032 0.544L20.088 0.528L20.128 0.488L20.16 0.456L20.2 0.416L20.256 0.4L20.288 0.368L20.344 0.344L20.4 0.328L20.432 0.296L20.488 0.272L20.544 0.256L20.6 0.24L20.648 0.216H20.728L20.76 0.184H20.832H20.904H20.976H21.048H21.12H21.192H21.272L21.32 0.2L21.376 0.216H21.448H21.52L21.56 0.184H21.632H21.704L21.736 0.144H21.816L21.864 0.128L21.92 0.112H21.992H22.064L22.104 0.0720001H22.176H22.248L22.304 0.0560001L22.36 0.0400002H22.432H22.504H22.576L22.608 0H22.68H22.752H22.824L22.864 0.0400002L22.92 0.0560001L22.952 0.0959999L23.008 0.112L23.048 0.144L23.08 0.184L23.136 0.2L23.176 0.24L23.224 0.256L23.264 0.296H23.336L23.392 0.312L23.448 0.328H23.52L23.552 0.368L23.608 0.344L23.664 0.328L23.72 0.312L23.768 0.296L23.824 0.272L23.88 0.256L23.912 0.216L23.952 0.184L24.008 0.168L24.04 0.128L24.08 0.0959999L24.136 0.0720001H24.208H24.28H24.352L24.408 0.0959999L24.456 0.112L24.512 0.128L24.568 0.144L24.624 0.168L24.68 0.184L24.728 0.2L24.768 0.24L24.712 0.256L24.656 0.24L24.608 0.216H24.536L24.48 0.24L24.536 0.256L24.568 0.296L24.608 0.328L24.656 0.344L24.696 0.384L24.752 0.4L24.784 0.44V0.472H24.712L24.656 0.488L24.68 0.544L24.728 0.568L24.784 0.584L24.824 0.616L24.856 0.656L24.896 0.688L24.928 0.728L24.968 0.76L25 0.8L25.04 0.84L25.08 0.872L25.112 0.912L25.152 0.944L25.184 0.984L25.2 1.032L25.24 1.072L25.184 1.088L25.152 1.056L25.112 1.016L25.056 1L25 0.984L24.952 1L24.984 1.032L25.024 1.072L25.056 1.112L25.096 1.144L25.128 1.184L25.168 1.216L25.2 1.256L25.152 1.272L25.112 1.232L25.056 1.216L25 1.2L24.968 1.16L24.912 1.144L24.856 1.128H24.784H24.712H24.64L24.584 1.144L24.552 1.184L24.512 1.216L24.48 1.256V1.328L24.44 1.36V1.432L24.48 1.472V1.544L24.512 1.576L24.552 1.616L24.608 1.632L24.64 1.672L24.68 1.704H24.752L24.784 1.744H24.856L24.896 1.776H24.968L25 1.816H25.08L25.112 1.848H25.184L25.224 1.888H25.296L25.328 1.928H25.4H25.472L25.528 1.944L25.584 1.96H25.656L25.696 2H25.768L25.8 2.032H25.872L25.912 2.072L25.968 2.088L26.016 2.104L26.056 2.144L26.112 2.16L26.168 2.176L26.2 2.216L26.24 2.248L26.288 2.272L26.328 2.304L26.36 2.344L26.384 2.392L26.4 2.448L26.44 2.488V2.56L26.472 2.592L26.512 2.632L26.544 2.664L26.584 2.704L26.616 2.744L26.656 2.776L26.688 2.816L26.728 2.848L26.744 2.904L26.784 2.936L26.8 2.992L26.832 3.032V3.104L26.872 3.136L26.888 3.192L26.904 3.248V3.32L26.944 3.36V3.432L26.96 3.48L26.984 3.536V3.608L27.016 3.648V3.72L27.032 3.776L27.056 3.832V3.904L27.088 3.936V4.008L27.128 4.048V4.12L27.144 4.176L27.16 4.224V4.296L27.176 4.352L27.2 4.408V4.48V4.552V4.624V4.696V4.768V4.84L27.176 4.896L27.16 4.952V5.024L27.128 5.064V5.136V5.208V5.28L27.104 5.336L27.088 5.384V5.464L27.056 5.496V5.568L27.032 5.624L27.016 5.68L27 5.736L26.984 5.784L26.944 5.824L26.928 5.88L26.904 5.928H26.872H26.832L26.816 5.984L26.8 6.04V6.112L26.76 6.152V6.224V6.296L26.728 6.328V6.4L26.712 6.456L26.672 6.424L26.656 6.368V6.296V6.224L26.616 6.184V6.112L26.584 6.08V6.008L26.544 5.968L26.528 5.912L26.512 5.856L26.472 5.824L26.44 5.784L26.416 5.736L26.4 5.784V5.856V5.928L26.384 5.984L26.36 6.04V6.112V6.184V6.256V6.328V6.4V6.472L26.344 6.528L26.328 6.584V6.656V6.728L26.288 6.768V6.84L26.256 6.872V6.944L26.216 6.984L26.2 7.04L26.184 7.096L26.144 7.128L26.128 7.184L26.112 7.24V7.312V7.384V7.456H26.072L26.04 7.416L26.016 7.368L25.984 7.328L25.968 7.272H25.928V7.344L25.896 7.384V7.456V7.528V7.6V7.672L25.856 7.712V7.784L25.816 7.816H25.784L25.768 7.76L25.744 7.712L25.728 7.656L25.712 7.6L25.672 7.56L25.656 7.512L25.64 7.456L25.624 7.4L25.6 7.344L25.568 7.312L25.544 7.256L25.528 7.2H25.496V7.272V7.344V7.416L25.512 7.472L25.528 7.528V7.6V7.672H25.496L25.456 7.64L25.424 7.6L25.384 7.56L25.352 7.528L25.328 7.472L25.312 7.528V7.6V7.672V7.744V7.816V7.888L25.296 7.944L25.256 7.912L25.224 7.872L25.184 7.832L25.168 7.784L25.128 7.744L25.096 7.712V7.64L25.056 7.6V7.528L25.024 7.488V7.416H24.984L24.968 7.472L24.952 7.528V7.6L24.912 7.64V7.712V7.784V7.856V7.928L24.952 7.96L24.896 7.984L24.88 7.928L24.84 7.888L24.808 7.856L24.768 7.816L24.728 7.784L24.712 7.728L24.696 7.784V7.856V7.928L24.68 7.984L24.64 7.944L24.584 7.928L24.536 7.912L24.496 7.872L24.456 7.832L24.408 7.816L24.368 7.784L24.336 7.744L24.296 7.712L24.264 7.672L24.224 7.64L24.184 7.6L24.152 7.56L24.136 7.512L24.112 7.56V7.64V7.712V7.784V7.856L24.096 7.912L24.064 7.872L24.008 7.856L23.968 7.816L23.936 7.784L23.896 7.744L23.864 7.712L23.824 7.672L23.792 7.64L23.752 7.6L23.72 7.56L23.696 7.512L23.664 7.472L23.64 7.416L23.608 7.384L23.568 7.344L23.536 7.312L23.52 7.256L23.48 7.216L23.464 7.272L23.448 7.328L23.424 7.384V7.456L23.408 7.512L23.392 7.56L23.368 7.616L23.352 7.672L23.32 7.712H23.28L23.224 7.688L23.192 7.656L23.152 7.616L23.12 7.584L23.08 7.544L23.064 7.488L23.048 7.44L23.024 7.384L23.008 7.328L22.992 7.272L22.976 7.216L22.952 7.168L22.936 7.112L22.92 7.056L22.904 7L22.88 6.944L22.864 6.896L22.848 6.84L22.808 6.8L22.792 6.744L22.776 6.696L22.752 6.64L22.736 6.584L22.704 6.552L22.68 6.496L22.648 6.456L22.632 6.4V6.328L22.608 6.28L22.592 6.224V6.152V6.08L22.552 6.04V5.968V5.896H22.52V5.968V6.04V6.112H22.48L22.464 6.056L22.448 6.008L22.408 5.968V5.896L22.376 5.856L22.36 5.808L22.32 5.768L22.28 5.736L22.264 5.68L22.232 5.64L22.192 5.608L22.136 5.584L22.12 5.64V5.712V5.784L22.088 5.824V5.896V5.968L22.064 6.024L22.048 6.08V6.152V6.224L22.008 6.256V6.328V6.4L21.976 6.44V6.512L21.936 6.552L21.92 6.6L21.904 6.656L21.864 6.696L21.848 6.744L21.832 6.8L21.816 6.856L21.776 6.896L21.76 6.944L21.72 6.984L21.704 7.04L21.688 7.096L21.648 7.128L21.616 7.168L21.592 7.216L21.56 7.256L21.544 7.312V7.384V7.456V7.528V7.6V7.672V7.744V7.816L21.52 7.872L21.504 7.928V8V8.072L21.488 8.128L21.464 8.184V8.256L21.432 8.288L21.416 8.344L21.392 8.4L21.376 8.456L21.36 8.504V8.576L21.32 8.616V8.688V8.76L21.288 8.8V8.872V8.944V9.016V9.088L21.272 9.144L21.248 9.192V9.272L21.232 9.32L21.216 9.376L21.192 9.432L21.176 9.488L21.16 9.544L21.144 9.592L21.104 9.632V9.704L21.072 9.736V9.816V9.888L21.048 9.936L21.032 9.992V10.064L21.016 10.12L21 10.176V10.248L20.96 10.28V10.36L20.92 10.392V10.464L20.904 10.52L20.888 10.576L20.848 10.608V10.68L20.816 10.72V10.792L20.776 10.824L20.76 10.88L20.744 10.936L20.704 10.976V11.048L20.672 11.08L20.648 11.136L20.632 11.192L20.6 11.224V11.296L20.576 11.352L20.56 11.408V11.48V11.552L20.544 11.608V11.64L20.56 11.696V11.768V11.84V11.912L20.576 11.968L20.6 12.024V12.096V12.168L20.616 12.224L20.632 12.28V12.352L20.648 12.408L20.672 12.456L20.704 12.496V12.568L20.744 12.608V12.68L20.776 12.712V12.784L20.816 12.824V12.896L20.832 12.952L20.848 13L20.832 13.056L20.8 13.024L20.76 12.984V13.024L20.776 13.08V13.152L20.816 13.184V13.256V13.328V13.4V13.472V13.544V13.624V13.696L20.776 13.728V13.8V13.872V13.944L20.744 13.984V14.056V14.128V14.2V14.272V14.344V14.416L20.776 14.456V14.528V14.6V14.672V14.744V14.816V14.888L20.816 14.928V15V15.072V15.144L20.832 15.2L20.848 15.256V15.328V15.4L20.888 15.432V15.504V15.576H20.848L20.8 15.56L20.76 15.528L20.744 15.576V15.648V15.72V15.8V15.872V15.944V16.016L20.688 16.032L20.648 15.992V16.032L20.672 16.088V16.16L20.704 16.192V16.264L20.728 16.32L20.744 16.376L20.76 16.432L20.776 16.488V16.56L20.816 16.592V16.664L20.848 16.704L20.816 16.736V16.808L20.776 16.848V16.92L20.744 16.96V17.032L20.704 17.064V17.136L20.672 17.176L20.648 17.232L20.632 17.28L20.616 17.336L20.6 17.392L20.576 17.448L20.56 17.504H20.528L20.488 17.464L20.456 17.432H20.416V17.504V17.576V17.648V17.72V17.792V17.864L20.376 17.896V17.976V18.048V18.12L20.344 18.152V18.224V18.296L20.328 18.352L20.304 18.408V18.48L20.288 18.536L20.272 18.592V18.664L20.232 18.696V18.768L20.216 18.824L20.2 18.88L20.184 18.936L20.16 18.984L20.144 19.04L20.128 19.096L20.104 19.152L20.072 19.112L20.032 19.08L20 19.04L19.984 19.096V19.168V19.24V19.312V19.384L20.016 19.424V19.496L20.056 19.528L20.072 19.584L20.088 19.64L20.104 19.696L20.128 19.752L20.16 19.784V19.856V19.928L20.2 19.968V20.04V20.112L20.16 20.152V20.224L20.128 20.256L20.088 20.296L20.056 20.328L20.016 20.368L19.984 20.4L19.944 20.44L19.912 20.472L19.856 20.496H19.784L19.728 20.512L19.672 20.528H19.6L19.544 20.544L19.488 20.568H19.416H19.344H19.272L19.24 20.6Z" fill="var(--fill-0, #EC5998)"/>
</g>
</svg>
