<svg preserveAspectRatio="none" width="100%" height="100%" overflow="visible" style="display: block;" viewBox="0 0 27.2 17.56" fill="none" xmlns="http://www.w3.org/2000/svg">
<g id="Group">
<path id="Vector" d="M24.136 17.56L24.024 17.448H23.8L23.688 17.56H23.464H23.24L23.128 17.448H22.912H22.688H22.464L22.296 17.392L22.184 17.28L22.128 17.112L22.016 17L21.904 16.888L21.736 16.832L21.568 16.776L21.4 16.72L21.24 16.664L21.128 16.552H20.904L20.792 16.448L20.68 16.336L20.568 16.224L20.456 16.112L20.288 16.056L20.176 15.944L20.064 15.832L19.896 15.776L19.784 15.664H19.568H19.344H19.12L19.008 15.776L18.896 15.888L18.84 16.056L18.952 16.168L19.064 16.28L19.176 16.392L19.344 16.448L19.456 16.552L19.512 16.72V16.944L19.456 17.112L19.344 17.224H19.12L19.008 17.336L18.84 17.28L18.672 17.224L18.56 17.336H18.336H18.112L17.944 17.28L17.784 17.224L17.616 17.168L17.448 17.112L17.28 17.056L17.168 16.944V16.72V16.496L17.056 16.392V16.168V15.944L17.168 15.832V15.608L17 15.552H16.776L16.608 15.608L16.44 15.664L16.272 15.72H16.168L16 15.664L15.832 15.608H15.72L15.552 15.664L15.384 15.608L15.216 15.552L15.104 15.44H14.88H14.656L14.6 15.608L14.496 15.72L14.6 15.832L14.656 16L14.712 16.168L14.824 16.28L14.936 16.392V16.608V16.832L14.768 16.888L14.6 16.944L14.44 17H14.216H13.992H13.768H13.544H13.32H13.096L12.984 16.888H12.768L12.656 16.776L12.6 16.608V16.392L12.488 16.28V16.056L12.432 15.888L12.376 15.72L12.32 15.552L12.208 15.44L12.152 15.608L12.04 15.72V15.944L11.928 16.056V16.28L12.04 16.392L12.152 16.496L12.208 16.664L12.32 16.776L12.376 16.944V17.168L12.32 17.336H12.096L11.928 17.392L11.76 17.448H11.536H11.312L11.144 17.392H11.04L10.872 17.448H10.648H10.424L10.256 17.392L10.088 17.336L9.92 17.28L9.752 17.224L9.696 17.056L9.64 16.888L9.584 16.72L9.472 16.608L9.368 16.496L9.256 16.392L9.2 16.224L9.088 16.112L8.976 16L8.808 15.944L8.696 15.832V15.608L8.528 15.552L8.416 15.44L8.304 15.328L8.192 15.216L8.136 15.048L8.248 14.936L8.192 14.768H7.968L7.8 14.72L7.744 14.552L7.64 14.44L7.528 14.328L7.416 14.216L7.36 14.048L7.304 13.88L7.192 13.768L7.136 13.6V13.376L7.08 13.208V13.096L7.192 12.992V12.88L7.136 12.712L7.08 12.544L6.968 12.432L6.856 12.32H6.632L6.576 12.152L6.52 11.984L6.352 11.928L6.184 11.872H5.968L5.856 11.76L5.688 11.704L5.52 11.648H5.296L5.184 11.536L5.072 11.648L4.96 11.536L4.848 11.424H4.624L4.456 11.368L4.344 11.264V11.04L4.296 10.872L4.128 10.816L4.072 10.648L3.96 10.536L3.848 10.648L3.736 10.76L3.568 10.704V10.48V10.256L3.456 10.144H3.344L3.176 10.2V10.088L3.232 9.92V9.696H3.12L2.952 9.752L2.896 9.592L3.008 9.48L2.84 9.424L2.672 9.368L2.784 9.256L2.896 9.144L2.84 8.976H2.616H2.4L2.232 8.92V8.696L2.288 8.528V8.416L2.12 8.36L2.064 8.192L1.896 8.136L1.84 7.968L1.728 7.864L1.56 7.808L1.672 7.696L1.504 7.64L1.392 7.528L1.224 7.472L1.336 7.36L1.224 7.248L1.392 7.192V7.08H1.168L1 7.024V6.8L0.84 6.744L0.728 6.632L0.616 6.52L0.56 6.352L0.616 6.192L0.672 6.024L0.504 5.968L0.392 5.856V5.744V5.632L0.336 5.464L0.224 5.352L0.168 5.184L0.112 5.016V4.792L0.28 4.736V4.624L0.224 4.464L0.168 4.296L0.112 4.128V3.904L0 3.792V3.568V3.344V3.12L0.112 3.008V2.792L0.168 2.624L0.224 2.456V2.232L0.28 2.064L0.336 1.896V1.672L0.448 1.56L0.504 1.392L0.616 1.28L0.672 1.12V0.896L0.84 0.84L0.944 0.728L1.056 0.616L1.224 0.56L1.28 0.392L1.392 0.28L1.56 0.224001L1.728 0.168L1.84 0.0560005H2.064L2.232 0H2.344L2.456 0.112H2.568H2.672L2.84 0.168L2.952 0.28L3.064 0.392L3.176 0.504L3.232 0.672L3.344 0.784L3.4 0.952V1.064L3.344 1.224V1.448L3.232 1.56V1.784V2.008V2.232V2.456V2.68L3.344 2.792L3.4 2.952L3.456 3.12L3.512 3.288L3.568 3.456L3.624 3.624L3.736 3.736L3.904 3.792V4.016L4.016 4.128L4.128 4.24L4.184 4.408L4.296 4.52L4.4 4.624L4.512 4.736L4.68 4.792L4.736 4.96L4.848 5.072L4.904 5.24L5.072 5.296L5.184 5.408L5.296 5.52L5.408 5.632L5.576 5.576H5.688L5.8 5.688L5.968 5.744L6.128 5.8L6.24 5.912H6.352L6.52 5.856L6.632 5.968L6.744 6.08L6.856 5.968L6.968 6.08L7.08 6.192L7.248 6.136L7.416 6.08L7.528 6.192L7.696 6.248L7.8 6.352L7.968 6.408L8.08 6.296H8.304L8.472 6.352L8.64 6.408L8.808 6.464L8.976 6.52H9.2H9.416H9.64H9.864L10.032 6.464L10.2 6.408H10.424H10.648H10.872L10.984 6.296L11.144 6.248L11.312 6.192L11.48 6.136L11.648 6.08H11.872H12.096H12.32L12.432 5.968H12.656L12.768 6.08L12.872 5.968H13.096H13.32L13.432 6.08L13.6 6.024L13.768 5.968H13.992L14.104 6.08H14.328H14.544H14.768H14.992H15.216L15.328 6.192H15.552L15.72 6.136L15.888 6.08L16.056 6.136L16.216 6.192L16.328 6.08L16.496 6.136L16.664 6.192L16.832 6.136L17 6.08H17.224H17.448H17.672H17.896H18.112L18.224 6.192H18.448L18.616 6.136L18.728 6.024L18.84 5.912L19.008 5.856L19.12 5.744L19.232 5.632L19.344 5.52L19.456 5.408L19.568 5.296L19.672 5.184L19.784 5.072L19.952 5.016L20.12 4.96L20.232 4.848H20.456L20.568 4.736L20.624 4.568L20.736 4.464L20.848 4.352L21.016 4.296L21.128 4.184L21.24 4.072L21.344 3.96L21.456 3.848L21.568 3.736L21.68 3.624L21.792 3.512H22.016L22.128 3.4L22.24 3.288L22.352 3.176L22.464 3.064L22.632 3.008L22.8 2.952L22.912 2.848L23.016 2.736L23.072 2.568L23.184 2.456L23.24 2.288L23.352 2.176L23.464 2.064L23.576 1.952L23.688 1.84L23.8 1.728H24.024L24.136 1.84L24.248 1.952L24.36 2.064L24.472 1.952L24.528 1.784L24.584 1.616L24.744 1.672L24.8 1.84L24.856 2.008L24.912 2.176L24.968 2.344V2.568V2.792L25.024 2.952H25.248L25.36 3.064L25.472 3.176L25.64 3.232L25.752 3.344L25.864 3.456L25.976 3.568L26.088 3.68L26.2 3.792L26.312 3.904L26.368 4.072L26.416 4.24L26.528 4.352L26.64 4.464L26.696 4.624L26.808 4.736L26.92 4.848L27.032 4.96L27.144 5.072L27.2 5.24L27.144 5.408L27.088 5.576L26.976 5.688V5.912L26.864 6.024L26.808 6.192L26.752 6.352L26.64 6.464L26.528 6.576L26.368 6.632L26.2 6.688L26.032 6.744H25.808L25.696 6.856L25.584 6.968V7.08L25.696 7.192L25.752 7.36L25.864 7.472L25.808 7.64V7.752L25.864 7.92V8.136V8.36V8.584L25.808 8.752L25.752 8.92V9.144V9.368L25.64 9.48V9.696L25.528 9.808V10.032V10.256L25.416 10.368V10.592L25.304 10.704V10.928L25.192 11.04L25.08 11.152L25.024 11.32L24.912 11.424L24.8 11.536L24.744 11.704L24.64 11.816L24.584 11.984L24.528 12.152V12.376L24.416 12.488L24.304 12.6L24.192 12.712V12.936L24.08 13.048V13.264L23.968 13.376L23.856 13.488L23.744 13.6L23.632 13.712L23.52 13.824L23.352 13.88L23.24 13.992L23.184 14.16L23.072 14.272V14.496L22.968 14.608V14.824L23.016 14.992L23.072 15.16L23.184 15.272L23.296 15.384L23.352 15.552L23.52 15.608V15.832L23.632 15.944L23.744 16.056L23.912 16.112L24.024 16.224L24.08 16.392L24.192 16.496L24.36 16.552L24.416 16.72L24.528 16.832L24.584 17L24.64 17.168L24.528 17.28L24.416 17.392L24.248 17.448L24.136 17.56Z" fill="var(--fill-0, #F9D02E)"/>
</g>
</svg>
