<svg preserveAspectRatio="none" width="100%" height="100%" overflow="visible" style="display: block;" viewBox="0 0 25.448 24.208" fill="none" xmlns="http://www.w3.org/2000/svg">
<g id="Group">
<path id="Vector" d="M17.464 24.208L17.424 24.2L17.376 24.184H17.32H17.264L17.232 24.152L17.192 24.136L17.152 24.128L17.12 24.096L17.096 24.064L17.048 24.08L17.032 24.128L17.008 24.152L16.976 24.184H16.92H16.864L16.816 24.2L16.776 24.208H16.72H16.664H16.6H16.544L16.52 24.184H16.456H16.4L16.376 24.152L16.328 24.136L16.288 24.128L16.256 24.096L16.232 24.064L16.216 24.024L16.184 23.992L16.168 23.952H16.112L16.088 23.92L16.04 23.912L16.016 23.88L15.984 23.848L15.96 23.824L15.912 23.808L15.888 23.784L15.856 23.752L15.816 23.736L15.784 23.712L15.744 23.696L15.712 23.664L15.68 23.64L15.64 23.624L15.608 23.592L15.584 23.568L15.552 23.536L15.536 23.496L15.528 23.448V23.392L15.496 23.36L15.464 23.336L15.44 23.304L15.408 23.28L15.384 23.248L15.352 23.216L15.32 23.192L15.312 23.144L15.296 23.104V23.048V22.992L15.28 22.944L15.264 22.904V22.848L15.248 22.8L15.24 22.76L15.208 22.728L15.176 22.704L15.152 22.672L15.12 22.648L15.096 22.616L15.08 22.576L15.064 22.528V22.472V22.416L15.08 22.368L15.096 22.328L15.112 22.288L15.12 22.24L15.112 22.2L15.064 22.184V22.128L15.048 22.08L15.04 22.04L15.008 22.008L14.968 22L14.936 22.024L14.92 21.984L14.952 21.952V21.896V21.84L14.92 21.808L14.896 21.784L14.848 21.768L14.808 21.752V21.696V21.64V21.584L14.792 21.536L14.752 21.552L14.72 21.584L14.68 21.592L14.648 21.624L14.616 21.656L14.608 21.608L14.616 21.568L14.632 21.52V21.464L14.664 21.44V21.376V21.32L14.688 21.296V21.232V21.176L14.648 21.16L14.616 21.192L14.592 21.224L14.56 21.248L14.536 21.28L14.488 21.296L14.464 21.32H14.432L14.448 21.28L14.464 21.232L14.472 21.192L14.488 21.152L14.52 21.12L14.536 21.08L14.544 21.032L14.56 20.992L14.576 20.944L14.608 20.92V20.864L14.632 20.832V20.776L14.616 20.736L14.608 20.688L14.632 20.664L14.648 20.616L14.68 20.592L14.688 20.544L14.72 20.52L14.736 20.472L14.752 20.432L14.776 20.4V20.344L14.808 20.312L14.76 20.304L14.736 20.328L14.688 20.344L14.648 20.36L14.608 20.376L14.56 20.384L14.536 20.416H14.472L14.464 20.376L14.488 20.344L14.504 20.304L14.52 20.256L14.536 20.216L14.544 20.168V20.112L14.576 20.088V20.024L14.56 19.984H14.504L14.464 20L14.416 20.016L14.376 20.024L14.328 20.04L14.288 20.056L14.248 20.072L14.216 20.096L14.2 20.056L14.232 20.024L14.256 20L14.272 19.952L14.288 19.912L14.32 19.888L14.328 19.84L14.344 19.8L14.376 19.768L14.392 19.728L14.4 19.68L14.36 19.672H14.304L14.272 19.696L14.232 19.712L14.192 19.728L14.16 19.752L14.12 19.768H14.088L14.104 19.728L14.128 19.696L14.144 19.656L14.16 19.608L14.176 19.568L14.2 19.536L14.216 19.496L14.232 19.456L14.256 19.424L14.272 19.384L14.288 19.336L14.304 19.296L14.32 19.248L14.344 19.224L14.328 19.176L14.304 19.208L14.256 19.224L14.216 19.24L14.192 19.264L14.144 19.28H14.12L14.128 19.24L14.144 19.192L14.176 19.168L14.192 19.12L14.2 19.08L14.216 19.032L14.232 18.992L14.248 18.952L14.256 18.904L14.272 18.864L14.288 18.824V18.76H14.256L14.216 18.776L14.176 18.792L14.128 18.808L14.088 18.792L14.104 18.752L14.12 18.704L14.144 18.68L14.16 18.632L14.176 18.592L14.2 18.56V18.504V18.448V18.392L14.192 18.344L14.16 18.32H14.104L14.072 18.344L14.048 18.376L14.016 18.4L13.984 18.432L13.96 18.464L13.912 18.472L13.872 18.488L13.84 18.52L13.832 18.472V18.416L13.8 18.392L13.76 18.376L13.728 18.344L13.688 18.36L13.64 18.376L13.616 18.4L13.584 18.432L13.552 18.464L13.528 18.488L13.496 18.52L13.472 18.544L13.44 18.576L13.408 18.608L13.384 18.632L13.336 18.616L13.328 18.576L13.312 18.536L13.296 18.488L13.28 18.448V18.392V18.328H13.256L13.208 18.344L13.184 18.376L13.136 18.392L13.112 18.416L13.064 18.432L13.04 18.464L12.992 18.472L12.968 18.504L12.92 18.52L12.896 18.544L12.864 18.576H12.808L12.792 18.536V18.472L12.776 18.432L12.768 18.392L12.736 18.36L12.72 18.32L12.696 18.288L12.664 18.256L12.632 18.232H12.576H12.52L12.488 18.256L12.448 18.272L12.416 18.304L12.376 18.32L12.344 18.344L12.32 18.376L12.288 18.4L12.264 18.432L12.216 18.448L12.192 18.472L12.144 18.488H12.088L12.048 18.472V18.416V18.36L12.016 18.328L12 18.288L11.976 18.256L11.944 18.232L11.92 18.2L11.872 18.184L11.832 18.176H11.776H11.712L11.672 18.184L11.632 18.2L11.6 18.232L11.568 18.256L11.528 18.248L11.496 18.216L11.472 18.184L11.424 18.176L11.4 18.144L11.352 18.128L11.312 18.112H11.256L11.216 18.128L11.168 18.144L11.128 18.16L11.096 18.184L11.056 18.2L11.024 18.176L11 18.144L10.952 18.128L10.928 18.104L10.88 18.088L10.856 18.056L10.808 18.04L10.768 18.032L10.736 18L10.696 17.984L10.648 17.976L10.624 17.944H10.568L10.536 17.912H10.48L10.464 17.96V18.016L10.432 18.04L10.392 18.056L10.36 18.032L10.32 18.016L10.28 18L10.248 17.976L10.208 17.96L10.16 17.944L10.12 17.928L10.08 17.912L10.048 17.888L10.008 17.872L9.96 17.856L9.936 17.832H9.872L9.848 17.8L9.8 17.784L9.76 17.768L9.744 17.816L9.72 17.84L9.704 17.888L9.672 17.856L9.648 17.832L9.6 17.816L9.576 17.784L9.544 17.76L9.512 17.728L9.488 17.696L9.44 17.688L9.416 17.656L9.384 17.624L9.344 17.64L9.328 17.688L9.312 17.728L9.288 17.76L9.272 17.8L9.24 17.832H9.184L9.16 17.8L9.112 17.784L9.088 17.76L9.04 17.744L9.016 17.712L8.968 17.696L8.944 17.672L8.896 17.656L8.872 17.624L8.824 17.616L8.8 17.584L8.752 17.568L8.728 17.544L8.696 17.568L8.664 17.6L8.656 17.64L8.624 17.672L8.608 17.712L8.568 17.696L8.552 17.656L8.512 17.64L8.464 17.624H8.408H8.352L8.32 17.656L8.296 17.688L8.264 17.712L8.24 17.688H8.176L8.152 17.656H8.096L8.064 17.688L8.032 17.712L8.008 17.744L7.976 17.768H7.92H7.864L7.832 17.8L7.808 17.832L7.792 17.872L7.76 17.904L7.736 17.928L7.72 17.976L7.688 18L7.672 18.04L7.648 18.072L7.616 18.104L7.592 18.128L7.576 18.176L7.544 18.2L7.52 18.232L7.488 18.256L7.472 18.304L7.448 18.328L7.416 18.36L7.376 18.376L7.36 18.416L7.328 18.448V18.504V18.56L7.32 18.608L7.304 18.648L7.288 18.688L7.256 18.664L7.232 18.632L7.2 18.608L7.184 18.648V18.704L7.16 18.736V18.792V18.848L7.144 18.896L7.128 18.936L7.112 18.976L7.104 18.936L7.072 18.904L7.056 18.864L7.04 18.824L7.032 18.776L7 18.808L6.984 18.848L6.968 18.896L6.96 18.936L6.944 18.976L6.928 19.024L6.912 19.064L6.888 19.032L6.872 18.992L6.84 18.96H6.816V19.024V19.08L6.784 19.104V19.168L6.768 19.208L6.744 19.176L6.712 19.152L6.672 19.136L6.624 19.12L6.608 19.168L6.6 19.208L6.584 19.248V19.312L6.568 19.352H6.512L6.48 19.32L6.44 19.312L6.4 19.296L6.368 19.264L6.328 19.248H6.296V19.312V19.368L6.28 19.408L6.24 19.392L6.192 19.384L6.168 19.352L6.136 19.32L6.096 19.336L6.112 19.384L6.12 19.424V19.48V19.536V19.6L6.08 19.608L6.048 19.584L6.008 19.568L5.968 19.552L5.92 19.536L5.88 19.528L5.848 19.496L5.808 19.512L5.824 19.552L5.832 19.6V19.656L5.864 19.68V19.744V19.8V19.856H5.832L5.792 19.84L5.752 19.824L5.704 19.816L5.68 19.784H5.616L5.592 19.752L5.576 19.8L5.592 19.84L5.608 19.888L5.632 19.912V19.968L5.616 20.016L5.576 20L5.536 19.984H5.472L5.432 19.968L5.392 19.952L5.344 19.968L5.36 20.016L5.376 20.056V20.112L5.336 20.128H5.272H5.216H5.16L5.128 20.16L5.104 20.184L5.072 20.216L5.032 20.232L5.016 20.272L5 20.312L4.96 20.328L4.912 20.344L4.888 20.376L4.856 20.4L4.84 20.448L4.816 20.472H4.76L4.744 20.52V20.576L4.712 20.6V20.664L4.696 20.704L4.656 20.72L4.672 20.76L4.688 20.808L4.712 20.832V20.888L4.744 20.92L4.728 20.96L4.688 20.976L4.656 21.008L4.688 21.032L4.712 21.064L4.744 21.088L4.768 21.12V21.176L4.728 21.192L4.696 21.224L4.656 21.232L4.616 21.248V21.28L4.64 21.304L4.672 21.336L4.712 21.352L4.696 21.392L4.656 21.408L4.624 21.44L4.6 21.464L4.568 21.496V21.552L4.584 21.592L4.616 21.624L4.64 21.656L4.672 21.68L4.696 21.712L4.728 21.736L4.76 21.768L4.8 21.784L4.832 21.808L4.856 21.84L4.888 21.872L4.912 21.896L4.928 21.936L4.976 21.952L5 21.984L5.032 22.008L5.056 22.04L5.104 22.056L5.128 22.08L5.16 22.112L5.192 22.144L5.232 22.152L5.248 22.2L5.272 22.224L5.288 22.272L5.32 22.296V22.36L5.336 22.4L5.344 22.44V22.504V22.56L5.32 22.584V22.648L5.304 22.688L5.288 22.728V22.792V22.848V22.904V22.96L5.272 23H5.216L5.192 23.032L5.144 23.048L5.12 23.072L5.072 23.088H5.016H4.96H4.904H4.84H4.784L4.744 23.104L4.712 23.136L4.672 23.144L4.64 23.176L4.6 23.192L4.552 23.208H4.496H4.44H4.384L4.344 23.192L4.296 23.176L4.256 23.16L4.208 23.144L4.184 23.12L4.152 23.144L4.128 23.176L4.096 23.208H4.04H3.984H3.92H3.864H3.808H3.752H3.696L3.664 23.176L3.624 23.16L3.592 23.136L3.56 23.104L3.536 23.072L3.504 23.048L3.464 23.032L3.424 23.016L3.392 22.992L3.352 22.976L3.32 22.944L3.288 22.92L3.264 22.888L3.216 22.872L3.176 22.856L3.144 22.832L3.104 22.816L3.072 22.792L3.048 22.76L3.032 22.72L3.016 22.672L3 22.632L2.976 22.6L2.928 22.584L2.904 22.56L2.872 22.528V22.472V22.416L2.848 22.384V22.328L2.832 22.288L2.816 22.24L2.784 22.216L2.744 22.2L2.728 22.152L2.704 22.128V22.072L2.672 22.04V21.984L2.704 21.952V21.896L2.656 21.88V21.856L2.672 21.808L2.688 21.768L2.704 21.728L2.656 21.712L2.616 21.728H2.584L2.6 21.68L2.632 21.656V21.624V21.592L2.656 21.568L2.704 21.552L2.672 21.52L2.64 21.496L2.632 21.448L2.584 21.44V21.376L2.56 21.352L2.528 21.32V21.264L2.504 21.232L2.512 21.192L2.528 21.152V21.088L2.56 21.064V21.008L2.544 20.96L2.528 20.92L2.504 20.888L2.488 20.848L2.472 20.808L2.432 20.792L2.384 20.776L2.368 20.736L2.328 20.744L2.296 20.776V20.832V20.888V20.944L2.328 20.976L2.312 21.016L2.288 20.992L2.256 20.96L2.24 21.008V21.064V21.12V21.176L2.256 21.224L2.272 21.264V21.32V21.376V21.44V21.496L2.288 21.536L2.296 21.584V21.64V21.696L2.328 21.728L2.344 21.768L2.36 21.808V21.872V21.928V21.984L2.384 22.008L2.416 22.04L2.44 22.072L2.472 22.096L2.504 22.128L2.528 22.152L2.544 22.2L2.56 22.24L2.584 22.272L2.6 22.312L2.616 22.36L2.64 22.384L2.672 22.416L2.704 22.44L2.728 22.472L2.776 22.488L2.8 22.512L2.832 22.544L2.856 22.576L2.888 22.6L2.92 22.632L2.944 22.656L2.976 22.688L2.992 22.728L3.016 22.76L3.032 22.8L3.048 22.848V22.904V22.96L3.072 22.992V23.048V23.104L3.048 23.136V23.192L3.032 23.232L3.016 23.28V23.336L2.992 23.36L3.016 23.392V23.448V23.504V23.568L3 23.608L2.976 23.64L2.928 23.648L2.888 23.664L2.856 23.696L2.832 23.72H2.776L2.744 23.752H2.688H2.632H2.568H2.512H2.456L2.432 23.784L2.384 23.792L2.36 23.824L2.312 23.84L2.272 23.848L2.224 23.864H2.168H2.112H2.056L2.008 23.848L1.968 23.84L1.936 23.808L1.896 23.792L1.856 23.784L1.824 23.808L1.792 23.84L1.768 23.864H1.712H1.648H1.592H1.536H1.48H1.424H1.368L1.336 23.84L1.296 23.824L1.248 23.808L1.224 23.784L1.208 23.736L1.176 23.712L1.152 23.68L1.104 23.664L1.064 23.648L1.032 23.624L1.008 23.592L0.976 23.568L0.936 23.552L0.904 23.52L0.872 23.496L0.848 23.464L0.8 23.448L0.76 23.432L0.728 23.408L0.704 23.376L0.672 23.352L0.656 23.304V23.248L0.632 23.216L0.6 23.192L0.576 23.16L0.544 23.136L0.52 23.104L0.488 23.072V23.016L0.472 22.976L0.432 22.992L0.4 23.016H0.376L0.344 22.992V22.928V22.872L0.328 22.832L0.312 22.792L0.304 22.744L0.272 22.776L0.232 22.76V22.704L0.2 22.672V22.616L0.184 22.576L0.168 22.528V22.472V22.416V22.36V22.296L0.144 22.272V22.216L0.0959999 22.2L0.0880001 22.152L0.0959999 22.112L0.112 22.072L0.128 22.024L0.144 21.984L0.16 21.936L0.168 21.896V21.84L0.16 21.8L0.128 21.824L0.0880001 21.808L0.112 21.784V21.728V21.664L0.144 21.64L0.128 21.592L0.0959999 21.568L0.0560001 21.584L0.016 21.592V21.568L0.0400002 21.536L0.0720001 21.512L0.0880001 21.464L0.112 21.44L0.128 21.392L0.144 21.352V21.296V21.232V21.176V21.12L0.168 21.088L0.184 21.048L0.2 21.008L0.184 20.96L0.16 20.992L0.112 20.976V20.92H0.0880001L0.0400002 20.936L0.016 20.96L0 20.92L0.0240002 20.888L0.0400002 20.848L0.0560001 20.808L0.0720001 20.76L0.0959999 20.736L0.128 20.704L0.16 20.672L0.184 20.648L0.216 20.616L0.232 20.576L0.256 20.544L0.288 20.52L0.304 20.472L0.312 20.432V20.376V20.312V20.256L0.304 20.216L0.288 20.168V20.112V20.056V20V19.944V19.888L0.312 19.856V19.8L0.344 19.768L0.36 19.728L0.376 19.68L0.4 19.656L0.416 19.608L0.432 19.568H0.4L0.36 19.584L0.328 19.608L0.288 19.624L0.24 19.64V19.608L0.272 19.584L0.288 19.536L0.312 19.512L0.344 19.48L0.376 19.456L0.384 19.408L0.416 19.384L0.448 19.352L0.472 19.32L0.488 19.28L0.52 19.248L0.544 19.224L0.576 19.192L0.592 19.152L0.616 19.12L0.648 19.096L0.656 19.048L0.688 19.024L0.72 18.992L0.744 18.96L0.776 18.936L0.76 18.896L0.72 18.88L0.728 18.832L0.744 18.792L0.76 18.752L0.776 18.704L0.792 18.664L0.8 18.616L0.832 18.592L0.848 18.544L0.864 18.504L0.872 18.464L0.888 18.416L0.864 18.392L0.832 18.36L0.8 18.328V18.272V18.216L0.816 18.176V18.144H0.76H0.704L0.656 18.128L0.672 18.088L0.704 18.056L0.72 18.016L0.744 17.984L0.776 17.96L0.792 17.912L0.816 17.888V17.856L0.776 17.84L0.728 17.832L0.72 17.784L0.744 17.76L0.76 17.712L0.776 17.672V17.616L0.8 17.584L0.792 17.544H0.728L0.688 17.528V17.472V17.408L0.72 17.384V17.328V17.264V17.208L0.728 17.168L0.744 17.12L0.728 17.08H0.672L0.648 17.048L0.6 17.04L0.56 17.024L0.544 16.984L0.576 16.952V16.896L0.56 16.848L0.52 16.84V16.776L0.544 16.752L0.56 16.704L0.576 16.664L0.6 16.632L0.592 16.592H0.528H0.472L0.432 16.576L0.384 16.56H0.328L0.304 16.536V16.504L0.328 16.48L0.344 16.432L0.376 16.408L0.36 16.36V16.336L0.376 16.288L0.384 16.248L0.4 16.2L0.432 16.176L0.456 16.144L0.504 16.128V16.104L0.472 16.072L0.432 16.056L0.384 16.048V16.016L0.4 15.976L0.416 15.928L0.432 15.888V15.832L0.448 15.784L0.456 15.744V15.688V15.632V15.568L0.432 15.544V15.488V15.424L0.4 15.4V15.344L0.376 15.312L0.36 15.272V15.24L0.384 15.208L0.432 15.2L0.456 15.168L0.488 15.136L0.504 15.096L0.52 15.056L0.488 15.024V14.968L0.456 14.936L0.432 14.912L0.384 14.896L0.36 14.864V14.84L0.384 14.808L0.416 14.784L0.448 14.752L0.472 14.72L0.52 14.712L0.488 14.68L0.456 14.648L0.432 14.624L0.384 14.608L0.376 14.568L0.4 14.536L0.416 14.496L0.448 14.464L0.472 14.432V14.408L0.448 14.376L0.4 14.36L0.36 14.352L0.312 14.336L0.328 14.288L0.36 14.264L0.376 14.216L0.416 14.208L0.448 14.176L0.472 14.144L0.504 14.12L0.528 14.088L0.544 14.048L0.56 14.008L0.576 13.96L0.592 13.92L0.6 13.872L0.632 13.848L0.656 13.816L0.672 13.776V13.744H0.616H0.56L0.528 13.72H0.472H0.416L0.376 13.704L0.4 13.672L0.448 13.656L0.472 13.632L0.504 13.6L0.544 13.584L0.576 13.56L0.616 13.544L0.648 13.512L0.688 13.504L0.72 13.472L0.704 13.432H0.648H0.592L0.56 13.4L0.52 13.384L0.544 13.36L0.576 13.328L0.6 13.296L0.632 13.272L0.656 13.24L0.704 13.224L0.728 13.2L0.76 13.168L0.792 13.144L0.832 13.128L0.864 13.096L0.904 13.088V13.056H0.848H0.792L0.744 13.04L0.76 13L0.776 12.952L0.8 12.928L0.832 12.896L0.8 12.872L0.76 12.856H0.704L0.656 12.84L0.688 12.808L0.728 12.8L0.76 12.768L0.792 12.736L0.816 12.712L0.848 12.68L0.872 12.656L0.904 12.624L0.936 12.592L0.96 12.568L0.992 12.536V12.512H0.936H0.872L0.864 12.464L0.872 12.424L0.92 12.408L0.936 12.368L0.96 12.336L0.992 12.304L1.016 12.28L1.048 12.248L1.08 12.224L1.104 12.192L1.136 12.16L1.16 12.136L1.192 12.104L1.224 12.08V12.048H1.16H1.104L1.088 12.008L1.104 11.96L1.136 11.936L1.152 11.888L1.176 11.864L1.192 11.816L1.208 11.776L1.232 11.744L1.264 11.72L1.28 11.672L1.304 11.648L1.336 11.616L1.352 11.576L1.376 11.544L1.408 11.52L1.424 11.472L1.448 11.448L1.48 11.416L1.512 11.384L1.52 11.344V11.288V11.232L1.552 11.2L1.568 11.16L1.576 11.112L1.608 11.088L1.64 11.056L1.648 11.016L1.68 10.984L1.712 10.96L1.72 10.912L1.752 10.888L1.768 10.84L1.784 10.8L1.792 10.752L1.808 10.712V10.656L1.784 10.624L1.768 10.584L1.752 10.536L1.72 10.512L1.68 10.496L1.664 10.456L1.696 10.424V10.368V10.312V10.248V10.192V10.136V10.08L1.664 10.048V9.992V9.936V9.88V9.824V9.76V9.704L1.68 9.664L1.696 9.616L1.72 9.592L1.736 9.544L1.768 9.52L1.784 9.472L1.808 9.448L1.84 9.416L1.864 9.392L1.896 9.36L1.928 9.328L1.952 9.304L1.984 9.272L2.024 9.256V9.232L2 9.2L1.952 9.192L1.928 9.16L1.912 9.12L1.896 9.072L1.928 9.048L1.936 9L1.968 8.976L1.984 8.928L2 8.888V8.856L1.984 8.816L1.968 8.768L1.952 8.728L1.928 8.696L1.896 8.672L1.856 8.656L1.824 8.624L1.792 8.6H1.736L1.712 8.568L1.664 8.552L1.68 8.512L1.72 8.496L1.752 8.472L1.792 8.456L1.824 8.424L1.864 8.408L1.912 8.4L1.936 8.368L1.968 8.336L2.008 8.328L2.056 8.312L2.08 8.28L2.128 8.272L2.152 8.24L2.2 8.224L2.224 8.2L2.272 8.184V8.128L2.256 8.08L2.224 8.056L2.184 8.04L2.152 8.008L2.112 7.992L2.08 7.968L2.056 7.936L2.008 7.92L2.04 7.896L2.072 7.864L2.096 7.84L2.144 7.824L2.168 7.792L2.2 7.768L2.224 7.736L2.272 7.72L2.296 7.696L2.328 7.664L2.368 7.648L2.4 7.624L2.432 7.592L2.456 7.56L2.488 7.536L2.528 7.52L2.544 7.48L2.568 7.448L2.584 7.408L2.56 7.376L2.528 7.344L2.504 7.32L2.456 7.304L2.416 7.288L2.368 7.28L2.344 7.248L2.312 7.216L2.272 7.208V7.144L2.312 7.136L2.344 7.104L2.368 7.072L2.416 7.064L2.44 7.032L2.472 7L2.504 6.976L2.528 6.944L2.56 6.92L2.584 6.888L2.616 6.856L2.64 6.832L2.656 6.784L2.672 6.744L2.704 6.712L2.712 6.672L2.744 6.64L2.776 6.616L2.8 6.584L2.848 6.568L2.888 6.56L2.92 6.528H2.976L3 6.496L3.048 6.488L3.088 6.472L3.12 6.44L3.144 6.416L3.16 6.368L3.192 6.344V6.288L3.176 6.24L3.144 6.216V6.184H3.208H3.264L3.28 6.144L3.304 6.112V6.056V6V5.936V5.88V5.824V5.768L3.352 5.752H3.408H3.464L3.496 5.72L3.504 5.68V5.624L3.52 5.576L3.536 5.536V5.48L3.56 5.448V5.392V5.336L3.608 5.32L3.632 5.352L3.664 5.376L3.704 5.392L3.736 5.424L3.776 5.432L3.808 5.464L3.848 5.448L3.88 5.424V5.36L3.912 5.336L3.92 5.296L3.936 5.248L3.968 5.224L3.984 5.176L3.992 5.136L4.024 5.104L4.04 5.064L4.056 5.016L4.08 4.992L4.096 4.944L4.128 4.92L4.136 4.872L4.184 4.864L4.224 4.872L4.272 4.888L4.296 4.92L4.328 4.944L4.368 4.96L4.4 4.992L4.424 5.016H4.456L4.472 4.976L4.48 4.936L4.512 4.904V4.848L4.544 4.816L4.552 4.776L4.568 4.728L4.6 4.704V4.648L4.624 4.616L4.64 4.576L4.656 4.528L4.696 4.512L4.728 4.544L4.76 4.576L4.768 4.616L4.8 4.648L4.816 4.688L4.84 4.72L4.888 4.704L4.912 4.672L4.944 4.648L4.976 4.616L5 4.584L5.032 4.56L5.056 4.528L5.088 4.504L5.12 4.472L5.128 4.432L5.16 4.4L5.192 4.376L5.216 4.4L5.232 4.44L5.248 4.488L5.272 4.512L5.304 4.544L5.344 4.56L5.392 4.576H5.448H5.504L5.536 4.544L5.576 4.528L5.608 4.504L5.648 4.488L5.68 4.456L5.704 4.432L5.72 4.384L5.752 4.36L5.776 4.328L5.808 4.304L5.824 4.256L5.832 4.216L5.864 4.184L5.896 4.16L5.936 4.144L5.952 4.184L5.976 4.216L6.024 4.232L6.048 4.256L6.096 4.24L6.136 4.232L6.168 4.2L6.208 4.184L6.24 4.16L6.264 4.128L6.296 4.096L6.328 4.072L6.352 4.04L6.384 4.016L6.408 3.984L6.456 3.968L6.48 3.944L6.512 3.912L6.552 3.896L6.6 3.88L6.64 3.896L6.656 3.944L6.672 3.984L6.696 4.016L6.744 4.024L6.768 4L6.816 3.984L6.856 3.968L6.888 3.944L6.912 3.912L6.96 3.896H6.984L7.016 3.928L7.04 3.952L7.088 3.968H7.144L7.176 3.944L7.216 3.928L7.256 3.912L7.288 3.88H7.344H7.4H7.456H7.52L7.544 3.912L7.56 3.952L7.576 4H7.632H7.688L7.72 3.968L7.76 3.952L7.808 3.944L7.848 3.928L7.888 3.912L7.92 3.88H7.976L8.008 3.856H8.064L8.096 3.824H8.152L8.168 3.872L8.192 3.896L8.224 3.928L8.264 3.944H8.32L8.368 3.928L8.392 3.896L8.44 3.88L8.464 3.856L8.48 3.896L8.512 3.928V3.984L8.536 4.016L8.552 4.056L8.584 4.088L8.624 4.096L8.664 4.112H8.728L8.752 4.088H8.808L8.856 4.072L8.896 4.056L8.944 4.04L8.984 4.024L9.016 4L9.024 4.04L9.04 4.088L9.056 4.128L9.096 4.144L9.128 4.168L9.168 4.184L9.216 4.2L9.24 4.168L9.288 4.16H9.312L9.328 4.2L9.344 4.24L9.36 4.288L9.384 4.312L9.416 4.344L9.44 4.376L9.472 4.4L9.512 4.416L9.56 4.432L9.584 4.456H9.648H9.704H9.76L9.776 4.504L9.8 4.528L9.832 4.56L9.864 4.584L9.904 4.6H9.96L10.008 4.616L10.032 4.648L10.064 4.672L10.088 4.704L10.104 4.744L10.12 4.792L10.152 4.816L10.16 4.864L10.176 4.904L10.192 4.944L10.208 4.992L10.224 5.032L10.232 5.08L10.264 5.104V5.16L10.28 5.208L10.296 5.248V5.304L10.32 5.336V5.392V5.448L10.336 5.496L10.352 5.536V5.592V5.648L10.36 5.696L10.376 5.736V5.792V5.856V5.912V5.968L10.392 6.008V6.04L10.376 6.08V6.144V6.2V6.256V6.312V6.368V6.424L10.36 6.472L10.336 6.496L10.32 6.544L10.296 6.568L10.264 6.6L10.232 6.632L10.248 6.672H10.304L10.352 6.656L10.392 6.64H10.448H10.504H10.568H10.624L10.648 6.616H10.712L10.736 6.584L10.768 6.56L10.784 6.6L10.824 6.616L10.856 6.584H10.912H10.968H11.024H11.08L11.112 6.616L11.152 6.632L11.184 6.656L11.224 6.672H11.28H11.344H11.4L11.424 6.64L11.472 6.632L11.512 6.616H11.568H11.632L11.656 6.64L11.704 6.656H11.728L11.76 6.632L11.784 6.6L11.8 6.56H11.856L11.904 6.568L11.944 6.584L11.992 6.6L12.032 6.616L12.072 6.632L12.12 6.64L12.16 6.656L12.208 6.672H12.264H12.32H12.376H12.432L12.48 6.656L12.504 6.632L12.536 6.6L12.576 6.584H12.632L12.664 6.616L12.704 6.632L12.752 6.64L12.792 6.656L12.84 6.672L12.864 6.704L12.912 6.712L12.952 6.728L12.968 6.688V6.632L12.992 6.6L13.04 6.584L13.064 6.616H13.128H13.184H13.24L13.28 6.6L13.328 6.584L13.352 6.56L13.384 6.528L13.4 6.488L13.44 6.472L13.472 6.496L13.48 6.544L13.528 6.56L13.552 6.584L13.6 6.6L13.64 6.616H13.696H13.76L13.784 6.584L13.832 6.568L13.872 6.56L13.904 6.528L13.928 6.496L13.96 6.472L13.984 6.44L14.016 6.416L14.048 6.384L14.072 6.352L14.12 6.368L14.144 6.4L14.176 6.424L14.192 6.472L14.216 6.496L14.248 6.472L14.272 6.44L14.304 6.416L14.328 6.384L14.36 6.352L14.392 6.328L14.416 6.296L14.448 6.272L14.464 6.224H14.488L14.536 6.24L14.56 6.272L14.592 6.296L14.616 6.328L14.664 6.344L14.688 6.368L14.736 6.384L14.76 6.416H14.824L14.848 6.44L14.896 6.424V6.368V6.312L14.936 6.296L14.952 6.256V6.2V6.144V6.08V6.024V5.968V5.912L14.976 5.88V5.824L15.008 5.792L15.024 5.752L15.048 5.72L15.08 5.696L15.112 5.664L15.136 5.64L15.168 5.608L15.192 5.576L15.224 5.552L15.24 5.504L15.264 5.48L15.296 5.448V5.392L15.28 5.352L15.264 5.304L15.28 5.264L15.312 5.232V5.208L15.28 5.176L15.24 5.16L15.248 5.12L15.28 5.088L15.296 5.048L15.248 5.032L15.208 5.016L15.168 5.008L15.12 4.992L15.096 4.96L15.136 4.944L15.176 4.936L15.208 4.904V4.848L15.224 4.8L15.248 4.776L15.296 4.76L15.32 4.728L15.352 4.704L15.384 4.672V4.616L15.408 4.584V4.528L15.424 4.488L15.456 4.456L15.48 4.432L15.512 4.4L15.528 4.36L15.552 4.328L15.568 4.288L15.584 4.24V4.184V4.128L15.6 4.088L15.64 4.072V4.016L15.608 3.984V3.928L15.64 3.896L15.608 3.872L15.6 3.824L15.568 3.8L15.552 3.752L15.584 3.728L15.608 3.696L15.64 3.664L15.672 3.64L15.696 3.608L15.728 3.584L15.752 3.552L15.784 3.52L15.768 3.48L15.752 3.44L15.784 3.408L15.824 3.392L15.856 3.368L15.888 3.336L15.928 3.32L15.944 3.28L15.96 3.24V3.176L15.984 3.152L16.032 3.136L16.04 3.096L16.016 3.064L16 3.024L15.984 2.976L16.032 2.96L16.056 2.936H16.112L16.144 2.904L16.168 2.88L16.2 2.848L16.232 2.816L16.24 2.776V2.72V2.664L16.216 2.632L16.232 2.592H16.288L16.312 2.56L16.36 2.544L16.384 2.52L16.416 2.488L16.448 2.456L16.472 2.432L16.504 2.4L16.528 2.376L16.56 2.344L16.592 2.32L16.616 2.288L16.664 2.272L16.688 2.248L16.72 2.216L16.744 2.184V2.16L16.736 2.112L16.744 2.072L16.792 2.056L16.832 2.04L16.88 2.032L16.92 2.016L16.96 2L17.008 1.984L17.032 1.96L17.08 1.944L17.104 1.912L17.152 1.896L17.176 1.872L17.208 1.84L17.248 1.824L17.28 1.8L17.304 1.768L17.336 1.744L17.368 1.712L17.392 1.68L17.424 1.656L17.44 1.608L17.464 1.584H17.52L17.552 1.608L17.592 1.624L17.64 1.64L17.656 1.6L17.68 1.568L17.696 1.528L17.728 1.496L17.752 1.472L17.8 1.456L17.84 1.44H17.896L17.928 1.408L17.944 1.368L17.952 1.328L17.984 1.296H18.04H18.096L18.128 1.264H18.184H18.24L18.272 1.24H18.328L18.36 1.208L18.4 1.192L18.44 1.184L18.472 1.152L18.512 1.136L18.544 1.112L18.584 1.096L18.616 1.064L18.656 1.048L18.704 1.04L18.728 1.008L18.76 0.976H18.816L18.848 0.952L18.888 0.936L18.936 0.92L18.96 0.896L19.008 0.88L19.048 0.864L19.088 0.848L19.136 0.832L19.16 0.808L19.208 0.792L19.248 0.776L19.28 0.752H19.336L19.36 0.72L19.408 0.704L19.448 0.688L19.48 0.664H19.536L19.568 0.632L19.608 0.616L19.648 0.608L19.68 0.576L19.72 0.56L19.768 0.544L19.792 0.52L19.84 0.504L19.88 0.488L19.912 0.464L19.952 0.448L19.984 0.416L20.024 0.408L20.056 0.376L20.08 0.344L20.128 0.336L20.152 0.304L20.184 0.272L20.224 0.264L20.256 0.232L20.28 0.2L20.312 0.176L20.344 0.144L20.368 0.12L20.4 0.0879999L20.44 0.0719999L20.472 0.048L20.512 0.032L20.544 0H20.6H20.656L20.704 0.016L20.744 0.032L20.784 0.048L20.816 0.0719999L20.856 0.0879999L20.888 0.12L20.92 0.144L20.944 0.176L20.96 0.216L20.992 0.248L21 0.288L21.016 0.336L21.032 0.376L21.048 0.416V0.48V0.536V0.592V0.648L21.032 0.688L21.016 0.736V0.792L20.992 0.824L21 0.864L21.016 0.904V0.968L21 1.008L20.992 1.048V1.112V1.168L21 1.208L21.032 1.24H21.088L21.12 1.264H21.176L21.2 1.24L21.232 1.208L21.264 1.184L21.288 1.152L21.32 1.12L21.344 1.096L21.376 1.064L21.408 1.04L21.432 1.008L21.464 0.976L21.488 0.952L21.52 0.92L21.552 0.896L21.592 0.88L21.624 0.848L21.648 0.824L21.696 0.808L21.72 0.776H21.776H21.84H21.896H21.952L21.976 0.808L22.024 0.824L22.048 0.848L22.08 0.88L22.096 0.92L22.112 0.968L22.136 0.992V1.048V1.112V1.168V1.224V1.28L22.112 1.312V1.368L22.08 1.4V1.456L22.048 1.48L22.04 1.528L22.024 1.568L22.008 1.608L21.992 1.656L22.024 1.68L22.064 1.696L22.096 1.728L22.136 1.744L22.184 1.752L22.208 1.784L22.24 1.816L22.264 1.84L22.296 1.872L22.328 1.896L22.336 1.944H22.368L22.4 1.912L22.424 1.888L22.44 1.84L22.48 1.856L22.512 1.888L22.544 1.912L22.568 1.944L22.6 1.968L22.616 2.016L22.64 2.04L22.656 2.088H22.688L22.712 2.056L22.744 2.032H22.768L22.784 2.072L22.816 2.104L22.84 2.128L22.872 2.16L22.904 2.184L22.928 2.216L22.944 2.256L22.968 2.288L23 2.32L23.032 2.344L23.056 2.376H23.088V2.32L23.104 2.272L23.112 2.232L23.128 2.184L23.16 2.216L23.184 2.248L23.2 2.288L23.232 2.32L23.248 2.36L23.256 2.4L23.288 2.432L23.32 2.456L23.328 2.504L23.344 2.544L23.376 2.576L23.392 2.616L23.416 2.592L23.448 2.616L23.472 2.648L23.488 2.688L23.52 2.72L23.536 2.76L23.544 2.808L23.576 2.832L23.592 2.88L23.616 2.904L23.632 2.952L23.648 2.992L23.68 3.024L23.688 3.064L23.72 3.096L23.752 3.12L23.776 3.152L23.792 3.192L23.808 3.24L23.824 3.28L23.832 3.32V3.384L23.864 3.408V3.464L23.88 3.512L23.896 3.552V3.608V3.664V3.728V3.784V3.84V3.896V3.952L23.864 3.984V4.04L23.848 4.088L23.832 4.128V4.184L23.808 4.216V4.272L23.776 4.304L23.76 4.344L23.752 4.384L23.72 4.416L23.704 4.456L23.688 4.504V4.56L23.664 4.584V4.648L23.68 4.688L23.688 4.728L23.704 4.776L23.736 4.8L23.752 4.848V4.904L23.76 4.944L23.792 4.976L23.824 5.008L23.832 5.048L23.88 5.064L23.904 5.088L23.952 5.104L23.992 5.12H24.048L24.096 5.104L24.136 5.088H24.192L24.224 5.12H24.28H24.336L24.368 5.152H24.424L24.456 5.176H24.512H24.568H24.624H24.68L24.712 5.208H24.768L24.8 5.232L24.824 5.264L24.872 5.28L24.896 5.304L24.928 5.336L24.968 5.352L25 5.376H25.056H25.112H25.168L25.2 5.408H25.256L25.288 5.432L25.312 5.464L25.344 5.496L25.376 5.52L25.4 5.552L25.416 5.592L25.448 5.624V5.68V5.736V5.792V5.856V5.912V5.968V6.024L25.416 6.056V6.112V6.168V6.224L25.448 6.256V6.312V6.368V6.424V6.488V6.544V6.6L25.432 6.64L25.416 6.688V6.744L25.4 6.784L25.384 6.832L25.376 6.872L25.36 6.92L25.328 6.944L25.304 6.976L25.288 7.016L25.256 7.048L25.24 7.088L25.232 7.136L25.216 7.176V7.232L25.232 7.28L25.24 7.32L25.216 7.344V7.408L25.2 7.448L25.184 7.488L25.16 7.52L25.128 7.552L25.096 7.576L25.072 7.608L25.04 7.632L25.016 7.664L24.968 7.68L24.944 7.704L24.912 7.736L24.872 7.752L24.84 7.776L24.8 7.792L24.768 7.824L24.744 7.848L24.696 7.864L24.672 7.896L24.624 7.912L24.6 7.936L24.568 7.968L24.528 7.984L24.496 8.008L24.456 8.024L24.424 8.056L24.384 8.064L24.352 8.096L24.312 8.112L24.28 8.136L24.248 8.168L24.208 8.184L24.176 8.208L24.136 8.224L24.104 8.256L24.08 8.28L24.032 8.296L24.008 8.328L23.96 8.336L23.936 8.368L23.904 8.4L23.864 8.408L23.832 8.44L23.808 8.472L23.776 8.496L23.752 8.528L23.736 8.568L23.704 8.6L23.688 8.64V8.696V8.76V8.816L23.704 8.856L23.72 8.904L23.752 8.928L23.776 8.96L23.76 9H23.704L23.68 9.032L23.648 9.056L23.616 9.088L23.608 9.128V9.192V9.248L23.592 9.288L23.56 9.32L23.536 9.344L23.488 9.36L23.464 9.392L23.448 9.432L23.432 9.472V9.536V9.592L23.464 9.616L23.448 9.664H23.392L23.344 9.68L23.304 9.688L23.272 9.72L23.248 9.752L23.232 9.792V9.848V9.904L23.248 9.952L23.256 9.992V10.048L23.272 10.096L23.288 10.136V10.192L23.256 10.224V10.28V10.336V10.392L23.272 10.44L23.288 10.48L23.32 10.512L23.328 10.552L23.344 10.6L23.328 10.64L23.32 10.68L23.288 10.712V10.768V10.824V10.888V10.944L23.272 10.984L23.256 11.032V11.088L23.232 11.112V11.176L23.2 11.2V11.256L23.176 11.288V11.344L23.144 11.376V11.432L23.128 11.472L23.112 11.52V11.576L23.088 11.6V11.664V11.72V11.776L23.056 11.808V11.864V11.92L23.032 11.952V12.008L23.016 12.048L23 12.096V12.152L22.968 12.176V12.232L22.96 12.28L22.944 12.32V12.376L22.912 12.408V12.464L22.888 12.496V12.552L22.872 12.592L22.856 12.64L22.84 12.68L22.832 12.728V12.784L22.8 12.808L22.784 12.856L22.768 12.896V12.952L22.744 12.984L22.728 13.024L22.712 13.072V13.128L22.688 13.152L22.672 13.2L22.656 13.152L22.624 13.128L22.616 13.088L22.584 13.056L22.552 13.024L22.528 13L22.48 13.016V13.072L22.472 13.112L22.456 13.152V13.216V13.272V13.328L22.424 13.36V13.416L22.408 13.456L22.4 13.504V13.56L22.384 13.6L22.368 13.648L22.352 13.688L22.336 13.728V13.792L22.312 13.816V13.872L22.28 13.904L22.264 13.944L22.256 13.992L22.24 14.032L22.224 14.08L22.192 14.104H22.168L22.152 14.064L22.12 14.032L22.096 14.008L22.064 13.976L22.024 13.992L22.008 14.032L21.992 14.08L21.968 14.104L21.936 14.136V14.192V14.248V14.304V14.36V14.424V14.48V14.536V14.592V14.648V14.712V14.768L21.92 14.808L21.88 14.792L21.848 14.768L21.824 14.736L21.776 14.72L21.752 14.696L21.736 14.736V14.792V14.856V14.912V14.968V15.024L21.704 15.056V15.112V15.168V15.224L21.696 15.272H21.632L21.608 15.24L21.576 15.208L21.552 15.184L21.504 15.168H21.48V15.224V15.28V15.344V15.4V15.456L21.448 15.488V15.544V15.6V15.656L21.416 15.688V15.744L21.376 15.76L21.344 15.728L21.32 15.704L21.272 15.688L21.248 15.656L21.216 15.632L21.192 15.6L21.16 15.568H21.128V15.632V15.688V15.744V15.8L21.12 15.848L21.104 15.888V15.944V16V16.056V16.12V16.176L21.056 16.192L21.032 16.16L21.016 16.12L20.992 16.088L20.976 16.048L20.928 16.056V16.12L20.92 16.16L20.904 16.2V16.264V16.32V16.376V16.432V16.488V16.552L20.928 16.576V16.632L20.96 16.664V16.72L20.944 16.768L20.92 16.736L20.888 16.704L20.848 16.696L20.816 16.664L20.784 16.632L20.744 16.624L20.712 16.592L20.688 16.56L20.656 16.536L20.616 16.52L20.584 16.488L20.56 16.464L20.528 16.432L20.488 16.416L20.472 16.464L20.496 16.488V16.552V16.608V16.664V16.72V16.776L20.488 16.824H20.424H20.368L20.344 16.792L20.296 16.808V16.864L20.312 16.912L20.328 16.952V17.008V17.064L20.312 17.112L20.28 17.136H20.224L20.184 17.12L20.136 17.112L20.112 17.08H20.056L20.024 17.048L19.984 17.064L19.952 17.096V17.152V17.208V17.264V17.328V17.384L19.928 17.408V17.472V17.528V17.584L19.896 17.616L19.88 17.656L19.856 17.624L19.808 17.616L19.784 17.584L19.736 17.568L19.696 17.552L19.648 17.544L19.624 17.512H19.568H19.504L19.464 17.528V17.584V17.64V17.696L19.432 17.728V17.784V17.84L19.424 17.888L19.408 17.928L19.392 17.976L19.376 18.016L19.352 18.04L19.32 18.072L19.28 18.088L19.248 18.056H19.192L19.16 18.032L19.12 18.016L19.072 18L19.048 17.976H18.992L18.976 18.016V18.072L18.96 18.112L18.944 18.16L18.936 18.2L18.92 18.248L18.904 18.288L18.872 18.32L18.848 18.288L18.816 18.256L18.776 18.248L18.744 18.216L18.72 18.184L18.688 18.16L18.656 18.128L18.632 18.104L18.584 18.088L18.544 18.104L18.528 18.144L18.512 18.184L18.488 18.216V18.272L18.456 18.304L18.44 18.344L18.432 18.392L18.4 18.416L18.384 18.464L18.368 18.504L18.36 18.544L18.344 18.592L18.312 18.616V18.68L18.288 18.704V18.76L18.256 18.792V18.848V18.904L18.224 18.936V18.992V19.048L18.216 19.096L18.184 19.064L18.152 19.032L18.128 19.008L18.112 19.048V19.104V19.168L18.128 19.208L18.144 19.248V19.312V19.368V19.424V19.48L18.168 19.512V19.568L18.152 19.608L18.112 19.6L18.08 19.568L18.04 19.552L18.016 19.528L17.968 19.512H17.944V19.568L17.968 19.6V19.656L17.984 19.696L18 19.744V19.8V19.856L18.024 19.888V19.944L18.04 19.984L18.056 20.024V20.088L18.072 20.128L18.08 20.168L18.04 20.184L18.016 20.16L17.984 20.128L17.952 20.096L17.944 20.144V20.2L17.968 20.232V20.288L18 20.312V20.376L18.024 20.4L18.04 20.448L18.056 20.488L18.04 20.528L18.016 20.504L17.984 20.472L17.944 20.456L17.912 20.432H17.88V20.488L17.912 20.52V20.576L17.928 20.616L17.944 20.664V20.72L17.952 20.76L17.968 20.808V20.864L18 20.888V20.944V21.008L18.024 21.032L18.016 21.08L17.984 21.048L17.952 21.016L17.928 20.992L17.896 20.96L17.856 20.976L17.88 21.008V21.064V21.12L17.912 21.152V21.208L17.944 21.232V21.296L17.952 21.336L17.968 21.376H17.944L17.912 21.352L17.88 21.32L17.856 21.296L17.808 21.28V21.304L17.824 21.352L17.84 21.392L17.856 21.44L17.872 21.48L17.88 21.52V21.584L17.84 21.592L17.8 21.608L17.824 21.64L17.84 21.68L17.872 21.712H17.928L17.952 21.736H18.016L18.056 21.752L18.096 21.768L18.144 21.784L18.184 21.8L18.216 21.824L18.24 21.856L18.288 21.872L18.328 21.88L18.36 21.912H18.416L18.456 21.928L18.504 21.936H18.56L18.584 21.968H18.648L18.672 22L18.704 22.024L18.728 22.056L18.76 22.08L18.8 22.096L18.816 22.144L18.832 22.184L18.864 22.216L18.872 22.256L18.904 22.288L18.936 22.312L18.944 22.36L18.976 22.384L19.008 22.416V22.472V22.528V22.584V22.648L19.016 22.688L19.032 22.728L19.064 22.76L19.088 22.792L19.104 22.832L19.12 22.872V22.928L19.144 22.96V23.016V23.072V23.136V23.192L19.136 23.232L19.104 23.264L19.064 23.28L19.032 23.304L18.992 23.32L18.944 23.336L18.92 23.36L18.872 23.376L18.832 23.392L18.792 23.408H18.728L18.704 23.432L18.672 23.408H18.616H18.56H18.504V23.432L18.512 23.48L18.528 23.52L18.544 23.568V23.624V23.68V23.736V23.792V23.848L18.528 23.896H18.472L18.44 23.92L18.416 23.952H18.36L18.344 23.992L18.296 24.008H18.24L18.216 24.04H18.152H18.096H18.04H17.984H17.928H17.872L17.824 24.056L17.784 24.064L17.752 24.096L17.728 24.128L17.68 24.136L17.64 24.152L17.608 24.184H17.552H17.496L17.464 24.208Z" fill="var(--fill-0, #EC5998)"/>
</g>
</svg>
