<svg preserveAspectRatio="none" width="100%" height="100%" overflow="visible" style="display: block;" viewBox="0 0 27.2 26.984" fill="none" xmlns="http://www.w3.org/2000/svg">
<g id="Group">
<path id="Vector" fill-rule="evenodd" clip-rule="evenodd" d="M20.072 26.984H19.856L19.744 26.872L19.632 26.76H19.416H19.192H18.976L18.864 26.648L18.76 26.544L18.648 26.432L18.536 26.32L18.432 26.216V25.992V25.776L18.32 25.664L18.208 25.552L18.096 25.448L17.992 25.552L17.88 25.664H17.664H17.44H17.224H17L16.896 25.776L16.784 25.88H16.56H16.344H16.128L16.016 25.776L15.904 25.664H15.688L15.576 25.552L15.464 25.448L15.36 25.336V25.12V24.896V24.68L15.248 24.568L15.136 24.456V24.24L15.032 24.128L14.92 24.016L14.808 23.912L14.696 23.8L14.592 23.688L14.48 23.584V23.36V23.144L14.368 23.032L14.264 22.92V22.704V22.48V22.264V22.048V21.824V21.608V21.384V21.168V20.952V20.728L14.368 20.616L14.48 20.512V20.288V20.072V19.848L14.592 19.744L14.696 19.632V19.416V19.192V18.976V18.752L14.808 18.648L14.92 18.536V18.32V18.096V17.88V17.656L14.808 17.552H14.592H14.368L14.264 17.44L14.152 17.328H13.928L13.824 17.216L13.712 17.112L13.6 17L13.496 16.888H13.272L13.16 16.784L13.056 16.672H12.832L12.728 16.56L12.616 16.448H12.392L12.288 16.344L12.176 16.232L12.064 16.12L11.96 16.016H11.736H11.52H11.296L11.192 15.904L11.08 15.792H10.864H10.64H10.424H10.2L10.096 15.904L9.984 16.016L9.872 16.12V16.344L9.76 16.448L9.656 16.56L9.544 16.672L9.432 16.784V17V17.216L9.328 17.328L9.216 17.44V17.656L9.104 17.768L8.992 17.88L8.888 17.984L8.776 18.096L8.664 18.208L8.56 18.32V18.536L8.448 18.648L8.336 18.752L8.232 18.864L8.12 18.976V19.192V19.416L8.008 19.52L7.896 19.632V19.848L7.792 19.96L7.68 20.072V20.288L7.568 20.4L7.464 20.512V20.728L7.352 20.84L7.24 20.952L7.128 21.056L7.024 21.168V21.384L6.912 21.496L6.8 21.608V21.824L6.696 21.936L6.584 22.048V22.264L6.472 22.376L6.36 22.48L6.256 22.592L6.144 22.704V22.92L6.032 23.032L5.928 23.144V23.36L5.816 23.472L5.704 23.584L5.592 23.688L5.488 23.8L5.376 23.912L5.264 24.016L5.16 24.128L5.048 24.24L4.936 24.352H4.72H4.496L4.392 24.456L4.28 24.568L4.168 24.68L4.28 24.784L4.392 24.896L4.496 25.008L4.608 25.12L4.72 25.224L4.832 25.336V25.552V25.776V25.992L4.72 26.104L4.608 26.216L4.496 26.32H4.28L4.168 26.432L4.064 26.544H3.84H3.624H3.4H3.184H2.96H2.744H2.528H2.304L2.192 26.432L2.088 26.32L1.976 26.216V25.992L1.864 25.88L1.76 25.776V25.552L1.648 25.448H1.432L1.32 25.336L1.208 25.224H0.992L0.88 25.12L0.768 25.008L0.664 24.896V24.68V24.456V24.24V24.016V23.8V23.584V23.36V23.144L0.552 23.032L0.44 22.92L0.328 22.816L0.224 22.704L0.112 22.592L0 22.48V22.264V22.048V21.824V21.608V21.384V21.168V20.952V20.728L0.112 20.616L0.224 20.512V20.288L0.328 20.184L0.44 20.072L0.552 19.96L0.664 19.848V19.632L0.768 19.52L0.88 19.416L0.992 19.304L1.096 19.192V18.976L1.208 18.864L1.32 18.752V18.536L1.432 18.424L1.536 18.32L1.648 18.208L1.76 18.096L1.864 17.984L1.976 17.88V17.656L2.088 17.552L2.192 17.44L2.304 17.328L2.416 17.216L2.528 17.112L2.632 17V16.784L2.744 16.672L2.856 16.56V16.344L2.96 16.232L3.072 16.12V15.904L3.184 15.792L3.296 15.68V15.464L3.4 15.352L3.512 15.248V15.024V14.808L3.624 14.696L3.728 14.584V14.368L3.84 14.256L3.952 14.152V13.928L4.064 13.816L4.168 13.712V13.488V13.272V13.048V12.832L4.28 12.72L4.392 12.616V12.392V12.176V11.952L4.496 11.848L4.608 11.736V11.52L4.72 11.408L4.832 11.296L4.936 11.184L5.048 11.08V10.856L5.16 10.752L5.264 10.64L5.376 10.528L5.488 10.416V10.2V9.984L5.376 9.872L5.264 9.76L5.16 9.648L5.048 9.544L4.936 9.432H4.72H4.496H4.28L4.168 9.544L4.064 9.648H3.84H3.624H3.4L3.296 9.544L3.184 9.432H2.96H2.744L2.632 9.32L2.528 9.216L2.416 9.104L2.304 8.992L2.192 8.88L2.088 8.776L1.976 8.664L1.864 8.552L1.76 8.448L1.648 8.336L1.536 8.224L1.432 8.12L1.32 8.008L1.208 7.896L1.096 7.784V7.568V7.352L0.992 7.24L0.88 7.128V6.912V6.688V6.472V6.248L0.992 6.144L1.096 6.032V5.816L1.208 5.704L1.32 5.592V5.376L1.432 5.264L1.536 5.152L1.648 5.048L1.76 4.936L1.864 4.824L1.976 4.72L2.088 4.608H2.304L2.416 4.496L2.528 4.384H2.744H2.96L3.072 4.496L3.184 4.608H3.4H3.624L3.728 4.72L3.84 4.824H4.064L4.168 4.936L4.28 5.048H4.496L4.608 5.152L4.72 5.264L4.832 5.376L4.936 5.48L5.048 5.592L5.16 5.704L5.264 5.816L5.376 5.92L5.488 6.032V6.248V6.472L5.592 6.584L5.704 6.688V6.912V7.128V7.352V7.568V7.784V8.008V8.224L5.592 8.336L5.488 8.448L5.592 8.552H5.816L5.928 8.664L6.032 8.776L6.144 8.88L6.256 8.992H6.472H6.696L6.8 9.104L6.912 9.216H7.128H7.352L7.464 9.104L7.568 8.992H7.792H8.008H8.232H8.448H8.664L8.776 8.88L8.888 8.776H9.104H9.328H9.544H9.76H9.984H10.2H10.424H10.64H10.864H11.08H11.296H11.52H11.736H11.96H12.176H12.392H12.616H12.832H13.056H13.272H13.496H13.712H13.928H14.152H14.368H14.592H14.808L14.92 8.664L15.032 8.552H15.248H15.464H15.688L15.792 8.448L15.904 8.336H16.128H16.344H16.56L16.672 8.224L16.784 8.12H17L17.112 8.008L17.224 7.896H17.44L17.552 7.784V7.568V7.352L17.664 7.24L17.768 7.128V6.912L17.88 6.8L17.992 6.688V6.472V6.248L18.096 6.144L18.208 6.032V5.816V5.592L18.32 5.48L18.432 5.376V5.152L18.536 5.048L18.648 4.936V4.72L18.76 4.608L18.864 4.496V4.28V4.056V3.84V3.616V3.4V3.184L18.76 3.072L18.648 2.96V2.744L18.76 2.632L18.864 2.52V2.304V2.08V1.864L18.976 1.752L19.088 1.648V1.424L19.192 1.32L19.304 1.208V0.984L19.416 0.88L19.528 0.768L19.632 0.656L19.744 0.552L19.856 0.44H20.072L20.184 0.328L20.296 0.216H20.512H20.728L20.84 0.112L20.952 0H21.168H21.392H21.608H21.832H22.048H22.264L22.376 0.112L22.488 0.216H22.704H22.928L23.032 0.328L23.144 0.44H23.36L23.472 0.552L23.584 0.656L23.696 0.768L23.8 0.88L23.912 0.984L24.024 1.096L24.128 1.208L24.24 1.32L24.352 1.424V1.648L24.464 1.752L24.568 1.864V2.08V2.304V2.52V2.744V2.96V3.184V3.4V3.616V3.84L24.68 3.952H24.896H25.12L25.232 4.056L25.336 4.168H25.56H25.776H25.992H26.216H26.432L26.544 4.28L26.656 4.384H26.872L26.984 4.496L27.096 4.608L27.2 4.72V4.936V5.152V5.376V5.592L27.096 5.704L26.984 5.816L26.872 5.92L26.76 6.032L26.656 6.144L26.544 6.248L26.432 6.36L26.328 6.472L26.216 6.584H25.992L25.888 6.688L25.776 6.8H25.56H25.336L25.232 6.912L25.12 7.016H24.896H24.68L24.568 7.128V7.352V7.568V7.784V8.008V8.224V8.448V8.664V8.88L24.464 8.992L24.352 9.104V9.32V9.544L24.24 9.648L24.128 9.76L24.024 9.872H23.8L23.696 9.984L23.584 10.088H23.36L23.256 10.2L23.144 10.312L23.032 10.416V10.64V10.856V11.08V11.296V11.52V11.736V11.952V12.176V12.392V12.616V12.832V13.048V13.272L22.928 13.384L22.816 13.488V13.712V13.928V14.152L22.704 14.256L22.592 14.368V14.584V14.808L22.488 14.92L22.376 15.024L22.264 15.136L22.16 15.248V15.464L22.048 15.576L21.936 15.68L21.832 15.792L21.72 15.904L21.608 16.016L21.496 16.12V16.344L21.392 16.448L21.28 16.56V16.784V17V17.216V17.44V17.656V17.88V18.096V18.32V18.536V18.752V18.976V19.192V19.416V19.632L21.168 19.744L21.064 19.848V20.072V20.288V20.512L21.168 20.616L21.28 20.728V20.952V21.168V21.384V21.608V21.824V22.048V22.264V22.48V22.704L21.168 22.816L21.064 22.92V23.144V23.36V23.584V23.8V24.016V24.24V24.456L20.952 24.568L20.84 24.68L20.728 24.784L20.624 24.896L20.728 25.008L20.84 25.12L20.952 25.224L21.064 25.336L21.168 25.448L21.28 25.552V25.776V25.992V26.216V26.432L21.168 26.544L21.064 26.648L20.952 26.76H20.728H20.512H20.296L20.184 26.872L20.072 26.984Z" fill="var(--fill-0, #EC5998)"/>
</g>
</svg>
