<svg preserveAspectRatio="none" width="100%" height="100%" overflow="visible" style="display: block;" viewBox="0 0 27.2 21.408" fill="none" xmlns="http://www.w3.org/2000/svg">
<g id="Group">
<path id="Vector" d="M18.84 21.408H18.784H18.728H18.672H18.624H18.568H18.512H18.456H18.4L18.376 21.384H18.32L18.28 21.392L18.24 21.408H18.184L18.16 21.384L18.12 21.368L18.08 21.352H18.024H17.968H17.912L17.872 21.344L17.832 21.328H17.776L17.752 21.304H17.696H17.64H17.584H17.536H17.48L17.44 21.288L17.4 21.272H17.344L17.312 21.248L17.288 21.216H17.232L17.208 21.192L17.168 21.176L17.128 21.168L17.088 21.152L17.056 21.12L17.016 21.112L16.992 21.08L16.96 21.056L16.936 21.032L16.92 20.992L16.896 20.96L16.88 20.92L16.864 20.88L16.856 20.84L16.84 20.8L16.816 20.768L16.784 20.744L16.768 20.704L16.76 20.664L16.728 20.632L16.72 20.592L16.704 20.552L16.688 20.512L16.68 20.472V20.416L16.688 20.376V20.352L16.664 20.32H16.608L16.568 20.304V20.256L16.528 20.24L16.496 20.216V20.184L16.512 20.144L16.472 20.128L16.456 20.088V20.032V19.984L16.416 19.968L16.408 19.928V19.872L16.392 19.832L16.36 19.808L16.352 19.76L16.336 19.72H16.28L16.256 19.752L16.24 19.712L16.224 19.672L16.216 19.632L16.176 19.616L16.16 19.576V19.52L16.12 19.504L16.088 19.536L16.08 19.488V19.44L16.048 19.408L16.04 19.368L16.024 19.328L16 19.304V19.248H15.968L15.928 19.264L15.912 19.216V19.168L15.904 19.128H15.848L15.808 19.112V19.056L15.792 19.016L15.752 19.032L15.712 19.04L15.696 19V18.952L15.68 18.904L15.656 18.936L15.616 18.92V18.864V18.816H15.584L15.544 18.824L15.52 18.856L15.504 18.816L15.496 18.768L15.48 18.728L15.456 18.704L15.48 18.68V18.624V18.568L15.456 18.536L15.424 18.512L15.408 18.472L15.384 18.448L15.344 18.432V18.376L15.328 18.336L15.304 18.36L15.288 18.408L15.248 18.416L15.232 18.376V18.32V18.264V18.216L15.224 18.176L15.184 18.184L15.168 18.224L15.152 18.264L15.128 18.296L15.096 18.32L15.088 18.36L15.072 18.408L15.032 18.416L15.016 18.376V18.32V18.264V18.216L15 18.176L14.976 18.2L14.952 18.224L14.912 18.24L14.88 18.264L14.856 18.296L14.824 18.32L14.816 18.36L14.784 18.392L14.776 18.432L14.744 18.456L14.728 18.496L14.72 18.536L14.688 18.568V18.624L14.648 18.632L14.64 18.592V18.536L14.624 18.496L14.608 18.456V18.408L14.584 18.376V18.32L14.568 18.28L14.544 18.312L14.528 18.352L14.504 18.376L14.488 18.416L14.472 18.456L14.448 18.488L14.432 18.528L14.416 18.568L14.408 18.608L14.392 18.648L14.376 18.688L14.368 18.728L14.352 18.768L14.312 18.76L14.296 18.72L14.28 18.68L14.256 18.648V18.592L14.232 18.568L14.216 18.528L14.2 18.488H14.176V18.536L14.144 18.568V18.624L14.136 18.664L14.12 18.704L14.104 18.744L14.096 18.784V18.84L14.048 18.856L14.04 18.816L14.008 18.784V18.728L13.984 18.704L13.968 18.664L13.96 18.624V18.568L13.928 18.536V18.488L13.912 18.448L13.888 18.472L13.872 18.512L13.848 18.536L13.824 18.568L13.808 18.608L13.792 18.648L13.768 18.68L13.752 18.72L13.736 18.76L13.712 18.784V18.84L13.688 18.864H13.656V18.816L13.64 18.768L13.632 18.728V18.68H13.6L13.576 18.704L13.552 18.728L13.52 18.76L13.504 18.8L13.496 18.84L13.464 18.864L13.44 18.896L13.424 18.936L13.4 18.904L13.384 18.864V18.816L13.368 18.768L13.328 18.784L13.304 18.816L13.28 18.84L13.264 18.88L13.232 18.904L13.224 18.952L13.208 18.992L13.184 19.016L13.152 18.992L13.144 18.952V18.896L13.128 18.856L13.112 18.816V18.76L13.096 18.72L13.088 18.68V18.624L13.072 18.584L13.048 18.608L13.016 18.632L12.992 18.664L12.96 18.688L12.952 18.728L12.92 18.76L12.912 18.8L12.896 18.84L12.88 18.88L12.84 18.864V18.816L12.816 18.784V18.728L12.784 18.704V18.648L12.76 18.624L12.744 18.584L12.736 18.536L12.72 18.496L12.704 18.456H12.68L12.648 18.488L12.64 18.528L12.624 18.568L12.6 18.592V18.648L12.568 18.68V18.728H12.544L12.528 18.688L12.512 18.648L12.488 18.624L12.472 18.584L12.456 18.536L12.432 18.512L12.416 18.472L12.408 18.512V18.568V18.624H12.376L12.352 18.592L12.336 18.552L12.328 18.512L12.296 18.488L12.28 18.448L12.272 18.408L12.24 18.376L12.232 18.336L12.216 18.296L12.192 18.264L12.176 18.224L12.144 18.256L12.136 18.296L12.12 18.336L12.104 18.376H12.08L12.064 18.336L12.056 18.296V18.24L12.04 18.2L12.024 18.16L12.008 18.12L11.968 18.136L11.944 18.16L11.92 18.184L11.888 18.216L11.872 18.256L11.848 18.28L11.832 18.32L11.808 18.352L11.784 18.376L11.768 18.416L11.736 18.392L11.728 18.352V18.296L11.696 18.264V18.216L11.688 18.176L11.648 18.184L11.6 18.2L11.576 18.224L11.552 18.256L11.52 18.28L11.512 18.32L11.48 18.352L11.456 18.376L11.424 18.408H11.4V18.352L11.376 18.32V18.264V18.216V18.16L11.344 18.136H11.32L11.288 18.16L11.264 18.184L11.232 18.216L11.224 18.256L11.192 18.28L11.168 18.312L11.152 18.264V18.216V18.16V18.104V18.048L11.112 18.04L11.088 18.064L11.056 18.088L11.032 18.12L11.008 18.144L10.992 18.184L10.968 18.216H10.936V18.16V18.104L10.92 18.064L10.912 18.024L10.88 17.992H10.856L10.84 18.04L10.832 18.08L10.816 18.12L10.8 18.16V18.216V18.264V18.32L10.816 18.36L10.832 18.408L10.84 18.448L10.856 18.488L10.88 18.512L10.896 18.552L10.92 18.584H10.976H11.032L11.056 18.608H11.112L11.144 18.632L11.168 18.664L11.192 18.688L11.224 18.72L11.248 18.688L11.288 18.704L11.328 18.72L11.36 18.744L11.376 18.784V18.84V18.896L11.4 18.92L11.44 18.936L11.48 18.92L11.52 18.904H11.576H11.632L11.672 18.92L11.712 18.936H11.768L11.792 18.96H11.848L11.872 18.992L11.92 19L11.96 19.016L11.984 19.04L12.024 19.056L12.056 19.088L12.08 19.112L12.104 19.136L12.136 19.168L12.144 19.208L12.176 19.232L12.192 19.272L12.216 19.304L12.232 19.344L12.24 19.384L12.272 19.408L12.28 19.448L12.296 19.488L12.328 19.52L12.336 19.56L12.352 19.6L12.376 19.632V19.68L12.408 19.712V19.76L12.416 19.808L12.432 19.848V19.904V19.952L12.416 19.992L12.408 20.032L12.392 20.08L12.376 20.12L12.352 20.144L12.328 20.176L12.296 20.2L12.272 20.224L12.232 20.24L12.2 20.264H12.144H12.096H12.04L12.008 20.24L11.968 20.256L11.928 20.264L11.904 20.296H11.848L11.824 20.32H11.768H11.712L11.688 20.352H11.632H11.576H11.52H11.464H11.416H11.36H11.304L11.264 20.336L11.224 20.32H11.168H11.112H11.056H11.008H10.952H10.896L10.856 20.304L10.816 20.296H10.76H10.704H10.648L10.608 20.28L10.568 20.264H10.512L10.472 20.256L10.432 20.24L10.392 20.224L10.352 20.216H10.296L10.272 20.184H10.216L10.192 20.16H10.136L10.104 20.128H10.056L10.016 20.12L9.968 20.104L9.928 20.088L9.888 20.08H9.832L9.792 20.064L9.752 20.048H9.696L9.672 20.024H9.616L9.592 19.992H9.536L9.512 19.968L9.48 19.944L9.44 19.928L9.416 19.904L9.384 19.872L9.36 19.848L9.344 19.808L9.336 19.76L9.288 19.752H9.24L9.2 19.736H9.168L9.2 19.76L9.208 19.808L9.224 19.848L9.248 19.872L9.264 19.912L9.28 19.952L9.304 19.984L9.32 20.024L9.336 20.064L9.36 20.088L9.376 20.128L9.384 20.176L9.416 20.2V20.256L9.44 20.28V20.336L9.472 20.36V20.416L9.48 20.456L9.496 20.496V20.552V20.608L9.48 20.648L9.472 20.688V20.744L9.44 20.768L9.424 20.808L9.4 20.84L9.384 20.88L9.36 20.904L9.336 20.936L9.288 20.944L9.264 20.976L9.224 20.992L9.184 21H9.128H9.072H9.016L8.976 20.992L8.936 20.976L8.896 20.992L8.856 21L8.832 21.032L8.792 21.04L8.744 21.056H8.696L8.664 21.08H8.608H8.56H8.504L8.464 21.096L8.424 21.112H8.368H8.312L8.272 21.096L8.232 21.08H8.176H8.12H8.064H8.016H7.96H7.904H7.848H7.792H7.744L7.712 21.056H7.656H7.608H7.552H7.496H7.44L7.4 21.04L7.36 21.032H7.304H7.248L7.208 21.016L7.168 21H7.112L7.072 20.992L7.032 20.976H6.976L6.952 20.944H6.896L6.856 20.936L6.816 20.92L6.776 20.904L6.736 20.896H6.68L6.656 20.864H6.6L6.568 20.84H6.52L6.488 20.808H6.432L6.392 20.8L6.352 20.784H6.296L6.272 20.76H6.216H6.16L6.136 20.728H6.08L6.04 20.72L6 20.704L5.96 20.688L5.92 20.672L5.888 20.648L5.848 20.632L5.824 20.608L5.8 20.584L5.768 20.552L5.744 20.528L5.712 20.496L5.688 20.472L5.672 20.432L5.656 20.392L5.616 20.376H5.568H5.512L5.48 20.352L5.44 20.336L5.4 20.32L5.376 20.296L5.344 20.264L5.32 20.24L5.296 20.216L5.264 20.184L5.24 20.16L5.208 20.128L5.184 20.104L5.16 20.08L5.128 20.048L5.104 20.024L5.072 19.992L5.048 19.968L5.024 19.944L5.008 19.904L4.984 19.872L4.952 19.848L4.928 19.816L4.896 19.792L4.872 19.76L4.848 19.736L4.816 19.712L4.792 19.68L4.76 19.656L4.736 19.632L4.712 19.6L4.68 19.576L4.656 19.544L4.64 19.504L4.616 19.48L4.584 19.448L4.56 19.424L4.528 19.4L4.504 19.368L4.48 19.344L4.464 19.304L4.44 19.272L4.408 19.248L4.384 19.216L4.368 19.176L4.344 19.152L4.328 19.112L4.304 19.088L4.288 19.04L4.272 19L4.256 18.96L4.248 18.92V18.864V18.816L4.232 18.768L4.208 18.744L4.168 18.728V18.68V18.624L4.152 18.584L4.112 18.568L4.08 18.536L4.096 18.496V18.472L4.08 18.432V18.376L4.072 18.336L4.056 18.296L4.04 18.256L4.032 18.216V18.16V18.104L4.056 18.08V18.024L4.08 17.992V17.944L4.056 17.912L4.032 17.888L4.04 17.848L4.056 17.808L4.08 17.776L4.072 17.736L4.056 17.696V17.64L4.08 17.616L4.072 17.576L4.04 17.544L4.016 17.52L3.976 17.504L3.936 17.496L3.904 17.464L3.864 17.448L3.824 17.44L3.808 17.4L3.784 17.368V17.32V17.264L3.808 17.232L3.824 17.192V17.168L3.808 17.128L3.824 17.088L3.848 17.056V17.032L3.824 17H3.768H3.712H3.664L3.616 16.992L3.632 16.952L3.664 16.92L3.672 16.88V16.824L3.632 16.816H3.576H3.528H3.472H3.416L3.4 16.776L3.432 16.744L3.456 16.72L3.472 16.68L3.48 16.632L3.44 16.624H3.392V16.592L3.4 16.552L3.432 16.528L3.44 16.488L3.472 16.456L3.48 16.416L3.512 16.392L3.536 16.36L3.552 16.32V16.296L3.512 16.312L3.472 16.32H3.416L3.392 16.352H3.336H3.28L3.256 16.376H3.2L3.16 16.36L3.184 16.336L3.2 16.296L3.216 16.256L3.24 16.232L3.256 16.184L3.264 16.144L3.296 16.12L3.304 16.08L3.32 16.04L3.352 16.008L3.304 16L3.28 16.024L3.264 15.984L3.28 15.944L3.296 15.904V15.848L3.32 15.824V15.768L3.336 15.728L3.352 15.688H3.32L3.28 15.696L3.256 15.728L3.216 15.712L3.24 15.688V15.632L3.256 15.592L3.264 15.552V15.496L3.296 15.464V15.408H3.264H3.24V15.36L3.256 15.32L3.264 15.28V15.224L3.256 15.184L3.24 15.136V15.088V15.032L3.264 15.008L3.256 14.96L3.224 14.992L3.216 14.952V14.896V14.84V14.784V14.736V14.68L3.2 14.64L3.184 14.592L3.2 14.552L3.216 14.512L3.224 14.472L3.24 14.432L3.264 14.408L3.28 14.368V14.336H3.224L3.2 14.368L3.184 14.32L3.216 14.296L3.24 14.272L3.256 14.232L3.264 14.192L3.296 14.16L3.304 14.12V14.096L3.264 14.08V14.024L3.28 13.984L3.296 13.944L3.304 13.904L3.32 13.864L3.28 13.848H3.224H3.168L3.16 13.808L3.184 13.776L3.216 13.752L3.24 13.728L3.256 13.688L3.28 13.656V13.632H3.224H3.168H3.12L3.08 13.616V13.56L3.104 13.536L3.088 13.496H3.032L3.008 13.52H2.952L2.912 13.504L2.944 13.48L2.984 13.464L3.008 13.44L3.032 13.416L3.048 13.376L3.008 13.36L2.968 13.344V13.288L2.992 13.264V13.208L3.024 13.184V13.128H2.992L2.952 13.144H2.896L2.888 13.104L2.928 13.088L2.952 13.056L2.968 13.016L2.928 13.008H2.872L2.848 12.976H2.792H2.736L2.72 12.936L2.76 12.92L2.792 12.896L2.816 12.872L2.832 12.832L2.856 12.8L2.888 12.776L2.896 12.736L2.928 12.704V12.68H2.872L2.848 12.704H2.792L2.752 12.72H2.72L2.736 12.68L2.76 12.648L2.792 12.624L2.832 12.608L2.848 12.568L2.872 12.544L2.896 12.512L2.928 12.488L2.952 12.464L2.984 12.432L3.008 12.408L3.024 12.368L3.048 12.336L3.08 12.312L3.088 12.272L3.12 12.24V12.216H3.064H3.008L2.984 12.24H2.928H2.872H2.816L2.776 12.232L2.792 12.192L2.816 12.16L2.832 12.12L2.856 12.096L2.872 12.056L2.888 12.016L2.912 11.984L2.872 11.968H2.816L2.808 11.928L2.816 11.888L2.848 11.864L2.856 11.824L2.888 11.792V11.736L2.856 11.712L2.832 11.688L2.848 11.648L2.856 11.608L2.888 11.576V11.52L2.896 11.48L2.912 11.44V11.384L2.872 11.376L2.832 11.384H2.808L2.816 11.344L2.848 11.32L2.872 11.288L2.896 11.264L2.928 11.24L2.944 11.192L2.968 11.168L2.992 11.144L3.024 11.112L3.048 11.088L3.08 11.056L3.104 11.032L3.12 10.992L3.144 10.968V10.936L3.104 10.92L3.128 10.896L3.144 10.856L3.168 10.832L3.2 10.8L3.224 10.776L3.24 10.736L3.264 10.704L3.296 10.68L3.32 10.648L3.352 10.624H3.32L3.28 10.64H3.224L3.184 10.648L3.144 10.664H3.088L3.048 10.648V10.6L3.08 10.568L3.088 10.528L3.12 10.504V10.472H3.064L3.032 10.504H2.984L2.944 10.512L2.896 10.528H2.848H2.792L2.76 10.56H2.712H2.656V10.528L2.68 10.504L2.712 10.472L2.736 10.448L2.76 10.424L2.792 10.392L2.816 10.368L2.856 10.352L2.888 10.328L2.912 10.296L2.872 10.288H2.816H2.76L2.72 10.296L2.68 10.312H2.624L2.584 10.328L2.544 10.336H2.488L2.464 10.368H2.408H2.352V10.336L2.384 10.312L2.408 10.288L2.44 10.256L2.48 10.248L2.504 10.216L2.528 10.192L2.52 10.152L2.488 10.176H2.44H2.384L2.352 10.2H2.304H2.248L2.208 10.216L2.168 10.232V10.2L2.176 10.16L2.208 10.136L2.232 10.104L2.192 10.096H2.136H2.08H2.032L2 10.064L1.976 10.04H1.92H1.864H1.808H1.76H1.704H1.648H1.592H1.536H1.488H1.432L1.4 10.064H1.352L1.312 10.056L1.336 10.024L1.376 10.016L1.416 10L1.456 9.984L1.488 9.96L1.528 9.944L1.552 9.92L1.592 9.904L1.624 9.88L1.648 9.848L1.688 9.832L1.712 9.808L1.744 9.784L1.704 9.768H1.648H1.592H1.536H1.488L1.448 9.784L1.4 9.792H1.352L1.336 9.752L1.376 9.744L1.4 9.712L1.432 9.688L1.456 9.656L1.496 9.648L1.528 9.616L1.552 9.592L1.584 9.56L1.608 9.536L1.632 9.512L1.664 9.48L1.688 9.456L1.648 9.44H1.592H1.536H1.488H1.432H1.376H1.32H1.264H1.216H1.16H1.104H1.048H0.992H0.944H0.888L0.848 9.424L0.856 9.384L0.904 9.376L0.928 9.344L0.952 9.32L0.984 9.288L1.008 9.264L1.04 9.24L1.064 9.208L1.088 9.184L1.128 9.168L1.144 9.128L1.176 9.104L1.2 9.072L1.224 9.048L1.256 9.024L1.28 8.992L1.24 8.976H1.184L1.16 9.008H1.104H1.048H0.992H0.944L0.912 9.032H0.856H0.808H0.752L0.712 9.048L0.672 9.064H0.616H0.56H0.504L0.464 9.048L0.496 9.024L0.536 9.008L0.56 8.976L0.584 8.952L0.632 8.936L0.672 8.928L0.696 8.896L0.72 8.872L0.768 8.856L0.792 8.832L0.832 8.816L0.856 8.792L0.888 8.76L0.928 8.752L0.968 8.736L0.992 8.704L1.024 8.68L1.064 8.664L1.088 8.64L1.128 8.624L1.16 8.6L1.184 8.568L1.224 8.56L1.264 8.544L1.296 8.52V8.488H1.24H1.184H1.128H1.08H1.024L0.984 8.504L0.944 8.52H0.888H0.832L0.808 8.544H0.752H0.696L0.656 8.528L0.68 8.504L0.712 8.48L0.736 8.448L0.768 8.424L0.792 8.392L0.816 8.368L0.848 8.336L0.872 8.312L0.904 8.288L0.928 8.256L0.952 8.232L0.944 8.192H0.888H0.832H0.776H0.72H0.672L0.64 8.216H0.584V8.192L0.616 8.16L0.64 8.136L0.672 8.112L0.712 8.096L0.736 8.064L0.768 8.04L0.776 8L0.808 7.976L0.816 7.936L0.848 7.904L0.872 7.88V7.824L0.832 7.808H0.776H0.72H0.672H0.616L0.6 7.768L0.632 7.744L0.656 7.712L0.68 7.688L0.712 7.656L0.72 7.616L0.736 7.576L0.768 7.552L0.776 7.512V7.48H0.72H0.672L0.632 7.496L0.584 7.512H0.536H0.48L0.448 7.536H0.4H0.344L0.312 7.568H0.264L0.248 7.52V7.472L0.272 7.44L0.288 7.4L0.312 7.376L0.344 7.344L0.368 7.32L0.4 7.296L0.424 7.264L0.448 7.24L0.48 7.208L0.52 7.2L0.544 7.168L0.576 7.144L0.6 7.112L0.64 7.104L0.672 7.072L0.696 7.048L0.72 7.024L0.752 6.992V6.968L0.712 6.952H0.68H0.656L0.616 6.936H0.56H0.504H0.448H0.4H0.344H0.288H0.232H0.176H0.128H0.0719999H0.016L0 6.896L0.032 6.872L0.0559999 6.84L0.0799999 6.816L0.112 6.792L0.152 6.776L0.176 6.752L0.208 6.72L0.248 6.704L0.288 6.696L0.312 6.664L0.352 6.656L0.384 6.624L0.408 6.6L0.4 6.56L0.368 6.528L0.328 6.52L0.288 6.504L0.248 6.488L0.208 6.48H0.152L0.128 6.448H0.0719999L0.032 6.432L0.0719999 6.424L0.112 6.408L0.152 6.392H0.208L0.232 6.368H0.288L0.312 6.344H0.368L0.4 6.312L0.44 6.296L0.48 6.288L0.52 6.272L0.544 6.248L0.52 6.216L0.48 6.208L0.44 6.192L0.4 6.176L0.352 6.16L0.312 6.152H0.264L0.232 6.12H0.176H0.128L0.0799999 6.112L0.0959999 6.072L0.136 6.056L0.176 6.04L0.216 6.024L0.264 6.016L0.288 5.984H0.344L0.368 5.96L0.408 5.944L0.448 5.936L0.496 5.92L0.536 5.904L0.56 5.88H0.616L0.64 5.848L0.68 5.84L0.64 5.824H0.584H0.536L0.504 5.8H0.448H0.4H0.344L0.304 5.784L0.328 5.752L0.368 5.744L0.4 5.712L0.424 5.688L0.448 5.664L0.496 5.648L0.52 5.616L0.56 5.608L0.584 5.576L0.632 5.568L0.656 5.536L0.632 5.512L0.584 5.496H0.536H0.48L0.448 5.472H0.4H0.344H0.288H0.232L0.192 5.456L0.168 5.432L0.192 5.4L0.216 5.376L0.264 5.36L0.288 5.336L0.312 5.304L0.344 5.28L0.384 5.264L0.408 5.24L0.44 5.208V5.16L0.424 5.12L0.384 5.104L0.352 5.08L0.384 5.048L0.408 5.024L0.448 5.008L0.48 4.984L0.504 4.952L0.536 4.928L0.576 4.912L0.6 4.888L0.632 4.856L0.672 4.848L0.696 4.816L0.72 4.792L0.752 4.76L0.792 4.752L0.816 4.72L0.848 4.696L0.872 4.664L0.832 4.656L0.808 4.624L0.768 4.616L0.72 4.6L0.696 4.576L0.656 4.56L0.616 4.544L0.576 4.528L0.536 4.52L0.52 4.48L0.544 4.448L0.576 4.424L0.6 4.392L0.632 4.368L0.656 4.344L0.68 4.312L0.72 4.304L0.736 4.256L0.712 4.232L0.68 4.208L0.656 4.176L0.632 4.152L0.6 4.12L0.56 4.112L0.536 4.08L0.504 4.056L0.464 4.04L0.44 4.016V3.96L0.464 3.936L0.496 3.904L0.52 3.88L0.544 3.848L0.576 3.824L0.6 3.8L0.632 3.768V3.712V3.664L0.6 3.632L0.584 3.592L0.576 3.552L0.544 3.528L0.536 3.488L0.52 3.44L0.496 3.416L0.48 3.376L0.464 3.336L0.44 3.304L0.424 3.264L0.4 3.24L0.352 3.224L0.312 3.216L0.288 3.184L0.248 3.168L0.208 3.16L0.176 3.128L0.168 3.088L0.208 3.08H0.264H0.312H0.368H0.424H0.48H0.536L0.576 3.064L0.544 3.032L0.52 3.008L0.496 2.984L0.464 2.952L0.448 2.912L0.424 2.888L0.4 2.856L0.368 2.832L0.344 2.808L0.312 2.776L0.288 2.752L0.264 2.72L0.232 2.696L0.208 2.672V2.64L0.248 2.656L0.288 2.672H0.344L0.368 2.696H0.424H0.48V2.672L0.464 2.624L0.44 2.6V2.544L0.408 2.52L0.4 2.48L0.384 2.44L0.352 2.408V2.352L0.4 2.344L0.424 2.368L0.448 2.344L0.464 2.304V2.248V2.192L0.48 2.152L0.496 2.112V2.056V2L0.504 1.96L0.52 1.92V1.864H0.544L0.576 1.896L0.6 1.92L0.632 1.944H0.656V1.896L0.68 1.864L0.696 1.824L0.712 1.784L0.72 1.744L0.736 1.704V1.648L0.768 1.624V1.568L0.776 1.528L0.792 1.488H0.816V1.536V1.592H0.848L0.872 1.568L0.888 1.528L0.904 1.488L0.928 1.456L0.944 1.416L0.952 1.376L0.984 1.352V1.296L1.008 1.264L1.024 1.224L1.04 1.184L1.048 1.144L1.08 1.176L1.088 1.216V1.264H1.12L1.144 1.24L1.16 1.2L1.176 1.16L1.2 1.128L1.216 1.088L1.224 1.048L1.256 1.024L1.264 0.984L1.28 0.944L1.312 0.912L1.32 0.872L1.352 0.904L1.36 0.944V0.992V1.048L1.376 1.088L1.392 1.128V1.184V1.24H1.416L1.432 1.2L1.448 1.16L1.472 1.128L1.488 1.088L1.496 1.048L1.512 1.008L1.528 0.968L1.552 0.944L1.568 0.904L1.584 0.856L1.592 0.816L1.608 0.776L1.632 0.752V0.696L1.664 0.672L1.672 0.632L1.688 0.584H1.712L1.728 0.632L1.744 0.672V0.72L1.768 0.752V0.808V0.856L1.8 0.888V0.944H1.824L1.84 0.904L1.848 0.856L1.88 0.832V0.776L1.904 0.752L1.92 0.712L1.936 0.672L1.96 0.64L1.976 0.6L1.984 0.56L2.016 0.536V0.48L2.04 0.448L2.072 0.424L2.08 0.384L2.112 0.36L2.12 0.4L2.136 0.44L2.152 0.48V0.536L2.168 0.576L2.176 0.616V0.672L2.208 0.696L2.216 0.736L2.232 0.696L2.256 0.672L2.272 0.632L2.288 0.584L2.312 0.56L2.328 0.52L2.344 0.48L2.368 0.448L2.384 0.408L2.392 0.368L2.424 0.344L2.44 0.304L2.448 0.264L2.48 0.232L2.488 0.192L2.504 0.152L2.528 0.128L2.544 0.0880001L2.584 0.0959999L2.6 0.136L2.616 0.176L2.624 0.224L2.64 0.264L2.656 0.304L2.696 0.288L2.72 0.264L2.752 0.232L2.76 0.192L2.792 0.224L2.808 0.264L2.816 0.304L2.832 0.344L2.848 0.384L2.856 0.424L2.872 0.464L2.888 0.504L2.896 0.544L2.928 0.576L2.944 0.536L2.968 0.504L2.984 0.464L2.992 0.424L3.024 0.4L3.032 0.36L3.048 0.312L3.064 0.272L3.08 0.232L3.104 0.208H3.128L3.16 0.232L3.168 0.272L3.2 0.304L3.216 0.344L3.24 0.368L3.256 0.408L3.264 0.448H3.296V0.4L3.32 0.368V0.312V0.264V0.208H3.352L3.376 0.232V0.288L3.392 0.328L3.4 0.368L3.416 0.408L3.432 0.448L3.44 0.496L3.472 0.52L3.48 0.56L3.512 0.584L3.528 0.632L3.552 0.656L3.576 0.68L3.608 0.712L3.632 0.736L3.664 0.768L3.688 0.792L3.712 0.816L3.744 0.848L3.76 0.808V0.752V0.696L3.784 0.672V0.616V0.56V0.504V0.448V0.4V0.344V0.288V0.232L3.768 0.192L3.76 0.152V0.0959999V0.0400002L3.768 0L3.8 0.032L3.808 0.0720001L3.84 0.0959999L3.864 0.128L3.88 0.168L3.896 0.208L3.92 0.232L3.936 0.272L3.944 0.312L3.976 0.344L3.984 0.384L4 0.424L4.016 0.464L4.032 0.504L4.056 0.536V0.584L4.08 0.616V0.672L4.112 0.696V0.752L4.12 0.792L4.136 0.832L4.152 0.872L4.168 0.832L4.176 0.792L4.192 0.752L4.208 0.712L4.216 0.672L4.232 0.632L4.248 0.584L4.256 0.544L4.272 0.504L4.288 0.464L4.304 0.424L4.312 0.384L4.328 0.344L4.344 0.304L4.352 0.264L4.368 0.224L4.408 0.232L4.424 0.272L4.44 0.312L4.464 0.344L4.48 0.384L4.504 0.408L4.52 0.448L4.544 0.48L4.56 0.52L4.576 0.56L4.6 0.584L4.616 0.632L4.624 0.672L4.656 0.696L4.664 0.736L4.68 0.776L4.712 0.808L4.72 0.848L4.752 0.872L4.76 0.912H4.792V0.856L4.8 0.816L4.816 0.776V0.72L4.832 0.68L4.848 0.64V0.584L4.872 0.56V0.504H4.896L4.912 0.544L4.928 0.584V0.64L4.952 0.672V0.72L4.968 0.768L4.984 0.808V0.856L5.008 0.888V0.944L5.032 0.968V1.024L5.048 1.064L5.064 1.024L5.088 0.992V0.944H5.12V0.992V1.048V1.104V1.16V1.216V1.264V1.32L5.128 1.36L5.144 1.4L5.16 1.448L5.184 1.416L5.2 1.376L5.224 1.352L5.264 1.336L5.296 1.312L5.336 1.32V1.376V1.432V1.488V1.536V1.592V1.648V1.704L5.304 1.728L5.32 1.768L5.344 1.744L5.376 1.72L5.4 1.688L5.432 1.664L5.472 1.648L5.496 1.624L5.536 1.608L5.568 1.584L5.608 1.568L5.648 1.552L5.672 1.528H5.728L5.768 1.512H5.8L5.824 1.536V1.592V1.648L5.8 1.672V1.728V1.784L5.784 1.824L5.768 1.864V1.92L5.744 1.944L5.752 1.992L5.784 1.96L5.808 1.936L5.84 1.904L5.864 1.88L5.904 1.864L5.944 1.856L5.976 1.824L6.016 1.808L6.056 1.8L6.08 1.768H6.136L6.16 1.744L6.176 1.784V1.84V1.896L6.16 1.936L6.152 1.976V2.032L6.12 2.056L6.112 2.096L6.096 2.136H6.12L6.152 2.112L6.192 2.096L6.232 2.08L6.272 2.072H6.328L6.368 2.08L6.352 2.128L6.344 2.168L6.328 2.208L6.312 2.248L6.296 2.288L6.288 2.328L6.272 2.368L6.256 2.408L6.232 2.44L6.216 2.48L6.2 2.52L6.176 2.544L6.152 2.576L6.16 2.616L6.192 2.584L6.232 2.576L6.272 2.56L6.312 2.544L6.352 2.536L6.392 2.52L6.432 2.504L6.448 2.544L6.432 2.584L6.424 2.624L6.392 2.656V2.712L6.368 2.736L6.352 2.776L6.344 2.816L6.312 2.848L6.296 2.888L6.272 2.912L6.256 2.952L6.232 2.984L6.216 3.024L6.192 3.048L6.176 3.088L6.152 3.12H6.176L6.216 3.104L6.256 3.088L6.296 3.08L6.344 3.064H6.368V3.12L6.344 3.144V3.2L6.312 3.224V3.28L6.288 3.304L6.272 3.352L6.256 3.392L6.248 3.432V3.456L6.272 3.432L6.296 3.4L6.344 3.392L6.384 3.376L6.408 3.352L6.448 3.336L6.488 3.32H6.544L6.56 3.36L6.528 3.392L6.52 3.432L6.504 3.472L6.48 3.496L6.464 3.536L6.448 3.576L6.424 3.608L6.392 3.632L6.384 3.672L6.368 3.712L6.344 3.744L6.312 3.768L6.296 3.808L6.272 3.84L6.256 3.88L6.232 3.904L6.2 3.936L6.192 3.976L6.16 4L6.152 4.04V4.096L6.12 4.12V4.176L6.096 4.208V4.256L6.072 4.288L6.056 4.328L6.04 4.368L6.024 4.408L6.016 4.448L5.984 4.48L5.976 4.52L5.96 4.56L5.928 4.584L5.92 4.624L5.904 4.664L5.88 4.696L5.864 4.736L5.848 4.776L5.824 4.8L5.8 4.832L5.784 4.872L5.768 4.912L5.744 4.936L5.712 4.968L5.744 4.992V5.048L5.728 5.088L5.712 5.128V5.184V5.24L5.704 5.28V5.304L5.744 5.296L5.784 5.28L5.808 5.256L5.84 5.224L5.864 5.2L5.888 5.168L5.92 5.144L5.944 5.12L5.96 5.08L5.984 5.048H6.016V5.104L5.984 5.128V5.184L5.976 5.224L5.96 5.264V5.32L5.976 5.36L5.984 5.32L6.016 5.296L6.04 5.264L6.056 5.224L6.08 5.2L6.096 5.16L6.12 5.128L6.152 5.104L6.16 5.064L6.192 5.032L6.216 5.008L6.232 4.968L6.256 4.936L6.288 4.912L6.296 4.872L6.312 4.912V4.968V5.024V5.08L6.296 5.12L6.288 5.16V5.208L6.272 5.256L6.256 5.296V5.352L6.248 5.392L6.232 5.432V5.48L6.216 5.528L6.2 5.568V5.616L6.176 5.648V5.704L6.152 5.728L6.16 5.768L6.176 5.728L6.2 5.704L6.216 5.664L6.248 5.632L6.256 5.592L6.288 5.568L6.296 5.528L6.328 5.496L6.352 5.472L6.368 5.512L6.344 5.536V5.592V5.648L6.328 5.688L6.312 5.728V5.784V5.84L6.296 5.88L6.288 5.92V5.976V6.024L6.272 6.072L6.256 6.112V6.16V6.216L6.232 6.248V6.296V6.352H6.2L6.192 6.312L6.176 6.352V6.408V6.464L6.152 6.488L6.176 6.52V6.568V6.624V6.68V6.736V6.792L6.192 6.832L6.216 6.8L6.232 6.76L6.256 6.736L6.272 6.696L6.288 6.656L6.328 6.64L6.344 6.68L6.352 6.72L6.368 6.76V6.816L6.392 6.84L6.408 6.888L6.424 6.928L6.432 6.968L6.448 7.008L6.48 7.032L6.488 7.072L6.504 7.032V6.976L6.528 6.952V6.896V6.84L6.544 6.8L6.584 6.816L6.616 6.84L6.64 6.872L6.664 6.896L6.68 6.936L6.704 6.968L6.736 6.992L6.752 7.032L6.776 7.064L6.8 7.088L6.816 7.128L6.84 7.16L6.856 7.2L6.888 7.224L6.896 7.264L6.936 7.248V7.2L6.912 7.168V7.112V7.064H6.936L6.952 7.104L6.968 7.144L6.992 7.168L7.008 7.208L7.024 7.248L7.048 7.28H7.072L7.088 7.24L7.112 7.264L7.144 7.296L7.168 7.32L7.208 7.336L7.24 7.36L7.264 7.384L7.296 7.416L7.336 7.432H7.384H7.44V7.4L7.432 7.36L7.4 7.336L7.376 7.304L7.416 7.296H7.472L7.496 7.32L7.536 7.336L7.576 7.344H7.632H7.688L7.712 7.32L7.728 7.28L7.768 7.264H7.824L7.848 7.296H7.904L7.928 7.32H7.984L8.024 7.304L8.04 7.264H8.096H8.152H8.2L8.248 7.248L8.272 7.224L8.288 7.184H8.336L8.384 7.2L8.424 7.208H8.472H8.528L8.568 7.2V7.144L8.584 7.104H8.64L8.68 7.112L8.72 7.128L8.744 7.16L8.792 7.144V7.088V7.032V6.976L8.76 6.952L8.792 6.928L8.832 6.912L8.872 6.928L8.896 6.952L8.936 6.968L8.968 6.992L8.976 7.032L9.008 7.064L9.032 7.088L9.064 7.112L9.104 7.128L9.128 7.16H9.184H9.24L9.28 7.144L9.304 7.112L9.344 7.104L9.376 7.128L9.4 7.16L9.44 7.168L9.48 7.184L9.512 7.208L9.536 7.24L9.576 7.248H9.608L9.632 7.224L9.656 7.2L9.696 7.184L9.728 7.208L9.768 7.224L9.792 7.248L9.832 7.264L9.864 7.296L9.888 7.32L9.928 7.336L9.968 7.344L10.016 7.36L10.056 7.376H10.104H10.16H10.216L10.24 7.4L10.288 7.416L10.328 7.432L10.368 7.44L10.408 7.456L10.448 7.472L10.488 7.48H10.544L10.568 7.512H10.624H10.68L10.704 7.536H10.76H10.816L10.856 7.552L10.896 7.568H10.952H11.008H11.056H11.112L11.144 7.536L11.168 7.512L11.208 7.52L11.232 7.552L11.264 7.576L11.304 7.592L11.328 7.616H11.384H11.44L11.464 7.648H11.52L11.552 7.616H11.6L11.648 7.608H11.672L11.696 7.632L11.736 7.648L11.784 7.632L11.792 7.592L11.832 7.608L11.872 7.616L11.904 7.648L11.928 7.672L11.968 7.688H12V7.632L11.968 7.608V7.552L11.984 7.512L12.008 7.536L12.056 7.552L12.08 7.576L12.12 7.592L12.144 7.616H12.2L12.232 7.648H12.28L12.296 7.608L12.312 7.568L12.336 7.536L12.368 7.568L12.408 7.576L12.448 7.592L12.472 7.616L12.512 7.632L12.552 7.648L12.584 7.672L12.624 7.688L12.664 7.704L12.688 7.728L12.704 7.688V7.632V7.576V7.52H12.736L12.76 7.552L12.776 7.592L12.816 7.608L12.856 7.616L12.896 7.608L12.92 7.576L12.936 7.536L12.96 7.568L13 7.576L13.032 7.608L13.072 7.616L13.096 7.648L13.128 7.672L13.168 7.688L13.208 7.704L13.232 7.728L13.264 7.752L13.304 7.744V7.688L13.32 7.648L13.36 7.656L13.384 7.688L13.424 7.704L13.456 7.728L13.48 7.752H13.536L13.56 7.784H13.616L13.632 7.744V7.688L13.656 7.656L13.672 7.616L13.696 7.648L13.736 7.656L13.776 7.672L13.808 7.704L13.832 7.728L13.872 7.744L13.904 7.768L13.944 7.784L13.968 7.808H14.024L14.04 7.768L14.048 7.728L14.064 7.688H14.096L14.12 7.712L14.16 7.728L14.184 7.752L14.232 7.768L14.272 7.784L14.312 7.768V7.712V7.656L14.352 7.648L14.376 7.672L14.408 7.704L14.432 7.728L14.472 7.744H14.504L14.528 7.712L14.544 7.672L14.568 7.648L14.592 7.672L14.624 7.704L14.648 7.728L14.68 7.752L14.704 7.784L14.728 7.808L14.76 7.84L14.8 7.848L14.824 7.88L14.864 7.888L14.896 7.92L14.92 7.944L14.96 7.96L15 7.976L15.032 8L15.072 7.984L15.096 7.96V7.904L15.112 7.864L15.136 7.84L15.184 7.848L15.224 7.864H15.272H15.328L15.36 7.888H15.408L15.456 7.904L15.496 7.92L15.536 7.936L15.576 7.944L15.6 7.976L15.64 7.984L15.672 8.016L15.712 8.024L15.736 8.056L15.768 8.08L15.776 8.04L15.808 8.016V7.96L15.816 7.92L15.856 7.936L15.888 7.96L15.912 7.984L15.952 8L15.968 7.96L16 7.936L16.008 7.888L16.048 7.904L16.08 7.936L16.12 7.944L16.144 7.976L16.176 8L16.2 8.024L16.224 8.056L16.256 8.024L16.272 7.984L16.28 7.944L16.32 7.96L16.352 7.984L16.36 8.024L16.392 8.056L16.416 8.08L16.456 8.096L16.496 8.112H16.552H16.608L16.648 8.096L16.68 8.064L16.704 8.04L16.728 8.016V7.96H16.76L16.784 7.984L16.816 8.016L16.84 8.04L16.864 8.064L16.896 8.096L16.936 8.112L16.96 8.136L16.992 8.16L17.032 8.152L17 8.12L17.016 8.08L17.04 8.056L17.056 8.016V7.96L17.072 7.92L17.096 7.888L17.128 7.92L17.152 7.944L17.168 7.984L17.208 8H17.264H17.312L17.328 7.96L17.288 7.944L17.264 7.92V7.888H17.312L17.344 7.864H17.4L17.44 7.848L17.48 7.84H17.536L17.544 7.792L17.504 7.784L17.496 7.744L17.536 7.728H17.584L17.616 7.704H17.672V7.672L17.64 7.648L17.632 7.608L17.672 7.592H17.72L17.752 7.568H17.808H17.856L17.904 7.552L17.944 7.536L17.984 7.52L17.944 7.512L17.912 7.48L17.872 7.472L17.912 7.456L17.944 7.432H17.992H18.048H18.104H18.16L18.184 7.4H18.24H18.296H18.352H18.4H18.456H18.512H18.568H18.624L18.664 7.384L18.688 7.36L18.664 7.336L18.688 7.304L18.728 7.296H18.784L18.808 7.264L18.856 7.248L18.88 7.224L18.896 7.184H18.944L18.976 7.16L19.016 7.144L19.032 7.104H19.08L19.112 7.072L19.152 7.064L19.192 7.048L19.216 7.024L19.248 6.992H19.304L19.328 6.968H19.384L19.424 6.952L19.448 6.928L19.464 6.888L19.488 6.856L19.52 6.832L19.544 6.8L19.576 6.776L19.6 6.752L19.624 6.72L19.656 6.696L19.696 6.68L19.72 6.656L19.76 6.64L19.792 6.616L19.816 6.584L19.856 6.568L19.896 6.56L19.928 6.528L19.968 6.52L19.952 6.48L19.944 6.432L19.968 6.408L19.992 6.384L20.032 6.368L20.064 6.344L20.088 6.312L20.128 6.296L20.16 6.272L20.184 6.248L20.224 6.232L20.256 6.208L20.28 6.176L20.32 6.16L20.352 6.136L20.376 6.112L20.416 6.096L20.44 6.072L20.472 6.04L20.496 6.016L20.536 6L20.568 5.976L20.592 5.944L20.608 5.904L20.624 5.864L20.648 5.84L20.672 5.808L20.704 5.784L20.728 5.752L20.768 5.744L20.8 5.712L20.84 5.704L20.88 5.688L20.904 5.664H20.96L20.984 5.632L21.032 5.616L21.072 5.608L21.112 5.592L21.152 5.576L21.176 5.552L21.208 5.528L21.248 5.512L21.272 5.48L21.304 5.456L21.328 5.432L21.352 5.4L21.368 5.36L21.384 5.32L21.352 5.296L21.328 5.264L21.304 5.24L21.312 5.2L21.352 5.184L21.392 5.168L21.44 5.16L21.48 5.144L21.504 5.12H21.56L21.576 5.08L21.584 5.032L21.616 5.008L21.656 4.992L21.68 4.968L21.72 4.952L21.752 4.928L21.792 4.912L21.832 4.896L21.856 4.872L21.896 4.856L21.936 4.848L21.968 4.816L22.008 4.8L22.048 4.792L22.072 4.76H22.128L22.16 4.736H22.208L22.256 4.72L22.296 4.712H22.344H22.4L22.44 4.696L22.472 4.664L22.496 4.64L22.512 4.6L22.536 4.576L22.568 4.544L22.576 4.504L22.608 4.48L22.632 4.448L22.664 4.424L22.688 4.392L22.704 4.352L22.728 4.328L22.752 4.304L22.784 4.272L22.808 4.248L22.84 4.216L22.864 4.192L22.88 4.152L22.904 4.12L22.936 4.096L22.96 4.072L22.984 4.04L23.016 4.016L23.056 4L23.08 3.976L23.112 3.944L23.136 3.92L23.16 3.896L23.192 3.864L23.216 3.84L23.248 3.808L23.288 3.8L23.312 3.768L23.344 3.744L23.368 3.712L23.408 3.704L23.432 3.672L23.464 3.648L23.488 3.624L23.528 3.608L23.568 3.592L23.6 3.568L23.624 3.536L23.656 3.512H23.704L23.736 3.488H23.792H23.84L23.888 3.496L23.928 3.512L23.952 3.536L23.976 3.568L23.992 3.608L24.024 3.632V3.688L24.032 3.728L24.048 3.768V3.824V3.88V3.936L24.024 3.96V4.016V4.072V4.12L23.992 4.152V4.208V4.256H24.024L24.064 4.248L24.088 4.216H24.144L24.168 4.192H24.224H24.28H24.336L24.376 4.208L24.4 4.232L24.432 4.256L24.456 4.288L24.48 4.312V4.368L24.512 4.392V4.448V4.504L24.48 4.528V4.584L24.472 4.624L24.456 4.664L24.496 4.68L24.52 4.712H24.576L24.608 4.68L24.648 4.696L24.672 4.72H24.704L24.744 4.712L24.784 4.72L24.792 4.76L24.824 4.792L24.864 4.8L24.904 4.816L24.928 4.792L24.976 4.8L24.984 4.848L25.016 4.816L25.056 4.832L25.064 4.872L25.096 4.896L25.12 4.872L25.16 4.888L25.176 4.928L25.2 4.952L25.248 4.936H25.272L25.296 4.968L25.328 4.992H25.352H25.376L25.408 5.024L25.432 5.048L25.472 5.064L25.52 5.08L25.544 5.104L25.568 5.128L25.584 5.168L25.608 5.2H25.664L25.696 5.224L25.72 5.256L25.744 5.28L25.792 5.264H25.816L25.832 5.304L25.856 5.336L25.872 5.376L25.896 5.4L25.936 5.416L25.952 5.456L25.976 5.48L25.992 5.528L26.016 5.552L26.056 5.568L26.072 5.608L26.104 5.632L26.144 5.648L26.152 5.688L26.184 5.712H26.24L26.264 5.744L26.28 5.784L26.304 5.808L26.344 5.824L26.384 5.84V5.888L26.424 5.904L26.472 5.92V5.976L26.48 6.016L26.52 6.024L26.536 6.072L26.552 6.112L26.576 6.136V6.192L26.6 6.216V6.272L26.592 6.312V6.344L26.6 6.384V6.432L26.632 6.464V6.52L26.6 6.544V6.6L26.576 6.624L26.592 6.664L26.6 6.704V6.76L26.592 6.8L26.576 6.84L26.56 6.888L26.552 6.928V6.976V7.032L26.56 7.072L26.576 7.112L26.6 7.144L26.632 7.168L26.648 7.208L26.672 7.24L26.688 7.28L26.712 7.304L26.744 7.336L26.768 7.36L26.792 7.384L26.824 7.416L26.832 7.456L26.864 7.48L26.888 7.512L26.92 7.536L26.944 7.568L26.968 7.592L27 7.616L27.024 7.648L27.056 7.672L27.08 7.704L27.104 7.728L27.12 7.768L27.144 7.792L27.176 7.824L27.192 7.864L27.2 7.904V7.96V8.016V8.064V8.12L27.176 8.152L27.16 8.192L27.144 8.232L27.12 8.256L27.104 8.296L27.096 8.336L27.064 8.368L27.056 8.408L27.024 8.432L27.016 8.48V8.528L26.984 8.56V8.616V8.664L26.968 8.704L26.96 8.752L26.944 8.792L26.928 8.832L26.904 8.856L26.88 8.88L26.864 8.928L26.832 8.952L26.808 8.976L26.792 9.024L26.768 9.048L26.744 9.072L26.712 9.104L26.672 9.112L26.648 9.144L26.616 9.168L26.592 9.2L26.552 9.208L26.52 9.24L26.48 9.248L26.456 9.28L26.424 9.304L26.416 9.344V9.4V9.456L26.4 9.496L26.384 9.536L26.36 9.56L26.336 9.592L26.32 9.632L26.288 9.656L26.264 9.688L26.24 9.712L26.208 9.744L26.168 9.752L26.128 9.768L26.104 9.792H26.048L26.016 9.824L25.976 9.808L25.936 9.792H25.88L25.84 9.808L25.8 9.824H25.744H25.696L25.664 9.848L25.624 9.832H25.6L25.56 9.848L25.528 9.88H25.472H25.424L25.376 9.864L25.336 9.848L25.328 9.888V9.944L25.336 9.984L25.352 10.024V10.08L25.368 10.12L25.376 10.16V10.216L25.392 10.256L25.408 10.296V10.352V10.408V10.464L25.432 10.488V10.544V10.6V10.648V10.704V10.76V10.816V10.872V10.92L25.448 10.968L25.464 11.008V11.056V11.112L25.488 11.144V11.192V11.248V11.304V11.36V11.416V11.472V11.52L25.472 11.56L25.432 11.552L25.408 11.52H25.376V11.576L25.408 11.608V11.656L25.424 11.696L25.432 11.736V11.792V11.848V11.904V11.96L25.424 12H25.368L25.328 11.984L25.288 11.968V12L25.296 12.04V12.096V12.152L25.288 12.192L25.272 12.232L25.248 12.256V12.312V12.368V12.416V12.472V12.528V12.584L25.232 12.624L25.2 12.648H25.152L25.112 12.664L25.12 12.704L25.136 12.744L25.152 12.784L25.16 12.832V12.88V12.936L25.12 12.952L25.096 12.92L25.056 12.912L25.04 12.872L25.016 12.896L25 12.936V12.992V13.048V13.104V13.152V13.208V13.264V13.32V13.376H24.976L24.944 13.344L24.928 13.304L24.92 13.264L24.888 13.232L24.864 13.208H24.84L24.864 13.232V13.288V13.344V13.4V13.456V13.504V13.56L24.848 13.6L24.84 13.648V13.696L24.824 13.736L24.784 13.728L24.752 13.696L24.712 13.688L24.688 13.656L24.656 13.632L24.648 13.672V13.728V13.776V13.832V13.888V13.944V14V14.048V14.104V14.16V14.216H24.616L24.576 14.2L24.568 14.24V14.296V14.352V14.408V14.464V14.512L24.552 14.552L24.52 14.528L24.496 14.504H24.44L24.432 14.544L24.416 14.584L24.4 14.624V14.68L24.376 14.704V14.76L24.344 14.784V14.84L24.32 14.864V14.92L24.288 14.952V15.008L24.28 15.048L24.248 15.072L24.224 15.048L24.208 15.008L24.184 14.976H24.152V15.032V15.088L24.128 15.112V15.168L24.112 15.208L24.104 15.248V15.304L24.064 15.32L24.032 15.288L23.992 15.28L23.952 15.264H23.896L23.888 15.304L23.856 15.328V15.384L23.84 15.424L23.832 15.464V15.52L23.816 15.56L23.8 15.6L23.792 15.64L23.76 15.616L23.72 15.6L23.68 15.592L23.656 15.56L23.616 15.576L23.584 15.6V15.656L23.56 15.688V15.736L23.528 15.768V15.824L23.504 15.848V15.904L23.48 15.928V15.984L23.448 16.008V16.064L23.408 16.08L23.384 16.048L23.344 16.04L23.312 16.008L23.272 16L23.248 16.024L23.232 16.064L23.208 16.088L23.176 16.12L23.16 16.16L23.152 16.2L23.136 16.24L23.12 16.28L23.08 16.296L23.056 16.272H23L22.984 16.312L22.96 16.336L22.944 16.376L22.936 16.416L22.904 16.448L22.888 16.488L22.88 16.528L22.848 16.552V16.608L22.824 16.632V16.688L22.8 16.72H22.768L22.744 16.688L22.712 16.664L22.688 16.632L22.664 16.608L22.632 16.584L22.616 16.544L22.576 16.552L22.552 16.584L22.536 16.624L22.528 16.664L22.512 16.704L22.48 16.728L22.456 16.704L22.44 16.744V16.8L22.432 16.84H22.376L22.344 16.816L22.304 16.8L22.264 16.784L22.224 16.776H22.2V16.824L22.16 16.84H22.104H22.048L22.024 16.816H21.968L21.952 16.856L21.936 16.896L21.928 16.936L21.912 16.976H21.856L21.816 16.96L21.776 16.952L21.736 16.936L21.696 16.92L21.664 16.952L21.656 16.992V17.048L21.616 17.056H21.56L21.528 17.088L21.504 17.112L21.48 17.136H21.424H21.368L21.328 17.152L21.288 17.168L21.272 17.208L21.248 17.232L21.232 17.272L21.216 17.32L21.192 17.344L21.152 17.36H21.096L21.056 17.344L21.016 17.328H20.96L20.936 17.304L20.896 17.288L20.848 17.272L20.824 17.248L20.8 17.224L20.76 17.232V17.288L20.728 17.32L20.712 17.36L20.704 17.4L20.688 17.44L20.648 17.424L20.624 17.4L20.592 17.368L20.568 17.344L20.536 17.32L20.512 17.288L20.488 17.264H20.456V17.32V17.368V17.424L20.44 17.464L20.432 17.504V17.56H20.4L20.376 17.536L20.352 17.504L20.32 17.48H20.296L20.32 17.504V17.56V17.616V17.672L20.28 17.68L20.256 17.656L20.224 17.632L20.216 17.672L20.24 17.696V17.752V17.808V17.864V17.912V17.968V18.024L20.224 18.064L20.216 18.024L20.184 17.992L20.16 17.968H20.128V18.024V18.08V18.136L20.104 18.16V18.216V18.264L20.088 18.312L20.08 18.352H20.048L20.024 18.32L19.992 18.296H19.968L19.984 18.336L19.992 18.376V18.432V18.488L20.024 18.512V18.568H19.992L19.968 18.536L19.944 18.512L19.912 18.488L19.872 18.472V18.496L19.888 18.536L19.896 18.584L19.912 18.624H19.888L19.848 18.608L19.816 18.584L19.792 18.552L19.76 18.528L19.72 18.512L19.696 18.488H19.672L19.656 18.528L19.624 18.552L19.6 18.528L19.576 18.496L19.56 18.536V18.592L19.544 18.632V18.664L19.56 18.704V18.76V18.816L19.536 18.84V18.896L19.56 18.92L19.584 18.952L19.616 18.976V19.032L19.6 19.072L19.584 19.112L19.576 19.152L19.56 19.192L19.544 19.232L19.536 19.272V19.328V19.384L19.576 19.4L19.616 19.408L19.624 19.448H19.68L19.712 19.48L19.752 19.488L19.776 19.52L19.816 19.536L19.848 19.56L19.888 19.576L19.896 19.616L19.928 19.64L19.968 19.656L19.992 19.68L20.024 19.712L20.048 19.736L20.08 19.76L20.088 19.808L20.12 19.832L20.128 19.872L20.16 19.904L20.184 19.928L20.216 19.952L20.224 19.992L20.24 20.032L20.256 20.08L20.264 20.12L20.28 20.16L20.296 20.2L20.32 20.224V20.28V20.336L20.304 20.376L20.296 20.416V20.472L20.264 20.496L20.24 20.528L20.216 20.552L20.2 20.592L20.168 20.624L20.144 20.648L20.12 20.672L20.088 20.704L20.048 20.72L20.032 20.76H19.984L19.952 20.784H19.896H19.848L19.816 20.808L19.808 20.848V20.904V20.96V21.016L19.776 21.04L19.76 21.08L19.72 21.096L19.712 21.136L19.672 21.152L19.64 21.176L19.616 21.208L19.584 21.232L19.544 21.248L19.504 21.256L19.48 21.288L19.44 21.304H19.384L19.352 21.328L19.328 21.352H19.272H19.216L19.176 21.344L19.136 21.328L19.096 21.312L19.056 21.304L19.032 21.272L18.992 21.288L18.96 21.312L18.936 21.344L18.904 21.368L18.864 21.384L18.84 21.408Z" fill="var(--fill-0, #F9D02E)"/>
<path id="Vector_2" d="M8.896 19.384L8.872 19.36L8.84 19.328L8.816 19.304L8.792 19.272L8.76 19.248L8.736 19.216L8.704 19.192L8.696 19.152L8.664 19.128L8.64 19.096L8.608 19.072L8.584 19.04L8.56 19.016L8.528 18.992L8.504 18.96L8.472 18.936L8.464 18.896L8.432 18.864L8.408 18.84L8.384 18.816L8.352 18.784L8.336 18.744L8.312 18.72L8.288 18.688L8.272 18.648L8.248 18.624L8.216 18.592L8.192 18.568L8.176 18.528L8.152 18.496L8.136 18.456L8.112 18.432L8.08 18.408L8.064 18.36L8.04 18.336L8.024 18.296L8 18.264L7.976 18.24L7.96 18.2L7.944 18.16L7.92 18.136L7.888 18.104L7.88 18.064L7.864 18.024H7.84L7.808 18.048L7.792 18.088L7.768 18.12L7.744 18.088L7.728 18.048L7.704 18.024L7.688 17.984L7.656 17.952L7.648 17.912L7.616 17.888L7.592 17.864L7.576 17.816L7.552 17.848L7.536 17.888L7.52 17.928L7.512 17.968L7.48 17.992L7.456 18.024L7.44 18.064L7.416 18.088L7.4 18.136L7.416 18.176L7.432 18.216L7.44 18.256L7.456 18.296L7.48 18.32L7.512 18.352L7.536 18.376V18.432V18.488V18.536V18.592L7.552 18.632L7.568 18.68L7.576 18.72L7.592 18.76L7.616 18.784L7.632 18.824L7.656 18.856L7.688 18.88H7.744H7.792L7.84 18.896L7.88 18.904L7.904 18.936L7.944 18.952L7.976 18.976L8 19L8.04 19.016H8.096L8.136 19.032L8.176 19.04L8.2 19.072L8.216 19.112V19.168L8.232 19.208L8.248 19.248V19.304L8.288 19.312H8.336L8.368 19.288H8.424H8.472H8.528H8.584L8.624 19.304L8.664 19.312H8.72L8.744 19.344H8.8L8.832 19.368L8.872 19.384H8.896Z" fill="var(--fill-0, #F9D02E)"/>
</g>
</svg>
