<svg preserveAspectRatio="none" width="100%" height="100%" overflow="visible" style="display: block;" viewBox="0 0 27.144 25.048" fill="none" xmlns="http://www.w3.org/2000/svg">
<g id="Group">
<path id="Vector" d="M19.544 25.048H19.328H19.104H18.888H18.664H18.448H18.224L18.064 24.992L17.896 24.944H17.672H17.456H17.232H17.016L16.904 24.832L16.736 24.776L16.576 24.72L16.464 24.608L16.408 24.448L16.296 24.336L16.192 24.224L16.136 24.056L16.08 23.896L16.024 23.728L15.968 23.568L15.856 23.456V23.232L15.752 23.12L15.696 22.96L15.64 22.792L15.584 22.632L15.528 22.464L15.416 22.352V22.136L15.304 22.024L15.256 21.856L15.2 21.696L15.144 21.528L15.088 21.36L15.032 21.2L14.92 21.088L14.864 20.92V20.704V20.48L14.816 20.312L14.76 20.152L14.648 20.04V19.824L14.536 19.712V19.488V19.272V19.048L14.424 18.936L14.32 18.832V18.608L14.264 18.44L14.208 18.28L14.096 18.168L13.928 18.112L13.768 18.056L13.656 17.944L13.488 17.896L13.384 17.784H13.16L13.048 17.672H12.832L12.72 17.56L12.608 17.456L12.496 17.344L12.336 17.288L12.224 17.176L12.056 17.12L11.952 17.008L11.84 16.904L11.728 16.792L11.56 16.736L11.456 16.624L11.344 16.52L11.232 16.408L11.12 16.296L11.016 16.184L10.904 16.072L10.792 15.968L10.624 15.912L10.464 15.968L10.352 16.072V16.296V16.52L10.296 16.68L10.184 16.792L10.024 16.848V17.064L9.912 17.176V17.4L9.8 17.504L9.744 17.672L9.688 17.84L9.584 17.944L9.528 18.112L9.472 18.28L9.36 18.392L9.248 18.496L9.144 18.608L8.976 18.664L8.864 18.776L8.808 18.936L8.704 19.048L8.648 19.216L8.536 19.328L8.368 19.376L8.264 19.488V19.712V19.928V20.152V20.368L8.312 20.536L8.368 20.704L8.424 20.864L8.536 20.976L8.648 21.088L8.808 21.144L8.864 21.304L8.92 21.472L9.032 21.584L9.144 21.696L9.2 21.856V21.968L9.088 22.08L8.976 22.184L8.864 22.296L8.808 22.464L8.704 22.576L8.536 22.632L8.424 22.736H8.208H7.984H7.768H7.544H7.328H7.104H6.88H6.664H6.44H6.224H6H5.784H5.56L5.4 22.68L5.288 22.576L5.176 22.464V22.24L5.288 22.136L5.176 22.024V21.8L5.064 21.696L4.96 21.584L4.792 21.528L4.736 21.36L4.568 21.304L4.512 21.144L4.568 20.976L4.624 20.808V20.592L4.68 20.424V20.312L4.568 20.424L4.464 20.536L4.352 20.648L4.24 20.76L4.128 20.864L4.072 21.032L3.968 21.144L3.856 21.248L3.8 21.416L3.688 21.528L3.632 21.696L3.528 21.8V22.024V22.24V22.464L3.632 22.576V22.792V23.016V23.232L3.576 23.4L3.472 23.512L3.36 23.616H3.136L3.032 23.728H2.808H2.592H2.368H2.152H1.928H1.704H1.488H1.264L1.16 23.616L0.992 23.568L0.88 23.456L0.768 23.344L0.664 23.232L0.552 23.12L0.496 22.96L0.384 22.848L0.328 22.68L0.28 22.52L0.224 22.352L0.112 22.24V22.024L0.0559999 21.856L0 21.696L0.112 21.584L0.168 21.416L0.224 21.248L0.328 21.144V20.92V20.704L0.44 20.592V20.368L0.552 20.264L0.608 20.096L0.664 19.928V19.712V19.488V19.272V19.048V18.832V18.608L0.608 18.44L0.552 18.28V18.056V17.84L0.72 17.784L0.824 17.672L0.992 17.616L1.048 17.456L1.104 17.288L1.16 17.12L1.216 16.96L1.376 16.904L1.432 16.736V16.52L1.544 16.408L1.6 16.24L1.656 16.072L1.76 15.968L1.816 15.8L1.928 15.688L2.04 15.584V15.472L1.984 15.304V15.088V14.864V14.648L1.816 14.592V14.48L1.872 14.312L1.76 14.2V13.984V13.76V13.544V13.32V13.104V12.88V12.664L1.872 12.552V12.328L1.928 12.168L1.984 12V11.784V11.56V11.344V11.12L2.04 10.952L2.152 10.848L2.312 10.792L2.368 10.624L2.424 10.456L2.368 10.296L2.256 10.408L2.2 10.24L2.096 10.128L1.984 10.016L1.816 9.968L1.704 9.856L1.6 9.744L1.488 9.632L1.32 9.688L1.216 9.8L1.104 9.912L0.992 10.016L0.88 10.128H0.768V9.912V9.688V9.472V9.248L0.664 9.136V8.92L0.768 8.808L0.72 8.64L0.608 8.752L0.552 8.92V9.136L0.384 9.192L0.328 9.032V8.808L0.28 8.64V8.536L0.328 8.368L0.384 8.2L0.44 8.04L0.496 7.872L0.552 7.704L0.608 7.544L0.72 7.432L0.824 7.32L0.992 7.264L1.104 7.16L1.216 7.048L1.32 6.936L1.432 6.824L1.488 6.664L1.6 6.552L1.704 6.44L1.816 6.328L1.928 6.224L2.096 6.168L2.2 6.056L2.368 6L2.48 5.888L2.64 5.832L2.808 5.776L2.92 5.672L3.088 5.616L3.136 5.448L3.192 5.28L3.304 5.176L3.36 5.008L3.472 4.896L3.576 4.792L3.632 4.624L3.744 4.512L3.856 4.4L3.968 4.296L4.072 4.184L4.184 4.072L4.352 4.016L4.464 3.904H4.68H4.904H5.12L5.288 3.96L5.448 4.016H5.672H5.896H6.112L6.224 4.128L6.384 4.184L6.496 4.296L6.664 4.344L6.776 4.456L6.936 4.512L7.048 4.624L7.216 4.68L7.376 4.624L7.544 4.568L7.712 4.624L7.544 4.68L7.432 4.792L7.272 4.84L7.328 5.008L7.488 5.064L7.656 5.12L7.768 5.232H7.984L8.096 5.336H8.312L8.424 5.448L8.592 5.504L8.704 5.616L8.864 5.672L8.976 5.776L9.088 5.888L9.144 6.056H9.032L8.92 5.944L8.808 5.832L8.648 5.776L8.536 5.672V5.776L8.648 5.888L8.704 6.056L8.808 6.168L8.92 6.272L8.976 6.44L9.088 6.552L9.2 6.664L9.304 6.768L9.416 6.88L9.528 6.992L9.64 7.104L9.744 7.208V7.32L9.584 7.376L9.688 7.488L9.8 7.6L9.912 7.704L10.08 7.76L10.184 7.872H10.408H10.624L10.792 7.928L10.96 7.984L11.072 8.096H11.288H11.512L11.616 8.2H11.84H12.056H12.28H12.496H12.72L12.832 8.096H13.048L13.16 8.2H13.384L13.544 8.256L13.712 8.312H13.928L14.096 8.368L14.208 8.48L14.368 8.536H14.592H14.816L14.92 8.424L15.088 8.368L15.256 8.312L15.36 8.2H15.584H15.8H16.024H16.24L16.408 8.144L16.52 8.04L16.464 7.872L16.352 7.76L16.24 7.648L16.136 7.544L16.024 7.432L15.968 7.264L15.856 7.16L15.752 7.048V6.824L15.64 6.712V6.496L15.584 6.328L15.528 6.168L15.472 6L15.416 5.832L15.256 5.776L15.088 5.728V5.504V5.28V5.064V4.84L15.2 4.736V4.512L15.256 4.344L15.304 4.184L15.36 4.016L15.416 3.856L15.528 3.744L15.584 3.576L15.696 3.464L15.8 3.36L15.912 3.248L16.024 3.136L16.136 3.024L16.24 2.92L16.352 2.808L16.52 2.752L16.688 2.696L16.792 2.584L16.904 2.472L17.072 2.424L17.176 2.312L17.344 2.256L17.456 2.144L17.512 1.984L17.624 1.872L17.728 1.76L17.84 1.648L17.896 1.488L18.008 1.376L18.064 1.208L18.112 1.048H18.336L18.448 0.936L18.608 0.88L18.72 0.768L18.888 0.712H19.104H19.328H19.544H19.768H19.984L20.096 0.6H20.32H20.536L20.704 0.552L20.872 0.496L20.976 0.384L21.088 0.272L21.256 0.216L21.416 0.16H21.64H21.864H22.08H22.304L22.464 0.112L22.576 0H22.688L22.744 0.16L22.848 0.272L22.904 0.44L23.072 0.496L23.184 0.6L23.344 0.656L23.512 0.712L23.624 0.824L23.784 0.88L23.952 0.936L24.064 1.048L24.224 1.096L24.392 1.152L24.504 1.264L24.616 1.376L24.776 1.432L24.888 1.536L25.056 1.592L25.16 1.704L25.272 1.816L25.384 1.928L25.44 2.088L25.552 2.2L25.656 2.312L25.768 2.424L25.824 2.584L25.936 2.696L26.048 2.808L26.096 2.968L26.208 3.08L26.264 3.248L26.376 3.36L26.432 3.52L26.488 3.688L26.544 3.856L26.648 3.96L26.704 4.128L26.76 4.296L26.872 4.4V4.624L26.984 4.736V4.952L27.088 5.064V5.28L27.144 5.448V5.56L27.032 5.672L26.928 5.776L26.816 5.888L26.704 6L26.544 6.056L26.432 6.168L26.32 6.272L26.152 6.328L25.992 6.272L25.824 6.224L25.768 6.384L25.656 6.496L25.552 6.608L25.44 6.712L25.328 6.824L25.16 6.88L25.056 6.992L24.944 7.104L24.888 7.264L24.776 7.376L24.832 7.544L24.888 7.704L24.776 7.816L24.672 7.928V8.144V8.368L24.776 8.48V8.696V8.92L24.888 9.032V9.248L24.944 9.416V9.52L24.888 9.688L25 9.8V10.016L24.944 10.184L24.832 10.072L24.776 10.24V10.456L24.888 10.568L24.944 10.736L25 10.904L25.112 11.008L25 11.12V11.344L25.112 11.448L25.056 11.616L25 11.784L24.832 11.84L24.72 11.944V12.056L24.832 12.168L24.888 12.328V12.552L24.776 12.664L24.72 12.824L24.672 12.992L24.616 13.16L24.56 13.32L24.448 13.432L24.392 13.6L24.336 13.76L24.28 13.928L24.224 14.096V14.312V14.536L24.28 14.696L24.336 14.864L24.392 15.032L24.448 15.192L24.336 15.304V15.528L24.176 15.584L24.12 15.744L24.008 15.856L23.84 15.912L23.736 16.024L23.68 16.184L23.624 16.352L23.568 16.52L23.456 16.624L23.4 16.792L23.288 16.904L23.24 17.064L23.128 17.176L23.016 17.288L22.904 17.4V17.616L22.8 17.728L22.632 17.784L22.464 17.728L22.304 17.672L22.248 17.84L22.192 18L22.136 18.168L22.024 18.28V18.496V18.72L22.08 18.88L22.136 19.048L22.024 19.16L21.912 19.272L22.024 19.376L21.968 19.544H21.752V19.656V19.768L21.696 19.928V20.152L21.584 20.264L21.528 20.424L21.472 20.592L21.368 20.704L21.256 20.808L21.2 20.976H20.976V21.088L21.032 21.248L21.144 21.36L21.256 21.472L21.416 21.528L21.528 21.64L21.64 21.744L21.752 21.856L21.912 21.912L22.024 22.024L22.136 22.136L22.248 22.24L22.304 22.408L22.352 22.576L22.304 22.736L22.248 22.904V23.12L22.192 23.288L22.136 23.456L22.08 23.616L21.968 23.728L21.912 23.896L21.808 24.008L21.64 24.056H21.416H21.2L21.032 24.112H20.928H20.816L20.704 24.224L20.648 24.392L20.536 24.504L20.432 24.608L20.32 24.72L20.208 24.832L20.04 24.888L19.88 24.944H19.656L19.544 25.048Z" fill="var(--fill-0, #EC5998)"/>
</g>
</svg>
