<svg preserveAspectRatio="none" width="100%" height="100%" overflow="visible" style="display: block;" viewBox="0 0 24.736 27.2" fill="none" xmlns="http://www.w3.org/2000/svg">
<g id="Group">
<path id="Vector" d="M10.832 27.2H10.672H10.52H10.368H10.208H10.056H9.904H9.752H9.592H9.44H9.288H9.136H8.976H8.824H8.672H8.52H8.36H8.208H8.056L7.936 27.16L7.824 27.128L7.704 27.088L7.592 27.048L7.552 26.928V26.776L7.632 26.704L7.704 26.624L7.784 26.544L7.864 26.472L7.936 26.392L8.016 26.312L8.096 26.24L8.168 26.16L8.208 26.048L8.288 25.968L8.36 25.888L8.44 25.816L8.52 25.736L8.592 25.664L8.712 25.624L8.744 25.504L8.784 25.392V25.24L8.744 25.12L8.712 25.008V24.848L8.784 24.776V24.624V24.464V24.312V24.16V24V23.848L8.744 23.736L8.632 23.776H8.552L8.48 23.696L8.44 23.576L8.4 23.464L8.328 23.384L8.288 23.272L8.168 23.312V23.464L8.096 23.544V23.696L8.056 23.808L7.976 23.888H7.824L7.704 23.928L7.632 24L7.672 24.12L7.744 24.2L7.824 24.272L7.936 24.312L7.904 24.424L7.824 24.352L7.704 24.392L7.592 24.424L7.512 24.504H7.36H7.208L7.168 24.624V24.776L7.248 24.848V25.008L7.32 25.08L7.4 25.16L7.512 25.2H7.672V25.272L7.552 25.312L7.592 25.432L7.672 25.504H7.824L7.936 25.464L8.056 25.432L8.168 25.464L8.096 25.544L7.976 25.584L7.904 25.664L7.824 25.736L7.744 25.816H7.592L7.48 25.856L7.4 25.928L7.32 26.008L7.248 26.088L7.208 26.2L7.168 26.312L7.088 26.392V26.544L7.056 26.664L6.976 26.736L6.896 26.816L6.784 26.856L6.664 26.896H6.512L6.44 26.968H6.28H6.128H5.976H5.816H5.664H5.512H5.36H5.2H5.048H4.896H4.744H4.584H4.432H4.28H4.128H3.968H3.816H3.664L3.544 26.928L3.432 26.896L3.392 26.776L3.312 26.704V26.544V26.392L3.392 26.312L3.432 26.2L3.512 26.12L3.624 26.088L3.736 26.048L3.856 26.008L3.968 25.968L4.088 25.928L4.2 25.888L4.28 25.816L4.392 25.776L4.512 25.736L4.584 25.664L4.664 25.584L4.744 25.504L4.816 25.432L4.896 25.352L4.936 25.24L5.008 25.16V25.008L5.088 24.928L5.008 24.848V24.696L4.976 24.584L4.936 24.464V24.312L4.856 24.232V24.08L4.816 23.968L4.776 23.848L4.744 23.736L4.704 23.616L4.624 23.544V23.384V23.232V23.08L4.552 23H4.472L4.432 23.12L4.392 23L4.32 22.928V22.768L4.24 22.696V22.536L4.16 22.464V22.312L4.128 22.192L4.048 22.112L3.968 22.04L3.856 22L3.776 21.92L3.704 21.848L3.624 21.768L3.664 21.656L3.736 21.576L3.816 21.496L3.896 21.424L3.968 21.344V21.272L3.936 21.152L3.816 21.112L3.704 21.072L3.584 21.04L3.512 20.96H3.352L3.24 20.92L3.16 20.848L3.088 20.768L3.12 20.648L3.2 20.576L3.28 20.496L3.392 20.456L3.512 20.424L3.584 20.344L3.664 20.264L3.736 20.192L3.776 20.072V19.92V19.768L3.664 19.728L3.584 19.808L3.512 19.88L3.472 19.768L3.432 19.648L3.392 19.768L3.312 19.84H3.24V19.688L3.312 19.608L3.392 19.536L3.432 19.416L3.472 19.304L3.544 19.224V19.072V18.92L3.432 18.88L3.392 18.992L3.352 19.112L3.312 19.224H3.24L3.16 19.152L3.12 19.032L3.048 18.96L2.968 19.032L2.928 19.152L2.856 19.224L2.816 19.344L2.776 19.224L2.696 19.152L2.584 19.112L2.544 18.992L2.624 18.92L2.504 18.88L2.432 18.96L2.352 19.032L2.272 19.112L2.24 18.992L2.12 18.96L2.048 19.032L2.008 19.152L1.928 19.224H1.848L1.816 19.112V19.032L1.848 18.92L1.928 18.84L2.008 18.768L2.08 18.688L2.12 18.568L2.16 18.456L2.2 18.344L2.24 18.224L2.352 18.184L2.432 18.112L2.472 17.992L2.544 17.92L2.504 17.8H2.352L2.24 17.84L2.16 17.92L2.08 17.992L2.008 18.072L1.928 18.144L1.816 18.184L1.736 18.264L1.656 18.344L1.624 18.224V18.072L1.656 17.952L1.696 17.84L1.736 17.72L1.776 17.608L1.848 17.528L1.736 17.496L1.696 17.376L1.624 17.304L1.696 17.224L1.776 17.144L1.816 17.032L1.848 16.912L1.776 16.84L1.848 16.76L1.888 16.648L1.928 16.528L2.008 16.456L2.08 16.376L2.12 16.256L2.2 16.184L2.272 16.104L2.312 15.992L2.392 15.912L2.272 15.872L2.2 15.952L2.12 16.032L2.008 16.064L1.928 16.144H1.848L1.816 16.032V15.952L1.888 15.872L1.968 15.8L2.048 15.72L2.12 15.64L2.2 15.568L2.272 15.488L2.312 15.376L2.392 15.296L2.272 15.256V15.184L2.352 15.104L2.392 14.992L2.472 14.912L2.544 14.832L2.624 14.76L2.696 14.68L2.736 14.568L2.776 14.448L2.856 14.376V14.216L2.888 14.104L2.928 13.984L2.888 13.872L2.816 13.952H2.664L2.544 13.984L2.472 14.064L2.392 14.144L2.272 14.176L2.24 14.064H2.16L2.08 14.144L2.008 14.216L1.928 14.296L1.888 14.408L1.816 14.488L1.736 14.568L1.656 14.64L1.624 14.76L1.504 14.792L1.464 14.68L1.544 14.6L1.584 14.488L1.656 14.408L1.696 14.296L1.776 14.216L1.816 14.104L1.888 14.024L1.928 13.912V13.752L2.008 13.68L2.08 13.6L2.12 13.488L2.2 13.408L2.272 13.328L2.352 13.256L2.432 13.176L2.504 13.104L2.584 13.024L2.664 12.944L2.736 12.872L2.816 12.792L2.856 12.68L2.736 12.64L2.664 12.712H2.504L2.432 12.792L2.352 12.872L2.272 12.792H2.12L2.048 12.872L1.968 12.944L1.888 13.024L1.816 13.104L1.736 13.176L1.696 13.296L1.624 13.368L1.544 13.448L1.464 13.528L1.424 13.64L1.352 13.72L1.272 13.792L1.2 13.872L1.16 13.752L1.232 13.68L1.272 13.56L1.312 13.448L1.392 13.368L1.464 13.296L1.504 13.176L1.584 13.104L1.624 12.984L1.696 12.904L1.736 12.792L1.776 12.68L1.848 12.6L1.928 12.52L2.008 12.448H2.08L2.12 12.56L2.2 12.488L2.312 12.448L2.432 12.408L2.504 12.328L2.624 12.288L2.664 12.176L2.696 12.064L2.584 12.024L2.472 11.984L2.352 11.944L2.312 12.064H2.24L2.2 11.944L2.08 11.984L2.048 12.096L2.008 11.984L1.968 11.864L1.848 11.904L1.816 12.024L1.736 12.096L1.656 12.176L1.544 12.136L1.464 12.064L1.424 11.944L1.392 11.832L1.272 11.792H1.12L1.08 11.672V11.52V11.368V11.216L1.008 11.136H0.928L0.848 11.216L0.776 11.288V11.44V11.6L0.736 11.712L0.656 11.64L0.616 11.52V11.368V11.216L0.696 11.136L0.736 11.024L0.808 10.944L0.888 10.864L0.968 10.792L1.008 10.672L1.04 10.56L1.12 10.48L1.2 10.4L1.272 10.328L1.352 10.248L1.424 10.176L1.464 10.056L1.352 10.016L1.272 10.096L1.16 10.056L1.232 9.976L1.272 9.864L1.312 9.752L1.392 9.672L1.464 9.592L1.504 9.48L1.544 9.36L1.624 9.288L1.696 9.208L1.776 9.136V8.976L1.848 8.904L1.816 8.784L1.696 8.824L1.584 8.864L1.504 8.936L1.424 9.016L1.312 9.056L1.232 9.136L1.12 9.168L1.08 9.056L1.04 8.936L0.968 9.016L0.848 8.976L0.888 8.864L0.928 8.744L1.008 8.672L1.04 8.552L1.08 8.44L1.16 8.36H1.08L1.008 8.44L0.968 8.552L0.888 8.632L0.848 8.512V8.36V8.208H0.776L0.656 8.248L0.544 8.208L0.616 8.128L0.736 8.096L0.808 8.016L0.888 7.936L1.008 7.896L1.12 7.864L1.2 7.784L1.272 7.704L1.392 7.672L1.464 7.592L1.352 7.552L1.272 7.632L1.16 7.672L1.04 7.704L0.968 7.632L0.888 7.552L0.808 7.632L0.776 7.512L0.848 7.44L0.928 7.36L1.04 7.32V7.248V7.168L1.12 7.088L1.16 6.976L1.12 6.856H0.968L0.848 6.896L0.736 6.936L0.656 7.016L0.616 7.128L0.544 7.208L0.464 7.28L0.384 7.36L0.312 7.44L0.232 7.512L0.12 7.552L0.0400002 7.632L0 7.512L0.0800003 7.44L0.12 7.32L0.192 7.248L0.272 7.168L0.352 7.088L0.424 7.016L0.504 6.936L0.584 6.856L0.656 6.784L0.736 6.704L0.848 6.744L0.968 6.784L1.08 6.744L1.2 6.704L1.272 6.632V6.552L1.16 6.592L1.04 6.632L0.928 6.592V6.432V6.28V6.128L0.888 6.008L0.848 5.896L0.776 5.816L0.736 5.704L0.656 5.624L0.584 5.552L0.504 5.472L0.424 5.392L0.384 5.28L0.464 5.2V5.048V4.896V4.744V4.584V4.432L0.384 4.352V4.2L0.312 4.12V3.968L0.232 3.896L0.192 3.776L0.16 3.664V3.504L0.0800003 3.432V3.28V3.12V2.968V2.816L0.16 2.736V2.584L0.232 2.504L0.312 2.432L0.384 2.352L0.464 2.272L0.544 2.2L0.584 2.08L0.616 1.968V1.816L0.656 1.696L0.696 1.584V1.424L0.776 1.352L0.808 1.232L0.848 1.12L0.888 1L0.928 0.888L1.008 0.808V0.656L1.08 0.576L1.16 0.504L1.2 0.384L1.232 0.272L1.312 0.192L1.392 0.12L1.424 0H1.584H1.736L1.816 0.0799999H1.968L2.048 0.152H2.2L2.272 0.232L2.352 0.312L2.472 0.352L2.544 0.424L2.624 0.504L2.736 0.544L2.856 0.576L2.968 0.616H3.12L3.24 0.656L3.352 0.696L3.432 0.776L3.512 0.848L3.584 0.928L3.624 1.04L3.664 1.16L3.704 1.272L3.736 1.392L3.776 1.504L3.816 1.616L3.856 1.736L3.936 1.816V1.968L4.008 2.04L4.128 2.08H4.28L4.352 2.008L4.432 2.08L4.472 2.2V2.352V2.504V2.656L4.584 2.696L4.664 2.624L4.744 2.544L4.816 2.464L4.856 2.352L4.936 2.272L5.008 2.2H5.088V2.352V2.504V2.656V2.816V2.968L5.168 3.048L5.2 3.16L5.28 3.24L5.36 3.312L5.432 3.392L5.512 3.472L5.592 3.544L5.704 3.584L5.816 3.624L5.936 3.664L6.048 3.704H6.208H6.36H6.512H6.664H6.824L6.896 3.624L7.016 3.584L7.088 3.504L7.168 3.432L7.208 3.312L7.248 3.2L7.32 3.12L7.36 3.008L7.4 2.888L7.48 2.816L7.512 2.696L7.552 2.584L7.632 2.504L7.704 2.432L7.744 2.312L7.784 2.2L7.864 2.12L7.976 2.08L8.056 2.008L8.128 1.928L8.248 1.888L8.328 1.816L8.44 1.776L8.52 1.696L8.632 1.656L8.712 1.584L8.784 1.504L8.864 1.424L8.976 1.392L9.056 1.312L9.136 1.232L9.208 1.16L9.288 1.08L9.368 1L9.44 0.928L9.52 0.848L9.592 0.776L9.712 0.736L9.792 0.656L9.904 0.616L9.984 0.544H10.136L10.208 0.464H10.368L10.44 0.384H10.6H10.752H10.904H11.056H11.216L11.288 0.464L11.368 0.544L11.408 0.656L11.448 0.776L11.48 0.888V1.04V1.192L11.56 1.272L11.6 1.392L11.672 1.464L11.752 1.544L11.832 1.616L11.904 1.696L11.984 1.776L12.064 1.848V1.928L12.024 2.04L11.944 2.12V2.272L11.872 2.352V2.504L11.904 2.624L11.984 2.696L12.064 2.776L12.136 2.856L12.176 2.968V3.12V3.28V3.432V3.584L12.096 3.664L12.064 3.776L12.024 3.896L11.944 3.968L11.904 4.088L11.872 4.2L11.792 4.28L11.712 4.352L11.672 4.472L11.6 4.544L11.52 4.624L11.48 4.744L11.408 4.816L11.448 4.936L11.48 5.048L11.56 5.128L11.6 5.24L11.64 5.36L11.6 5.472L11.56 5.584L11.48 5.664L11.408 5.744L11.368 5.856L11.288 5.936L11.256 6.048L11.176 6.128V6.28L11.256 6.36L11.288 6.472L11.368 6.552L11.408 6.664L11.48 6.744L11.448 6.856H11.288H11.136L11.056 6.784L10.944 6.744L10.832 6.704V6.784L10.904 6.856L10.984 6.936L11.056 7.016L11.136 7.088L11.216 7.168L11.288 7.248L11.408 7.28L11.48 7.36L11.56 7.44L11.64 7.512L11.52 7.552L11.448 7.472H11.288L11.216 7.4H11.056L10.984 7.472L10.944 7.592V7.744L11.024 7.824L11.096 7.896L11.136 8.016L11.176 8.128L11.256 8.208V8.36L11.176 8.44L11.056 8.48L10.944 8.44L10.832 8.4L10.752 8.32L10.632 8.36L10.712 8.44L10.792 8.512L10.864 8.592L10.832 8.712L10.712 8.672L10.6 8.632L10.52 8.712L10.48 8.824L10.56 8.904L10.6 9.016L10.672 9.096L10.712 9.208L10.672 9.328H10.52H10.368L10.288 9.248V9.328L10.328 9.44L10.408 9.52L10.48 9.592L10.56 9.672L10.6 9.784L10.672 9.864L10.712 9.976V10.136L10.672 10.248L10.56 10.208H10.48V10.368V10.52L10.52 10.632L10.56 10.752V10.904L10.48 10.984L10.44 11.096L10.368 11.176L10.328 11.288L10.408 11.368V11.52L10.52 11.56L10.6 11.64L10.672 11.712L10.752 11.792L10.864 11.832L10.984 11.864L11.096 11.904L11.216 11.944H11.368L11.448 12.024H11.6L11.672 12.096H11.832H11.984H12.136H12.296H12.448L12.52 12.024H12.68H12.832H12.984H13.144H13.296H13.448H13.6L13.72 12.064L13.832 12.096H13.984L14.064 12.176H14.216H14.376H14.528L14.64 12.216L14.76 12.256H14.912H15.064H15.224H15.376H15.528H15.68H15.84L15.912 12.328H16.072H16.224H16.376L16.456 12.408H16.608H16.76L16.88 12.448L16.992 12.488L17.112 12.52L17.224 12.56H17.376L17.496 12.6L17.608 12.64H17.76H17.92H18.072H18.224L18.344 12.6L18.456 12.56H18.608L18.688 12.488H18.84H19H19.152H19.304H19.456H19.616H19.768L19.88 12.52L20 12.56H20.152H20.304L20.384 12.64H20.536H20.688H20.848L20.96 12.68L21.08 12.712H21.232H21.384H21.536H21.696L21.808 12.68L21.928 12.64H22.08L22.152 12.56L22.272 12.52L22.344 12.448L22.464 12.408L22.504 12.288L22.576 12.216L22.656 12.136L22.736 12.064V11.904L22.808 11.832V11.672L22.848 11.56V11.48L22.808 11.368V11.216V11.056L22.768 10.944L22.736 10.824L22.656 10.752L22.576 10.672L22.464 10.632L22.384 10.56L22.312 10.48L22.232 10.4L22.12 10.368L22 10.328L21.888 10.288L21.768 10.248H21.616H21.464H21.304L21.232 10.176H21.08H20.92L20.848 10.096H20.688H20.536L20.464 10.016H20.304H20.152H20H19.84L19.768 10.096L19.688 10.176L19.616 10.248L19.536 10.328L19.456 10.4L19.384 10.48L19.344 10.368L19.384 10.248L19.416 10.136L19.456 10.016L19.496 9.904L19.536 9.784L19.576 9.672L19.648 9.592L19.728 9.52L19.808 9.44L19.88 9.36L20 9.328L20.072 9.248L20.152 9.168H20.304L20.384 9.096L20.496 9.056L20.616 9.016L20.728 8.976L20.848 8.936H21H21.152L21.272 8.904L21.384 8.864H21.536H21.696H21.848H22L22.12 8.904L22.232 8.936H22.384L22.504 8.976L22.616 9.016L22.696 9.096L22.808 9.136L22.888 9.208L23 9.248L23.08 9.328L23.16 9.4L23.232 9.48L23.352 9.52L23.424 9.592L23.504 9.672L23.616 9.712L23.696 9.784L23.776 9.864H23.928H24.08L24.12 9.976L24.08 10.096L24.04 10.208L24.16 10.248H24.312L24.432 10.288L24.504 10.368L24.584 10.44V10.6L24.624 10.712L24.656 10.824V10.984V11.136V11.288L24.736 11.368L24.696 11.48L24.656 11.6V11.752L24.584 11.832V11.984L24.504 12.064L24.464 12.176L24.432 12.288L24.392 12.408L24.352 12.52L24.272 12.6L24.232 12.712L24.16 12.792L24.04 12.832L23.968 12.904L23.888 12.984L23.808 13.064L23.736 13.136V13.296L23.696 13.408L23.656 13.528L23.584 13.6L23.504 13.68L23.424 13.752L23.352 13.832L23.272 13.912L23.16 13.952L23.12 14.064L23.16 14.176L23.192 14.296L23.232 14.408L23.272 14.528L23.352 14.6L23.424 14.68L23.504 14.76L23.584 14.832L23.656 14.912L23.736 14.992L23.808 15.064V15.216L23.888 15.296L23.808 15.376L23.736 15.448L23.616 15.488L23.544 15.568H23.392L23.272 15.608L23.192 15.68L23.232 15.8L23.272 15.912L23.352 15.992V16.144V16.296L23.272 16.376L23.192 16.456V16.608L23.272 16.68L23.352 16.76L23.392 16.88L23.464 16.952L23.544 17.032L23.616 17.104L23.696 17.184L23.808 17.224L23.888 17.304L23.968 17.376L24.04 17.456L24.12 17.528L24.2 17.608L24.272 17.688V17.84V17.992V18.144V18.304L24.232 18.416L24.16 18.496L24.04 18.536L23.928 18.568H23.776H23.616L23.504 18.608L23.424 18.688L23.352 18.768L23.312 18.88L23.272 18.992V19.152L23.312 19.264L23.352 19.384V19.536L23.392 19.648V19.728L23.272 19.688L23.16 19.648L23.04 19.608L22.928 19.576L22.808 19.536L22.696 19.496V19.576L22.736 19.688L22.808 19.768L22.888 19.84L22.848 19.96V20.032V20.112L22.768 20.192V20.264L22.808 20.384L22.888 20.456V20.616L22.928 20.728L22.968 20.848L23.04 20.92V21.072L23.08 21.192L23.16 21.272L23.192 21.384L23.272 21.464L23.352 21.536L23.424 21.616L23.504 21.696V21.848L23.584 21.92V22.08V22.232L23.544 22.344L23.424 22.312L23.392 22.192L23.312 22.112L23.272 22.232H23.192L23.16 22.112L23.12 22L23.04 21.92L22.968 21.848L22.888 21.768L22.848 21.656L22.808 21.768L22.736 21.848L22.768 21.96L22.848 22.04L22.888 22.152L22.968 22.232L23 22.344L23.04 22.464L23.12 22.536V22.696V22.848V23V23.16V23.312L23.04 23.384V23.544V23.696L22.968 23.776L22.928 23.888L22.848 23.968L22.808 24.08L22.768 24.2L22.736 24.312L22.808 24.392L22.768 24.504L22.656 24.544L22.616 24.656L22.576 24.776L22.544 24.888L22.504 25.008L22.384 25.04L22.344 25.16L22.312 25.272L22.272 25.392L22.192 25.464V25.624V25.776V25.928V26.088V26.24L22.152 26.352L22.12 26.472L22.08 26.584L22.04 26.704L21.96 26.776L21.928 26.896H21.768H21.616H21.464H21.304H21.152H21H20.848H20.688H20.536H20.384L20.304 26.968H20.152H20H19.84H19.688H19.536H19.384L19.264 26.928L19.152 26.896H19H18.84H18.688L18.608 26.816H18.456H18.304H18.152L18.072 26.736L17.952 26.704L17.88 26.624V26.472V26.312V26.16L17.952 26.088L18.032 26.008L18.112 25.928L18.224 25.888L18.304 25.816L18.416 25.776L18.496 25.696L18.608 25.664L18.728 25.624L18.84 25.584H19L19.072 25.504L19.152 25.432L19.264 25.392L19.344 25.312L19.416 25.24L19.456 25.12L19.496 25.008L19.576 24.928V24.776L19.648 24.696V24.544V24.392V24.232V24.08L19.616 23.968L19.536 23.888H19.384L19.264 23.928L19.192 24L19.152 24.12L19.072 24.2L19 24.272L18.96 24.16L18.92 24.04L18.88 23.928L18.96 23.848V23.696L19 23.576L19.032 23.464V23.312V23.16H18.96L18.88 23.232L18.8 23.312L18.768 23.424L18.728 23.544H18.648V23.384L18.608 23.272L18.576 23.16H18.496L18.376 23.192L18.264 23.232L18.152 23.272L18.072 23.352L17.952 23.384L17.84 23.424L17.76 23.504L17.688 23.576L17.648 23.696H17.568V23.544L17.608 23.424L17.648 23.312L17.608 23.192L17.536 23.12L17.416 23.16L17.336 23.232L17.224 23.272L17.144 23.192L17.072 23.12L17.032 23L16.952 22.928L16.992 22.808L17.072 22.888L17.144 22.808L17.224 22.888L17.304 22.808L17.336 22.696L17.264 22.616L17.224 22.504L17.184 22.384L17.112 22.312L17.032 22.232L16.912 22.192L16.84 22.272L16.8 22.384L16.72 22.464L16.688 22.576H16.528L16.456 22.504L16.416 22.384V22.232L16.296 22.192L16.224 22.272L16.144 22.344L16.072 22.424L15.992 22.504L15.912 22.576H15.76L15.68 22.656L15.608 22.736L15.488 22.696V22.536L15.416 22.464L15.448 22.344H15.608L15.648 22.232L15.68 22.112L15.72 22V21.848L15.68 21.728L15.608 21.656L15.568 21.536H15.488V21.696L15.448 21.808L15.416 21.92L15.296 21.96L15.224 21.888L15.184 22L15.224 22.112L15.256 22.232L15.144 22.272L15.064 22.192H14.912L14.8 22.152L14.68 22.112L14.608 22.04L14.488 22L14.448 21.888L14.376 21.808L14.336 21.92L14.408 22L14.448 22.112L14.488 22.232L14.448 22.344H14.296H14.144H13.984L13.872 22.384L13.792 22.464V22.616V22.768L13.76 22.888L13.72 23L13.64 23.08L13.56 23.16L13.488 23.232V23.384V23.544V23.696L13.408 23.776H13.336L13.216 23.736L13.104 23.696L12.984 23.656L12.872 23.696L12.792 23.776V23.928L12.752 24.04V24.12L12.792 24.232H12.72L12.64 24.16L12.56 24.08L12.448 24.04L12.328 24.08L12.256 24.16L12.136 24.2L12.064 24.272L12.024 24.392L12.096 24.464L12.136 24.584L12.216 24.656L12.296 24.736L12.328 24.848L12.408 24.928L12.368 25.04H12.216L12.176 25.16L12.256 25.24L12.328 25.312L12.408 25.392L12.488 25.464L12.52 25.584L12.56 25.696L12.64 25.776V25.928L12.72 26.008L12.6 26.048H12.448L12.328 26.008L12.216 25.968L12.096 25.928L12.024 25.856L11.944 25.776L11.832 25.736L11.752 25.816L11.64 25.856V26.008V26.16L11.672 26.28L11.712 26.392L11.752 26.504L11.832 26.584L11.904 26.664L11.944 26.776L11.832 26.816L11.752 26.896L11.672 26.968L11.56 27.008L11.48 27.088L11.368 27.128H11.216H11.056H10.904L10.832 27.2Z" fill="var(--fill-0, #EC5998)"/>
</g>
</svg>
